<svg width="109" height="109" viewBox="0 0 109 109" fill="none" xmlns="http://www.w3.org/2000/svg">
<rect x="0.200439" y="0.381348" width="108.151" height="108.151" rx="10" fill="url(#paint0_linear_243_140)"/>
<g clip-path="url(#clip0_243_140)">
<path d="M54.2762 47.0141C54.0191 47.0141 53.7691 47.0284 53.5191 47.0498C53.2691 47.0784 53.0262 47.1141 52.7834 47.1641C52.5405 47.2141 52.3048 47.2784 52.0691 47.3498C51.8334 47.4212 51.6119 47.5069 51.3834 47.5998C51.1619 47.6927 50.9405 47.7998 50.7334 47.9141C50.5191 48.0284 50.3191 48.1569 50.1191 48.2855C49.9191 48.4141 49.7262 48.5641 49.5476 48.7141C49.3691 48.8641 49.1905 49.0284 49.0191 49.1927C48.8476 49.3569 48.6905 49.5355 48.5405 49.7212C48.3905 49.9069 48.2476 50.0998 48.1119 50.2927C47.9762 50.4927 47.8548 50.6927 47.7405 50.9069C47.6262 51.1212 47.5191 51.3355 47.4262 51.5569C47.3334 51.7784 47.2476 52.0069 47.1762 52.2427C47.1048 52.4784 47.0405 52.7141 46.9905 52.9569C46.9405 53.1998 46.9048 53.4427 46.8762 53.6927C46.8476 53.9427 46.8405 54.1927 46.8405 54.4498C46.8405 54.7069 46.8548 54.9569 46.8762 55.2069C46.9048 55.4569 46.9405 55.6998 46.9905 55.9427C47.0405 56.1855 47.1048 56.4212 47.1762 56.6569C47.2476 56.8927 47.3334 57.1141 47.4262 57.3427C47.5191 57.5641 47.6262 57.7784 47.7405 57.9927C47.8548 58.2069 47.9834 58.4069 48.1119 58.6069C48.2476 58.8069 48.3905 58.9998 48.5405 59.1784C48.6905 59.3641 48.8548 59.5355 49.0191 59.7069C49.1834 59.8784 49.3619 60.0355 49.5476 60.1855C49.7334 60.3355 49.9262 60.4784 50.1191 60.6141C50.3119 60.7498 50.5191 60.8712 50.7334 60.9855C50.9476 61.0998 51.1619 61.2069 51.3834 61.2998C51.6048 61.3927 51.8334 61.4784 52.0691 61.5498C52.3048 61.6212 52.5405 61.6855 52.7834 61.7355C53.0262 61.7855 53.2691 61.8212 53.5191 61.8498C53.7691 61.8784 54.0191 61.8855 54.2762 61.8855C54.5334 61.8855 54.7834 61.8712 55.0334 61.8498C55.2834 61.8212 55.5262 61.7855 55.7691 61.7355C56.0119 61.6855 56.2476 61.6212 56.4834 61.5498C56.7191 61.4784 56.9405 61.3927 57.1691 61.2998C57.3905 61.2069 57.6048 61.0998 57.8191 60.9855C58.0334 60.8712 58.2334 60.7427 58.4334 60.6141C58.6334 60.4784 58.8191 60.3355 59.0048 60.1855C59.1905 60.0355 59.3619 59.8712 59.5334 59.7069C59.7048 59.5427 59.8619 59.3641 60.0119 59.1784C60.1619 58.9927 60.3048 58.7998 60.4405 58.6069C60.5762 58.4141 60.6976 58.2069 60.8119 57.9927C60.9262 57.7784 61.0334 57.5641 61.1262 57.3427C61.2191 57.1212 61.3048 56.8927 61.3762 56.6569C61.4476 56.4212 61.5119 56.1855 61.5619 55.9427C61.6119 55.6998 61.6476 55.4569 61.6762 55.2069C61.7048 54.9569 61.7119 54.7069 61.7119 54.4498C61.7119 54.1927 61.6976 53.9427 61.6762 53.6927C61.6548 53.4427 61.6119 53.1998 61.5619 52.9569C61.5119 52.7141 61.4476 52.4784 61.3762 52.2427C61.3048 52.0069 61.2191 51.7855 61.1262 51.5569C61.0334 51.3355 60.9262 51.1212 60.8119 50.9069C60.6976 50.6927 60.5691 50.4927 60.4405 50.2927C60.3119 50.0927 60.1619 49.9069 60.0119 49.7212C59.8619 49.5355 59.6976 49.3641 59.5334 49.1927C59.3691 49.0212 59.1905 48.8641 59.0048 48.7141C58.8191 48.5641 58.6262 48.4212 58.4334 48.2855C58.2334 48.1498 58.0334 48.0284 57.8191 47.9141C57.6048 47.7998 57.3905 47.6927 57.1691 47.5998C56.9476 47.5069 56.7191 47.4212 56.4834 47.3498C56.2476 47.2784 56.0119 47.2141 55.7691 47.1641C55.5262 47.1141 55.2834 47.0784 55.0334 47.0498C54.7834 47.0284 54.5334 47.0141 54.2762 47.0141ZM54.2762 49.5855C54.4476 49.5855 54.6119 49.5927 54.7762 49.6069C54.9405 49.6212 55.1048 49.6498 55.2619 49.6784C55.4191 49.7141 55.5762 49.7498 55.7334 49.7998C55.8834 49.8498 56.0334 49.8998 56.1834 49.9641C56.3334 50.0284 56.4691 50.0927 56.6119 50.1712C56.7476 50.2427 56.8834 50.3284 57.0119 50.4141C57.1405 50.4998 57.2691 50.5927 57.3834 50.6927C57.5048 50.7927 57.6191 50.8998 57.7262 51.0069C57.8334 51.1141 57.9405 51.2355 58.0405 51.3498C58.1405 51.4712 58.2334 51.5927 58.3191 51.7212C58.4048 51.8498 58.4905 51.9855 58.5619 52.1212C58.6334 52.2569 58.7048 52.3998 58.7691 52.5498C58.8334 52.6927 58.8834 52.8427 58.9334 52.9998C58.9834 53.1498 59.0191 53.3069 59.0548 53.4712C59.0905 53.6284 59.1119 53.7927 59.1262 53.9569C59.1405 54.1212 59.1476 54.2855 59.1476 54.4569C59.1476 54.6284 59.1405 54.7927 59.1262 54.9569C59.1119 55.1212 59.0834 55.2855 59.0548 55.4427C59.0191 55.5998 58.9834 55.7569 58.9334 55.9141C58.8834 56.0641 58.8334 56.2141 58.7691 56.3641C58.7048 56.5141 58.6405 56.6498 58.5619 56.7927C58.4834 56.9355 58.4048 57.0641 58.3191 57.1927C58.2334 57.3212 58.1405 57.4498 58.0405 57.5641C57.9405 57.6784 57.8334 57.7998 57.7262 57.9069C57.6191 58.0141 57.4976 58.1212 57.3834 58.2212C57.2619 58.3212 57.1405 58.4141 57.0119 58.4998C56.8834 58.5855 56.7476 58.6712 56.6119 58.7427C56.4762 58.8141 56.3334 58.8855 56.1834 58.9498C56.0405 59.0141 55.8905 59.0641 55.7334 59.1141C55.5834 59.1641 55.4262 59.1998 55.2619 59.2355C55.1048 59.2712 54.9405 59.2927 54.7762 59.3069C54.6119 59.3212 54.4476 59.3284 54.2762 59.3284C54.1048 59.3284 53.9405 59.3212 53.7762 59.3069C53.6119 59.2927 53.4476 59.2641 53.2905 59.2355C53.1334 59.1998 52.9762 59.1641 52.8191 59.1141C52.6691 59.0641 52.5191 59.0141 52.3691 58.9498C52.2262 58.8855 52.0834 58.8212 51.9405 58.7427C51.8048 58.6712 51.6691 58.5855 51.5405 58.4998C51.4119 58.4141 51.2834 58.3212 51.1691 58.2212C51.0476 58.1212 50.9334 58.0141 50.8262 57.9069C50.7191 57.7998 50.6119 57.6784 50.5119 57.5641C50.4119 57.4427 50.3191 57.3212 50.2334 57.1927C50.1476 57.0641 50.0619 56.9284 49.9905 56.7927C49.9191 56.6569 49.8476 56.5141 49.7834 56.3641C49.7191 56.2141 49.6691 56.0712 49.6191 55.9141C49.5691 55.7641 49.5334 55.6069 49.4976 55.4427C49.4619 55.2855 49.4405 55.1212 49.4262 54.9569C49.4119 54.7927 49.4048 54.6284 49.4048 54.4569C49.4048 54.2855 49.4119 54.1212 49.4262 53.9569C49.4405 53.7927 49.4691 53.6284 49.4976 53.4712C49.5334 53.3141 49.5691 53.1569 49.6191 52.9998C49.6691 52.8427 49.7191 52.6998 49.7834 52.5498C49.8476 52.4069 49.9119 52.2641 49.9905 52.1212C50.0691 51.9784 50.1476 51.8498 50.2334 51.7212C50.3191 51.5927 50.4119 51.4641 50.5119 51.3498C50.6119 51.2284 50.7191 51.1141 50.8262 51.0069C50.9334 50.8998 51.0548 50.7927 51.1691 50.6927C51.2905 50.5927 51.4119 50.4998 51.5405 50.4141C51.6691 50.3284 51.8048 50.2427 51.9405 50.1712C52.0762 50.0998 52.2191 50.0284 52.3691 49.9641C52.5119 49.8998 52.6619 49.8498 52.8191 49.7998C52.9691 49.7498 53.1262 49.7141 53.2905 49.6784C53.4476 49.6427 53.6119 49.6212 53.7762 49.6069C53.9405 49.5927 54.1048 49.5855 54.2762 49.5855ZM61.7191 45.5284C61.7548 45.5284 61.7905 45.5284 61.8262 45.5355C61.8762 45.5355 61.9262 45.5427 61.9762 45.5569C62.0262 45.5641 62.0762 45.5784 62.1191 45.5927C62.1691 45.6069 62.2119 45.6212 62.2619 45.6427C62.3048 45.6641 62.3548 45.6784 62.3976 45.7069C62.4405 45.7284 62.4834 45.7569 62.5262 45.7784C62.5691 45.8069 62.6119 45.8355 62.6476 45.8641C62.6834 45.8927 62.7262 45.9284 62.7619 45.9641C62.7976 45.9998 62.8334 46.0355 62.8619 46.0712C62.8905 46.1069 62.9262 46.1498 62.9548 46.1927C62.9834 46.2355 63.0119 46.2784 63.0334 46.3212C63.0548 46.3641 63.0762 46.4069 63.0976 46.4569C63.1191 46.4998 63.1334 46.5498 63.1476 46.5998C63.1619 46.6498 63.1762 46.6927 63.1834 46.7427C63.1905 46.7927 63.1976 46.8427 63.2048 46.8927C63.2119 46.9427 63.2119 46.9927 63.2119 47.0427C63.2119 47.0784 63.2119 47.1141 63.2048 47.1498C63.2048 47.1998 63.1976 47.2498 63.1834 47.2998C63.1762 47.3498 63.1619 47.3998 63.1476 47.4427C63.1334 47.4927 63.1191 47.5355 63.0976 47.5855C63.0762 47.6284 63.0619 47.6784 63.0334 47.7212C63.0119 47.7641 62.9834 47.8069 62.9619 47.8498C62.9334 47.8927 62.9048 47.9284 62.8762 47.9712C62.8476 48.0069 62.8119 48.0498 62.7762 48.0855C62.7405 48.1212 62.7048 48.1569 62.6691 48.1855C62.6334 48.2141 62.5905 48.2498 62.5476 48.2784C62.5048 48.3069 62.4619 48.3355 62.4191 48.3569C62.3762 48.3784 62.3334 48.3998 62.2834 48.4212C62.2405 48.4427 62.1905 48.4569 62.1405 48.4712C62.0905 48.4855 62.0476 48.4998 61.9976 48.5069C61.9476 48.5141 61.8976 48.5212 61.8476 48.5284C61.7976 48.5355 61.7476 48.5355 61.6976 48.5355C61.6619 48.5355 61.6262 48.5355 61.5905 48.5284C61.5405 48.5284 61.4905 48.5212 61.4405 48.5069C61.3905 48.4998 61.3405 48.4855 61.2976 48.4712C61.2476 48.4569 61.2048 48.4427 61.1548 48.4212C61.1119 48.3998 61.0619 48.3855 61.0191 48.3569C60.9762 48.3355 60.9334 48.3069 60.8905 48.2855C60.8476 48.2569 60.8048 48.2284 60.7691 48.1998C60.7334 48.1712 60.6905 48.1355 60.6548 48.0998C60.6191 48.0641 60.5834 48.0284 60.5548 47.9927C60.5262 47.9569 60.4905 47.9141 60.4619 47.8712C60.4334 47.8284 60.4048 47.7855 60.3834 47.7427C60.3619 47.6998 60.3405 47.6569 60.3191 47.6069C60.2976 47.5641 60.2834 47.5141 60.2691 47.4641C60.2548 47.4141 60.2405 47.3712 60.2334 47.3212C60.2262 47.2712 60.2191 47.2212 60.2119 47.1712C60.2048 47.1212 60.2048 47.0712 60.2048 47.0212C60.2048 46.9855 60.2048 46.9498 60.2119 46.9141C60.2119 46.8641 60.2191 46.8141 60.2334 46.7641C60.2405 46.7141 60.2548 46.6641 60.2691 46.6212C60.2834 46.5712 60.2976 46.5284 60.3191 46.4784C60.3405 46.4355 60.3548 46.3855 60.3834 46.3427C60.4048 46.2998 60.4334 46.2569 60.4548 46.2141C60.4834 46.1712 60.5119 46.1355 60.5405 46.0927C60.5691 46.0569 60.6048 46.0141 60.6405 45.9784C60.6762 45.9427 60.7119 45.9069 60.7476 45.8784C60.7834 45.8498 60.8262 45.8141 60.8691 45.7855C60.9119 45.7569 60.9548 45.7284 60.9976 45.7069C61.0405 45.6855 61.0834 45.6641 61.1334 45.6427C61.1762 45.6212 61.2262 45.6069 61.2762 45.5927C61.3262 45.5784 61.3691 45.5641 61.4191 45.5569C61.4691 45.5498 61.5191 45.5427 61.5691 45.5355C61.6191 45.5284 61.6691 45.5284 61.7191 45.5284ZM52.8476 39.5784C52.0191 39.5784 51.2834 39.5784 50.6191 39.5927C49.9548 39.5998 49.3691 39.6141 48.8405 39.6427C48.3119 39.6641 47.8476 39.6927 47.4262 39.7355C47.2191 39.7569 47.0191 39.7784 46.8334 39.7998C46.6476 39.8212 46.4691 39.8498 46.3048 39.8784C46.1334 39.9069 45.9762 39.9355 45.8262 39.9712C45.6762 40.0069 45.5262 40.0427 45.3834 40.0784C45.2405 40.1141 45.1048 40.1569 44.9762 40.2069C44.8405 40.2498 44.7119 40.2998 44.5834 40.3498C44.3262 40.4498 44.0762 40.5641 43.8191 40.6927C43.6191 40.7855 43.4334 40.8855 43.2619 40.9855C43.0905 41.0927 42.9262 41.1998 42.7619 41.3212C42.5976 41.4498 42.4405 41.5784 42.2834 41.7284C42.1262 41.8712 41.9619 42.0355 41.7905 42.2141C41.5762 42.4355 41.3905 42.6498 41.2262 42.8569C41.1405 42.9569 41.0619 43.0569 40.9905 43.1569C40.9191 43.2569 40.8476 43.3641 40.7834 43.4712C40.7191 43.5784 40.6548 43.6784 40.5976 43.7927C40.5405 43.8998 40.4834 44.0141 40.4262 44.1284C40.3191 44.3641 40.2191 44.6141 40.1119 44.8927C40.0405 45.0998 39.9691 45.3069 39.9119 45.5212C39.8548 45.7355 39.7976 45.9641 39.7476 46.2141C39.6976 46.4569 39.6548 46.7212 39.6191 47.0141C39.5834 47.3069 39.5476 47.6212 39.5262 47.9784C39.4976 48.3355 39.4762 48.7212 39.4619 49.1569C39.4405 49.5927 39.4262 50.0712 39.4191 50.5998C39.4048 51.1284 39.3976 51.7141 39.3976 52.3569C39.3905 52.9998 39.3905 53.7069 39.3905 54.4784C39.3905 55.6427 39.3976 56.6641 39.4119 57.5641C39.4262 58.4641 39.4476 59.2427 39.4762 59.8998C39.4905 60.2284 39.5048 60.5355 39.5262 60.8141C39.5405 61.0927 39.5619 61.3427 39.5834 61.5712C39.6048 61.7998 39.6262 61.9998 39.6548 62.1855C39.6834 62.3712 39.7048 62.5212 39.7405 62.6569C39.8048 62.9427 39.8762 63.2141 39.9548 63.4784C40.0334 63.7427 40.1262 63.9998 40.2262 64.2498C40.3262 64.4998 40.4334 64.7355 40.5548 64.9641C40.6762 65.1927 40.7976 65.4141 40.9405 65.6284C41.0762 65.8427 41.2262 66.0427 41.3834 66.2355C41.5405 66.4284 41.7048 66.6141 41.8834 66.7927C42.0619 66.9712 42.2476 67.1427 42.4405 67.2998C42.6334 67.4641 42.8405 67.6141 43.0548 67.7569C43.2548 67.8927 43.4476 68.0141 43.6476 68.1212C43.8476 68.2355 44.0405 68.3355 44.2476 68.4284C44.4548 68.5212 44.6619 68.5998 44.8834 68.6784C45.1048 68.7498 45.3334 68.8212 45.5691 68.8784C45.8119 68.9355 46.0619 68.9855 46.3334 69.0355C46.6048 69.0855 46.8905 69.1212 47.1976 69.1498C47.5048 69.1784 47.8334 69.2069 48.1905 69.2355C48.5405 69.2569 48.9191 69.2784 49.3262 69.2927C49.9548 69.3141 50.9048 69.3284 51.9976 69.3355C53.0905 69.3427 54.3334 69.3355 55.5405 69.3284C56.7476 69.3212 57.9262 69.2998 58.8976 69.2784C59.3834 69.2641 59.8119 69.2569 60.1762 69.2427C60.5334 69.2284 60.8191 69.2141 61.0048 69.1998C61.1834 69.1855 61.3548 69.1712 61.5262 69.1498C61.6976 69.1284 61.8619 69.1069 62.0191 69.0784C62.1834 69.0498 62.3405 69.0212 62.4976 68.9927C62.6548 68.9569 62.8048 68.9212 62.9548 68.8855C63.1048 68.8498 63.2548 68.8069 63.3976 68.7569C63.5476 68.7141 63.6905 68.6641 63.8334 68.6069C63.9762 68.5498 64.1191 68.4927 64.2619 68.4355C64.4048 68.3784 64.5476 68.3069 64.6905 68.2427C64.9119 68.1355 65.0905 68.0498 65.2476 67.9641C65.4048 67.8784 65.5405 67.7927 65.6691 67.6927C65.8048 67.5927 65.9334 67.4855 66.0905 67.3427C66.2405 67.1998 66.4191 67.0355 66.6334 66.8212C66.8191 66.6355 66.9834 66.4712 67.1191 66.3212C67.2548 66.1712 67.3691 66.0355 67.4691 65.9069C67.5691 65.7784 67.6548 65.6569 67.7405 65.5212C67.8191 65.3927 67.8976 65.2569 67.9691 65.1069C68.0834 64.8855 68.1834 64.6784 68.2762 64.4784C68.3691 64.2784 68.4476 64.0855 68.5191 63.8927C68.5905 63.6998 68.6548 63.4998 68.7048 63.2927C68.7619 63.0855 68.8048 62.8641 68.8476 62.6212C68.8905 62.3784 68.9191 62.1141 68.9476 61.8212C68.9762 61.5284 69.0048 61.1998 69.0262 60.8355C69.0476 60.4712 69.0691 60.0641 69.0834 59.6069C69.0976 59.1498 69.1191 58.6427 69.1334 58.0784C69.1476 57.5355 69.1619 56.9641 69.1691 56.3784C69.1762 55.7927 69.1834 55.1998 69.1834 54.5998C69.1834 53.4069 69.1762 52.2069 69.1476 51.1069C69.1334 50.5569 69.1191 50.0284 69.1048 49.5427C69.0905 49.0569 69.0691 48.5998 69.0476 48.1998C69.0262 47.7998 69.0048 47.4427 68.9762 47.1498C68.9476 46.8569 68.9191 46.6284 68.8905 46.4712C68.8548 46.2998 68.8191 46.1284 68.7762 45.9569C68.7334 45.7927 68.6905 45.6284 68.6476 45.4641C68.5976 45.2998 68.5476 45.1427 68.4976 44.9927C68.4405 44.8355 68.3834 44.6855 68.3262 44.5427C68.2619 44.3927 68.1976 44.2498 68.1334 44.1069C68.0691 43.9641 67.9976 43.8284 67.9191 43.6927C67.8405 43.5569 67.7691 43.4284 67.6834 43.2998C67.5976 43.1712 67.5191 43.0498 67.4334 42.9284C67.3191 42.8141 67.2262 42.6927 67.1334 42.5784C67.0405 42.4641 66.9405 42.3498 66.8405 42.2427C66.7405 42.1355 66.6334 42.0284 66.5262 41.9284C66.4191 41.8284 66.3048 41.7284 66.1905 41.6355C66.0762 41.5427 65.9548 41.4498 65.8334 41.3569C65.7119 41.2641 65.5905 41.1855 65.4619 41.0998C65.3334 41.0212 65.2048 40.9355 65.0691 40.8641C64.9334 40.7855 64.7976 40.7141 64.6548 40.6498C64.4191 40.5355 64.2048 40.4355 63.9976 40.3498C63.7905 40.2641 63.5762 40.1855 63.3619 40.1141C63.1476 40.0427 62.9191 39.9855 62.6691 39.9355C62.4191 39.8855 62.1476 39.8427 61.8476 39.8069C61.5405 39.7712 61.1976 39.7427 60.8119 39.7212C60.4191 39.6998 59.9834 39.6784 59.4834 39.6641C58.9834 39.6498 58.4191 39.6355 57.7762 39.6284C57.1334 39.6212 56.4191 39.6069 55.6191 39.5998C54.5905 39.5855 53.6762 39.5784 52.8476 39.5784ZM54.2834 42.1998C55.6976 42.1998 57.1119 42.2069 58.2691 42.2212C58.8476 42.2284 59.3619 42.2355 59.7762 42.2498C60.1905 42.2641 60.5048 42.2784 60.6905 42.2927C60.9334 42.3141 61.1619 42.3355 61.3834 42.3712C61.6048 42.3998 61.8119 42.4355 62.0119 42.4784C62.2119 42.5212 62.4048 42.5712 62.5834 42.6212C62.7691 42.6784 62.9405 42.7355 63.1048 42.7998C63.2691 42.8641 63.4334 42.9427 63.5834 43.0212C63.7334 43.0998 63.8834 43.1927 64.0262 43.2855C64.1691 43.3784 64.3048 43.4855 64.4405 43.5927C64.5762 43.6998 64.7048 43.8212 64.8334 43.9498C64.9691 44.0855 65.0905 44.2212 65.2048 44.3569C65.3191 44.4927 65.4262 44.6427 65.5191 44.7927C65.6119 44.9427 65.7048 45.1069 65.7834 45.2712C65.8619 45.4427 65.9334 45.6141 65.9976 45.8069C66.0619 45.9998 66.1191 46.1998 66.1691 46.4141C66.2191 46.6284 66.2619 46.8569 66.3048 47.0998C66.3405 47.3427 66.3762 47.6069 66.4048 47.8855C66.4334 48.1641 66.4548 48.4641 66.4762 48.7784C66.4905 49.0355 66.5048 49.3712 66.5191 49.7712C66.5334 50.1712 66.5405 50.6284 66.5476 51.1284C66.5619 52.1284 66.5691 53.2927 66.5691 54.4569C66.5691 55.6212 66.5619 56.7784 66.5476 57.7784C66.5405 58.2784 66.5334 58.7355 66.5191 59.1355C66.5048 59.5355 66.4905 59.8641 66.4762 60.1212C66.4476 60.5855 66.4191 60.9712 66.3834 61.3069C66.3691 61.4784 66.3476 61.6284 66.3262 61.7784C66.3048 61.9284 66.2834 62.0641 66.2548 62.1927C66.2262 62.3212 66.1976 62.4427 66.1691 62.5641C66.1405 62.6855 66.1048 62.7998 66.0619 62.9141C66.0262 63.0284 65.9834 63.1427 65.9334 63.2569C65.8834 63.3712 65.8334 63.4927 65.7762 63.6141C65.7262 63.7212 65.6762 63.8212 65.6262 63.9212C65.5691 64.0212 65.5191 64.1141 65.4548 64.2069C65.3976 64.2998 65.3334 64.3927 65.2691 64.4784C65.2048 64.5641 65.1334 64.6498 65.0691 64.7355C65.0048 64.8212 64.9262 64.8998 64.8476 64.9712C64.7691 65.0498 64.6905 65.1212 64.6119 65.1927C64.5334 65.2641 64.4476 65.3355 64.3548 65.3998C64.2691 65.4641 64.1762 65.5284 64.0834 65.5927C63.9905 65.6569 63.8905 65.7141 63.7905 65.7712C63.6905 65.8284 63.5905 65.8784 63.4834 65.9284C63.3762 65.9784 63.2691 66.0284 63.1548 66.0712C63.0405 66.1141 62.9262 66.1569 62.8048 66.1998C62.5691 66.2784 62.3119 66.3498 62.0476 66.4141C61.7834 66.4784 61.5048 66.5284 61.2119 66.5712C61.1048 66.5855 60.8548 66.5998 60.5048 66.6141C60.1548 66.6284 59.6905 66.6427 59.1548 66.6498C58.0834 66.6712 56.7191 66.6927 55.3262 66.6998C53.9334 66.7069 52.5048 66.7141 51.3119 66.7069C50.7191 66.7069 50.1834 66.6998 49.7334 66.6927C49.2905 66.6855 48.9405 66.6712 48.7119 66.6641C48.4405 66.6498 48.1905 66.6284 47.9548 66.6141C47.7191 66.5927 47.5048 66.5712 47.2976 66.5498C47.0905 66.5284 46.9048 66.4998 46.7262 66.4641C46.5476 66.4355 46.3834 66.3998 46.2191 66.3569C46.0619 66.3212 45.9119 66.2784 45.7691 66.2284C45.6262 66.1784 45.4905 66.1284 45.3548 66.0712C45.2191 66.0141 45.0905 65.9498 44.9619 65.8784C44.8334 65.8069 44.7048 65.7355 44.5762 65.6498C44.4762 65.5855 44.3834 65.5212 44.2976 65.4569C44.2119 65.3927 44.1191 65.3212 44.0334 65.2569C43.9476 65.1855 43.8691 65.1141 43.7905 65.0427C43.7119 64.9712 43.6405 64.8927 43.5691 64.8141C43.4976 64.7355 43.4262 64.6569 43.3619 64.5712C43.2976 64.4855 43.2334 64.3998 43.1762 64.3141C43.1191 64.2284 43.0619 64.1355 43.0048 64.0355C42.9476 63.9427 42.8976 63.8427 42.8476 63.7427C42.7976 63.6427 42.7548 63.5355 42.7048 63.4284C42.6619 63.3212 42.6191 63.2069 42.5834 63.0927C42.5048 62.8641 42.4334 62.6212 42.3762 62.3569C42.3191 62.0927 42.2619 61.8212 42.2191 61.5212C42.1762 61.2212 42.1405 60.9141 42.1119 60.5784C42.0905 60.3355 42.0762 59.9498 42.0619 59.4712C42.0476 58.9855 42.0405 58.4069 42.0334 57.7569C42.0262 56.4641 42.0262 54.9141 42.0405 53.3927C42.0548 51.8712 42.0834 50.3855 42.1191 49.2212C42.1334 48.6355 42.1548 48.1355 42.1762 47.7498C42.1834 47.5569 42.1976 47.3927 42.2119 47.2641C42.2262 47.1355 42.2334 47.0355 42.2476 46.9784C42.2905 46.7855 42.3262 46.6141 42.3691 46.4498C42.4119 46.2855 42.4548 46.1284 42.4976 45.9855C42.5405 45.8427 42.5905 45.7069 42.6405 45.5784C42.6905 45.4498 42.7405 45.3284 42.8048 45.2141C42.8619 45.0998 42.9262 44.9855 42.9905 44.8784C43.0548 44.7712 43.1334 44.6641 43.2119 44.5569C43.2905 44.4498 43.3762 44.3498 43.4691 44.2427C43.5619 44.1355 43.6619 44.0284 43.7691 43.9212C43.8976 43.7855 44.0334 43.6641 44.1619 43.5569C44.2976 43.4427 44.4262 43.3427 44.5691 43.2498C44.7048 43.1569 44.8476 43.0712 44.9976 42.9927C45.1476 42.9141 45.2976 42.8427 45.4548 42.7784C45.6119 42.7141 45.7834 42.6569 45.9619 42.6069C46.1405 42.5569 46.3262 42.5141 46.5334 42.4712C46.7334 42.4284 46.9476 42.3998 47.1762 42.3641C47.4048 42.3355 47.6476 42.3069 47.9048 42.2855C48.0834 42.2712 48.3976 42.2569 48.8119 42.2427C49.2262 42.2284 49.7334 42.2212 50.3048 42.2141C51.4548 42.2141 52.8691 42.2069 54.2834 42.1998Z" fill="white"/>
</g>
<defs>
<linearGradient id="paint0_linear_243_140" x1="7.56738" y1="27.4754" x2="101.115" y2="81.4892" gradientUnits="userSpaceOnUse">
<stop offset="0.29" stop-color="#F56D50"/>
<stop offset="0.99" stop-color="#F57438"/>
</linearGradient>
<clipPath id="clip0_243_140">
<rect width="30" height="30" fill="white" transform="translate(39.2762 39.457)"/>
</clipPath>
</defs>
</svg>
