<svg width="109" height="109" viewBox="0 0 109 109" fill="none" xmlns="http://www.w3.org/2000/svg">
<rect x="0.39502" y="0.381348" width="108.151" height="108.151" rx="10" fill="url(#paint0_linear_243_139)"/>
<g clip-path="url(#clip0_243_139)">
<path d="M46.281 68.1321V48.7839H39.8499V68.1321H46.281ZM43.0668 46.1425C45.3088 46.1425 46.705 44.6564 46.705 42.8001C46.6622 40.901 45.3088 39.457 43.1095 39.457C40.9082 39.457 39.4706 40.901 39.4706 42.8001C39.4706 44.657 40.8661 46.1425 43.0247 46.1425H43.0668ZM49.8402 68.1321H56.2706V57.3282C56.2706 56.7503 56.3126 56.1716 56.4822 55.7593C56.9471 54.6033 58.0053 53.4072 59.7819 53.4072C62.1082 53.4072 63.0396 55.1813 63.0396 57.7826V68.1321H69.47V57.0383C69.47 51.0959 66.2978 48.3302 62.0668 48.3302C58.5975 48.3302 57.0745 50.2687 56.2279 51.5897H56.2706V48.7845H49.8402C49.9244 50.5994 49.8402 68.1321 49.8402 68.1321Z" fill="white"/>
</g>
<defs>
<linearGradient id="paint0_linear_243_139" x1="7.76196" y1="27.4754" x2="101.309" y2="81.4892" gradientUnits="userSpaceOnUse">
<stop offset="0.29" stop-color="#F56D50"/>
<stop offset="0.99" stop-color="#F57438"/>
</linearGradient>
<clipPath id="clip0_243_139">
<rect width="30" height="30" fill="white" transform="translate(39.4706 39.457)"/>
</clipPath>
</defs>
</svg>
