<svg width="109" height="109" viewBox="0 0 109 109" fill="none" xmlns="http://www.w3.org/2000/svg">
<rect x="0.5896" y="0.718994" width="108.151" height="108.151" rx="10" fill="url(#paint0_linear_258_714)"/>
<g clip-path="url(#clip0_258_714)">
<g clip-path="url(#clip1_258_714)">
<path d="M55.3277 39.8197C56.9652 39.7947 58.5902 39.8072 60.2151 39.7947C60.3151 41.7072 61.0026 43.6571 62.4026 45.0071C63.8026 46.3946 65.7776 47.0321 67.7026 47.2446V52.282C65.9026 52.2195 64.0901 51.8445 62.4526 51.0695C61.7401 50.7445 61.0776 50.332 60.4276 49.9071C60.4151 53.557 60.4401 57.207 60.4026 60.8444C60.3026 62.5944 59.7277 64.3319 58.7152 65.7694C57.0777 68.1693 54.2402 69.7318 51.3278 69.7818C49.5403 69.8818 47.7528 69.3943 46.2278 68.4943C43.7029 67.0068 41.9279 64.2819 41.6654 61.3569C41.6404 60.7319 41.6279 60.1069 41.6529 59.4944C41.8779 57.1195 43.0529 54.8445 44.8778 53.2945C46.9528 51.4945 49.8528 50.632 52.5652 51.1445C52.5902 52.9945 52.5152 54.8445 52.5152 56.6945C51.2778 56.2945 49.8278 56.407 48.7403 57.157C47.9528 57.6695 47.3528 58.4569 47.0403 59.3444C46.7778 59.9819 46.8528 60.6819 46.8653 61.3569C47.1653 63.4069 49.1403 65.1319 51.2403 64.9444C52.6402 64.9319 53.9777 64.1194 54.7027 62.9319C54.9402 62.5194 55.2027 62.0944 55.2152 61.6069C55.3402 59.3694 55.2902 57.1445 55.3027 54.907C55.3152 49.8696 55.2902 44.8446 55.3277 39.8197Z" fill="white"/>
</g>
</g>
<defs>
<linearGradient id="paint0_linear_258_714" x1="7.95654" y1="27.8131" x2="101.504" y2="81.8269" gradientUnits="userSpaceOnUse">
<stop offset="0.29" stop-color="#F56D50"/>
<stop offset="0.99" stop-color="#F57438"/>
</linearGradient>
<clipPath id="clip0_258_714">
<rect width="30" height="30" fill="white" transform="translate(39.6652 39.7947)"/>
</clipPath>
<clipPath id="clip1_258_714">
<rect width="30" height="30" fill="white" transform="translate(39.6652 39.7947)"/>
</clipPath>
</defs>
</svg>
