<svg width="109" height="109" viewBox="0 0 109 109" fill="none" xmlns="http://www.w3.org/2000/svg">
<rect x="0.39502" y="0.718994" width="108.151" height="108.151" rx="10" fill="url(#paint0_linear_258_718)"/>
<path d="M61.5956 57.7344C61.9706 57.9294 62.2106 58.0344 62.2856 58.1844C62.3756 58.3494 62.3456 59.0994 61.9706 59.9544C61.6706 60.7944 60.1106 61.6044 59.4206 61.6344C58.7306 61.6644 58.7156 62.1744 54.9806 60.5394C51.2456 58.9044 48.9956 54.9144 48.8156 54.6594C48.6357 54.4044 47.3757 52.5894 47.4357 50.7444C47.5107 48.9144 48.4707 48.0444 48.8607 47.6844C49.2207 47.2944 49.6257 47.2494 49.8807 47.2944H50.5857C50.8107 47.2944 51.1257 47.2044 51.4107 47.9694L52.4457 50.7744C52.5357 50.9694 52.5956 51.1944 52.4606 51.4344L52.0556 52.0494L51.4706 52.6794C51.2906 52.8594 51.0807 53.0544 51.2907 53.4294C51.4707 53.8194 52.2206 55.0644 53.2706 56.0994C54.6356 57.4194 55.8356 57.8544 56.1956 58.0494C56.5556 58.2594 56.7806 58.2294 57.0056 57.9894L58.2206 56.5794C58.5056 56.2044 58.7456 56.2944 59.0906 56.4144L61.5956 57.7344ZM54.4706 39.7944C58.4489 39.7944 62.2642 41.3748 65.0773 44.1878C67.8903 47.0009 69.4706 50.8162 69.4706 54.7944C69.4706 56.7643 69.0827 58.7148 68.3288 60.5347C67.575 62.3546 66.4701 64.0082 65.0773 65.401C63.6844 66.7939 62.0308 67.8988 60.2109 68.6526C58.391 69.4064 56.4405 69.7944 54.4706 69.7944C51.5157 69.7944 48.7707 68.9394 46.4457 67.4694L39.4707 69.7944L41.7957 62.8194C40.2739 60.4197 39.4674 57.636 39.4707 54.7944C39.4707 50.8162 41.051 47.0009 43.864 44.1878C46.6771 41.3748 50.4924 39.7944 54.4706 39.7944ZM54.4706 42.7944C51.2881 42.7944 48.2358 44.0587 45.9854 46.3092C43.7349 48.5596 42.4707 51.6118 42.4707 54.7944C42.4707 57.3744 43.2807 59.7594 44.6607 61.7094L43.2207 66.0444L47.5557 64.6044C49.5773 66.0347 51.9942 66.8002 54.4706 66.7944C57.6532 66.7944 60.7055 65.5302 62.9559 63.2797C65.2064 61.0293 66.4706 57.977 66.4706 54.7944C66.4706 51.6118 65.2064 48.5596 62.9559 46.3092C60.7055 44.0587 57.6532 42.7944 54.4706 42.7944Z" fill="white"/>
<defs>
<linearGradient id="paint0_linear_258_718" x1="7.76196" y1="27.8131" x2="101.309" y2="81.8269" gradientUnits="userSpaceOnUse">
<stop offset="0.29" stop-color="#F56D50"/>
<stop offset="0.99" stop-color="#F57438"/>
</linearGradient>
</defs>
</svg>
