<svg width="386" height="401" viewBox="0 0 386 401" fill="none" xmlns="http://www.w3.org/2000/svg">
<rect width="385.261" height="401" rx="59" fill="black" fill-opacity="0.53"/>
<path d="M204.378 113.753L192.631 119.626M192.631 119.626L180.883 113.753M192.631 119.626V134.337M239.673 96.0784L227.926 101.952M239.673 96.0784L227.926 90.2046M239.673 96.0784V110.789M145.588 96.0784L157.335 90.2046M145.588 96.0784L157.335 101.952M145.588 96.0784V110.789M192.631 178.417L180.883 172.543M192.631 178.417L204.378 172.543M192.631 178.417V163.706M227.926 160.795L239.673 154.922V140.211L227.926 160.795ZM204.378 78.4571L192.631 72.5834L180.883 78.4571H204.378ZM157.335 160.795L145.588 154.922V140.211L157.335 160.795Z" stroke="url(#paint0_linear_359_152)" stroke-width="7.9375" stroke-linecap="round" stroke-linejoin="round"/>
<path d="M122.156 223.112C121.116 223.112 120.168 222.856 119.312 222.344C118.464 221.84 117.784 221.164 117.272 220.316C116.768 219.468 116.516 218.528 116.516 217.496C116.516 216.432 116.776 215.452 117.296 214.556C117.816 213.652 118.524 212.964 119.42 212.492C119.708 212.34 119.932 212.128 120.092 211.856C120.252 211.576 120.332 211.272 120.332 210.944H123.644C123.644 211.88 123.408 212.744 122.936 213.536C122.464 214.328 121.812 214.952 120.98 215.408C120.62 215.592 120.336 215.872 120.128 216.248C119.928 216.624 119.828 217.04 119.828 217.496C119.828 217.92 119.932 218.308 120.14 218.66C120.348 219.012 120.628 219.288 120.98 219.488C121.34 219.696 121.732 219.8 122.156 219.8C122.58 219.8 122.968 219.696 123.32 219.488C123.68 219.288 123.964 219.012 124.172 218.66C124.38 218.308 124.484 217.92 124.484 217.496H127.796C127.796 218.528 127.54 219.468 127.028 220.316C126.524 221.164 125.844 221.84 124.988 222.344C124.14 222.856 123.196 223.112 122.156 223.112ZM121.832 209.036C121.376 209.036 120.984 208.876 120.656 208.556C120.336 208.228 120.176 207.836 120.176 207.38C120.176 206.9 120.336 206.5 120.656 206.18C120.984 205.852 121.376 205.688 121.832 205.688C122.296 205.688 122.688 205.852 123.008 206.18C123.336 206.5 123.5 206.9 123.5 207.38C123.5 207.836 123.336 208.228 123.008 208.556C122.688 208.876 122.296 209.036 121.832 209.036ZM130.637 218V201.2H140.597V204.512H133.949V207.344H139.445V210.656H133.949V218H130.637ZM142.309 218V200H145.621V218H142.309ZM153.542 218.312C152.438 218.312 151.43 218.028 150.518 217.46C149.614 216.892 148.89 216.128 148.346 215.168C147.81 214.208 147.542 213.148 147.542 211.988C147.542 211.116 147.698 210.3 148.01 209.54C148.322 208.772 148.75 208.1 149.294 207.524C149.846 206.94 150.486 206.484 151.214 206.156C151.942 205.828 152.718 205.664 153.542 205.664C154.494 205.664 155.362 205.868 156.146 206.276C156.938 206.684 157.606 207.24 158.15 207.944C158.702 208.648 159.094 209.444 159.326 210.332C159.566 211.22 159.606 212.144 159.446 213.104H151.118C151.222 213.456 151.382 213.776 151.598 214.064C151.822 214.344 152.094 214.568 152.414 214.736C152.742 214.904 153.118 214.992 153.542 215C153.958 215.008 154.342 214.912 154.694 214.712C155.046 214.512 155.346 214.244 155.594 213.908L158.978 214.688C158.49 215.752 157.762 216.624 156.794 217.304C155.826 217.976 154.742 218.312 153.542 218.312ZM150.998 210.656H156.098C155.994 210.256 155.818 209.896 155.57 209.576C155.322 209.256 155.022 209.004 154.67 208.82C154.326 208.636 153.95 208.544 153.542 208.544C153.142 208.544 152.766 208.636 152.414 208.82C152.07 209.004 151.774 209.256 151.526 209.576C151.286 209.888 151.11 210.248 150.998 210.656ZM159.852 218L164.244 211.976L159.9 206H163.98L166.272 209.144L168.588 206H172.68L168.324 211.976L172.716 218H168.636L166.272 214.784L163.932 218H159.852ZM174.488 206H177.8V218H174.488V206ZM176.168 204.62C175.688 204.62 175.284 204.46 174.956 204.14C174.628 203.82 174.464 203.424 174.464 202.952C174.464 202.48 174.628 202.084 174.956 201.764C175.284 201.444 175.684 201.284 176.156 201.284C176.628 201.284 177.024 201.444 177.344 201.764C177.672 202.084 177.836 202.48 177.836 202.952C177.836 203.424 177.676 203.82 177.356 204.14C177.044 204.46 176.648 204.62 176.168 204.62ZM187.227 205.664C188.395 205.664 189.455 205.948 190.407 206.516C191.367 207.084 192.131 207.848 192.699 208.808C193.267 209.76 193.551 210.816 193.551 211.976C193.551 212.848 193.387 213.668 193.059 214.436C192.731 215.204 192.275 215.88 191.691 216.464C191.115 217.04 190.443 217.492 189.675 217.82C188.915 218.148 188.099 218.312 187.227 218.312C186.539 218.312 185.927 218.16 185.391 217.856C184.855 217.552 184.395 217.168 184.011 216.704V218H180.699V200H184.011V207.272C184.395 206.8 184.855 206.416 185.391 206.12C185.927 205.816 186.539 205.664 187.227 205.664ZM187.179 215.108C187.731 215.108 188.231 214.968 188.679 214.688C189.135 214.408 189.495 214.032 189.759 213.56C190.023 213.08 190.155 212.552 190.155 211.976C190.155 211.4 190.019 210.876 189.747 210.404C189.483 209.932 189.123 209.556 188.667 209.276C188.219 208.988 187.723 208.844 187.179 208.844C186.635 208.844 186.143 208.988 185.703 209.276C185.271 209.556 184.927 209.936 184.671 210.416C184.423 210.888 184.299 211.408 184.299 211.976C184.299 212.56 184.423 213.088 184.671 213.56C184.927 214.032 185.271 214.408 185.703 214.688C186.143 214.968 186.635 215.108 187.179 215.108ZM195.09 206H198.402V218H195.09V206ZM196.77 204.62C196.29 204.62 195.886 204.46 195.558 204.14C195.23 203.82 195.066 203.424 195.066 202.952C195.066 202.48 195.23 202.084 195.558 201.764C195.886 201.444 196.286 201.284 196.758 201.284C197.23 201.284 197.626 201.444 197.946 201.764C198.274 202.084 198.438 202.48 198.438 202.952C198.438 203.424 198.278 203.82 197.958 204.14C197.646 204.46 197.25 204.62 196.77 204.62ZM201.301 218V200H204.613V218H201.301ZM207.488 206H210.8V218H207.488V206ZM209.168 204.62C208.688 204.62 208.284 204.46 207.956 204.14C207.628 203.82 207.464 203.424 207.464 202.952C207.464 202.48 207.628 202.084 207.956 201.764C208.284 201.444 208.684 201.284 209.156 201.284C209.628 201.284 210.024 201.444 210.344 201.764C210.672 202.084 210.836 202.48 210.836 202.952C210.836 203.424 210.676 203.82 210.356 204.14C210.044 204.46 209.648 204.62 209.168 204.62ZM222.168 200H225.48V218H222.168V216.728C221.8 217.192 221.344 217.572 220.8 217.868C220.256 218.164 219.636 218.312 218.94 218.312C218.068 218.312 217.252 218.148 216.492 217.82C215.732 217.492 215.06 217.04 214.476 216.464C213.9 215.88 213.448 215.208 213.12 214.448C212.792 213.688 212.628 212.872 212.628 212C212.628 211.128 212.792 210.312 213.12 209.552C213.448 208.792 213.9 208.124 214.476 207.548C215.06 206.964 215.732 206.508 216.492 206.18C217.252 205.852 218.068 205.688 218.94 205.688C219.636 205.688 220.256 205.836 220.8 206.132C221.344 206.42 221.8 206.8 222.168 207.272V200ZM218.988 215.132C219.532 215.132 220.024 214.992 220.464 214.712C220.904 214.432 221.252 214.056 221.508 213.584C221.764 213.104 221.892 212.576 221.892 212C221.892 211.416 221.764 210.888 221.508 210.416C221.252 209.944 220.904 209.568 220.464 209.288C220.024 209.008 219.532 208.868 218.988 208.868C218.436 208.868 217.936 209.008 217.488 209.288C217.04 209.568 216.684 209.948 216.42 210.428C216.156 210.9 216.024 211.424 216.024 212C216.024 212.576 216.156 213.104 216.42 213.584C216.692 214.056 217.052 214.432 217.5 214.712C217.948 214.992 218.444 215.132 218.988 215.132ZM236.945 206H240.257V218H236.933L236.777 216.752C236.465 217.216 236.065 217.592 235.577 217.88C235.089 218.168 234.517 218.312 233.861 218.312C232.965 218.312 232.129 218.144 231.353 217.808C230.577 217.472 229.893 217.008 229.301 216.416C228.709 215.824 228.245 215.14 227.909 214.364C227.581 213.58 227.417 212.74 227.417 211.844C227.417 210.988 227.573 210.188 227.885 209.444C228.197 208.7 228.637 208.044 229.205 207.476C229.773 206.908 230.425 206.464 231.161 206.144C231.905 205.824 232.705 205.664 233.561 205.664C234.297 205.664 234.957 205.82 235.541 206.132C236.133 206.444 236.649 206.84 237.089 207.32L236.945 206ZM233.777 215.132C234.321 215.132 234.813 214.992 235.253 214.712C235.693 214.432 236.041 214.056 236.297 213.584C236.553 213.104 236.681 212.576 236.681 212C236.681 211.416 236.553 210.888 236.297 210.416C236.041 209.944 235.693 209.568 235.253 209.288C234.813 209.008 234.321 208.868 233.777 208.868C233.225 208.868 232.725 209.008 232.277 209.288C231.829 209.568 231.473 209.948 231.209 210.428C230.945 210.9 230.813 211.424 230.813 212C230.813 212.576 230.945 213.104 231.209 213.584C231.481 214.056 231.841 214.432 232.289 214.712C232.737 214.992 233.233 215.132 233.777 215.132ZM251.254 200H254.566V218H251.254V216.728C250.886 217.192 250.43 217.572 249.886 217.868C249.342 218.164 248.722 218.312 248.026 218.312C247.154 218.312 246.338 218.148 245.578 217.82C244.818 217.492 244.146 217.04 243.562 216.464C242.986 215.88 242.534 215.208 242.206 214.448C241.878 213.688 241.714 212.872 241.714 212C241.714 211.128 241.878 210.312 242.206 209.552C242.534 208.792 242.986 208.124 243.562 207.548C244.146 206.964 244.818 206.508 245.578 206.18C246.338 205.852 247.154 205.688 248.026 205.688C248.722 205.688 249.342 205.836 249.886 206.132C250.43 206.42 250.886 206.8 251.254 207.272V200ZM248.074 215.132C248.618 215.132 249.11 214.992 249.55 214.712C249.99 214.432 250.338 214.056 250.594 213.584C250.85 213.104 250.978 212.576 250.978 212C250.978 211.416 250.85 210.888 250.594 210.416C250.338 209.944 249.99 209.568 249.55 209.288C249.11 209.008 248.618 208.868 248.074 208.868C247.522 208.868 247.022 209.008 246.574 209.288C246.126 209.568 245.77 209.948 245.506 210.428C245.242 210.9 245.11 211.424 245.11 212C245.11 212.576 245.242 213.104 245.506 213.584C245.778 214.056 246.138 214.432 246.586 214.712C247.034 214.992 247.53 215.132 248.074 215.132ZM261.129 213.056C261.129 212.112 261.365 211.248 261.837 210.464C262.309 209.672 262.961 209.048 263.793 208.592C264.153 208.4 264.433 208.12 264.633 207.752C264.841 207.376 264.945 206.96 264.945 206.504C264.945 206.08 264.841 205.692 264.633 205.34C264.425 204.988 264.141 204.712 263.781 204.512C263.429 204.304 263.041 204.2 262.617 204.2C262.193 204.2 261.801 204.304 261.441 204.512C261.089 204.712 260.809 204.988 260.601 205.34C260.393 205.692 260.289 206.08 260.289 206.504H256.977C256.977 205.472 257.229 204.532 257.733 203.684C258.245 202.836 258.925 202.16 259.773 201.656C260.629 201.144 261.577 200.888 262.617 200.888C263.657 200.888 264.601 201.144 265.449 201.656C266.305 202.16 266.985 202.836 267.489 203.684C268.001 204.532 268.257 205.472 268.257 206.504C268.257 207.568 267.997 208.548 267.477 209.444C266.965 210.34 266.257 211.028 265.353 211.508C265.065 211.66 264.841 211.872 264.681 212.144C264.521 212.416 264.441 212.72 264.441 213.056H261.129ZM262.941 218.312C262.469 218.312 262.069 218.148 261.741 217.82C261.421 217.492 261.261 217.092 261.261 216.62C261.261 216.156 261.421 215.764 261.741 215.444C262.069 215.124 262.469 214.964 262.941 214.964C263.397 214.964 263.785 215.124 264.105 215.444C264.433 215.764 264.597 216.156 264.597 216.62C264.597 217.092 264.433 217.492 264.105 217.82C263.785 218.148 263.397 218.312 262.941 218.312Z" fill="white"/>
<path d="M71.6964 236.2V237.496H65.7444V253H64.4484V237.496H58.5084V236.2H71.6964ZM84.4016 245.62V253H83.1056V245.824C83.1056 245.112 82.9336 244.464 82.5896 243.88C82.2456 243.296 81.7816 242.832 81.1976 242.488C80.6136 242.144 79.9656 241.972 79.2536 241.972C78.5496 241.972 77.9056 242.144 77.3216 242.488C76.7376 242.832 76.2696 243.296 75.9176 243.88C75.5736 244.464 75.4016 245.112 75.4016 245.824V253H74.1056V235H75.4016V242.836C75.8336 242.172 76.4056 241.644 77.1176 241.252C77.8296 240.86 78.6056 240.664 79.4456 240.664C80.3656 240.664 81.1976 240.888 81.9416 241.336C82.6936 241.776 83.2896 242.372 83.7296 243.124C84.1776 243.876 84.4016 244.708 84.4016 245.62ZM91.8544 253.312C90.7504 253.312 89.7424 253.028 88.8304 252.46C87.9264 251.892 87.2024 251.132 86.6584 250.18C86.1224 249.22 85.8544 248.16 85.8544 247C85.8544 246.12 86.0104 245.3 86.3224 244.54C86.6344 243.772 87.0624 243.1 87.6064 242.524C88.1584 241.94 88.7984 241.484 89.5264 241.156C90.2544 240.828 91.0304 240.664 91.8544 240.664C92.7264 240.664 93.5304 240.836 94.2664 241.18C95.0104 241.516 95.6504 241.992 96.1864 242.608C96.7224 243.224 97.1344 243.952 97.4224 244.792C97.7104 245.624 97.8424 246.536 97.8184 247.528H87.2104C87.2984 248.384 87.5544 249.152 87.9784 249.832C88.4104 250.504 88.9624 251.036 89.6344 251.428C90.3064 251.812 91.0464 252.008 91.8544 252.016C92.7424 252.016 93.5424 251.784 94.2544 251.32C94.9664 250.848 95.5384 250.204 95.9704 249.388L97.2784 249.688C96.7984 250.752 96.0744 251.624 95.1064 252.304C94.1384 252.976 93.0544 253.312 91.8544 253.312ZM87.1744 246.424H96.5104C96.4624 245.6 96.2224 244.844 95.7904 244.156C95.3664 243.46 94.8104 242.904 94.1224 242.488C93.4344 242.072 92.6784 241.864 91.8544 241.864C91.0304 241.864 90.2784 242.068 89.5984 242.476C88.9184 242.884 88.3624 243.436 87.9304 244.132C87.5064 244.82 87.2544 245.584 87.1744 246.424ZM109.502 253.228C108.838 253.22 108.186 253.104 107.546 252.88C106.914 252.648 106.362 252.34 105.89 251.956C105.418 251.572 105.09 251.136 104.906 250.648L106.046 250.156C106.182 250.516 106.442 250.84 106.826 251.128C107.218 251.416 107.658 251.644 108.146 251.812C108.642 251.972 109.126 252.052 109.598 252.052C110.134 252.052 110.638 251.96 111.11 251.776C111.582 251.592 111.966 251.332 112.262 250.996C112.558 250.66 112.706 250.264 112.706 249.808C112.706 249.328 112.55 248.952 112.238 248.68C111.926 248.4 111.526 248.176 111.038 248.008C110.558 247.832 110.062 247.668 109.55 247.516C108.67 247.26 107.906 247 107.258 246.736C106.618 246.464 106.122 246.12 105.77 245.704C105.418 245.288 105.242 244.74 105.242 244.06C105.242 243.356 105.446 242.744 105.854 242.224C106.262 241.704 106.798 241.304 107.462 241.024C108.126 240.736 108.838 240.592 109.598 240.592C110.582 240.592 111.474 240.808 112.274 241.24C113.082 241.672 113.65 242.24 113.978 242.944L112.922 243.568C112.762 243.2 112.51 242.884 112.166 242.62C111.822 242.356 111.43 242.152 110.99 242.008C110.55 241.864 110.106 241.788 109.658 241.78C109.098 241.772 108.574 241.86 108.086 242.044C107.606 242.22 107.218 242.48 106.922 242.824C106.626 243.16 106.478 243.568 106.478 244.048C106.478 244.528 106.614 244.896 106.886 245.152C107.158 245.408 107.538 245.616 108.026 245.776C108.514 245.928 109.078 246.108 109.718 246.316C110.462 246.548 111.154 246.808 111.794 247.096C112.442 247.376 112.962 247.728 113.354 248.152C113.754 248.576 113.95 249.124 113.942 249.796C113.942 250.5 113.73 251.112 113.306 251.632C112.89 252.152 112.342 252.552 111.662 252.832C110.99 253.112 110.27 253.244 109.502 253.228ZM121.222 253.312C120.118 253.312 119.11 253.028 118.198 252.46C117.294 251.892 116.57 251.132 116.026 250.18C115.49 249.22 115.222 248.16 115.222 247C115.222 246.12 115.378 245.3 115.69 244.54C116.002 243.772 116.43 243.1 116.974 242.524C117.526 241.94 118.166 241.484 118.894 241.156C119.622 240.828 120.398 240.664 121.222 240.664C122.326 240.664 123.33 240.948 124.234 241.516C125.146 242.084 125.87 242.848 126.406 243.808C126.95 244.768 127.222 245.832 127.222 247C127.222 247.872 127.066 248.688 126.754 249.448C126.442 250.208 126.01 250.88 125.458 251.464C124.914 252.04 124.278 252.492 123.55 252.82C122.83 253.148 122.054 253.312 121.222 253.312ZM121.222 252.016C122.11 252.016 122.906 251.784 123.61 251.32C124.322 250.856 124.886 250.244 125.302 249.484C125.718 248.724 125.926 247.896 125.926 247C125.926 246.096 125.718 245.26 125.302 244.492C124.886 243.724 124.322 243.112 123.61 242.656C122.898 242.192 122.102 241.96 121.222 241.96C120.334 241.96 119.534 242.192 118.822 242.656C118.11 243.12 117.546 243.736 117.13 244.504C116.722 245.264 116.518 246.096 116.518 247C116.518 247.936 116.73 248.784 117.154 249.544C117.586 250.296 118.158 250.896 118.87 251.344C119.582 251.792 120.366 252.016 121.222 252.016ZM129.231 253V235H130.527V253H129.231ZM132.922 248.356V241H134.218V248.152C134.218 248.864 134.39 249.512 134.734 250.096C135.086 250.68 135.554 251.144 136.138 251.488C136.722 251.832 137.366 252.004 138.07 252.004C138.782 252.004 139.426 251.832 140.002 251.488C140.586 251.144 141.05 250.68 141.394 250.096C141.746 249.512 141.922 248.864 141.922 248.152V241H143.218V253H141.922V251.14C141.49 251.796 140.918 252.324 140.206 252.724C139.502 253.116 138.726 253.312 137.878 253.312C136.966 253.312 136.134 253.092 135.382 252.652C134.63 252.204 134.03 251.604 133.582 250.852C133.142 250.1 132.922 249.268 132.922 248.356ZM151.649 242.296H148.613L148.601 253H147.305L147.317 242.296H145.025V241H147.317L147.305 237.232H148.601L148.613 241H151.649V242.296ZM153.723 241H155.019V253H153.723V241ZM154.383 238.732C154.159 238.732 153.967 238.66 153.807 238.516C153.655 238.364 153.579 238.176 153.579 237.952C153.579 237.728 153.655 237.544 153.807 237.4C153.967 237.248 154.159 237.172 154.383 237.172C154.599 237.172 154.783 237.248 154.935 237.4C155.095 237.544 155.175 237.728 155.175 237.952C155.175 238.176 155.099 238.364 154.947 238.516C154.795 238.66 154.607 238.732 154.383 238.732ZM163.104 253.312C162 253.312 160.992 253.028 160.08 252.46C159.176 251.892 158.452 251.132 157.908 250.18C157.372 249.22 157.104 248.16 157.104 247C157.104 246.12 157.26 245.3 157.572 244.54C157.884 243.772 158.312 243.1 158.856 242.524C159.408 241.94 160.048 241.484 160.776 241.156C161.504 240.828 162.28 240.664 163.104 240.664C164.208 240.664 165.212 240.948 166.116 241.516C167.028 242.084 167.752 242.848 168.288 243.808C168.832 244.768 169.104 245.832 169.104 247C169.104 247.872 168.948 248.688 168.636 249.448C168.324 250.208 167.892 250.88 167.34 251.464C166.796 252.04 166.16 252.492 165.432 252.82C164.712 253.148 163.936 253.312 163.104 253.312ZM163.104 252.016C163.992 252.016 164.788 251.784 165.492 251.32C166.204 250.856 166.768 250.244 167.184 249.484C167.6 248.724 167.808 247.896 167.808 247C167.808 246.096 167.6 245.26 167.184 244.492C166.768 243.724 166.204 243.112 165.492 242.656C164.78 242.192 163.984 241.96 163.104 241.96C162.216 241.96 161.416 242.192 160.704 242.656C159.992 243.12 159.428 243.736 159.012 244.504C158.604 245.264 158.4 246.096 158.4 247C158.4 247.936 158.612 248.784 159.036 249.544C159.468 250.296 160.04 250.896 160.752 251.344C161.464 251.792 162.248 252.016 163.104 252.016ZM181.48 245.62V253H180.184V245.824C180.184 245.112 180.012 244.464 179.668 243.88C179.324 243.296 178.86 242.832 178.276 242.488C177.692 242.144 177.044 241.972 176.332 241.972C175.628 241.972 174.984 242.144 174.4 242.488C173.816 242.832 173.348 243.296 172.996 243.88C172.652 244.464 172.48 245.112 172.48 245.824V253H171.184V241H172.48V242.836C172.912 242.172 173.484 241.644 174.196 241.252C174.908 240.86 175.684 240.664 176.524 240.664C177.444 240.664 178.276 240.888 179.02 241.336C179.772 241.776 180.368 242.372 180.808 243.124C181.256 243.876 181.48 244.708 181.48 245.62ZM187.643 253.228C186.979 253.22 186.327 253.104 185.687 252.88C185.055 252.648 184.503 252.34 184.031 251.956C183.559 251.572 183.231 251.136 183.047 250.648L184.187 250.156C184.323 250.516 184.583 250.84 184.967 251.128C185.359 251.416 185.799 251.644 186.287 251.812C186.783 251.972 187.267 252.052 187.739 252.052C188.275 252.052 188.779 251.96 189.251 251.776C189.723 251.592 190.107 251.332 190.403 250.996C190.699 250.66 190.847 250.264 190.847 249.808C190.847 249.328 190.691 248.952 190.379 248.68C190.067 248.4 189.667 248.176 189.179 248.008C188.699 247.832 188.203 247.668 187.691 247.516C186.811 247.26 186.047 247 185.399 246.736C184.759 246.464 184.263 246.12 183.911 245.704C183.559 245.288 183.383 244.74 183.383 244.06C183.383 243.356 183.587 242.744 183.995 242.224C184.403 241.704 184.939 241.304 185.603 241.024C186.267 240.736 186.979 240.592 187.739 240.592C188.723 240.592 189.615 240.808 190.415 241.24C191.223 241.672 191.791 242.24 192.119 242.944L191.063 243.568C190.903 243.2 190.651 242.884 190.307 242.62C189.963 242.356 189.571 242.152 189.131 242.008C188.691 241.864 188.247 241.788 187.799 241.78C187.239 241.772 186.715 241.86 186.227 242.044C185.747 242.22 185.359 242.48 185.063 242.824C184.767 243.16 184.619 243.568 184.619 244.048C184.619 244.528 184.755 244.896 185.027 245.152C185.299 245.408 185.679 245.616 186.167 245.776C186.655 245.928 187.219 246.108 187.859 246.316C188.603 246.548 189.295 246.808 189.935 247.096C190.583 247.376 191.103 247.728 191.495 248.152C191.895 248.576 192.091 249.124 192.083 249.796C192.083 250.5 191.871 251.112 191.447 251.632C191.031 252.152 190.483 252.552 189.803 252.832C189.131 253.112 188.411 253.244 187.643 253.228ZM204.586 253H203.218L199.198 241H200.458L203.926 251.26L207.37 241H208.798L212.242 251.26L215.686 241H216.97L212.938 253H211.558L208.066 242.632L204.586 253ZM223.854 253.312C222.75 253.312 221.742 253.028 220.83 252.46C219.926 251.892 219.202 251.132 218.658 250.18C218.122 249.22 217.854 248.16 217.854 247C217.854 246.12 218.01 245.3 218.322 244.54C218.634 243.772 219.062 243.1 219.606 242.524C220.158 241.94 220.798 241.484 221.526 241.156C222.254 240.828 223.03 240.664 223.854 240.664C224.726 240.664 225.53 240.836 226.266 241.18C227.01 241.516 227.65 241.992 228.186 242.608C228.722 243.224 229.134 243.952 229.422 244.792C229.71 245.624 229.842 246.536 229.818 247.528H219.21C219.298 248.384 219.554 249.152 219.978 249.832C220.41 250.504 220.962 251.036 221.634 251.428C222.306 251.812 223.046 252.008 223.854 252.016C224.742 252.016 225.542 251.784 226.254 251.32C226.966 250.848 227.538 250.204 227.97 249.388L229.278 249.688C228.798 250.752 228.074 251.624 227.106 252.304C226.138 252.976 225.054 253.312 223.854 253.312ZM219.174 246.424H228.51C228.462 245.6 228.222 244.844 227.79 244.156C227.366 243.46 226.81 242.904 226.122 242.488C225.434 242.072 224.678 241.864 223.854 241.864C223.03 241.864 222.278 242.068 221.598 242.476C220.918 242.884 220.362 243.436 219.93 244.132C219.506 244.82 219.254 245.584 219.174 246.424ZM243.026 253.312C241.922 253.312 240.914 253.028 240.002 252.46C239.098 251.892 238.374 251.132 237.83 250.18C237.294 249.22 237.026 248.16 237.026 247C237.026 246.12 237.182 245.3 237.494 244.54C237.806 243.772 238.234 243.1 238.778 242.524C239.33 241.94 239.97 241.484 240.698 241.156C241.426 240.828 242.202 240.664 243.026 240.664C244.13 240.664 245.134 240.948 246.038 241.516C246.95 242.084 247.674 242.848 248.21 243.808C248.754 244.768 249.026 245.832 249.026 247C249.026 247.872 248.87 248.688 248.558 249.448C248.246 250.208 247.814 250.88 247.262 251.464C246.718 252.04 246.082 252.492 245.354 252.82C244.634 253.148 243.858 253.312 243.026 253.312ZM243.026 252.016C243.914 252.016 244.71 251.784 245.414 251.32C246.126 250.856 246.69 250.244 247.106 249.484C247.522 248.724 247.73 247.896 247.73 247C247.73 246.096 247.522 245.26 247.106 244.492C246.69 243.724 246.126 243.112 245.414 242.656C244.702 242.192 243.906 241.96 243.026 241.96C242.138 241.96 241.338 242.192 240.626 242.656C239.914 243.12 239.35 243.736 238.934 244.504C238.526 245.264 238.322 246.096 238.322 247C238.322 247.936 238.534 248.784 238.958 249.544C239.39 250.296 239.962 250.896 240.674 251.344C241.386 251.792 242.17 252.016 243.026 252.016ZM253.372 237.676V241H257.08V242.296H253.372V253H252.076V242.296H250.336V241H252.076V237.676C252.076 237.132 252.208 236.636 252.472 236.188C252.744 235.74 253.104 235.384 253.552 235.12C254.008 234.848 254.508 234.712 255.052 234.712C255.452 234.712 255.836 234.792 256.204 234.952C256.572 235.104 256.9 235.328 257.188 235.624L256.264 236.536C256.12 236.368 255.94 236.24 255.724 236.152C255.508 236.056 255.284 236.008 255.052 236.008C254.596 236.008 254.2 236.172 253.864 236.5C253.536 236.828 253.372 237.22 253.372 237.676ZM261.552 237.676V241H265.26V242.296H261.552V253H260.256V242.296H258.516V241H260.256V237.676C260.256 237.132 260.388 236.636 260.652 236.188C260.924 235.74 261.284 235.384 261.732 235.12C262.188 234.848 262.688 234.712 263.232 234.712C263.632 234.712 264.016 234.792 264.384 234.952C264.752 235.104 265.08 235.328 265.368 235.624L264.444 236.536C264.3 236.368 264.12 236.24 263.904 236.152C263.688 236.056 263.464 236.008 263.232 236.008C262.776 236.008 262.38 236.172 262.044 236.5C261.716 236.828 261.552 237.22 261.552 237.676ZM272.159 253.312C271.055 253.312 270.047 253.028 269.135 252.46C268.231 251.892 267.507 251.132 266.963 250.18C266.427 249.22 266.159 248.16 266.159 247C266.159 246.12 266.315 245.3 266.627 244.54C266.939 243.772 267.367 243.1 267.911 242.524C268.463 241.94 269.103 241.484 269.831 241.156C270.559 240.828 271.335 240.664 272.159 240.664C273.031 240.664 273.835 240.836 274.571 241.18C275.315 241.516 275.955 241.992 276.491 242.608C277.027 243.224 277.439 243.952 277.727 244.792C278.015 245.624 278.147 246.536 278.123 247.528H267.515C267.603 248.384 267.859 249.152 268.283 249.832C268.715 250.504 269.267 251.036 269.939 251.428C270.611 251.812 271.351 252.008 272.159 252.016C273.047 252.016 273.847 251.784 274.559 251.32C275.271 250.848 275.843 250.204 276.275 249.388L277.583 249.688C277.103 250.752 276.379 251.624 275.411 252.304C274.443 252.976 273.359 253.312 272.159 253.312ZM267.479 246.424H276.815C276.767 245.6 276.527 244.844 276.095 244.156C275.671 243.46 275.115 242.904 274.427 242.488C273.739 242.072 272.983 241.864 272.159 241.864C271.335 241.864 270.583 242.068 269.903 242.476C269.223 242.884 268.667 243.436 268.235 244.132C267.811 244.82 267.559 245.584 267.479 246.424ZM280.215 253V241H281.511V242.836C281.943 242.172 282.515 241.644 283.227 241.252C283.939 240.86 284.715 240.664 285.555 240.664C286.027 240.664 286.479 240.724 286.911 240.844L286.371 242.116C286.027 242.02 285.691 241.972 285.363 241.972C284.659 241.972 284.015 242.144 283.431 242.488C282.847 242.832 282.379 243.296 282.027 243.88C281.683 244.464 281.511 245.112 281.511 245.824V253H280.215ZM304.464 241H305.76V253H304.464L304.428 250.54C304.02 251.372 303.436 252.044 302.676 252.556C301.924 253.06 301.02 253.312 299.964 253.312C299.092 253.312 298.272 253.148 297.504 252.82C296.744 252.484 296.072 252.028 295.488 251.452C294.904 250.868 294.448 250.196 294.12 249.436C293.792 248.668 293.628 247.844 293.628 246.964C293.628 246.092 293.788 245.276 294.108 244.516C294.436 243.756 294.888 243.088 295.464 242.512C296.04 241.928 296.708 241.476 297.468 241.156C298.228 240.828 299.04 240.664 299.904 240.664C300.968 240.664 301.888 240.924 302.664 241.444C303.448 241.956 304.06 242.628 304.5 243.46L304.464 241ZM299.952 252.04C300.872 252.04 301.66 251.816 302.316 251.368C302.98 250.912 303.488 250.3 303.84 249.532C304.192 248.764 304.368 247.92 304.368 247C304.368 246.056 304.188 245.204 303.828 244.444C303.476 243.676 302.968 243.068 302.304 242.62C301.648 242.164 300.864 241.936 299.952 241.936C299.024 241.936 298.18 242.164 297.42 242.62C296.668 243.076 296.068 243.688 295.62 244.456C295.172 245.224 294.948 246.072 294.948 247C294.948 247.944 295.176 248.796 295.632 249.556C296.096 250.316 296.708 250.92 297.468 251.368C298.228 251.816 299.056 252.04 299.952 252.04ZM308.152 253V241H309.448V242.836C309.88 242.172 310.452 241.644 311.164 241.252C311.876 240.86 312.652 240.664 313.492 240.664C313.964 240.664 314.416 240.724 314.848 240.844L314.308 242.116C313.964 242.02 313.628 241.972 313.3 241.972C312.596 241.972 311.952 242.144 311.368 242.488C310.784 242.832 310.316 243.296 309.964 243.88C309.62 244.464 309.448 245.112 309.448 245.824V253H308.152ZM321.026 253.312C319.922 253.312 318.914 253.028 318.002 252.46C317.098 251.892 316.374 251.132 315.83 250.18C315.294 249.22 315.026 248.16 315.026 247C315.026 246.12 315.182 245.3 315.494 244.54C315.806 243.772 316.234 243.1 316.778 242.524C317.33 241.94 317.97 241.484 318.698 241.156C319.426 240.828 320.202 240.664 321.026 240.664C321.898 240.664 322.702 240.836 323.438 241.18C324.182 241.516 324.822 241.992 325.358 242.608C325.894 243.224 326.306 243.952 326.594 244.792C326.882 245.624 327.014 246.536 326.99 247.528H316.382C316.47 248.384 316.726 249.152 317.15 249.832C317.582 250.504 318.134 251.036 318.806 251.428C319.478 251.812 320.218 252.008 321.026 252.016C321.914 252.016 322.714 251.784 323.426 251.32C324.138 250.848 324.71 250.204 325.142 249.388L326.45 249.688C325.97 250.752 325.246 251.624 324.278 252.304C323.31 252.976 322.226 253.312 321.026 253.312ZM316.346 246.424H325.682C325.634 245.6 325.394 244.844 324.962 244.156C324.538 243.46 323.982 242.904 323.294 242.488C322.606 242.072 321.85 241.864 321.026 241.864C320.202 241.864 319.45 242.068 318.77 242.476C318.09 242.884 317.534 243.436 317.102 244.132C316.678 244.82 316.426 245.584 316.346 246.424ZM60.7054 282.228C60.0414 282.22 59.3894 282.104 58.7494 281.88C58.1174 281.648 57.5654 281.34 57.0934 280.956C56.6214 280.572 56.2934 280.136 56.1094 279.648L57.2494 279.156C57.3854 279.516 57.6454 279.84 58.0294 280.128C58.4214 280.416 58.8614 280.644 59.3494 280.812C59.8454 280.972 60.3294 281.052 60.8014 281.052C61.3374 281.052 61.8414 280.96 62.3134 280.776C62.7854 280.592 63.1694 280.332 63.4654 279.996C63.7614 279.66 63.9094 279.264 63.9094 278.808C63.9094 278.328 63.7534 277.952 63.4414 277.68C63.1294 277.4 62.7294 277.176 62.2414 277.008C61.7614 276.832 61.2654 276.668 60.7534 276.516C59.8734 276.26 59.1094 276 58.4614 275.736C57.8214 275.464 57.3254 275.12 56.9734 274.704C56.6214 274.288 56.4454 273.74 56.4454 273.06C56.4454 272.356 56.6494 271.744 57.0574 271.224C57.4654 270.704 58.0014 270.304 58.6654 270.024C59.3294 269.736 60.0414 269.592 60.8014 269.592C61.7854 269.592 62.6774 269.808 63.4774 270.24C64.2854 270.672 64.8534 271.24 65.1814 271.944L64.1254 272.568C63.9654 272.2 63.7134 271.884 63.3694 271.62C63.0254 271.356 62.6334 271.152 62.1934 271.008C61.7534 270.864 61.3094 270.788 60.8614 270.78C60.3014 270.772 59.7774 270.86 59.2894 271.044C58.8094 271.22 58.4214 271.48 58.1254 271.824C57.8294 272.16 57.6814 272.568 57.6814 273.048C57.6814 273.528 57.8174 273.896 58.0894 274.152C58.3614 274.408 58.7414 274.616 59.2294 274.776C59.7174 274.928 60.2814 275.108 60.9214 275.316C61.6654 275.548 62.3574 275.808 62.9974 276.096C63.6454 276.376 64.1654 276.728 64.5574 277.152C64.9574 277.576 65.1534 278.124 65.1454 278.796C65.1454 279.5 64.9334 280.112 64.5094 280.632C64.0934 281.152 63.5454 281.552 62.8654 281.832C62.1934 282.112 61.4734 282.244 60.7054 282.228ZM76.0607 279.18L77.2127 279.804C76.6687 280.564 75.9767 281.172 75.1367 281.628C74.3047 282.084 73.4007 282.312 72.4247 282.312C71.3207 282.312 70.3127 282.028 69.4007 281.46C68.4967 280.892 67.7727 280.132 67.2287 279.18C66.6927 278.22 66.4247 277.16 66.4247 276C66.4247 275.12 66.5807 274.3 66.8927 273.54C67.2047 272.772 67.6327 272.1 68.1767 271.524C68.7287 270.94 69.3687 270.484 70.0967 270.156C70.8247 269.828 71.6007 269.664 72.4247 269.664C73.4007 269.664 74.3047 269.892 75.1367 270.348C75.9767 270.804 76.6687 271.416 77.2127 272.184L76.0607 272.796C75.6047 272.204 75.0527 271.752 74.4047 271.44C73.7567 271.12 73.0967 270.96 72.4247 270.96C71.5447 270.96 70.7487 271.192 70.0367 271.656C69.3247 272.112 68.7607 272.724 68.3447 273.492C67.9287 274.252 67.7207 275.088 67.7207 276C67.7207 276.92 67.9327 277.76 68.3567 278.52C68.7807 279.28 69.3487 279.888 70.0607 280.344C70.7727 280.792 71.5607 281.016 72.4247 281.016C73.1527 281.016 73.8367 280.844 74.4767 280.5C75.1167 280.156 75.6447 279.716 76.0607 279.18ZM89.4013 270H90.6973V282H89.4013L89.3653 279.54C88.9573 280.372 88.3733 281.044 87.6133 281.556C86.8613 282.06 85.9573 282.312 84.9013 282.312C84.0293 282.312 83.2093 282.148 82.4413 281.82C81.6813 281.484 81.0093 281.028 80.4253 280.452C79.8413 279.868 79.3853 279.196 79.0573 278.436C78.7293 277.668 78.5653 276.844 78.5653 275.964C78.5653 275.092 78.7253 274.276 79.0453 273.516C79.3733 272.756 79.8253 272.088 80.4013 271.512C80.9773 270.928 81.6453 270.476 82.4053 270.156C83.1653 269.828 83.9773 269.664 84.8413 269.664C85.9053 269.664 86.8253 269.924 87.6013 270.444C88.3853 270.956 88.9973 271.628 89.4373 272.46L89.4013 270ZM84.8893 281.04C85.8093 281.04 86.5973 280.816 87.2533 280.368C87.9173 279.912 88.4253 279.3 88.7773 278.532C89.1293 277.764 89.3053 276.92 89.3053 276C89.3053 275.056 89.1253 274.204 88.7653 273.444C88.4133 272.676 87.9053 272.068 87.2413 271.62C86.5853 271.164 85.8013 270.936 84.8893 270.936C83.9613 270.936 83.1173 271.164 82.3573 271.62C81.6053 272.076 81.0053 272.688 80.5573 273.456C80.1093 274.224 79.8853 275.072 79.8853 276C79.8853 276.944 80.1133 277.796 80.5693 278.556C81.0333 279.316 81.6453 279.92 82.4053 280.368C83.1653 280.816 83.9933 281.04 84.8893 281.04ZM93.2775 282V264H94.5735V282H93.2775ZM107.495 270H108.791V282H107.495L107.459 279.54C107.051 280.372 106.467 281.044 105.707 281.556C104.955 282.06 104.051 282.312 102.995 282.312C102.123 282.312 101.303 282.148 100.535 281.82C99.7751 281.484 99.1031 281.028 98.5191 280.452C97.9351 279.868 97.4791 279.196 97.1511 278.436C96.8231 277.668 96.6591 276.844 96.6591 275.964C96.6591 275.092 96.8191 274.276 97.1391 273.516C97.4671 272.756 97.9191 272.088 98.4951 271.512C99.0711 270.928 99.7391 270.476 100.499 270.156C101.259 269.828 102.071 269.664 102.935 269.664C103.999 269.664 104.919 269.924 105.695 270.444C106.479 270.956 107.091 271.628 107.531 272.46L107.495 270ZM102.983 281.04C103.903 281.04 104.691 280.816 105.347 280.368C106.011 279.912 106.519 279.3 106.871 278.532C107.223 277.764 107.399 276.92 107.399 276C107.399 275.056 107.219 274.204 106.859 273.444C106.507 272.676 105.999 272.068 105.335 271.62C104.679 271.164 103.895 270.936 102.983 270.936C102.055 270.936 101.211 271.164 100.451 271.62C99.6991 272.076 99.0991 272.688 98.6511 273.456C98.2031 274.224 97.9791 275.072 97.9791 276C97.9791 276.944 98.2071 277.796 98.6631 278.556C99.1271 279.316 99.7391 279.92 100.499 280.368C101.259 280.816 102.087 281.04 102.983 281.04ZM117.191 269.664C118.351 269.664 119.407 269.948 120.359 270.516C121.319 271.084 122.083 271.848 122.651 272.808C123.219 273.76 123.503 274.82 123.503 275.988C123.503 276.86 123.339 277.68 123.011 278.448C122.683 279.208 122.227 279.88 121.643 280.464C121.067 281.04 120.399 281.492 119.639 281.82C118.879 282.148 118.063 282.312 117.191 282.312C116.127 282.312 115.211 282.056 114.443 281.544C113.683 281.032 113.091 280.36 112.667 279.528V282H111.371V264H112.667V272.448C113.091 271.616 113.683 270.944 114.443 270.432C115.211 269.92 116.127 269.664 117.191 269.664ZM117.179 281.04C118.107 281.04 118.947 280.812 119.699 280.356C120.459 279.9 121.063 279.292 121.511 278.532C121.967 277.764 122.195 276.916 122.195 275.988C122.195 275.044 121.963 274.192 121.499 273.432C121.035 272.664 120.423 272.056 119.663 271.608C118.911 271.16 118.083 270.936 117.179 270.936C116.259 270.936 115.467 271.164 114.803 271.62C114.147 272.076 113.643 272.688 113.291 273.456C112.939 274.224 112.763 275.068 112.763 275.988C112.763 276.932 112.939 277.784 113.291 278.544C113.651 279.304 114.159 279.912 114.815 280.368C115.479 280.816 116.267 281.04 117.179 281.04ZM125.527 282V264H126.823V282H125.527ZM134.909 282.312C133.805 282.312 132.797 282.028 131.885 281.46C130.981 280.892 130.257 280.132 129.713 279.18C129.177 278.22 128.909 277.16 128.909 276C128.909 275.12 129.065 274.3 129.377 273.54C129.689 272.772 130.117 272.1 130.661 271.524C131.213 270.94 131.853 270.484 132.581 270.156C133.309 269.828 134.085 269.664 134.909 269.664C135.781 269.664 136.585 269.836 137.321 270.18C138.065 270.516 138.705 270.992 139.241 271.608C139.777 272.224 140.189 272.952 140.477 273.792C140.765 274.624 140.897 275.536 140.873 276.528H130.265C130.353 277.384 130.609 278.152 131.033 278.832C131.465 279.504 132.017 280.036 132.689 280.428C133.361 280.812 134.101 281.008 134.909 281.016C135.797 281.016 136.597 280.784 137.309 280.32C138.021 279.848 138.593 279.204 139.025 278.388L140.333 278.688C139.853 279.752 139.129 280.624 138.161 281.304C137.193 281.976 136.109 282.312 134.909 282.312ZM130.229 275.424H139.565C139.517 274.6 139.277 273.844 138.845 273.156C138.421 272.46 137.865 271.904 137.177 271.488C136.489 271.072 135.733 270.864 134.909 270.864C134.085 270.864 133.333 271.068 132.653 271.476C131.973 271.884 131.417 272.436 130.985 273.132C130.561 273.82 130.309 274.584 130.229 275.424ZM158.917 270H160.213V282H158.917L158.881 279.54C158.473 280.372 157.889 281.044 157.129 281.556C156.377 282.06 155.473 282.312 154.417 282.312C153.545 282.312 152.725 282.148 151.957 281.82C151.197 281.484 150.525 281.028 149.941 280.452C149.357 279.868 148.901 279.196 148.573 278.436C148.245 277.668 148.081 276.844 148.081 275.964C148.081 275.092 148.241 274.276 148.561 273.516C148.889 272.756 149.341 272.088 149.917 271.512C150.493 270.928 151.161 270.476 151.921 270.156C152.681 269.828 153.493 269.664 154.357 269.664C155.421 269.664 156.341 269.924 157.117 270.444C157.901 270.956 158.513 271.628 158.953 272.46L158.917 270ZM154.405 281.04C155.325 281.04 156.113 280.816 156.769 280.368C157.433 279.912 157.941 279.3 158.293 278.532C158.645 277.764 158.821 276.92 158.821 276C158.821 275.056 158.641 274.204 158.281 273.444C157.929 272.676 157.421 272.068 156.757 271.62C156.101 271.164 155.317 270.936 154.405 270.936C153.477 270.936 152.633 271.164 151.873 271.62C151.121 272.076 150.521 272.688 150.073 273.456C149.625 274.224 149.401 275.072 149.401 276C149.401 276.944 149.629 277.796 150.085 278.556C150.549 279.316 151.161 279.92 151.921 280.368C152.681 280.816 153.509 281.04 154.405 281.04ZM172.902 274.62V282H171.606V274.824C171.606 274.112 171.434 273.464 171.09 272.88C170.746 272.296 170.282 271.832 169.698 271.488C169.114 271.144 168.466 270.972 167.754 270.972C167.05 270.972 166.406 271.144 165.822 271.488C165.238 271.832 164.77 272.296 164.418 272.88C164.074 273.464 163.902 274.112 163.902 274.824V282H162.606V270H163.902V271.836C164.334 271.172 164.906 270.644 165.618 270.252C166.33 269.86 167.106 269.664 167.946 269.664C168.866 269.664 169.698 269.888 170.442 270.336C171.194 270.776 171.79 271.372 172.23 272.124C172.678 272.876 172.902 273.708 172.902 274.62ZM185.19 264H186.486V282H185.19V279.528C184.774 280.368 184.182 281.044 183.414 281.556C182.646 282.06 181.73 282.312 180.666 282.312C179.794 282.312 178.978 282.148 178.218 281.82C177.458 281.492 176.786 281.04 176.202 280.464C175.626 279.88 175.174 279.208 174.846 278.448C174.518 277.688 174.354 276.872 174.354 276C174.354 275.128 174.518 274.312 174.846 273.552C175.174 272.784 175.626 272.112 176.202 271.536C176.786 270.952 177.458 270.496 178.218 270.168C178.978 269.84 179.794 269.676 180.666 269.676C181.73 269.676 182.646 269.932 183.414 270.444C184.182 270.948 184.774 271.616 185.19 272.448V264ZM180.678 281.04C181.598 281.04 182.386 280.816 183.042 280.368C183.706 279.912 184.214 279.3 184.566 278.532C184.918 277.764 185.094 276.92 185.094 276C185.094 275.056 184.914 274.204 184.554 273.444C184.202 272.676 183.694 272.068 183.03 271.62C182.374 271.164 181.59 270.936 180.678 270.936C179.758 270.936 178.918 271.164 178.158 271.62C177.406 272.076 176.802 272.688 176.346 273.456C175.898 274.224 175.674 275.072 175.674 276C175.674 276.944 175.902 277.796 176.358 278.556C176.822 279.316 177.434 279.92 178.194 280.368C178.954 280.816 179.782 281.04 180.678 281.04ZM205.253 270H206.549V282H205.253L205.217 279.54C204.809 280.372 204.225 281.044 203.465 281.556C202.713 282.06 201.809 282.312 200.753 282.312C199.881 282.312 199.061 282.148 198.293 281.82C197.533 281.484 196.861 281.028 196.277 280.452C195.693 279.868 195.237 279.196 194.909 278.436C194.581 277.668 194.417 276.844 194.417 275.964C194.417 275.092 194.577 274.276 194.897 273.516C195.225 272.756 195.677 272.088 196.253 271.512C196.829 270.928 197.497 270.476 198.257 270.156C199.017 269.828 199.829 269.664 200.693 269.664C201.757 269.664 202.677 269.924 203.453 270.444C204.237 270.956 204.849 271.628 205.289 272.46L205.253 270ZM200.741 281.04C201.661 281.04 202.449 280.816 203.105 280.368C203.769 279.912 204.277 279.3 204.629 278.532C204.981 277.764 205.157 276.92 205.157 276C205.157 275.056 204.977 274.204 204.617 273.444C204.265 272.676 203.757 272.068 203.093 271.62C202.437 271.164 201.653 270.936 200.741 270.936C199.813 270.936 198.969 271.164 198.209 271.62C197.457 272.076 196.857 272.688 196.409 273.456C195.961 274.224 195.737 275.072 195.737 276C195.737 276.944 195.965 277.796 196.421 278.556C196.885 279.316 197.497 279.92 198.257 280.368C199.017 280.816 199.845 281.04 200.741 281.04ZM218.823 264H220.119V282H218.823V279.528C218.407 280.368 217.815 281.044 217.047 281.556C216.279 282.06 215.363 282.312 214.299 282.312C213.427 282.312 212.611 282.148 211.851 281.82C211.091 281.492 210.419 281.04 209.835 280.464C209.259 279.88 208.807 279.208 208.479 278.448C208.151 277.688 207.987 276.872 207.987 276C207.987 275.128 208.151 274.312 208.479 273.552C208.807 272.784 209.259 272.112 209.835 271.536C210.419 270.952 211.091 270.496 211.851 270.168C212.611 269.84 213.427 269.676 214.299 269.676C215.363 269.676 216.279 269.932 217.047 270.444C217.815 270.948 218.407 271.616 218.823 272.448V264ZM214.311 281.04C215.231 281.04 216.019 280.816 216.675 280.368C217.339 279.912 217.847 279.3 218.199 278.532C218.551 277.764 218.727 276.92 218.727 276C218.727 275.056 218.547 274.204 218.187 273.444C217.835 272.676 217.327 272.068 216.663 271.62C216.007 271.164 215.223 270.936 214.311 270.936C213.391 270.936 212.551 271.164 211.791 271.62C211.039 272.076 210.435 272.688 209.979 273.456C209.531 274.224 209.307 275.072 209.307 276C209.307 276.944 209.535 277.796 209.991 278.556C210.455 279.316 211.067 279.92 211.827 280.368C212.587 280.816 213.415 281.04 214.311 281.04ZM233.05 270H234.346V282H233.05L233.014 279.54C232.606 280.372 232.022 281.044 231.262 281.556C230.51 282.06 229.606 282.312 228.55 282.312C227.678 282.312 226.858 282.148 226.09 281.82C225.33 281.484 224.658 281.028 224.074 280.452C223.49 279.868 223.034 279.196 222.706 278.436C222.378 277.668 222.214 276.844 222.214 275.964C222.214 275.092 222.374 274.276 222.694 273.516C223.022 272.756 223.474 272.088 224.05 271.512C224.626 270.928 225.294 270.476 226.054 270.156C226.814 269.828 227.626 269.664 228.49 269.664C229.554 269.664 230.474 269.924 231.25 270.444C232.034 270.956 232.646 271.628 233.086 272.46L233.05 270ZM228.538 281.04C229.458 281.04 230.246 280.816 230.902 280.368C231.566 279.912 232.074 279.3 232.426 278.532C232.778 277.764 232.954 276.92 232.954 276C232.954 275.056 232.774 274.204 232.414 273.444C232.062 272.676 231.554 272.068 230.89 271.62C230.234 271.164 229.45 270.936 228.538 270.936C227.61 270.936 226.766 271.164 226.006 271.62C225.254 272.076 224.654 272.688 224.206 273.456C223.758 274.224 223.534 275.072 223.534 276C223.534 276.944 223.762 277.796 224.218 278.556C224.682 279.316 225.294 279.92 226.054 280.368C226.814 280.816 227.642 281.04 228.538 281.04ZM238.034 288H236.738V270H238.034V272.472C238.458 271.64 239.05 270.968 239.81 270.456C240.578 269.944 241.494 269.688 242.558 269.688C243.43 269.688 244.246 269.852 245.006 270.18C245.766 270.508 246.434 270.964 247.01 271.548C247.594 272.124 248.05 272.792 248.378 273.552C248.706 274.312 248.87 275.128 248.87 276C248.87 276.872 248.706 277.692 248.378 278.46C248.05 279.228 247.594 279.904 247.01 280.488C246.434 281.064 245.766 281.516 245.006 281.844C244.246 282.172 243.43 282.336 242.558 282.336C241.494 282.336 240.578 282.08 239.81 281.568C239.05 281.056 238.458 280.384 238.034 279.552V288ZM242.546 270.96C241.634 270.96 240.846 271.188 240.182 271.644C239.526 272.092 239.018 272.696 238.658 273.456C238.306 274.216 238.13 275.064 238.13 276C238.13 276.92 238.306 277.764 238.658 278.532C239.01 279.3 239.514 279.916 240.17 280.38C240.834 280.836 241.626 281.064 242.546 281.064C243.45 281.064 244.278 280.84 245.03 280.392C245.79 279.944 246.402 279.34 246.866 278.58C247.33 277.812 247.562 276.952 247.562 276C247.562 275.08 247.334 274.24 246.878 273.48C246.43 272.712 245.826 272.1 245.066 271.644C244.314 271.188 243.474 270.96 242.546 270.96ZM256.72 271.296H253.684L253.672 282H252.376L252.388 271.296H250.096V270H252.388L252.376 266.232H253.672L253.684 270H256.72V271.296ZM268.628 270H269.924V282H268.628L268.592 279.54C268.184 280.372 267.6 281.044 266.84 281.556C266.088 282.06 265.184 282.312 264.128 282.312C263.256 282.312 262.436 282.148 261.668 281.82C260.908 281.484 260.236 281.028 259.652 280.452C259.068 279.868 258.612 279.196 258.284 278.436C257.956 277.668 257.792 276.844 257.792 275.964C257.792 275.092 257.952 274.276 258.272 273.516C258.6 272.756 259.052 272.088 259.628 271.512C260.204 270.928 260.872 270.476 261.632 270.156C262.392 269.828 263.204 269.664 264.068 269.664C265.132 269.664 266.052 269.924 266.828 270.444C267.612 270.956 268.224 271.628 268.664 272.46L268.628 270ZM264.116 281.04C265.036 281.04 265.824 280.816 266.48 280.368C267.144 279.912 267.652 279.3 268.004 278.532C268.356 277.764 268.532 276.92 268.532 276C268.532 275.056 268.352 274.204 267.992 273.444C267.64 272.676 267.132 272.068 266.468 271.62C265.812 271.164 265.028 270.936 264.116 270.936C263.188 270.936 262.344 271.164 261.584 271.62C260.832 272.076 260.232 272.688 259.784 273.456C259.336 274.224 259.112 275.072 259.112 276C259.112 276.944 259.34 277.796 259.796 278.556C260.26 279.316 260.872 279.92 261.632 280.368C262.392 280.816 263.22 281.04 264.116 281.04ZM278.324 269.664C279.484 269.664 280.54 269.948 281.492 270.516C282.452 271.084 283.216 271.848 283.784 272.808C284.352 273.76 284.636 274.82 284.636 275.988C284.636 276.86 284.472 277.68 284.144 278.448C283.816 279.208 283.36 279.88 282.776 280.464C282.2 281.04 281.532 281.492 280.772 281.82C280.012 282.148 279.196 282.312 278.324 282.312C277.26 282.312 276.344 282.056 275.576 281.544C274.816 281.032 274.224 280.36 273.8 279.528V282H272.504V264H273.8V272.448C274.224 271.616 274.816 270.944 275.576 270.432C276.344 269.92 277.26 269.664 278.324 269.664ZM278.312 281.04C279.24 281.04 280.08 280.812 280.832 280.356C281.592 279.9 282.196 279.292 282.644 278.532C283.1 277.764 283.328 276.916 283.328 275.988C283.328 275.044 283.096 274.192 282.632 273.432C282.168 272.664 281.556 272.056 280.796 271.608C280.044 271.16 279.216 270.936 278.312 270.936C277.392 270.936 276.6 271.164 275.936 271.62C275.28 272.076 274.776 272.688 274.424 273.456C274.072 274.224 273.896 275.068 273.896 275.988C273.896 276.932 274.072 277.784 274.424 278.544C274.784 279.304 275.292 279.912 275.948 280.368C276.612 280.816 277.4 281.04 278.312 281.04ZM286.66 282V264H287.956V282H286.66ZM296.042 282.312C294.938 282.312 293.93 282.028 293.018 281.46C292.114 280.892 291.39 280.132 290.846 279.18C290.31 278.22 290.042 277.16 290.042 276C290.042 275.12 290.198 274.3 290.51 273.54C290.822 272.772 291.25 272.1 291.794 271.524C292.346 270.94 292.986 270.484 293.714 270.156C294.442 269.828 295.218 269.664 296.042 269.664C296.914 269.664 297.718 269.836 298.454 270.18C299.198 270.516 299.838 270.992 300.374 271.608C300.91 272.224 301.322 272.952 301.61 273.792C301.898 274.624 302.03 275.536 302.006 276.528H291.398C291.486 277.384 291.742 278.152 292.166 278.832C292.598 279.504 293.15 280.036 293.822 280.428C294.494 280.812 295.234 281.008 296.042 281.016C296.93 281.016 297.73 280.784 298.442 280.32C299.154 279.848 299.726 279.204 300.158 278.388L301.466 278.688C300.986 279.752 300.262 280.624 299.294 281.304C298.326 281.976 297.242 282.312 296.042 282.312ZM291.362 275.424H300.698C300.65 274.6 300.41 273.844 299.978 273.156C299.554 272.46 298.998 271.904 298.31 271.488C297.622 271.072 296.866 270.864 296.042 270.864C295.218 270.864 294.466 271.068 293.786 271.476C293.106 271.884 292.55 272.436 292.118 273.132C291.694 273.82 291.442 274.584 291.362 275.424ZM315.97 271.296H312.934L312.922 282H311.626L311.638 271.296H309.346V270H311.638L311.626 266.232H312.922L312.934 270H315.97V271.296ZM323.042 282.312C321.938 282.312 320.93 282.028 320.018 281.46C319.114 280.892 318.39 280.132 317.846 279.18C317.31 278.22 317.042 277.16 317.042 276C317.042 275.12 317.198 274.3 317.51 273.54C317.822 272.772 318.25 272.1 318.794 271.524C319.346 270.94 319.986 270.484 320.714 270.156C321.442 269.828 322.218 269.664 323.042 269.664C324.146 269.664 325.15 269.948 326.054 270.516C326.966 271.084 327.69 271.848 328.226 272.808C328.77 273.768 329.042 274.832 329.042 276C329.042 276.872 328.886 277.688 328.574 278.448C328.262 279.208 327.83 279.88 327.278 280.464C326.734 281.04 326.098 281.492 325.37 281.82C324.65 282.148 323.874 282.312 323.042 282.312ZM323.042 281.016C323.93 281.016 324.726 280.784 325.43 280.32C326.142 279.856 326.706 279.244 327.122 278.484C327.538 277.724 327.746 276.896 327.746 276C327.746 275.096 327.538 274.26 327.122 273.492C326.706 272.724 326.142 272.112 325.43 271.656C324.718 271.192 323.922 270.96 323.042 270.96C322.154 270.96 321.354 271.192 320.642 271.656C319.93 272.12 319.366 272.736 318.95 273.504C318.542 274.264 318.338 275.096 318.338 276C318.338 276.936 318.55 277.784 318.974 278.544C319.406 279.296 319.978 279.896 320.69 280.344C321.402 280.792 322.186 281.016 323.042 281.016ZM143.111 299H144.467L137.915 317H136.535L138.719 311L134.411 299H135.827L139.367 309.212L143.111 299ZM151.561 311.312C150.457 311.312 149.449 311.028 148.537 310.46C147.633 309.892 146.909 309.132 146.365 308.18C145.829 307.22 145.561 306.16 145.561 305C145.561 304.12 145.717 303.3 146.029 302.54C146.341 301.772 146.769 301.1 147.313 300.524C147.865 299.94 148.505 299.484 149.233 299.156C149.961 298.828 150.737 298.664 151.561 298.664C152.665 298.664 153.669 298.948 154.573 299.516C155.485 300.084 156.209 300.848 156.745 301.808C157.289 302.768 157.561 303.832 157.561 305C157.561 305.872 157.405 306.688 157.093 307.448C156.781 308.208 156.349 308.88 155.797 309.464C155.253 310.04 154.617 310.492 153.889 310.82C153.169 311.148 152.393 311.312 151.561 311.312ZM151.561 310.016C152.449 310.016 153.245 309.784 153.949 309.32C154.661 308.856 155.225 308.244 155.641 307.484C156.057 306.724 156.265 305.896 156.265 305C156.265 304.096 156.057 303.26 155.641 302.492C155.225 301.724 154.661 301.112 153.949 300.656C153.237 300.192 152.441 299.96 151.561 299.96C150.673 299.96 149.873 300.192 149.161 300.656C148.449 301.12 147.885 301.736 147.469 302.504C147.061 303.264 146.857 304.096 146.857 305C146.857 305.936 147.069 306.784 147.493 307.544C147.925 308.296 148.497 308.896 149.209 309.344C149.921 309.792 150.705 310.016 151.561 310.016ZM159.09 306.356V299H160.386V306.152C160.386 306.864 160.558 307.512 160.902 308.096C161.254 308.68 161.722 309.144 162.306 309.488C162.89 309.832 163.534 310.004 164.238 310.004C164.95 310.004 165.594 309.832 166.17 309.488C166.754 309.144 167.218 308.68 167.562 308.096C167.914 307.512 168.09 306.864 168.09 306.152V299H169.386V311H168.09V309.14C167.658 309.796 167.086 310.324 166.374 310.724C165.67 311.116 164.894 311.312 164.046 311.312C163.134 311.312 162.302 311.092 161.55 310.652C160.798 310.204 160.198 309.604 159.75 308.852C159.31 308.1 159.09 307.268 159.09 306.356ZM171.781 311V299H173.077V300.836C173.509 300.172 174.081 299.644 174.793 299.252C175.505 298.86 176.281 298.664 177.121 298.664C177.593 298.664 178.045 298.724 178.477 298.844L177.937 300.116C177.593 300.02 177.257 299.972 176.929 299.972C176.225 299.972 175.581 300.144 174.997 300.488C174.413 300.832 173.945 301.296 173.593 301.88C173.249 302.464 173.077 303.112 173.077 303.824V311H171.781ZM196.21 303.62V311H194.914V303.824C194.914 303.112 194.742 302.464 194.398 301.88C194.054 301.296 193.59 300.832 193.006 300.488C192.422 300.144 191.774 299.972 191.062 299.972C190.358 299.972 189.714 300.144 189.13 300.488C188.546 300.832 188.078 301.296 187.726 301.88C187.382 302.464 187.21 303.112 187.21 303.824V311H185.914V299H187.21V300.836C187.642 300.172 188.214 299.644 188.926 299.252C189.638 298.86 190.414 298.664 191.254 298.664C192.174 298.664 193.006 298.888 193.75 299.336C194.502 299.776 195.098 300.372 195.538 301.124C195.986 301.876 196.21 302.708 196.21 303.62ZM203.663 311.312C202.559 311.312 201.551 311.028 200.639 310.46C199.735 309.892 199.011 309.132 198.467 308.18C197.931 307.22 197.663 306.16 197.663 305C197.663 304.12 197.819 303.3 198.131 302.54C198.443 301.772 198.871 301.1 199.415 300.524C199.967 299.94 200.607 299.484 201.335 299.156C202.063 298.828 202.839 298.664 203.663 298.664C204.535 298.664 205.339 298.836 206.075 299.18C206.819 299.516 207.459 299.992 207.995 300.608C208.531 301.224 208.943 301.952 209.231 302.792C209.519 303.624 209.651 304.536 209.627 305.528H199.019C199.107 306.384 199.363 307.152 199.787 307.832C200.219 308.504 200.771 309.036 201.443 309.428C202.115 309.812 202.855 310.008 203.663 310.016C204.551 310.016 205.351 309.784 206.063 309.32C206.775 308.848 207.347 308.204 207.779 307.388L209.087 307.688C208.607 308.752 207.883 309.624 206.915 310.304C205.947 310.976 204.863 311.312 203.663 311.312ZM198.983 304.424H208.319C208.271 303.6 208.031 302.844 207.599 302.156C207.175 301.46 206.619 300.904 205.931 300.488C205.243 300.072 204.487 299.864 203.663 299.864C202.839 299.864 202.087 300.068 201.407 300.476C200.727 300.884 200.171 301.436 199.739 302.132C199.315 302.82 199.063 303.584 198.983 304.424ZM216.835 311.312C215.731 311.312 214.723 311.028 213.811 310.46C212.907 309.892 212.183 309.132 211.639 308.18C211.103 307.22 210.835 306.16 210.835 305C210.835 304.12 210.991 303.3 211.303 302.54C211.615 301.772 212.043 301.1 212.587 300.524C213.139 299.94 213.779 299.484 214.507 299.156C215.235 298.828 216.011 298.664 216.835 298.664C217.707 298.664 218.511 298.836 219.247 299.18C219.991 299.516 220.631 299.992 221.167 300.608C221.703 301.224 222.115 301.952 222.403 302.792C222.691 303.624 222.823 304.536 222.799 305.528H212.191C212.279 306.384 212.535 307.152 212.959 307.832C213.391 308.504 213.943 309.036 214.615 309.428C215.287 309.812 216.027 310.008 216.835 310.016C217.723 310.016 218.523 309.784 219.235 309.32C219.947 308.848 220.519 308.204 220.951 307.388L222.259 307.688C221.779 308.752 221.055 309.624 220.087 310.304C219.119 310.976 218.035 311.312 216.835 311.312ZM212.155 304.424H221.491C221.443 303.6 221.203 302.844 220.771 302.156C220.347 301.46 219.791 300.904 219.103 300.488C218.415 300.072 217.659 299.864 216.835 299.864C216.011 299.864 215.259 300.068 214.579 300.476C213.899 300.884 213.343 301.436 212.911 302.132C212.487 302.82 212.235 303.584 212.155 304.424ZM234.843 293H236.139V311H234.843V308.528C234.427 309.368 233.835 310.044 233.067 310.556C232.299 311.06 231.383 311.312 230.319 311.312C229.447 311.312 228.631 311.148 227.871 310.82C227.111 310.492 226.439 310.04 225.855 309.464C225.279 308.88 224.827 308.208 224.499 307.448C224.171 306.688 224.007 305.872 224.007 305C224.007 304.128 224.171 303.312 224.499 302.552C224.827 301.784 225.279 301.112 225.855 300.536C226.439 299.952 227.111 299.496 227.871 299.168C228.631 298.84 229.447 298.676 230.319 298.676C231.383 298.676 232.299 298.932 233.067 299.444C233.835 299.948 234.427 300.616 234.843 301.448V293ZM230.331 310.04C231.251 310.04 232.039 309.816 232.695 309.368C233.359 308.912 233.867 308.3 234.219 307.532C234.571 306.764 234.747 305.92 234.747 305C234.747 304.056 234.567 303.204 234.207 302.444C233.855 301.676 233.347 301.068 232.683 300.62C232.027 300.164 231.243 299.936 230.331 299.936C229.411 299.936 228.571 300.164 227.811 300.62C227.059 301.076 226.455 301.688 225.999 302.456C225.551 303.224 225.327 304.072 225.327 305C225.327 305.944 225.555 306.796 226.011 307.556C226.475 308.316 227.087 308.92 227.847 309.368C228.607 309.816 229.435 310.04 230.331 310.04ZM242.78 311.228C242.116 311.22 241.464 311.104 240.824 310.88C240.192 310.648 239.64 310.34 239.168 309.956C238.696 309.572 238.368 309.136 238.184 308.648L239.324 308.156C239.46 308.516 239.72 308.84 240.104 309.128C240.496 309.416 240.936 309.644 241.424 309.812C241.92 309.972 242.404 310.052 242.876 310.052C243.412 310.052 243.916 309.96 244.388 309.776C244.86 309.592 245.244 309.332 245.54 308.996C245.836 308.66 245.984 308.264 245.984 307.808C245.984 307.328 245.828 306.952 245.516 306.68C245.204 306.4 244.804 306.176 244.316 306.008C243.836 305.832 243.34 305.668 242.828 305.516C241.948 305.26 241.184 305 240.536 304.736C239.896 304.464 239.4 304.12 239.048 303.704C238.696 303.288 238.52 302.74 238.52 302.06C238.52 301.356 238.724 300.744 239.132 300.224C239.54 299.704 240.076 299.304 240.74 299.024C241.404 298.736 242.116 298.592 242.876 298.592C243.86 298.592 244.752 298.808 245.552 299.24C246.36 299.672 246.928 300.24 247.256 300.944L246.2 301.568C246.04 301.2 245.788 300.884 245.444 300.62C245.1 300.356 244.708 300.152 244.268 300.008C243.828 299.864 243.384 299.788 242.936 299.78C242.376 299.772 241.852 299.86 241.364 300.044C240.884 300.22 240.496 300.48 240.2 300.824C239.904 301.16 239.756 301.568 239.756 302.048C239.756 302.528 239.892 302.896 240.164 303.152C240.436 303.408 240.816 303.616 241.304 303.776C241.792 303.928 242.356 304.108 242.996 304.316C243.74 304.548 244.432 304.808 245.072 305.096C245.72 305.376 246.24 305.728 246.632 306.152C247.032 306.576 247.228 307.124 247.22 307.796C247.22 308.5 247.008 309.112 246.584 309.632C246.168 310.152 245.62 310.552 244.94 310.832C244.268 311.112 243.548 311.244 242.78 311.228ZM249.566 311.312C249.35 311.312 249.166 311.232 249.014 311.072C248.862 310.92 248.786 310.732 248.786 310.508C248.786 310.3 248.862 310.12 249.014 309.968C249.166 309.808 249.35 309.728 249.566 309.728C249.79 309.728 249.978 309.808 250.13 309.968C250.29 310.12 250.37 310.3 250.37 310.508C250.37 310.732 250.29 310.92 250.13 311.072C249.978 311.232 249.79 311.312 249.566 311.312Z" fill="white"/>
<defs>
<linearGradient id="paint0_linear_359_152" x1="151.996" y1="99.0968" x2="237.88" y2="143.181" gradientUnits="userSpaceOnUse">
<stop offset="0.29" stop-color="#F56D50"/>
<stop offset="0.99" stop-color="#F57438"/>
</linearGradient>
</defs>
</svg>
