<svg width="386" height="401" viewBox="0 0 386 401" fill="none" xmlns="http://www.w3.org/2000/svg">
<rect width="385.261" height="401" rx="59" fill="black" fill-opacity="0.53"/>
<path d="M204.378 113.753L192.63 119.626M192.63 119.626L180.883 113.753M192.63 119.626V134.337M239.673 96.0784L227.926 101.952M239.673 96.0784L227.926 90.2046M239.673 96.0784V110.789M145.588 96.0784L157.335 90.2046M145.588 96.0784L157.335 101.952M145.588 96.0784V110.789M192.63 178.417L180.883 172.543M192.63 178.417L204.378 172.543M192.63 178.417V163.706M227.926 160.795L239.673 154.922V140.211L227.926 160.795ZM204.378 78.4571L192.63 72.5834L180.883 78.4571H204.378ZM157.335 160.795L145.588 154.922V140.211L157.335 160.795Z" stroke="url(#paint0_linear_240_17)" stroke-width="7.9375" stroke-linecap="round" stroke-linejoin="round"/>
<path d="M122.156 223.112C121.116 223.112 120.168 222.856 119.312 222.344C118.464 221.84 117.784 221.164 117.272 220.316C116.768 219.468 116.516 218.528 116.516 217.496C116.516 216.432 116.776 215.452 117.296 214.556C117.816 213.652 118.524 212.964 119.42 212.492C119.708 212.34 119.932 212.128 120.092 211.856C120.252 211.576 120.332 211.272 120.332 210.944H123.644C123.644 211.88 123.408 212.744 122.936 213.536C122.464 214.328 121.812 214.952 120.98 215.408C120.62 215.592 120.336 215.872 120.128 216.248C119.928 216.624 119.828 217.04 119.828 217.496C119.828 217.92 119.932 218.308 120.14 218.66C120.348 219.012 120.628 219.288 120.98 219.488C121.34 219.696 121.732 219.8 122.156 219.8C122.58 219.8 122.968 219.696 123.32 219.488C123.68 219.288 123.964 219.012 124.172 218.66C124.38 218.308 124.484 217.92 124.484 217.496H127.796C127.796 218.528 127.54 219.468 127.028 220.316C126.524 221.164 125.844 221.84 124.988 222.344C124.14 222.856 123.196 223.112 122.156 223.112ZM121.832 209.036C121.376 209.036 120.984 208.876 120.656 208.556C120.336 208.228 120.176 207.836 120.176 207.38C120.176 206.9 120.336 206.5 120.656 206.18C120.984 205.852 121.376 205.688 121.832 205.688C122.296 205.688 122.688 205.852 123.008 206.18C123.336 206.5 123.5 206.9 123.5 207.38C123.5 207.836 123.336 208.228 123.008 208.556C122.688 208.876 122.296 209.036 121.832 209.036ZM130.637 218V201.2H140.597V204.512H133.949V207.344H139.445V210.656H133.949V218H130.637ZM142.309 218V200H145.621V218H142.309ZM153.542 218.312C152.438 218.312 151.43 218.028 150.518 217.46C149.614 216.892 148.89 216.128 148.346 215.168C147.81 214.208 147.542 213.148 147.542 211.988C147.542 211.116 147.698 210.3 148.01 209.54C148.322 208.772 148.75 208.1 149.294 207.524C149.846 206.94 150.486 206.484 151.214 206.156C151.942 205.828 152.718 205.664 153.542 205.664C154.494 205.664 155.362 205.868 156.146 206.276C156.938 206.684 157.606 207.24 158.15 207.944C158.702 208.648 159.094 209.444 159.326 210.332C159.566 211.22 159.606 212.144 159.446 213.104H151.118C151.222 213.456 151.382 213.776 151.598 214.064C151.822 214.344 152.094 214.568 152.414 214.736C152.742 214.904 153.118 214.992 153.542 215C153.958 215.008 154.342 214.912 154.694 214.712C155.046 214.512 155.346 214.244 155.594 213.908L158.978 214.688C158.49 215.752 157.762 216.624 156.794 217.304C155.826 217.976 154.742 218.312 153.542 218.312ZM150.998 210.656H156.098C155.994 210.256 155.818 209.896 155.57 209.576C155.322 209.256 155.022 209.004 154.67 208.82C154.326 208.636 153.95 208.544 153.542 208.544C153.142 208.544 152.766 208.636 152.414 208.82C152.07 209.004 151.774 209.256 151.526 209.576C151.286 209.888 151.11 210.248 150.998 210.656ZM159.852 218L164.244 211.976L159.9 206H163.98L166.272 209.144L168.588 206H172.68L168.324 211.976L172.716 218H168.636L166.272 214.784L163.932 218H159.852ZM174.488 206H177.8V218H174.488V206ZM176.168 204.62C175.688 204.62 175.284 204.46 174.956 204.14C174.628 203.82 174.464 203.424 174.464 202.952C174.464 202.48 174.628 202.084 174.956 201.764C175.284 201.444 175.684 201.284 176.156 201.284C176.628 201.284 177.024 201.444 177.344 201.764C177.672 202.084 177.836 202.48 177.836 202.952C177.836 203.424 177.676 203.82 177.356 204.14C177.044 204.46 176.648 204.62 176.168 204.62ZM187.227 205.664C188.395 205.664 189.455 205.948 190.407 206.516C191.367 207.084 192.131 207.848 192.699 208.808C193.267 209.76 193.551 210.816 193.551 211.976C193.551 212.848 193.387 213.668 193.059 214.436C192.731 215.204 192.275 215.88 191.691 216.464C191.115 217.04 190.443 217.492 189.675 217.82C188.915 218.148 188.099 218.312 187.227 218.312C186.539 218.312 185.927 218.16 185.391 217.856C184.855 217.552 184.395 217.168 184.011 216.704V218H180.699V200H184.011V207.272C184.395 206.8 184.855 206.416 185.391 206.12C185.927 205.816 186.539 205.664 187.227 205.664ZM187.179 215.108C187.731 215.108 188.231 214.968 188.679 214.688C189.135 214.408 189.495 214.032 189.759 213.56C190.023 213.08 190.155 212.552 190.155 211.976C190.155 211.4 190.019 210.876 189.747 210.404C189.483 209.932 189.123 209.556 188.667 209.276C188.219 208.988 187.723 208.844 187.179 208.844C186.635 208.844 186.143 208.988 185.703 209.276C185.271 209.556 184.927 209.936 184.671 210.416C184.423 210.888 184.299 211.408 184.299 211.976C184.299 212.56 184.423 213.088 184.671 213.56C184.927 214.032 185.271 214.408 185.703 214.688C186.143 214.968 186.635 215.108 187.179 215.108ZM195.09 206H198.402V218H195.09V206ZM196.77 204.62C196.29 204.62 195.886 204.46 195.558 204.14C195.23 203.82 195.066 203.424 195.066 202.952C195.066 202.48 195.23 202.084 195.558 201.764C195.886 201.444 196.286 201.284 196.758 201.284C197.23 201.284 197.626 201.444 197.946 201.764C198.274 202.084 198.438 202.48 198.438 202.952C198.438 203.424 198.278 203.82 197.958 204.14C197.646 204.46 197.25 204.62 196.77 204.62ZM201.301 218V200H204.613V218H201.301ZM207.488 206H210.8V218H207.488V206ZM209.168 204.62C208.688 204.62 208.284 204.46 207.956 204.14C207.628 203.82 207.464 203.424 207.464 202.952C207.464 202.48 207.628 202.084 207.956 201.764C208.284 201.444 208.684 201.284 209.156 201.284C209.628 201.284 210.024 201.444 210.344 201.764C210.672 202.084 210.836 202.48 210.836 202.952C210.836 203.424 210.676 203.82 210.356 204.14C210.044 204.46 209.648 204.62 209.168 204.62ZM222.168 200H225.48V218H222.168V216.728C221.8 217.192 221.344 217.572 220.8 217.868C220.256 218.164 219.636 218.312 218.94 218.312C218.068 218.312 217.252 218.148 216.492 217.82C215.732 217.492 215.06 217.04 214.476 216.464C213.9 215.88 213.448 215.208 213.12 214.448C212.792 213.688 212.628 212.872 212.628 212C212.628 211.128 212.792 210.312 213.12 209.552C213.448 208.792 213.9 208.124 214.476 207.548C215.06 206.964 215.732 206.508 216.492 206.18C217.252 205.852 218.068 205.688 218.94 205.688C219.636 205.688 220.256 205.836 220.8 206.132C221.344 206.42 221.8 206.8 222.168 207.272V200ZM218.988 215.132C219.532 215.132 220.024 214.992 220.464 214.712C220.904 214.432 221.252 214.056 221.508 213.584C221.764 213.104 221.892 212.576 221.892 212C221.892 211.416 221.764 210.888 221.508 210.416C221.252 209.944 220.904 209.568 220.464 209.288C220.024 209.008 219.532 208.868 218.988 208.868C218.436 208.868 217.936 209.008 217.488 209.288C217.04 209.568 216.684 209.948 216.42 210.428C216.156 210.9 216.024 211.424 216.024 212C216.024 212.576 216.156 213.104 216.42 213.584C216.692 214.056 217.052 214.432 217.5 214.712C217.948 214.992 218.444 215.132 218.988 215.132ZM236.945 206H240.257V218H236.933L236.777 216.752C236.465 217.216 236.065 217.592 235.577 217.88C235.089 218.168 234.517 218.312 233.861 218.312C232.965 218.312 232.129 218.144 231.353 217.808C230.577 217.472 229.893 217.008 229.301 216.416C228.709 215.824 228.245 215.14 227.909 214.364C227.581 213.58 227.417 212.74 227.417 211.844C227.417 210.988 227.573 210.188 227.885 209.444C228.197 208.7 228.637 208.044 229.205 207.476C229.773 206.908 230.425 206.464 231.161 206.144C231.905 205.824 232.705 205.664 233.561 205.664C234.297 205.664 234.957 205.82 235.541 206.132C236.133 206.444 236.649 206.84 237.089 207.32L236.945 206ZM233.777 215.132C234.321 215.132 234.813 214.992 235.253 214.712C235.693 214.432 236.041 214.056 236.297 213.584C236.553 213.104 236.681 212.576 236.681 212C236.681 211.416 236.553 210.888 236.297 210.416C236.041 209.944 235.693 209.568 235.253 209.288C234.813 209.008 234.321 208.868 233.777 208.868C233.225 208.868 232.725 209.008 232.277 209.288C231.829 209.568 231.473 209.948 231.209 210.428C230.945 210.9 230.813 211.424 230.813 212C230.813 212.576 230.945 213.104 231.209 213.584C231.481 214.056 231.841 214.432 232.289 214.712C232.737 214.992 233.233 215.132 233.777 215.132ZM251.254 200H254.566V218H251.254V216.728C250.886 217.192 250.43 217.572 249.886 217.868C249.342 218.164 248.722 218.312 248.026 218.312C247.154 218.312 246.338 218.148 245.578 217.82C244.818 217.492 244.146 217.04 243.562 216.464C242.986 215.88 242.534 215.208 242.206 214.448C241.878 213.688 241.714 212.872 241.714 212C241.714 211.128 241.878 210.312 242.206 209.552C242.534 208.792 242.986 208.124 243.562 207.548C244.146 206.964 244.818 206.508 245.578 206.18C246.338 205.852 247.154 205.688 248.026 205.688C248.722 205.688 249.342 205.836 249.886 206.132C250.43 206.42 250.886 206.8 251.254 207.272V200ZM248.074 215.132C248.618 215.132 249.11 214.992 249.55 214.712C249.99 214.432 250.338 214.056 250.594 213.584C250.85 213.104 250.978 212.576 250.978 212C250.978 211.416 250.85 210.888 250.594 210.416C250.338 209.944 249.99 209.568 249.55 209.288C249.11 209.008 248.618 208.868 248.074 208.868C247.522 208.868 247.022 209.008 246.574 209.288C246.126 209.568 245.77 209.948 245.506 210.428C245.242 210.9 245.11 211.424 245.11 212C245.11 212.576 245.242 213.104 245.506 213.584C245.778 214.056 246.138 214.432 246.586 214.712C247.034 214.992 247.53 215.132 248.074 215.132ZM261.129 213.056C261.129 212.112 261.365 211.248 261.837 210.464C262.309 209.672 262.961 209.048 263.793 208.592C264.153 208.4 264.433 208.12 264.633 207.752C264.841 207.376 264.945 206.96 264.945 206.504C264.945 206.08 264.841 205.692 264.633 205.34C264.425 204.988 264.141 204.712 263.781 204.512C263.429 204.304 263.041 204.2 262.617 204.2C262.193 204.2 261.801 204.304 261.441 204.512C261.089 204.712 260.809 204.988 260.601 205.34C260.393 205.692 260.289 206.08 260.289 206.504H256.977C256.977 205.472 257.229 204.532 257.733 203.684C258.245 202.836 258.925 202.16 259.773 201.656C260.629 201.144 261.577 200.888 262.617 200.888C263.657 200.888 264.601 201.144 265.449 201.656C266.305 202.16 266.985 202.836 267.489 203.684C268.001 204.532 268.257 205.472 268.257 206.504C268.257 207.568 267.997 208.548 267.477 209.444C266.965 210.34 266.257 211.028 265.353 211.508C265.065 211.66 264.841 211.872 264.681 212.144C264.521 212.416 264.441 212.72 264.441 213.056H261.129ZM262.941 218.312C262.469 218.312 262.069 218.148 261.741 217.82C261.421 217.492 261.261 217.092 261.261 216.62C261.261 216.156 261.421 215.764 261.741 215.444C262.069 215.124 262.469 214.964 262.941 214.964C263.397 214.964 263.785 215.124 264.105 215.444C264.433 215.764 264.597 216.156 264.597 216.62C264.597 217.092 264.433 217.492 264.105 217.82C263.785 218.148 263.397 218.312 262.941 218.312Z" fill="white"/>
<path d="M98.3986 253V236.2H99.6946V251.704H107.639V253H98.3986ZM119.085 241H120.381V253H119.085L119.049 250.54C118.641 251.372 118.057 252.044 117.297 252.556C116.545 253.06 115.641 253.312 114.585 253.312C113.713 253.312 112.893 253.148 112.125 252.82C111.365 252.484 110.693 252.028 110.109 251.452C109.525 250.868 109.069 250.196 108.741 249.436C108.413 248.668 108.249 247.844 108.249 246.964C108.249 246.092 108.409 245.276 108.729 244.516C109.057 243.756 109.509 243.088 110.085 242.512C110.661 241.928 111.329 241.476 112.089 241.156C112.849 240.828 113.661 240.664 114.525 240.664C115.589 240.664 116.509 240.924 117.285 241.444C118.069 241.956 118.681 242.628 119.121 243.46L119.085 241ZM114.573 252.04C115.493 252.04 116.281 251.816 116.937 251.368C117.601 250.912 118.109 250.3 118.461 249.532C118.813 248.764 118.989 247.92 118.989 247C118.989 246.056 118.809 245.204 118.449 244.444C118.097 243.676 117.589 243.068 116.925 242.62C116.269 242.164 115.485 241.936 114.573 241.936C113.645 241.936 112.801 242.164 112.041 242.62C111.289 243.076 110.689 243.688 110.241 244.456C109.793 245.224 109.569 246.072 109.569 247C109.569 247.944 109.797 248.796 110.253 249.556C110.717 250.316 111.329 250.92 112.089 251.368C112.849 251.816 113.677 252.04 114.573 252.04ZM126.53 253.228C125.866 253.22 125.214 253.104 124.574 252.88C123.942 252.648 123.39 252.34 122.918 251.956C122.446 251.572 122.118 251.136 121.934 250.648L123.074 250.156C123.21 250.516 123.47 250.84 123.854 251.128C124.246 251.416 124.686 251.644 125.174 251.812C125.67 251.972 126.154 252.052 126.626 252.052C127.162 252.052 127.666 251.96 128.138 251.776C128.61 251.592 128.994 251.332 129.29 250.996C129.586 250.66 129.734 250.264 129.734 249.808C129.734 249.328 129.578 248.952 129.266 248.68C128.954 248.4 128.554 248.176 128.066 248.008C127.586 247.832 127.09 247.668 126.578 247.516C125.698 247.26 124.934 247 124.286 246.736C123.646 246.464 123.15 246.12 122.798 245.704C122.446 245.288 122.27 244.74 122.27 244.06C122.27 243.356 122.474 242.744 122.882 242.224C123.29 241.704 123.826 241.304 124.49 241.024C125.154 240.736 125.866 240.592 126.626 240.592C127.61 240.592 128.502 240.808 129.302 241.24C130.11 241.672 130.678 242.24 131.006 242.944L129.95 243.568C129.79 243.2 129.538 242.884 129.194 242.62C128.85 242.356 128.458 242.152 128.018 242.008C127.578 241.864 127.134 241.788 126.686 241.78C126.126 241.772 125.602 241.86 125.114 242.044C124.634 242.22 124.246 242.48 123.95 242.824C123.654 243.16 123.506 243.568 123.506 244.048C123.506 244.528 123.642 244.896 123.914 245.152C124.186 245.408 124.566 245.616 125.054 245.776C125.542 245.928 126.106 246.108 126.746 246.316C127.49 246.548 128.182 246.808 128.822 247.096C129.47 247.376 129.99 247.728 130.382 248.152C130.782 248.576 130.978 249.124 130.97 249.796C130.97 250.5 130.758 251.112 130.334 251.632C129.918 252.152 129.37 252.552 128.69 252.832C128.018 253.112 127.298 253.244 126.53 253.228ZM142.561 253.228C141.897 253.22 141.245 253.104 140.605 252.88C139.973 252.648 139.421 252.34 138.949 251.956C138.477 251.572 138.149 251.136 137.965 250.648L139.105 250.156C139.241 250.516 139.501 250.84 139.885 251.128C140.277 251.416 140.717 251.644 141.205 251.812C141.701 251.972 142.185 252.052 142.657 252.052C143.193 252.052 143.697 251.96 144.169 251.776C144.641 251.592 145.025 251.332 145.321 250.996C145.617 250.66 145.765 250.264 145.765 249.808C145.765 249.328 145.609 248.952 145.297 248.68C144.985 248.4 144.585 248.176 144.097 248.008C143.617 247.832 143.121 247.668 142.609 247.516C141.729 247.26 140.965 247 140.317 246.736C139.677 246.464 139.181 246.12 138.829 245.704C138.477 245.288 138.301 244.74 138.301 244.06C138.301 243.356 138.505 242.744 138.913 242.224C139.321 241.704 139.857 241.304 140.521 241.024C141.185 240.736 141.897 240.592 142.657 240.592C143.641 240.592 144.533 240.808 145.333 241.24C146.141 241.672 146.709 242.24 147.037 242.944L145.981 243.568C145.821 243.2 145.569 242.884 145.225 242.62C144.881 242.356 144.489 242.152 144.049 242.008C143.609 241.864 143.165 241.788 142.717 241.78C142.157 241.772 141.633 241.86 141.145 242.044C140.665 242.22 140.277 242.48 139.981 242.824C139.685 243.16 139.537 243.568 139.537 244.048C139.537 244.528 139.673 244.896 139.945 245.152C140.217 245.408 140.597 245.616 141.085 245.776C141.573 245.928 142.137 246.108 142.777 246.316C143.521 246.548 144.213 246.808 144.853 247.096C145.501 247.376 146.021 247.728 146.413 248.152C146.813 248.576 147.009 249.124 147.001 249.796C147.001 250.5 146.789 251.112 146.365 251.632C145.949 252.152 145.401 252.552 144.721 252.832C144.049 253.112 143.329 253.244 142.561 253.228ZM154.28 253.312C153.176 253.312 152.168 253.028 151.256 252.46C150.352 251.892 149.628 251.132 149.084 250.18C148.548 249.22 148.28 248.16 148.28 247C148.28 246.12 148.436 245.3 148.748 244.54C149.06 243.772 149.488 243.1 150.032 242.524C150.584 241.94 151.224 241.484 151.952 241.156C152.68 240.828 153.456 240.664 154.28 240.664C155.384 240.664 156.388 240.948 157.292 241.516C158.204 242.084 158.928 242.848 159.464 243.808C160.008 244.768 160.28 245.832 160.28 247C160.28 247.872 160.124 248.688 159.812 249.448C159.5 250.208 159.068 250.88 158.516 251.464C157.972 252.04 157.336 252.492 156.608 252.82C155.888 253.148 155.112 253.312 154.28 253.312ZM154.28 252.016C155.168 252.016 155.964 251.784 156.668 251.32C157.38 250.856 157.944 250.244 158.36 249.484C158.776 248.724 158.984 247.896 158.984 247C158.984 246.096 158.776 245.26 158.36 244.492C157.944 243.724 157.38 243.112 156.668 242.656C155.956 242.192 155.16 241.96 154.28 241.96C153.392 241.96 152.592 242.192 151.88 242.656C151.168 243.12 150.604 243.736 150.188 244.504C149.78 245.264 149.576 246.096 149.576 247C149.576 247.936 149.788 248.784 150.212 249.544C150.644 250.296 151.216 250.896 151.928 251.344C152.64 251.792 153.424 252.016 154.28 252.016ZM162.289 253V235H163.585V253H162.289ZM165.981 248.356V241H167.277V248.152C167.277 248.864 167.449 249.512 167.793 250.096C168.145 250.68 168.613 251.144 169.197 251.488C169.781 251.832 170.425 252.004 171.129 252.004C171.841 252.004 172.485 251.832 173.061 251.488C173.645 251.144 174.109 250.68 174.453 250.096C174.805 249.512 174.981 248.864 174.981 248.152V241H176.277V253H174.981V251.14C174.549 251.796 173.977 252.324 173.265 252.724C172.561 253.116 171.785 253.312 170.937 253.312C170.025 253.312 169.193 253.092 168.441 252.652C167.689 252.204 167.089 251.604 166.641 250.852C166.201 250.1 165.981 249.268 165.981 248.356ZM187.518 250.18L188.67 250.804C188.126 251.564 187.434 252.172 186.594 252.628C185.762 253.084 184.858 253.312 183.882 253.312C182.778 253.312 181.77 253.028 180.858 252.46C179.954 251.892 179.23 251.132 178.686 250.18C178.15 249.22 177.882 248.16 177.882 247C177.882 246.12 178.038 245.3 178.35 244.54C178.662 243.772 179.09 243.1 179.634 242.524C180.186 241.94 180.826 241.484 181.554 241.156C182.282 240.828 183.058 240.664 183.882 240.664C184.858 240.664 185.762 240.892 186.594 241.348C187.434 241.804 188.126 242.416 188.67 243.184L187.518 243.796C187.062 243.204 186.51 242.752 185.862 242.44C185.214 242.12 184.554 241.96 183.882 241.96C183.002 241.96 182.206 242.192 181.494 242.656C180.782 243.112 180.218 243.724 179.802 244.492C179.386 245.252 179.178 246.088 179.178 247C179.178 247.92 179.39 248.76 179.814 249.52C180.238 250.28 180.806 250.888 181.518 251.344C182.23 251.792 183.018 252.016 183.882 252.016C184.61 252.016 185.294 251.844 185.934 251.5C186.574 251.156 187.102 250.716 187.518 250.18ZM190.696 241H191.992V253H190.696V241ZM191.356 238.732C191.132 238.732 190.94 238.66 190.78 238.516C190.628 238.364 190.552 238.176 190.552 237.952C190.552 237.728 190.628 237.544 190.78 237.4C190.94 237.248 191.132 237.172 191.356 237.172C191.572 237.172 191.756 237.248 191.908 237.4C192.068 237.544 192.148 237.728 192.148 237.952C192.148 238.176 192.072 238.364 191.92 238.516C191.768 238.66 191.58 238.732 191.356 238.732ZM200.077 253.312C198.973 253.312 197.965 253.028 197.053 252.46C196.149 251.892 195.425 251.132 194.881 250.18C194.345 249.22 194.077 248.16 194.077 247C194.077 246.12 194.233 245.3 194.545 244.54C194.857 243.772 195.285 243.1 195.829 242.524C196.381 241.94 197.021 241.484 197.749 241.156C198.477 240.828 199.253 240.664 200.077 240.664C201.181 240.664 202.185 240.948 203.089 241.516C204.001 242.084 204.725 242.848 205.261 243.808C205.805 244.768 206.077 245.832 206.077 247C206.077 247.872 205.921 248.688 205.609 249.448C205.297 250.208 204.865 250.88 204.313 251.464C203.769 252.04 203.133 252.492 202.405 252.82C201.685 253.148 200.909 253.312 200.077 253.312ZM200.077 252.016C200.965 252.016 201.761 251.784 202.465 251.32C203.177 250.856 203.741 250.244 204.157 249.484C204.573 248.724 204.781 247.896 204.781 247C204.781 246.096 204.573 245.26 204.157 244.492C203.741 243.724 203.177 243.112 202.465 242.656C201.753 242.192 200.957 241.96 200.077 241.96C199.189 241.96 198.389 242.192 197.677 242.656C196.965 243.12 196.401 243.736 195.985 244.504C195.577 245.264 195.373 246.096 195.373 247C195.373 247.936 195.585 248.784 196.009 249.544C196.441 250.296 197.013 250.896 197.725 251.344C198.437 251.792 199.221 252.016 200.077 252.016ZM218.452 245.62V253H217.156V245.824C217.156 245.112 216.984 244.464 216.64 243.88C216.296 243.296 215.832 242.832 215.248 242.488C214.664 242.144 214.016 241.972 213.304 241.972C212.6 241.972 211.956 242.144 211.372 242.488C210.788 242.832 210.32 243.296 209.968 243.88C209.624 244.464 209.452 245.112 209.452 245.824V253H208.156V241H209.452V242.836C209.884 242.172 210.456 241.644 211.168 241.252C211.88 240.86 212.656 240.664 213.496 240.664C214.416 240.664 215.248 240.888 215.992 241.336C216.744 241.776 217.34 242.372 217.78 243.124C218.228 243.876 218.452 244.708 218.452 245.62ZM225.905 253.312C224.801 253.312 223.793 253.028 222.881 252.46C221.977 251.892 221.253 251.132 220.709 250.18C220.173 249.22 219.905 248.16 219.905 247C219.905 246.12 220.061 245.3 220.373 244.54C220.685 243.772 221.113 243.1 221.657 242.524C222.209 241.94 222.849 241.484 223.577 241.156C224.305 240.828 225.081 240.664 225.905 240.664C226.777 240.664 227.581 240.836 228.317 241.18C229.061 241.516 229.701 241.992 230.237 242.608C230.773 243.224 231.185 243.952 231.473 244.792C231.761 245.624 231.893 246.536 231.869 247.528H221.261C221.349 248.384 221.605 249.152 222.029 249.832C222.461 250.504 223.013 251.036 223.685 251.428C224.357 251.812 225.097 252.008 225.905 252.016C226.793 252.016 227.593 251.784 228.305 251.32C229.017 250.848 229.589 250.204 230.021 249.388L231.329 249.688C230.849 250.752 230.125 251.624 229.157 252.304C228.189 252.976 227.105 253.312 225.905 253.312ZM221.225 246.424H230.561C230.513 245.6 230.273 244.844 229.841 244.156C229.417 243.46 228.861 242.904 228.173 242.488C227.485 242.072 226.729 241.864 225.905 241.864C225.081 241.864 224.329 242.068 223.649 242.476C222.969 242.884 222.413 243.436 221.981 244.132C221.557 244.82 221.305 245.584 221.225 246.424ZM237.717 253.228C237.053 253.22 236.401 253.104 235.761 252.88C235.129 252.648 234.577 252.34 234.105 251.956C233.633 251.572 233.305 251.136 233.121 250.648L234.261 250.156C234.397 250.516 234.657 250.84 235.041 251.128C235.433 251.416 235.873 251.644 236.361 251.812C236.857 251.972 237.341 252.052 237.813 252.052C238.349 252.052 238.853 251.96 239.325 251.776C239.797 251.592 240.181 251.332 240.477 250.996C240.773 250.66 240.921 250.264 240.921 249.808C240.921 249.328 240.765 248.952 240.453 248.68C240.141 248.4 239.741 248.176 239.253 248.008C238.773 247.832 238.277 247.668 237.765 247.516C236.885 247.26 236.121 247 235.473 246.736C234.833 246.464 234.337 246.12 233.985 245.704C233.633 245.288 233.457 244.74 233.457 244.06C233.457 243.356 233.661 242.744 234.069 242.224C234.477 241.704 235.013 241.304 235.677 241.024C236.341 240.736 237.053 240.592 237.813 240.592C238.797 240.592 239.689 240.808 240.489 241.24C241.297 241.672 241.865 242.24 242.193 242.944L241.137 243.568C240.977 243.2 240.725 242.884 240.381 242.62C240.037 242.356 239.645 242.152 239.205 242.008C238.765 241.864 238.321 241.788 237.873 241.78C237.313 241.772 236.789 241.86 236.301 242.044C235.821 242.22 235.433 242.48 235.137 242.824C234.841 243.16 234.693 243.568 234.693 244.048C234.693 244.528 234.829 244.896 235.101 245.152C235.373 245.408 235.753 245.616 236.241 245.776C236.729 245.928 237.293 246.108 237.933 246.316C238.677 246.548 239.369 246.808 240.009 247.096C240.657 247.376 241.177 247.728 241.569 248.152C241.969 248.576 242.165 249.124 242.157 249.796C242.157 250.5 241.945 251.112 241.521 251.632C241.105 252.152 240.557 252.552 239.877 252.832C239.205 253.112 238.485 253.244 237.717 253.228ZM255.584 253.336C254.424 253.336 253.364 253.052 252.404 252.484C251.452 251.916 250.692 251.152 250.124 250.192C249.556 249.232 249.272 248.168 249.272 247C249.272 246.128 249.436 245.312 249.764 244.552C250.092 243.792 250.544 243.124 251.12 242.548C251.704 241.964 252.376 241.508 253.136 241.18C253.896 240.852 254.712 240.688 255.584 240.688C256.648 240.688 257.56 240.944 258.32 241.456C259.088 241.968 259.684 242.64 260.108 243.472V241H261.404V259H260.108V250.552C259.684 251.384 259.088 252.056 258.32 252.568C257.56 253.08 256.648 253.336 255.584 253.336ZM255.596 241.96C254.668 241.96 253.824 242.188 253.064 242.644C252.312 243.1 251.712 243.712 251.264 244.48C250.816 245.24 250.592 246.08 250.592 247C250.592 247.952 250.82 248.812 251.276 249.58C251.732 250.34 252.34 250.944 253.1 251.392C253.86 251.84 254.692 252.064 255.596 252.064C256.516 252.064 257.304 251.836 257.96 251.38C258.624 250.916 259.132 250.3 259.484 249.532C259.836 248.764 260.012 247.92 260.012 247C260.012 246.064 259.832 245.216 259.472 244.456C259.12 243.696 258.612 243.092 257.948 242.644C257.292 242.188 256.508 241.96 255.596 241.96ZM263.716 248.356V241H265.012V248.152C265.012 248.864 265.184 249.512 265.528 250.096C265.88 250.68 266.348 251.144 266.932 251.488C267.516 251.832 268.16 252.004 268.864 252.004C269.576 252.004 270.22 251.832 270.796 251.488C271.38 251.144 271.844 250.68 272.188 250.096C272.54 249.512 272.716 248.864 272.716 248.152V241H274.012V253H272.716V251.14C272.284 251.796 271.712 252.324 271 252.724C270.296 253.116 269.52 253.312 268.672 253.312C267.76 253.312 266.928 253.092 266.176 252.652C265.424 252.204 264.824 251.604 264.376 250.852C263.936 250.1 263.716 249.268 263.716 248.356ZM281.616 253.312C280.512 253.312 279.504 253.028 278.592 252.46C277.688 251.892 276.964 251.132 276.42 250.18C275.884 249.22 275.616 248.16 275.616 247C275.616 246.12 275.772 245.3 276.084 244.54C276.396 243.772 276.824 243.1 277.368 242.524C277.92 241.94 278.56 241.484 279.288 241.156C280.016 240.828 280.792 240.664 281.616 240.664C282.488 240.664 283.292 240.836 284.028 241.18C284.772 241.516 285.412 241.992 285.948 242.608C286.484 243.224 286.896 243.952 287.184 244.792C287.472 245.624 287.604 246.536 287.58 247.528H276.972C277.06 248.384 277.316 249.152 277.74 249.832C278.172 250.504 278.724 251.036 279.396 251.428C280.068 251.812 280.808 252.008 281.616 252.016C282.504 252.016 283.304 251.784 284.016 251.32C284.728 250.848 285.3 250.204 285.732 249.388L287.04 249.688C286.56 250.752 285.836 251.624 284.868 252.304C283.9 252.976 282.816 253.312 281.616 253.312ZM276.936 246.424H286.272C286.224 245.6 285.984 244.844 285.552 244.156C285.128 243.46 284.572 242.904 283.884 242.488C283.196 242.072 282.44 241.864 281.616 241.864C280.792 241.864 280.04 242.068 279.36 242.476C278.68 242.884 278.124 243.436 277.692 244.132C277.268 244.82 277.016 245.584 276.936 246.424ZM64.3622 282.312C63.2582 282.312 62.2502 282.028 61.3382 281.46C60.4342 280.892 59.7102 280.132 59.1662 279.18C58.6302 278.22 58.3622 277.16 58.3622 276C58.3622 275.12 58.5182 274.3 58.8302 273.54C59.1422 272.772 59.5702 272.1 60.1142 271.524C60.6662 270.94 61.3062 270.484 62.0342 270.156C62.7622 269.828 63.5382 269.664 64.3622 269.664C65.4662 269.664 66.4702 269.948 67.3742 270.516C68.2862 271.084 69.0102 271.848 69.5462 272.808C70.0902 273.768 70.3622 274.832 70.3622 276C70.3622 276.872 70.2062 277.688 69.8942 278.448C69.5822 279.208 69.1502 279.88 68.5982 280.464C68.0542 281.04 67.4182 281.492 66.6902 281.82C65.9702 282.148 65.1942 282.312 64.3622 282.312ZM64.3622 281.016C65.2502 281.016 66.0462 280.784 66.7502 280.32C67.4622 279.856 68.0262 279.244 68.4422 278.484C68.8582 277.724 69.0662 276.896 69.0662 276C69.0662 275.096 68.8582 274.26 68.4422 273.492C68.0262 272.724 67.4622 272.112 66.7502 271.656C66.0382 271.192 65.2422 270.96 64.3622 270.96C63.4742 270.96 62.6742 271.192 61.9622 271.656C61.2502 272.12 60.6862 272.736 60.2702 273.504C59.8622 274.264 59.6582 275.096 59.6582 276C59.6582 276.936 59.8702 277.784 60.2942 278.544C60.7262 279.296 61.2982 279.896 62.0102 280.344C62.7222 280.792 63.5062 281.016 64.3622 281.016ZM74.7079 266.676V270H78.4159V271.296H74.7079V282H73.4119V271.296H71.6719V270H73.4119V266.676C73.4119 266.132 73.5439 265.636 73.8079 265.188C74.0799 264.74 74.4399 264.384 74.8879 264.12C75.3439 263.848 75.8439 263.712 76.3879 263.712C76.7879 263.712 77.1719 263.792 77.5399 263.952C77.9079 264.104 78.2359 264.328 78.5239 264.624L77.5999 265.536C77.4559 265.368 77.2759 265.24 77.0599 265.152C76.8439 265.056 76.6199 265.008 76.3879 265.008C75.9319 265.008 75.5359 265.172 75.1999 265.5C74.8719 265.828 74.7079 266.22 74.7079 266.676ZM80.6916 282V270H81.9876V271.836C82.4196 271.172 82.9916 270.644 83.7036 270.252C84.4156 269.86 85.1916 269.664 86.0316 269.664C86.5036 269.664 86.9556 269.724 87.3876 269.844L86.8476 271.116C86.5036 271.02 86.1676 270.972 85.8396 270.972C85.1356 270.972 84.4916 271.144 83.9076 271.488C83.3236 271.832 82.8556 272.296 82.5036 272.88C82.1596 273.464 81.9876 274.112 81.9876 274.824V282H80.6916ZM93.5654 282.312C92.4614 282.312 91.4534 282.028 90.5414 281.46C89.6374 280.892 88.9134 280.132 88.3694 279.18C87.8334 278.22 87.5654 277.16 87.5654 276C87.5654 275.12 87.7214 274.3 88.0334 273.54C88.3454 272.772 88.7734 272.1 89.3174 271.524C89.8694 270.94 90.5094 270.484 91.2374 270.156C91.9654 269.828 92.7414 269.664 93.5654 269.664C94.4374 269.664 95.2414 269.836 95.9774 270.18C96.7214 270.516 97.3614 270.992 97.8974 271.608C98.4334 272.224 98.8454 272.952 99.1334 273.792C99.4214 274.624 99.5534 275.536 99.5294 276.528H88.9214C89.0094 277.384 89.2654 278.152 89.6894 278.832C90.1214 279.504 90.6734 280.036 91.3454 280.428C92.0174 280.812 92.7574 281.008 93.5654 281.016C94.4534 281.016 95.2534 280.784 95.9654 280.32C96.6774 279.848 97.2494 279.204 97.6814 278.388L98.9894 278.688C98.5094 279.752 97.7854 280.624 96.8174 281.304C95.8494 281.976 94.7654 282.312 93.5654 282.312ZM88.8854 275.424H98.2214C98.1734 274.6 97.9334 273.844 97.5014 273.156C97.0774 272.46 96.5214 271.904 95.8334 271.488C95.1454 271.072 94.3894 270.864 93.5654 270.864C92.7414 270.864 91.9894 271.068 91.3094 271.476C90.6294 271.884 90.0734 272.436 89.6414 273.132C89.2174 273.82 88.9654 274.584 88.8854 275.424ZM110.373 279.18L111.525 279.804C110.981 280.564 110.289 281.172 109.449 281.628C108.617 282.084 107.713 282.312 106.737 282.312C105.633 282.312 104.625 282.028 103.713 281.46C102.809 280.892 102.085 280.132 101.541 279.18C101.005 278.22 100.737 277.16 100.737 276C100.737 275.12 100.893 274.3 101.205 273.54C101.517 272.772 101.945 272.1 102.489 271.524C103.041 270.94 103.681 270.484 104.409 270.156C105.137 269.828 105.913 269.664 106.737 269.664C107.713 269.664 108.617 269.892 109.449 270.348C110.289 270.804 110.981 271.416 111.525 272.184L110.373 272.796C109.917 272.204 109.365 271.752 108.717 271.44C108.069 271.12 107.409 270.96 106.737 270.96C105.857 270.96 105.061 271.192 104.349 271.656C103.637 272.112 103.073 272.724 102.657 273.492C102.241 274.252 102.033 275.088 102.033 276C102.033 276.92 102.245 277.76 102.669 278.52C103.093 279.28 103.661 279.888 104.373 280.344C105.085 280.792 105.873 281.016 106.737 281.016C107.465 281.016 108.149 280.844 108.789 280.5C109.429 280.156 109.957 279.716 110.373 279.18ZM118.878 282.312C117.774 282.312 116.766 282.028 115.854 281.46C114.95 280.892 114.226 280.132 113.682 279.18C113.146 278.22 112.878 277.16 112.878 276C112.878 275.12 113.034 274.3 113.346 273.54C113.658 272.772 114.086 272.1 114.63 271.524C115.182 270.94 115.822 270.484 116.55 270.156C117.278 269.828 118.054 269.664 118.878 269.664C119.75 269.664 120.554 269.836 121.29 270.18C122.034 270.516 122.674 270.992 123.21 271.608C123.746 272.224 124.158 272.952 124.446 273.792C124.734 274.624 124.866 275.536 124.842 276.528H114.234C114.322 277.384 114.578 278.152 115.002 278.832C115.434 279.504 115.986 280.036 116.658 280.428C117.33 280.812 118.07 281.008 118.878 281.016C119.766 281.016 120.566 280.784 121.278 280.32C121.99 279.848 122.562 279.204 122.994 278.388L124.302 278.688C123.822 279.752 123.098 280.624 122.13 281.304C121.162 281.976 120.078 282.312 118.878 282.312ZM114.198 275.424H123.534C123.486 274.6 123.246 273.844 122.814 273.156C122.39 272.46 121.834 271.904 121.146 271.488C120.458 271.072 119.702 270.864 118.878 270.864C118.054 270.864 117.302 271.068 116.622 271.476C115.942 271.884 115.386 272.436 114.954 273.132C114.53 273.82 114.278 274.584 114.198 275.424ZM126.934 282V270H128.23V271.836C128.67 271.172 129.242 270.644 129.946 270.252C130.65 269.86 131.426 269.664 132.274 269.664C133.202 269.664 134.046 269.896 134.806 270.36C135.574 270.816 136.17 271.424 136.594 272.184C137.018 271.424 137.61 270.816 138.37 270.36C139.13 269.896 139.974 269.664 140.902 269.664C141.814 269.664 142.646 269.888 143.398 270.336C144.15 270.776 144.746 271.372 145.186 272.124C145.634 272.876 145.858 273.708 145.858 274.62V282H144.562V274.86C144.562 274.164 144.394 273.524 144.058 272.94C143.722 272.348 143.27 271.872 142.702 271.512C142.134 271.152 141.502 270.972 140.806 270.972C140.118 270.972 139.486 271.14 138.91 271.476C138.342 271.804 137.89 272.26 137.554 272.844C137.218 273.428 137.05 274.1 137.05 274.86V282H135.754V274.86C135.754 274.1 135.582 273.428 135.238 272.844C134.902 272.26 134.45 271.804 133.882 271.476C133.314 271.14 132.682 270.972 131.986 270.972C131.298 270.972 130.67 271.152 130.102 271.512C129.534 271.872 129.078 272.348 128.734 272.94C128.398 273.524 128.23 274.164 128.23 274.86V282H126.934ZM153.308 282.312C152.204 282.312 151.196 282.028 150.284 281.46C149.38 280.892 148.656 280.132 148.112 279.18C147.576 278.22 147.308 277.16 147.308 276C147.308 275.12 147.464 274.3 147.776 273.54C148.088 272.772 148.516 272.1 149.06 271.524C149.612 270.94 150.252 270.484 150.98 270.156C151.708 269.828 152.484 269.664 153.308 269.664C154.412 269.664 155.416 269.948 156.32 270.516C157.232 271.084 157.956 271.848 158.492 272.808C159.036 273.768 159.308 274.832 159.308 276C159.308 276.872 159.152 277.688 158.84 278.448C158.528 279.208 158.096 279.88 157.544 280.464C157 281.04 156.364 281.492 155.636 281.82C154.916 282.148 154.14 282.312 153.308 282.312ZM153.308 281.016C154.196 281.016 154.992 280.784 155.696 280.32C156.408 279.856 156.972 279.244 157.388 278.484C157.804 277.724 158.012 276.896 158.012 276C158.012 275.096 157.804 274.26 157.388 273.492C156.972 272.724 156.408 272.112 155.696 271.656C154.984 271.192 154.188 270.96 153.308 270.96C152.42 270.96 151.62 271.192 150.908 271.656C150.196 272.12 149.632 272.736 149.216 273.504C148.808 274.264 148.604 275.096 148.604 276C148.604 276.936 148.816 277.784 149.24 278.544C149.672 279.296 150.244 279.896 150.956 280.344C151.668 280.792 152.452 281.016 153.308 281.016ZM165.143 282.228C164.479 282.22 163.827 282.104 163.187 281.88C162.555 281.648 162.003 281.34 161.531 280.956C161.059 280.572 160.731 280.136 160.547 279.648L161.687 279.156C161.823 279.516 162.083 279.84 162.467 280.128C162.859 280.416 163.299 280.644 163.787 280.812C164.283 280.972 164.767 281.052 165.239 281.052C165.775 281.052 166.279 280.96 166.751 280.776C167.223 280.592 167.607 280.332 167.903 279.996C168.199 279.66 168.347 279.264 168.347 278.808C168.347 278.328 168.191 277.952 167.879 277.68C167.567 277.4 167.167 277.176 166.679 277.008C166.199 276.832 165.703 276.668 165.191 276.516C164.311 276.26 163.547 276 162.899 275.736C162.259 275.464 161.763 275.12 161.411 274.704C161.059 274.288 160.883 273.74 160.883 273.06C160.883 272.356 161.087 271.744 161.495 271.224C161.903 270.704 162.439 270.304 163.103 270.024C163.767 269.736 164.479 269.592 165.239 269.592C166.223 269.592 167.115 269.808 167.915 270.24C168.723 270.672 169.291 271.24 169.619 271.944L168.563 272.568C168.403 272.2 168.151 271.884 167.807 271.62C167.463 271.356 167.071 271.152 166.631 271.008C166.191 270.864 165.747 270.788 165.299 270.78C164.739 270.772 164.215 270.86 163.727 271.044C163.247 271.22 162.859 271.48 162.563 271.824C162.267 272.16 162.119 272.568 162.119 273.048C162.119 273.528 162.255 273.896 162.527 274.152C162.799 274.408 163.179 274.616 163.667 274.776C164.155 274.928 164.719 275.108 165.359 275.316C166.103 275.548 166.795 275.808 167.435 276.096C168.083 276.376 168.603 276.728 168.995 277.152C169.395 277.576 169.591 278.124 169.583 278.796C169.583 279.5 169.371 280.112 168.947 280.632C168.531 281.152 167.983 281.552 167.303 281.832C166.631 282.112 165.911 282.244 165.143 282.228ZM181.174 282.228C180.51 282.22 179.858 282.104 179.218 281.88C178.586 281.648 178.034 281.34 177.562 280.956C177.09 280.572 176.762 280.136 176.578 279.648L177.718 279.156C177.854 279.516 178.114 279.84 178.498 280.128C178.89 280.416 179.33 280.644 179.818 280.812C180.314 280.972 180.798 281.052 181.27 281.052C181.806 281.052 182.31 280.96 182.782 280.776C183.254 280.592 183.638 280.332 183.934 279.996C184.23 279.66 184.378 279.264 184.378 278.808C184.378 278.328 184.222 277.952 183.91 277.68C183.598 277.4 183.198 277.176 182.71 277.008C182.23 276.832 181.734 276.668 181.222 276.516C180.342 276.26 179.578 276 178.93 275.736C178.29 275.464 177.794 275.12 177.442 274.704C177.09 274.288 176.914 273.74 176.914 273.06C176.914 272.356 177.118 271.744 177.526 271.224C177.934 270.704 178.47 270.304 179.134 270.024C179.798 269.736 180.51 269.592 181.27 269.592C182.254 269.592 183.146 269.808 183.946 270.24C184.754 270.672 185.322 271.24 185.65 271.944L184.594 272.568C184.434 272.2 184.182 271.884 183.838 271.62C183.494 271.356 183.102 271.152 182.662 271.008C182.222 270.864 181.778 270.788 181.33 270.78C180.77 270.772 180.246 270.86 179.758 271.044C179.278 271.22 178.89 271.48 178.594 271.824C178.298 272.16 178.15 272.568 178.15 273.048C178.15 273.528 178.286 273.896 178.558 274.152C178.83 274.408 179.21 274.616 179.698 274.776C180.186 274.928 180.75 275.108 181.39 275.316C182.134 275.548 182.826 275.808 183.466 276.096C184.114 276.376 184.634 276.728 185.026 277.152C185.426 277.576 185.622 278.124 185.614 278.796C185.614 279.5 185.402 280.112 184.978 280.632C184.562 281.152 184.014 281.552 183.334 281.832C182.662 282.112 181.942 282.244 181.174 282.228ZM192.893 282.312C191.789 282.312 190.781 282.028 189.869 281.46C188.965 280.892 188.241 280.132 187.697 279.18C187.161 278.22 186.893 277.16 186.893 276C186.893 275.12 187.049 274.3 187.361 273.54C187.673 272.772 188.101 272.1 188.645 271.524C189.197 270.94 189.837 270.484 190.565 270.156C191.293 269.828 192.069 269.664 192.893 269.664C193.997 269.664 195.001 269.948 195.905 270.516C196.817 271.084 197.541 271.848 198.077 272.808C198.621 273.768 198.893 274.832 198.893 276C198.893 276.872 198.737 277.688 198.425 278.448C198.113 279.208 197.681 279.88 197.129 280.464C196.585 281.04 195.949 281.492 195.221 281.82C194.501 282.148 193.725 282.312 192.893 282.312ZM192.893 281.016C193.781 281.016 194.577 280.784 195.281 280.32C195.993 279.856 196.557 279.244 196.973 278.484C197.389 277.724 197.597 276.896 197.597 276C197.597 275.096 197.389 274.26 196.973 273.492C196.557 272.724 195.993 272.112 195.281 271.656C194.569 271.192 193.773 270.96 192.893 270.96C192.005 270.96 191.205 271.192 190.493 271.656C189.781 272.12 189.217 272.736 188.801 273.504C188.393 274.264 188.189 275.096 188.189 276C188.189 276.936 188.401 277.784 188.825 278.544C189.257 279.296 189.829 279.896 190.541 280.344C191.253 280.792 192.037 281.016 192.893 281.016ZM211.269 274.62V282H209.973V274.824C209.973 274.112 209.801 273.464 209.457 272.88C209.113 272.296 208.649 271.832 208.065 271.488C207.481 271.144 206.833 270.972 206.121 270.972C205.417 270.972 204.773 271.144 204.189 271.488C203.605 271.832 203.137 272.296 202.785 272.88C202.441 273.464 202.269 274.112 202.269 274.824V282H200.973V270H202.269V271.836C202.701 271.172 203.273 270.644 203.985 270.252C204.697 269.86 205.473 269.664 206.313 269.664C207.233 269.664 208.065 269.888 208.809 270.336C209.561 270.776 210.157 271.372 210.597 272.124C211.045 272.876 211.269 273.708 211.269 274.62ZM224.722 282.312C223.618 282.312 222.61 282.028 221.698 281.46C220.794 280.892 220.07 280.132 219.526 279.18C218.99 278.22 218.722 277.16 218.722 276C218.722 275.12 218.878 274.3 219.19 273.54C219.502 272.772 219.93 272.1 220.474 271.524C221.026 270.94 221.666 270.484 222.394 270.156C223.122 269.828 223.898 269.664 224.722 269.664C225.594 269.664 226.398 269.836 227.134 270.18C227.878 270.516 228.518 270.992 229.054 271.608C229.59 272.224 230.002 272.952 230.29 273.792C230.578 274.624 230.71 275.536 230.686 276.528H220.078C220.166 277.384 220.422 278.152 220.846 278.832C221.278 279.504 221.83 280.036 222.502 280.428C223.174 280.812 223.914 281.008 224.722 281.016C225.61 281.016 226.41 280.784 227.122 280.32C227.834 279.848 228.406 279.204 228.838 278.388L230.146 278.688C229.666 279.752 228.942 280.624 227.974 281.304C227.006 281.976 225.922 282.312 224.722 282.312ZM220.042 275.424H229.378C229.33 274.6 229.09 273.844 228.658 273.156C228.234 272.46 227.678 271.904 226.99 271.488C226.302 271.072 225.546 270.864 224.722 270.864C223.898 270.864 223.146 271.068 222.466 271.476C221.786 271.884 221.23 272.436 220.798 273.132C220.374 273.82 220.122 274.584 220.042 275.424ZM236.534 282.228C235.87 282.22 235.218 282.104 234.578 281.88C233.946 281.648 233.394 281.34 232.922 280.956C232.45 280.572 232.122 280.136 231.938 279.648L233.078 279.156C233.214 279.516 233.474 279.84 233.858 280.128C234.25 280.416 234.69 280.644 235.178 280.812C235.674 280.972 236.158 281.052 236.63 281.052C237.166 281.052 237.67 280.96 238.142 280.776C238.614 280.592 238.998 280.332 239.294 279.996C239.59 279.66 239.738 279.264 239.738 278.808C239.738 278.328 239.582 277.952 239.27 277.68C238.958 277.4 238.558 277.176 238.07 277.008C237.59 276.832 237.094 276.668 236.582 276.516C235.702 276.26 234.938 276 234.29 275.736C233.65 275.464 233.154 275.12 232.802 274.704C232.45 274.288 232.274 273.74 232.274 273.06C232.274 272.356 232.478 271.744 232.886 271.224C233.294 270.704 233.83 270.304 234.494 270.024C235.158 269.736 235.87 269.592 236.63 269.592C237.614 269.592 238.506 269.808 239.306 270.24C240.114 270.672 240.682 271.24 241.01 271.944L239.954 272.568C239.794 272.2 239.542 271.884 239.198 271.62C238.854 271.356 238.462 271.152 238.022 271.008C237.582 270.864 237.138 270.788 236.69 270.78C236.13 270.772 235.606 270.86 235.118 271.044C234.638 271.22 234.25 271.48 233.954 271.824C233.658 272.16 233.51 272.568 233.51 273.048C233.51 273.528 233.646 273.896 233.918 274.152C234.19 274.408 234.57 274.616 235.058 274.776C235.546 274.928 236.11 275.108 236.75 275.316C237.494 275.548 238.186 275.808 238.826 276.096C239.474 276.376 239.994 276.728 240.386 277.152C240.786 277.576 240.982 278.124 240.974 278.796C240.974 279.5 240.762 280.112 240.338 280.632C239.922 281.152 239.374 281.552 238.694 281.832C238.022 282.112 237.302 282.244 236.534 282.228ZM251.889 279.18L253.041 279.804C252.497 280.564 251.805 281.172 250.965 281.628C250.133 282.084 249.229 282.312 248.253 282.312C247.149 282.312 246.141 282.028 245.229 281.46C244.325 280.892 243.601 280.132 243.057 279.18C242.521 278.22 242.253 277.16 242.253 276C242.253 275.12 242.409 274.3 242.721 273.54C243.033 272.772 243.461 272.1 244.005 271.524C244.557 270.94 245.197 270.484 245.925 270.156C246.653 269.828 247.429 269.664 248.253 269.664C249.229 269.664 250.133 269.892 250.965 270.348C251.805 270.804 252.497 271.416 253.041 272.184L251.889 272.796C251.433 272.204 250.881 271.752 250.233 271.44C249.585 271.12 248.925 270.96 248.253 270.96C247.373 270.96 246.577 271.192 245.865 271.656C245.153 272.112 244.589 272.724 244.173 273.492C243.757 274.252 243.549 275.088 243.549 276C243.549 276.92 243.761 277.76 244.185 278.52C244.609 279.28 245.177 279.888 245.889 280.344C246.601 280.792 247.389 281.016 248.253 281.016C248.981 281.016 249.665 280.844 250.305 280.5C250.945 280.156 251.473 279.716 251.889 279.18ZM265.229 270H266.525V282H265.229L265.193 279.54C264.785 280.372 264.201 281.044 263.441 281.556C262.689 282.06 261.785 282.312 260.729 282.312C259.857 282.312 259.037 282.148 258.269 281.82C257.509 281.484 256.837 281.028 256.253 280.452C255.669 279.868 255.213 279.196 254.885 278.436C254.557 277.668 254.393 276.844 254.393 275.964C254.393 275.092 254.553 274.276 254.873 273.516C255.201 272.756 255.653 272.088 256.229 271.512C256.805 270.928 257.473 270.476 258.233 270.156C258.993 269.828 259.805 269.664 260.669 269.664C261.733 269.664 262.653 269.924 263.429 270.444C264.213 270.956 264.825 271.628 265.265 272.46L265.229 270ZM260.717 281.04C261.637 281.04 262.425 280.816 263.081 280.368C263.745 279.912 264.253 279.3 264.605 278.532C264.957 277.764 265.133 276.92 265.133 276C265.133 275.056 264.953 274.204 264.593 273.444C264.241 272.676 263.733 272.068 263.069 271.62C262.413 271.164 261.629 270.936 260.717 270.936C259.789 270.936 258.945 271.164 258.185 271.62C257.433 272.076 256.833 272.688 256.385 273.456C255.937 274.224 255.713 275.072 255.713 276C255.713 276.944 255.941 277.796 256.397 278.556C256.861 279.316 257.473 279.92 258.233 280.368C258.993 280.816 259.821 281.04 260.717 281.04ZM269.106 282V264H270.402V282H269.106ZM283.323 270H284.619V282H283.323L283.287 279.54C282.879 280.372 282.295 281.044 281.535 281.556C280.783 282.06 279.879 282.312 278.823 282.312C277.951 282.312 277.131 282.148 276.363 281.82C275.603 281.484 274.931 281.028 274.347 280.452C273.763 279.868 273.307 279.196 272.979 278.436C272.651 277.668 272.487 276.844 272.487 275.964C272.487 275.092 272.647 274.276 272.967 273.516C273.295 272.756 273.747 272.088 274.323 271.512C274.899 270.928 275.567 270.476 276.327 270.156C277.087 269.828 277.899 269.664 278.763 269.664C279.827 269.664 280.747 269.924 281.523 270.444C282.307 270.956 282.919 271.628 283.359 272.46L283.323 270ZM278.811 281.04C279.731 281.04 280.519 280.816 281.175 280.368C281.839 279.912 282.347 279.3 282.699 278.532C283.051 277.764 283.227 276.92 283.227 276C283.227 275.056 283.047 274.204 282.687 273.444C282.335 272.676 281.827 272.068 281.163 271.62C280.507 271.164 279.723 270.936 278.811 270.936C277.883 270.936 277.039 271.164 276.279 271.62C275.527 272.076 274.927 272.688 274.479 273.456C274.031 274.224 273.807 275.072 273.807 276C273.807 276.944 274.035 277.796 274.491 278.556C274.955 279.316 275.567 279.92 276.327 280.368C277.087 280.816 277.915 281.04 278.811 281.04ZM293.019 269.664C294.179 269.664 295.235 269.948 296.187 270.516C297.147 271.084 297.911 271.848 298.479 272.808C299.047 273.76 299.331 274.82 299.331 275.988C299.331 276.86 299.167 277.68 298.839 278.448C298.511 279.208 298.055 279.88 297.471 280.464C296.895 281.04 296.227 281.492 295.467 281.82C294.707 282.148 293.891 282.312 293.019 282.312C291.955 282.312 291.039 282.056 290.271 281.544C289.511 281.032 288.919 280.36 288.495 279.528V282H287.199V264H288.495V272.448C288.919 271.616 289.511 270.944 290.271 270.432C291.039 269.92 291.955 269.664 293.019 269.664ZM293.007 281.04C293.935 281.04 294.775 280.812 295.527 280.356C296.287 279.9 296.891 279.292 297.339 278.532C297.795 277.764 298.023 276.916 298.023 275.988C298.023 275.044 297.791 274.192 297.327 273.432C296.863 272.664 296.251 272.056 295.491 271.608C294.739 271.16 293.911 270.936 293.007 270.936C292.087 270.936 291.295 271.164 290.631 271.62C289.975 272.076 289.471 272.688 289.119 273.456C288.767 274.224 288.591 275.068 288.591 275.988C288.591 276.932 288.767 277.784 289.119 278.544C289.479 279.304 289.987 279.912 290.643 280.368C291.307 280.816 292.095 281.04 293.007 281.04ZM301.356 282V264H302.652V282H301.356ZM310.737 282.312C309.633 282.312 308.625 282.028 307.713 281.46C306.809 280.892 306.085 280.132 305.541 279.18C305.005 278.22 304.737 277.16 304.737 276C304.737 275.12 304.893 274.3 305.205 273.54C305.517 272.772 305.945 272.1 306.489 271.524C307.041 270.94 307.681 270.484 308.409 270.156C309.137 269.828 309.913 269.664 310.737 269.664C311.609 269.664 312.413 269.836 313.149 270.18C313.893 270.516 314.533 270.992 315.069 271.608C315.605 272.224 316.017 272.952 316.305 273.792C316.593 274.624 316.725 275.536 316.701 276.528H306.093C306.181 277.384 306.437 278.152 306.861 278.832C307.293 279.504 307.845 280.036 308.517 280.428C309.189 280.812 309.929 281.008 310.737 281.016C311.625 281.016 312.425 280.784 313.137 280.32C313.849 279.848 314.421 279.204 314.853 278.388L316.161 278.688C315.681 279.752 314.957 280.624 313.989 281.304C313.021 281.976 311.937 282.312 310.737 282.312ZM306.057 275.424H315.393C315.345 274.6 315.105 273.844 314.673 273.156C314.249 272.46 313.693 271.904 313.005 271.488C312.317 271.072 311.561 270.864 310.737 270.864C309.913 270.864 309.161 271.068 308.481 271.476C307.801 271.884 307.245 272.436 306.813 273.132C306.389 273.82 306.137 274.584 306.057 275.424ZM322.549 282.228C321.885 282.22 321.233 282.104 320.593 281.88C319.961 281.648 319.409 281.34 318.937 280.956C318.465 280.572 318.137 280.136 317.953 279.648L319.093 279.156C319.229 279.516 319.489 279.84 319.873 280.128C320.265 280.416 320.705 280.644 321.193 280.812C321.689 280.972 322.173 281.052 322.645 281.052C323.181 281.052 323.685 280.96 324.157 280.776C324.629 280.592 325.013 280.332 325.309 279.996C325.605 279.66 325.753 279.264 325.753 278.808C325.753 278.328 325.597 277.952 325.285 277.68C324.973 277.4 324.573 277.176 324.085 277.008C323.605 276.832 323.109 276.668 322.597 276.516C321.717 276.26 320.953 276 320.305 275.736C319.665 275.464 319.169 275.12 318.817 274.704C318.465 274.288 318.289 273.74 318.289 273.06C318.289 272.356 318.493 271.744 318.901 271.224C319.309 270.704 319.845 270.304 320.509 270.024C321.173 269.736 321.885 269.592 322.645 269.592C323.629 269.592 324.521 269.808 325.321 270.24C326.129 270.672 326.697 271.24 327.025 271.944L325.969 272.568C325.809 272.2 325.557 271.884 325.213 271.62C324.869 271.356 324.477 271.152 324.037 271.008C323.597 270.864 323.153 270.788 322.705 270.78C322.145 270.772 321.621 270.86 321.133 271.044C320.653 271.22 320.265 271.48 319.969 271.824C319.673 272.16 319.525 272.568 319.525 273.048C319.525 273.528 319.661 273.896 319.933 274.152C320.205 274.408 320.585 274.616 321.073 274.776C321.561 274.928 322.125 275.108 322.765 275.316C323.509 275.548 324.201 275.808 324.841 276.096C325.489 276.376 326.009 276.728 326.401 277.152C326.801 277.576 326.997 278.124 326.989 278.796C326.989 279.5 326.777 280.112 326.353 280.632C325.937 281.152 325.389 281.552 324.709 281.832C324.037 282.112 323.317 282.244 322.549 282.228ZM105.81 299H107.166L100.614 317H99.2341L101.418 311L97.1101 299H98.5261L102.066 309.212L105.81 299ZM125.448 299H126.744V311H125.448L125.412 308.54C125.004 309.372 124.42 310.044 123.66 310.556C122.908 311.06 122.004 311.312 120.948 311.312C120.076 311.312 119.256 311.148 118.488 310.82C117.728 310.484 117.056 310.028 116.472 309.452C115.888 308.868 115.432 308.196 115.104 307.436C114.776 306.668 114.612 305.844 114.612 304.964C114.612 304.092 114.772 303.276 115.092 302.516C115.42 301.756 115.872 301.088 116.448 300.512C117.024 299.928 117.692 299.476 118.452 299.156C119.212 298.828 120.024 298.664 120.888 298.664C121.952 298.664 122.872 298.924 123.648 299.444C124.432 299.956 125.044 300.628 125.484 301.46L125.448 299ZM120.936 310.04C121.856 310.04 122.644 309.816 123.3 309.368C123.964 308.912 124.472 308.3 124.824 307.532C125.176 306.764 125.352 305.92 125.352 305C125.352 304.056 125.172 303.204 124.812 302.444C124.46 301.676 123.952 301.068 123.288 300.62C122.632 300.164 121.848 299.936 120.936 299.936C120.008 299.936 119.164 300.164 118.404 300.62C117.652 301.076 117.052 301.688 116.604 302.456C116.156 303.224 115.932 304.072 115.932 305C115.932 305.944 116.16 306.796 116.616 307.556C117.08 308.316 117.692 308.92 118.452 309.368C119.212 309.816 120.04 310.04 120.936 310.04ZM139.019 293H140.315V311H139.019V308.528C138.603 309.368 138.011 310.044 137.243 310.556C136.475 311.06 135.559 311.312 134.495 311.312C133.623 311.312 132.807 311.148 132.047 310.82C131.287 310.492 130.615 310.04 130.031 309.464C129.455 308.88 129.003 308.208 128.675 307.448C128.347 306.688 128.183 305.872 128.183 305C128.183 304.128 128.347 303.312 128.675 302.552C129.003 301.784 129.455 301.112 130.031 300.536C130.615 299.952 131.287 299.496 132.047 299.168C132.807 298.84 133.623 298.676 134.495 298.676C135.559 298.676 136.475 298.932 137.243 299.444C138.011 299.948 138.603 300.616 139.019 301.448V293ZM134.507 310.04C135.427 310.04 136.215 309.816 136.871 309.368C137.535 308.912 138.043 308.3 138.395 307.532C138.747 306.764 138.923 305.92 138.923 305C138.923 304.056 138.743 303.204 138.383 302.444C138.031 301.676 137.523 301.068 136.859 300.62C136.203 300.164 135.419 299.936 134.507 299.936C133.587 299.936 132.747 300.164 131.987 300.62C131.235 301.076 130.631 301.688 130.175 302.456C129.727 303.224 129.503 304.072 129.503 305C129.503 305.944 129.731 306.796 130.187 307.556C130.651 308.316 131.263 308.92 132.023 309.368C132.783 309.816 133.611 310.04 134.507 310.04ZM153.245 299H154.541V311H153.245L153.209 308.54C152.801 309.372 152.217 310.044 151.457 310.556C150.705 311.06 149.801 311.312 148.745 311.312C147.873 311.312 147.053 311.148 146.285 310.82C145.525 310.484 144.853 310.028 144.269 309.452C143.685 308.868 143.229 308.196 142.901 307.436C142.573 306.668 142.409 305.844 142.409 304.964C142.409 304.092 142.569 303.276 142.889 302.516C143.217 301.756 143.669 301.088 144.245 300.512C144.821 299.928 145.489 299.476 146.249 299.156C147.009 298.828 147.821 298.664 148.685 298.664C149.749 298.664 150.669 298.924 151.445 299.444C152.229 299.956 152.841 300.628 153.281 301.46L153.245 299ZM148.733 310.04C149.653 310.04 150.441 309.816 151.097 309.368C151.761 308.912 152.269 308.3 152.621 307.532C152.973 306.764 153.149 305.92 153.149 305C153.149 304.056 152.969 303.204 152.609 302.444C152.257 301.676 151.749 301.068 151.085 300.62C150.429 300.164 149.645 299.936 148.733 299.936C147.805 299.936 146.961 300.164 146.201 300.62C145.449 301.076 144.849 301.688 144.401 302.456C143.953 303.224 143.729 304.072 143.729 305C143.729 305.944 143.957 306.796 144.413 307.556C144.877 308.316 145.489 308.92 146.249 309.368C147.009 309.816 147.837 310.04 148.733 310.04ZM158.23 317H156.934V299H158.23V301.472C158.654 300.64 159.246 299.968 160.006 299.456C160.774 298.944 161.69 298.688 162.754 298.688C163.626 298.688 164.442 298.852 165.202 299.18C165.962 299.508 166.63 299.964 167.206 300.548C167.79 301.124 168.246 301.792 168.574 302.552C168.902 303.312 169.066 304.128 169.066 305C169.066 305.872 168.902 306.692 168.574 307.46C168.246 308.228 167.79 308.904 167.206 309.488C166.63 310.064 165.962 310.516 165.202 310.844C164.442 311.172 163.626 311.336 162.754 311.336C161.69 311.336 160.774 311.08 160.006 310.568C159.246 310.056 158.654 309.384 158.23 308.552V317ZM162.742 299.96C161.83 299.96 161.042 300.188 160.378 300.644C159.722 301.092 159.214 301.696 158.854 302.456C158.502 303.216 158.326 304.064 158.326 305C158.326 305.92 158.502 306.764 158.854 307.532C159.206 308.3 159.71 308.916 160.366 309.38C161.03 309.836 161.822 310.064 162.742 310.064C163.646 310.064 164.474 309.84 165.226 309.392C165.986 308.944 166.598 308.34 167.062 307.58C167.526 306.812 167.758 305.952 167.758 305C167.758 304.08 167.53 303.24 167.074 302.48C166.626 301.712 166.022 301.1 165.262 300.644C164.51 300.188 163.67 299.96 162.742 299.96ZM176.915 300.296H173.879L173.867 311H172.571L172.583 300.296H170.291V299H172.583L172.571 295.232H173.867L173.879 299H176.915V300.296ZM188.823 299H190.119V311H188.823L188.787 308.54C188.379 309.372 187.795 310.044 187.035 310.556C186.283 311.06 185.379 311.312 184.323 311.312C183.451 311.312 182.631 311.148 181.863 310.82C181.103 310.484 180.431 310.028 179.847 309.452C179.263 308.868 178.807 308.196 178.479 307.436C178.151 306.668 177.987 305.844 177.987 304.964C177.987 304.092 178.147 303.276 178.467 302.516C178.795 301.756 179.247 301.088 179.823 300.512C180.399 299.928 181.067 299.476 181.827 299.156C182.587 298.828 183.399 298.664 184.263 298.664C185.327 298.664 186.247 298.924 187.023 299.444C187.807 299.956 188.419 300.628 188.859 301.46L188.823 299ZM184.311 310.04C185.231 310.04 186.019 309.816 186.675 309.368C187.339 308.912 187.847 308.3 188.199 307.532C188.551 306.764 188.727 305.92 188.727 305C188.727 304.056 188.547 303.204 188.187 302.444C187.835 301.676 187.327 301.068 186.663 300.62C186.007 300.164 185.223 299.936 184.311 299.936C183.383 299.936 182.539 300.164 181.779 300.62C181.027 301.076 180.427 301.688 179.979 302.456C179.531 303.224 179.307 304.072 179.307 305C179.307 305.944 179.535 306.796 179.991 307.556C180.455 308.316 181.067 308.92 181.827 309.368C182.587 309.816 183.415 310.04 184.311 310.04ZM198.519 298.664C199.679 298.664 200.735 298.948 201.687 299.516C202.647 300.084 203.411 300.848 203.979 301.808C204.547 302.76 204.831 303.82 204.831 304.988C204.831 305.86 204.667 306.68 204.339 307.448C204.011 308.208 203.555 308.88 202.971 309.464C202.395 310.04 201.727 310.492 200.967 310.82C200.207 311.148 199.391 311.312 198.519 311.312C197.455 311.312 196.539 311.056 195.771 310.544C195.011 310.032 194.419 309.36 193.995 308.528V311H192.699V293H193.995V301.448C194.419 300.616 195.011 299.944 195.771 299.432C196.539 298.92 197.455 298.664 198.519 298.664ZM198.507 310.04C199.435 310.04 200.275 309.812 201.027 309.356C201.787 308.9 202.391 308.292 202.839 307.532C203.295 306.764 203.523 305.916 203.523 304.988C203.523 304.044 203.291 303.192 202.827 302.432C202.363 301.664 201.751 301.056 200.991 300.608C200.239 300.16 199.411 299.936 198.507 299.936C197.587 299.936 196.795 300.164 196.131 300.62C195.475 301.076 194.971 301.688 194.619 302.456C194.267 303.224 194.091 304.068 194.091 304.988C194.091 305.932 194.267 306.784 194.619 307.544C194.979 308.304 195.487 308.912 196.143 309.368C196.807 309.816 197.595 310.04 198.507 310.04ZM206.856 311V293H208.152V311H206.856ZM216.237 311.312C215.133 311.312 214.125 311.028 213.213 310.46C212.309 309.892 211.585 309.132 211.041 308.18C210.505 307.22 210.237 306.16 210.237 305C210.237 304.12 210.393 303.3 210.705 302.54C211.017 301.772 211.445 301.1 211.989 300.524C212.541 299.94 213.181 299.484 213.909 299.156C214.637 298.828 215.413 298.664 216.237 298.664C217.109 298.664 217.913 298.836 218.649 299.18C219.393 299.516 220.033 299.992 220.569 300.608C221.105 301.224 221.517 301.952 221.805 302.792C222.093 303.624 222.225 304.536 222.201 305.528H211.593C211.681 306.384 211.937 307.152 212.361 307.832C212.793 308.504 213.345 309.036 214.017 309.428C214.689 309.812 215.429 310.008 216.237 310.016C217.125 310.016 217.925 309.784 218.637 309.32C219.349 308.848 219.921 308.204 220.353 307.388L221.661 307.688C221.181 308.752 220.457 309.624 219.489 310.304C218.521 310.976 217.437 311.312 216.237 311.312ZM211.557 304.424H220.893C220.845 303.6 220.605 302.844 220.173 302.156C219.749 301.46 219.193 300.904 218.505 300.488C217.817 300.072 217.061 299.864 216.237 299.864C215.413 299.864 214.661 300.068 213.981 300.476C213.301 300.884 212.745 301.436 212.313 302.132C211.889 302.82 211.637 303.584 211.557 304.424ZM228.049 311.228C227.385 311.22 226.733 311.104 226.093 310.88C225.461 310.648 224.909 310.34 224.437 309.956C223.965 309.572 223.637 309.136 223.453 308.648L224.593 308.156C224.729 308.516 224.989 308.84 225.373 309.128C225.765 309.416 226.205 309.644 226.693 309.812C227.189 309.972 227.673 310.052 228.145 310.052C228.681 310.052 229.185 309.96 229.657 309.776C230.129 309.592 230.513 309.332 230.809 308.996C231.105 308.66 231.253 308.264 231.253 307.808C231.253 307.328 231.097 306.952 230.785 306.68C230.473 306.4 230.073 306.176 229.585 306.008C229.105 305.832 228.609 305.668 228.097 305.516C227.217 305.26 226.453 305 225.805 304.736C225.165 304.464 224.669 304.12 224.317 303.704C223.965 303.288 223.789 302.74 223.789 302.06C223.789 301.356 223.993 300.744 224.401 300.224C224.809 299.704 225.345 299.304 226.009 299.024C226.673 298.736 227.385 298.592 228.145 298.592C229.129 298.592 230.021 298.808 230.821 299.24C231.629 299.672 232.197 300.24 232.525 300.944L231.469 301.568C231.309 301.2 231.057 300.884 230.713 300.62C230.369 300.356 229.977 300.152 229.537 300.008C229.097 299.864 228.653 299.788 228.205 299.78C227.645 299.772 227.121 299.86 226.633 300.044C226.153 300.22 225.765 300.48 225.469 300.824C225.173 301.16 225.025 301.568 225.025 302.048C225.025 302.528 225.161 302.896 225.433 303.152C225.705 303.408 226.085 303.616 226.573 303.776C227.061 303.928 227.625 304.108 228.265 304.316C229.009 304.548 229.701 304.808 230.341 305.096C230.989 305.376 231.509 305.728 231.901 306.152C232.301 306.576 232.497 307.124 232.489 307.796C232.489 308.5 232.277 309.112 231.853 309.632C231.437 310.152 230.889 310.552 230.209 310.832C229.537 311.112 228.817 311.244 228.049 311.228ZM250.44 299H251.736V311H250.44L250.404 308.54C249.996 309.372 249.412 310.044 248.652 310.556C247.9 311.06 246.996 311.312 245.94 311.312C245.068 311.312 244.248 311.148 243.48 310.82C242.72 310.484 242.048 310.028 241.464 309.452C240.88 308.868 240.424 308.196 240.096 307.436C239.768 306.668 239.604 305.844 239.604 304.964C239.604 304.092 239.764 303.276 240.084 302.516C240.412 301.756 240.864 301.088 241.44 300.512C242.016 299.928 242.684 299.476 243.444 299.156C244.204 298.828 245.016 298.664 245.88 298.664C246.944 298.664 247.864 298.924 248.64 299.444C249.424 299.956 250.036 300.628 250.476 301.46L250.44 299ZM245.928 310.04C246.848 310.04 247.636 309.816 248.292 309.368C248.956 308.912 249.464 308.3 249.816 307.532C250.168 306.764 250.344 305.92 250.344 305C250.344 304.056 250.164 303.204 249.804 302.444C249.452 301.676 248.944 301.068 248.28 300.62C247.624 300.164 246.84 299.936 245.928 299.936C245 299.936 244.156 300.164 243.396 300.62C242.644 301.076 242.044 301.688 241.596 302.456C241.148 303.224 240.924 304.072 240.924 305C240.924 305.944 241.152 306.796 241.608 307.556C242.072 308.316 242.684 308.92 243.444 309.368C244.204 309.816 245.032 310.04 245.928 310.04ZM265.931 300.296H262.895L262.883 311H261.587L261.599 300.296H259.307V299H261.599L261.587 295.232H262.883L262.895 299H265.931V300.296ZM267.594 306.356V299H268.89V306.152C268.89 306.864 269.062 307.512 269.406 308.096C269.758 308.68 270.226 309.144 270.81 309.488C271.394 309.832 272.038 310.004 272.742 310.004C273.454 310.004 274.098 309.832 274.674 309.488C275.258 309.144 275.722 308.68 276.066 308.096C276.418 307.512 276.594 306.864 276.594 306.152V299H277.89V311H276.594V309.14C276.162 309.796 275.59 310.324 274.878 310.724C274.174 311.116 273.398 311.312 272.55 311.312C271.638 311.312 270.806 311.092 270.054 310.652C269.302 310.204 268.702 309.604 268.254 308.852C267.814 308.1 267.594 307.268 267.594 306.356ZM284.041 311.228C283.377 311.22 282.725 311.104 282.085 310.88C281.453 310.648 280.901 310.34 280.429 309.956C279.957 309.572 279.629 309.136 279.445 308.648L280.585 308.156C280.721 308.516 280.981 308.84 281.365 309.128C281.757 309.416 282.197 309.644 282.685 309.812C283.181 309.972 283.665 310.052 284.137 310.052C284.673 310.052 285.177 309.96 285.649 309.776C286.121 309.592 286.505 309.332 286.801 308.996C287.097 308.66 287.245 308.264 287.245 307.808C287.245 307.328 287.089 306.952 286.777 306.68C286.465 306.4 286.065 306.176 285.577 306.008C285.097 305.832 284.601 305.668 284.089 305.516C283.209 305.26 282.445 305 281.797 304.736C281.157 304.464 280.661 304.12 280.309 303.704C279.957 303.288 279.781 302.74 279.781 302.06C279.781 301.356 279.985 300.744 280.393 300.224C280.801 299.704 281.337 299.304 282.001 299.024C282.665 298.736 283.377 298.592 284.137 298.592C285.121 298.592 286.013 298.808 286.813 299.24C287.621 299.672 288.189 300.24 288.517 300.944L287.461 301.568C287.301 301.2 287.049 300.884 286.705 300.62C286.361 300.356 285.969 300.152 285.529 300.008C285.089 299.864 284.645 299.788 284.197 299.78C283.637 299.772 283.113 299.86 282.625 300.044C282.145 300.22 281.757 300.48 281.461 300.824C281.165 301.16 281.017 301.568 281.017 302.048C281.017 302.528 281.153 302.896 281.425 303.152C281.697 303.408 282.077 303.616 282.565 303.776C283.053 303.928 283.617 304.108 284.257 304.316C285.001 304.548 285.693 304.808 286.333 305.096C286.981 305.376 287.501 305.728 287.893 306.152C288.293 306.576 288.489 307.124 288.481 307.796C288.481 308.5 288.269 309.112 287.845 309.632C287.429 310.152 286.881 310.552 286.201 310.832C285.529 311.112 284.809 311.244 284.041 311.228ZM136.867 332.62V340H135.571V332.824C135.571 332.112 135.399 331.464 135.055 330.88C134.711 330.296 134.247 329.832 133.663 329.488C133.079 329.144 132.431 328.972 131.719 328.972C131.015 328.972 130.371 329.144 129.787 329.488C129.203 329.832 128.735 330.296 128.383 330.88C128.039 331.464 127.867 332.112 127.867 332.824V340H126.571V328H127.867V329.836C128.299 329.172 128.871 328.644 129.583 328.252C130.295 327.86 131.071 327.664 131.911 327.664C132.831 327.664 133.663 327.888 134.407 328.336C135.159 328.776 135.755 329.372 136.195 330.124C136.643 330.876 136.867 331.708 136.867 332.62ZM144.319 340.312C143.215 340.312 142.207 340.028 141.295 339.46C140.391 338.892 139.667 338.132 139.123 337.18C138.587 336.22 138.319 335.16 138.319 334C138.319 333.12 138.475 332.3 138.787 331.54C139.099 330.772 139.527 330.1 140.071 329.524C140.623 328.94 141.263 328.484 141.991 328.156C142.719 327.828 143.495 327.664 144.319 327.664C145.191 327.664 145.995 327.836 146.731 328.18C147.475 328.516 148.115 328.992 148.651 329.608C149.187 330.224 149.599 330.952 149.887 331.792C150.175 332.624 150.307 333.536 150.283 334.528H139.675C139.763 335.384 140.019 336.152 140.443 336.832C140.875 337.504 141.427 338.036 142.099 338.428C142.771 338.812 143.511 339.008 144.319 339.016C145.207 339.016 146.007 338.784 146.719 338.32C147.431 337.848 148.003 337.204 148.435 336.388L149.743 336.688C149.263 337.752 148.539 338.624 147.571 339.304C146.603 339.976 145.519 340.312 144.319 340.312ZM139.639 333.424H148.975C148.927 332.6 148.687 331.844 148.255 331.156C147.831 330.46 147.275 329.904 146.587 329.488C145.899 329.072 145.143 328.864 144.319 328.864C143.495 328.864 142.743 329.068 142.063 329.476C141.383 329.884 140.827 330.436 140.395 331.132C139.971 331.82 139.719 332.584 139.639 333.424ZM161.127 337.18L162.279 337.804C161.735 338.564 161.043 339.172 160.203 339.628C159.371 340.084 158.467 340.312 157.491 340.312C156.387 340.312 155.379 340.028 154.467 339.46C153.563 338.892 152.839 338.132 152.295 337.18C151.759 336.22 151.491 335.16 151.491 334C151.491 333.12 151.647 332.3 151.959 331.54C152.271 330.772 152.699 330.1 153.243 329.524C153.795 328.94 154.435 328.484 155.163 328.156C155.891 327.828 156.667 327.664 157.491 327.664C158.467 327.664 159.371 327.892 160.203 328.348C161.043 328.804 161.735 329.416 162.279 330.184L161.127 330.796C160.671 330.204 160.119 329.752 159.471 329.44C158.823 329.12 158.163 328.96 157.491 328.96C156.611 328.96 155.815 329.192 155.103 329.656C154.391 330.112 153.827 330.724 153.411 331.492C152.995 332.252 152.787 333.088 152.787 334C152.787 334.92 152.999 335.76 153.423 336.52C153.847 337.28 154.415 337.888 155.127 338.344C155.839 338.792 156.627 339.016 157.491 339.016C158.219 339.016 158.903 338.844 159.543 338.5C160.183 338.156 160.711 337.716 161.127 337.18ZM169.632 340.312C168.528 340.312 167.52 340.028 166.608 339.46C165.704 338.892 164.98 338.132 164.436 337.18C163.9 336.22 163.632 335.16 163.632 334C163.632 333.12 163.788 332.3 164.1 331.54C164.412 330.772 164.84 330.1 165.384 329.524C165.936 328.94 166.576 328.484 167.304 328.156C168.032 327.828 168.808 327.664 169.632 327.664C170.504 327.664 171.308 327.836 172.044 328.18C172.788 328.516 173.428 328.992 173.964 329.608C174.5 330.224 174.912 330.952 175.2 331.792C175.488 332.624 175.62 333.536 175.596 334.528H164.988C165.076 335.384 165.332 336.152 165.756 336.832C166.188 337.504 166.74 338.036 167.412 338.428C168.084 338.812 168.824 339.008 169.632 339.016C170.52 339.016 171.32 338.784 172.032 338.32C172.744 337.848 173.316 337.204 173.748 336.388L175.056 336.688C174.576 337.752 173.852 338.624 172.884 339.304C171.916 339.976 170.832 340.312 169.632 340.312ZM164.952 333.424H174.288C174.24 332.6 174 331.844 173.568 331.156C173.144 330.46 172.588 329.904 171.9 329.488C171.212 329.072 170.456 328.864 169.632 328.864C168.808 328.864 168.056 329.068 167.376 329.476C166.696 329.884 166.14 330.436 165.708 331.132C165.284 331.82 165.032 332.584 164.952 333.424ZM181.444 340.228C180.78 340.22 180.128 340.104 179.488 339.88C178.856 339.648 178.304 339.34 177.832 338.956C177.36 338.572 177.032 338.136 176.848 337.648L177.988 337.156C178.124 337.516 178.384 337.84 178.768 338.128C179.16 338.416 179.6 338.644 180.088 338.812C180.584 338.972 181.068 339.052 181.54 339.052C182.076 339.052 182.58 338.96 183.052 338.776C183.524 338.592 183.908 338.332 184.204 337.996C184.5 337.66 184.648 337.264 184.648 336.808C184.648 336.328 184.492 335.952 184.18 335.68C183.868 335.4 183.468 335.176 182.98 335.008C182.5 334.832 182.004 334.668 181.492 334.516C180.612 334.26 179.848 334 179.2 333.736C178.56 333.464 178.064 333.12 177.712 332.704C177.36 332.288 177.184 331.74 177.184 331.06C177.184 330.356 177.388 329.744 177.796 329.224C178.204 328.704 178.74 328.304 179.404 328.024C180.068 327.736 180.78 327.592 181.54 327.592C182.524 327.592 183.416 327.808 184.216 328.24C185.024 328.672 185.592 329.24 185.92 329.944L184.864 330.568C184.704 330.2 184.452 329.884 184.108 329.62C183.764 329.356 183.372 329.152 182.932 329.008C182.492 328.864 182.048 328.788 181.6 328.78C181.04 328.772 180.516 328.86 180.028 329.044C179.548 329.22 179.16 329.48 178.864 329.824C178.568 330.16 178.42 330.568 178.42 331.048C178.42 331.528 178.556 331.896 178.828 332.152C179.1 332.408 179.48 332.616 179.968 332.776C180.456 332.928 181.02 333.108 181.66 333.316C182.404 333.548 183.096 333.808 183.736 334.096C184.384 334.376 184.904 334.728 185.296 335.152C185.696 335.576 185.892 336.124 185.884 336.796C185.884 337.5 185.672 338.112 185.248 338.632C184.832 339.152 184.284 339.552 183.604 339.832C182.932 340.112 182.212 340.244 181.444 340.228ZM187.883 328H189.179V340H187.883V328ZM188.543 325.732C188.319 325.732 188.127 325.66 187.967 325.516C187.815 325.364 187.739 325.176 187.739 324.952C187.739 324.728 187.815 324.544 187.967 324.4C188.127 324.248 188.319 324.172 188.543 324.172C188.759 324.172 188.943 324.248 189.095 324.4C189.255 324.544 189.335 324.728 189.335 324.952C189.335 325.176 189.259 325.364 189.107 325.516C188.955 325.66 188.767 325.732 188.543 325.732ZM202.101 322H203.397V340H202.101V337.528C201.685 338.368 201.093 339.044 200.325 339.556C199.557 340.06 198.641 340.312 197.577 340.312C196.705 340.312 195.889 340.148 195.129 339.82C194.369 339.492 193.697 339.04 193.113 338.464C192.537 337.88 192.085 337.208 191.757 336.448C191.429 335.688 191.265 334.872 191.265 334C191.265 333.128 191.429 332.312 191.757 331.552C192.085 330.784 192.537 330.112 193.113 329.536C193.697 328.952 194.369 328.496 195.129 328.168C195.889 327.84 196.705 327.676 197.577 327.676C198.641 327.676 199.557 327.932 200.325 328.444C201.093 328.948 201.685 329.616 202.101 330.448V322ZM197.589 339.04C198.509 339.04 199.297 338.816 199.953 338.368C200.617 337.912 201.125 337.3 201.477 336.532C201.829 335.764 202.005 334.92 202.005 334C202.005 333.056 201.825 332.204 201.465 331.444C201.113 330.676 200.605 330.068 199.941 329.62C199.285 329.164 198.501 328.936 197.589 328.936C196.669 328.936 195.829 329.164 195.069 329.62C194.317 330.076 193.713 330.688 193.257 331.456C192.809 332.224 192.585 333.072 192.585 334C192.585 334.944 192.813 335.796 193.269 336.556C193.733 337.316 194.345 337.92 195.105 338.368C195.865 338.816 196.693 339.04 197.589 339.04ZM216.327 328H217.623V340H216.327L216.291 337.54C215.883 338.372 215.299 339.044 214.539 339.556C213.787 340.06 212.883 340.312 211.827 340.312C210.955 340.312 210.135 340.148 209.367 339.82C208.607 339.484 207.935 339.028 207.351 338.452C206.767 337.868 206.311 337.196 205.983 336.436C205.655 335.668 205.491 334.844 205.491 333.964C205.491 333.092 205.651 332.276 205.971 331.516C206.299 330.756 206.751 330.088 207.327 329.512C207.903 328.928 208.571 328.476 209.331 328.156C210.091 327.828 210.903 327.664 211.767 327.664C212.831 327.664 213.751 327.924 214.527 328.444C215.311 328.956 215.923 329.628 216.363 330.46L216.327 328ZM211.815 339.04C212.735 339.04 213.523 338.816 214.179 338.368C214.843 337.912 215.351 337.3 215.703 336.532C216.055 335.764 216.231 334.92 216.231 334C216.231 333.056 216.051 332.204 215.691 331.444C215.339 330.676 214.831 330.068 214.167 329.62C213.511 329.164 212.727 328.936 211.815 328.936C210.887 328.936 210.043 329.164 209.283 329.62C208.531 330.076 207.931 330.688 207.483 331.456C207.035 332.224 206.811 333.072 206.811 334C206.811 334.944 207.039 335.796 207.495 336.556C207.959 337.316 208.571 337.92 209.331 338.368C210.091 338.816 210.919 339.04 211.815 339.04ZM229.897 322H231.193V340H229.897V337.528C229.481 338.368 228.889 339.044 228.121 339.556C227.353 340.06 226.437 340.312 225.373 340.312C224.501 340.312 223.685 340.148 222.925 339.82C222.165 339.492 221.493 339.04 220.909 338.464C220.333 337.88 219.881 337.208 219.553 336.448C219.225 335.688 219.061 334.872 219.061 334C219.061 333.128 219.225 332.312 219.553 331.552C219.881 330.784 220.333 330.112 220.909 329.536C221.493 328.952 222.165 328.496 222.925 328.168C223.685 327.84 224.501 327.676 225.373 327.676C226.437 327.676 227.353 327.932 228.121 328.444C228.889 328.948 229.481 329.616 229.897 330.448V322ZM225.385 339.04C226.305 339.04 227.093 338.816 227.749 338.368C228.413 337.912 228.921 337.3 229.273 336.532C229.625 335.764 229.801 334.92 229.801 334C229.801 333.056 229.621 332.204 229.261 331.444C228.909 330.676 228.401 330.068 227.737 329.62C227.081 329.164 226.297 328.936 225.385 328.936C224.465 328.936 223.625 329.164 222.865 329.62C222.113 330.076 221.509 330.688 221.053 331.456C220.605 332.224 220.381 333.072 220.381 334C220.381 334.944 220.609 335.796 221.065 336.556C221.529 337.316 222.141 337.92 222.901 338.368C223.661 338.816 224.489 339.04 225.385 339.04ZM239.288 340.312C238.184 340.312 237.176 340.028 236.264 339.46C235.36 338.892 234.636 338.132 234.092 337.18C233.556 336.22 233.288 335.16 233.288 334C233.288 333.12 233.444 332.3 233.756 331.54C234.068 330.772 234.496 330.1 235.04 329.524C235.592 328.94 236.232 328.484 236.96 328.156C237.688 327.828 238.464 327.664 239.288 327.664C240.16 327.664 240.964 327.836 241.7 328.18C242.444 328.516 243.084 328.992 243.62 329.608C244.156 330.224 244.568 330.952 244.856 331.792C245.144 332.624 245.276 333.536 245.252 334.528H234.644C234.732 335.384 234.988 336.152 235.412 336.832C235.844 337.504 236.396 338.036 237.068 338.428C237.74 338.812 238.48 339.008 239.288 339.016C240.176 339.016 240.976 338.784 241.688 338.32C242.4 337.848 242.972 337.204 243.404 336.388L244.712 336.688C244.232 337.752 243.508 338.624 242.54 339.304C241.572 339.976 240.488 340.312 239.288 340.312ZM234.608 333.424H243.944C243.896 332.6 243.656 331.844 243.224 331.156C242.8 330.46 242.244 329.904 241.556 329.488C240.868 329.072 240.112 328.864 239.288 328.864C238.464 328.864 237.712 329.068 237.032 329.476C236.352 329.884 235.796 330.436 235.364 331.132C234.94 331.82 234.688 332.584 234.608 333.424ZM251.1 340.228C250.436 340.22 249.784 340.104 249.144 339.88C248.512 339.648 247.96 339.34 247.488 338.956C247.016 338.572 246.688 338.136 246.504 337.648L247.644 337.156C247.78 337.516 248.04 337.84 248.424 338.128C248.816 338.416 249.256 338.644 249.744 338.812C250.24 338.972 250.724 339.052 251.196 339.052C251.732 339.052 252.236 338.96 252.708 338.776C253.18 338.592 253.564 338.332 253.86 337.996C254.156 337.66 254.304 337.264 254.304 336.808C254.304 336.328 254.148 335.952 253.836 335.68C253.524 335.4 253.124 335.176 252.636 335.008C252.156 334.832 251.66 334.668 251.148 334.516C250.268 334.26 249.504 334 248.856 333.736C248.216 333.464 247.72 333.12 247.368 332.704C247.016 332.288 246.84 331.74 246.84 331.06C246.84 330.356 247.044 329.744 247.452 329.224C247.86 328.704 248.396 328.304 249.06 328.024C249.724 327.736 250.436 327.592 251.196 327.592C252.18 327.592 253.072 327.808 253.872 328.24C254.68 328.672 255.248 329.24 255.576 329.944L254.52 330.568C254.36 330.2 254.108 329.884 253.764 329.62C253.42 329.356 253.028 329.152 252.588 329.008C252.148 328.864 251.704 328.788 251.256 328.78C250.696 328.772 250.172 328.86 249.684 329.044C249.204 329.22 248.816 329.48 248.52 329.824C248.224 330.16 248.076 330.568 248.076 331.048C248.076 331.528 248.212 331.896 248.484 332.152C248.756 332.408 249.136 332.616 249.624 332.776C250.112 332.928 250.676 333.108 251.316 333.316C252.06 333.548 252.752 333.808 253.392 334.096C254.04 334.376 254.56 334.728 254.952 335.152C255.352 335.576 255.548 336.124 255.54 336.796C255.54 337.5 255.328 338.112 254.904 338.632C254.488 339.152 253.94 339.552 253.26 339.832C252.588 340.112 251.868 340.244 251.1 340.228ZM257.886 340.312C257.67 340.312 257.486 340.232 257.334 340.072C257.182 339.92 257.106 339.732 257.106 339.508C257.106 339.3 257.182 339.12 257.334 338.968C257.486 338.808 257.67 338.728 257.886 338.728C258.11 338.728 258.298 338.808 258.45 338.968C258.61 339.12 258.69 339.3 258.69 339.508C258.69 339.732 258.61 339.92 258.45 340.072C258.298 340.232 258.11 340.312 257.886 340.312Z" fill="white"/>
<defs>
<linearGradient id="paint0_linear_240_17" x1="151.996" y1="99.0968" x2="237.88" y2="143.181" gradientUnits="userSpaceOnUse">
<stop offset="0.29" stop-color="#F56D50"/>
<stop offset="0.99" stop-color="#F57438"/>
</linearGradient>
</defs>
</svg>
