<svg width="386" height="417" viewBox="0 0 386 417" fill="none" xmlns="http://www.w3.org/2000/svg">
<rect x="0.45636" y="0.567871" width="385.261" height="416" rx="59" fill="black" fill-opacity="0.53"/>
<path d="M204.834 114.32L193.087 120.194M193.087 120.194L181.339 114.32M193.087 120.194V134.905M240.13 96.6462L228.382 102.52M240.13 96.6462L228.382 90.7725M240.13 96.6462V111.357M146.044 96.6462L157.791 90.7725M146.044 96.6462L157.791 102.52M146.044 96.6462V111.357M193.087 178.985L181.339 173.111M193.087 178.985L204.834 173.111M193.087 178.985V164.274M228.382 161.363L240.13 155.49V140.779L228.382 161.363ZM204.834 79.025L193.087 73.1512L181.339 79.025H204.834ZM157.791 161.363L146.044 155.49V140.779L157.791 161.363Z" stroke="url(#paint0_linear_240_17)" stroke-width="7.9375" stroke-linecap="round" stroke-linejoin="round"/>
<path d="M131.117 218.568V201.768H141.077V205.08H134.429V207.912H139.925V211.224H134.429V218.568H131.117ZM142.789 218.568V200.568H146.101V218.568H142.789ZM154.022 218.88C152.918 218.88 151.91 218.596 150.998 218.028C150.094 217.46 149.37 216.696 148.826 215.736C148.29 214.776 148.022 213.716 148.022 212.556C148.022 211.684 148.178 210.868 148.49 210.108C148.802 209.34 149.23 208.668 149.774 208.092C150.326 207.508 150.966 207.052 151.694 206.724C152.422 206.396 153.198 206.232 154.022 206.232C154.974 206.232 155.842 206.436 156.626 206.844C157.418 207.252 158.086 207.808 158.63 208.512C159.182 209.216 159.574 210.012 159.806 210.9C160.046 211.788 160.086 212.712 159.926 213.672H151.598C151.702 214.024 151.862 214.344 152.078 214.632C152.302 214.912 152.574 215.136 152.894 215.304C153.222 215.472 153.598 215.56 154.022 215.568C154.438 215.576 154.822 215.48 155.174 215.28C155.526 215.08 155.826 214.812 156.074 214.476L159.458 215.256C158.97 216.32 158.242 217.192 157.274 217.872C156.306 218.544 155.222 218.88 154.022 218.88ZM151.478 211.224H156.578C156.474 210.824 156.298 210.464 156.05 210.144C155.802 209.824 155.502 209.572 155.15 209.388C154.806 209.204 154.43 209.112 154.022 209.112C153.622 209.112 153.246 209.204 152.894 209.388C152.55 209.572 152.254 209.824 152.006 210.144C151.766 210.456 151.59 210.816 151.478 211.224ZM160.332 218.568L164.724 212.544L160.38 206.568H164.46L166.752 209.712L169.068 206.568H173.16L168.804 212.544L173.196 218.568H169.116L166.752 215.352L164.412 218.568H160.332ZM174.968 206.568H178.28V218.568H174.968V206.568ZM176.648 205.188C176.168 205.188 175.764 205.028 175.436 204.708C175.108 204.388 174.944 203.992 174.944 203.52C174.944 203.048 175.108 202.652 175.436 202.332C175.764 202.012 176.164 201.852 176.636 201.852C177.108 201.852 177.504 202.012 177.824 202.332C178.152 202.652 178.316 203.048 178.316 203.52C178.316 203.992 178.156 204.388 177.836 204.708C177.524 205.028 177.128 205.188 176.648 205.188ZM187.707 206.232C188.875 206.232 189.935 206.516 190.887 207.084C191.847 207.652 192.611 208.416 193.179 209.376C193.747 210.328 194.031 211.384 194.031 212.544C194.031 213.416 193.867 214.236 193.539 215.004C193.211 215.772 192.755 216.448 192.171 217.032C191.595 217.608 190.923 218.06 190.155 218.388C189.395 218.716 188.579 218.88 187.707 218.88C187.019 218.88 186.407 218.728 185.871 218.424C185.335 218.12 184.875 217.736 184.491 217.272V218.568H181.179V200.568H184.491V207.84C184.875 207.368 185.335 206.984 185.871 206.688C186.407 206.384 187.019 206.232 187.707 206.232ZM187.659 215.676C188.211 215.676 188.711 215.536 189.159 215.256C189.615 214.976 189.975 214.6 190.239 214.128C190.503 213.648 190.635 213.12 190.635 212.544C190.635 211.968 190.499 211.444 190.227 210.972C189.963 210.5 189.603 210.124 189.147 209.844C188.699 209.556 188.203 209.412 187.659 209.412C187.115 209.412 186.623 209.556 186.183 209.844C185.751 210.124 185.407 210.504 185.151 210.984C184.903 211.456 184.779 211.976 184.779 212.544C184.779 213.128 184.903 213.656 185.151 214.128C185.407 214.6 185.751 214.976 186.183 215.256C186.623 215.536 187.115 215.676 187.659 215.676ZM195.57 206.568H198.882V218.568H195.57V206.568ZM197.25 205.188C196.77 205.188 196.366 205.028 196.038 204.708C195.71 204.388 195.546 203.992 195.546 203.52C195.546 203.048 195.71 202.652 196.038 202.332C196.366 202.012 196.766 201.852 197.238 201.852C197.71 201.852 198.106 202.012 198.426 202.332C198.754 202.652 198.918 203.048 198.918 203.52C198.918 203.992 198.758 204.388 198.438 204.708C198.126 205.028 197.73 205.188 197.25 205.188ZM201.781 218.568V200.568H205.093V218.568H201.781ZM207.968 206.568H211.28V218.568H207.968V206.568ZM209.648 205.188C209.168 205.188 208.764 205.028 208.436 204.708C208.108 204.388 207.944 203.992 207.944 203.52C207.944 203.048 208.108 202.652 208.436 202.332C208.764 202.012 209.164 201.852 209.636 201.852C210.108 201.852 210.504 202.012 210.824 202.332C211.152 202.652 211.316 203.048 211.316 203.52C211.316 203.992 211.156 204.388 210.836 204.708C210.524 205.028 210.128 205.188 209.648 205.188ZM222.648 200.568H225.96V218.568H222.648V217.296C222.28 217.76 221.824 218.14 221.28 218.436C220.736 218.732 220.116 218.88 219.42 218.88C218.548 218.88 217.732 218.716 216.972 218.388C216.212 218.06 215.54 217.608 214.956 217.032C214.38 216.448 213.928 215.776 213.6 215.016C213.272 214.256 213.108 213.44 213.108 212.568C213.108 211.696 213.272 210.88 213.6 210.12C213.928 209.36 214.38 208.692 214.956 208.116C215.54 207.532 216.212 207.076 216.972 206.748C217.732 206.42 218.548 206.256 219.42 206.256C220.116 206.256 220.736 206.404 221.28 206.7C221.824 206.988 222.28 207.368 222.648 207.84V200.568ZM219.468 215.7C220.012 215.7 220.504 215.56 220.944 215.28C221.384 215 221.732 214.624 221.988 214.152C222.244 213.672 222.372 213.144 222.372 212.568C222.372 211.984 222.244 211.456 221.988 210.984C221.732 210.512 221.384 210.136 220.944 209.856C220.504 209.576 220.012 209.436 219.468 209.436C218.916 209.436 218.416 209.576 217.968 209.856C217.52 210.136 217.164 210.516 216.9 210.996C216.636 211.468 216.504 211.992 216.504 212.568C216.504 213.144 216.636 213.672 216.9 214.152C217.172 214.624 217.532 215 217.98 215.28C218.428 215.56 218.924 215.7 219.468 215.7ZM237.425 206.568H240.737V218.568H237.413L237.257 217.32C236.945 217.784 236.545 218.16 236.057 218.448C235.569 218.736 234.997 218.88 234.341 218.88C233.445 218.88 232.609 218.712 231.833 218.376C231.057 218.04 230.373 217.576 229.781 216.984C229.189 216.392 228.725 215.708 228.389 214.932C228.061 214.148 227.897 213.308 227.897 212.412C227.897 211.556 228.053 210.756 228.365 210.012C228.677 209.268 229.117 208.612 229.685 208.044C230.253 207.476 230.905 207.032 231.641 206.712C232.385 206.392 233.185 206.232 234.041 206.232C234.777 206.232 235.437 206.388 236.021 206.7C236.613 207.012 237.129 207.408 237.569 207.888L237.425 206.568ZM234.257 215.7C234.801 215.7 235.293 215.56 235.733 215.28C236.173 215 236.521 214.624 236.777 214.152C237.033 213.672 237.161 213.144 237.161 212.568C237.161 211.984 237.033 211.456 236.777 210.984C236.521 210.512 236.173 210.136 235.733 209.856C235.293 209.576 234.801 209.436 234.257 209.436C233.705 209.436 233.205 209.576 232.757 209.856C232.309 210.136 231.953 210.516 231.689 210.996C231.425 211.468 231.293 211.992 231.293 212.568C231.293 213.144 231.425 213.672 231.689 214.152C231.961 214.624 232.321 215 232.769 215.28C233.217 215.56 233.713 215.7 234.257 215.7ZM251.734 200.568H255.046V218.568H251.734V217.296C251.366 217.76 250.91 218.14 250.366 218.436C249.822 218.732 249.202 218.88 248.506 218.88C247.634 218.88 246.818 218.716 246.058 218.388C245.298 218.06 244.626 217.608 244.042 217.032C243.466 216.448 243.014 215.776 242.686 215.016C242.358 214.256 242.194 213.44 242.194 212.568C242.194 211.696 242.358 210.88 242.686 210.12C243.014 209.36 243.466 208.692 244.042 208.116C244.626 207.532 245.298 207.076 246.058 206.748C246.818 206.42 247.634 206.256 248.506 206.256C249.202 206.256 249.822 206.404 250.366 206.7C250.91 206.988 251.366 207.368 251.734 207.84V200.568ZM248.554 215.7C249.098 215.7 249.59 215.56 250.03 215.28C250.47 215 250.818 214.624 251.074 214.152C251.33 213.672 251.458 213.144 251.458 212.568C251.458 211.984 251.33 211.456 251.074 210.984C250.818 210.512 250.47 210.136 250.03 209.856C249.59 209.576 249.098 209.436 248.554 209.436C248.002 209.436 247.502 209.576 247.054 209.856C246.606 210.136 246.25 210.516 245.986 210.996C245.722 211.468 245.59 211.992 245.59 212.568C245.59 213.144 245.722 213.672 245.986 214.152C246.258 214.624 246.618 215 247.066 215.28C247.514 215.56 248.01 215.7 248.554 215.7Z" fill="white"/>
<path d="M98.855 253.568V236.768H100.151V252.272H108.095V253.568H98.855ZM119.541 241.568H120.837V253.568H119.541L119.505 251.108C119.097 251.94 118.513 252.612 117.753 253.124C117.001 253.628 116.097 253.88 115.041 253.88C114.169 253.88 113.349 253.716 112.581 253.388C111.821 253.052 111.149 252.596 110.565 252.02C109.981 251.436 109.525 250.764 109.197 250.004C108.869 249.236 108.705 248.412 108.705 247.532C108.705 246.66 108.865 245.844 109.185 245.084C109.513 244.324 109.965 243.656 110.541 243.08C111.117 242.496 111.785 242.044 112.545 241.724C113.305 241.396 114.117 241.232 114.981 241.232C116.045 241.232 116.965 241.492 117.741 242.012C118.525 242.524 119.137 243.196 119.577 244.028L119.541 241.568ZM115.029 252.608C115.949 252.608 116.737 252.384 117.393 251.936C118.057 251.48 118.565 250.868 118.917 250.1C119.269 249.332 119.445 248.488 119.445 247.568C119.445 246.624 119.265 245.772 118.905 245.012C118.553 244.244 118.045 243.636 117.381 243.188C116.725 242.732 115.941 242.504 115.029 242.504C114.101 242.504 113.257 242.732 112.497 243.188C111.745 243.644 111.145 244.256 110.697 245.024C110.249 245.792 110.025 246.64 110.025 247.568C110.025 248.512 110.253 249.364 110.709 250.124C111.173 250.884 111.785 251.488 112.545 251.936C113.305 252.384 114.133 252.608 115.029 252.608ZM126.986 253.796C126.322 253.788 125.67 253.672 125.03 253.448C124.398 253.216 123.846 252.908 123.374 252.524C122.902 252.14 122.574 251.704 122.39 251.216L123.53 250.724C123.666 251.084 123.926 251.408 124.31 251.696C124.702 251.984 125.142 252.212 125.63 252.38C126.126 252.54 126.61 252.62 127.082 252.62C127.618 252.62 128.122 252.528 128.594 252.344C129.066 252.16 129.45 251.9 129.746 251.564C130.042 251.228 130.19 250.832 130.19 250.376C130.19 249.896 130.034 249.52 129.722 249.248C129.41 248.968 129.01 248.744 128.522 248.576C128.042 248.4 127.546 248.236 127.034 248.084C126.154 247.828 125.39 247.568 124.742 247.304C124.102 247.032 123.606 246.688 123.254 246.272C122.902 245.856 122.726 245.308 122.726 244.628C122.726 243.924 122.93 243.312 123.338 242.792C123.746 242.272 124.282 241.872 124.946 241.592C125.61 241.304 126.322 241.16 127.082 241.16C128.066 241.16 128.958 241.376 129.758 241.808C130.566 242.24 131.134 242.808 131.462 243.512L130.406 244.136C130.246 243.768 129.994 243.452 129.65 243.188C129.306 242.924 128.914 242.72 128.474 242.576C128.034 242.432 127.59 242.356 127.142 242.348C126.582 242.34 126.058 242.428 125.57 242.612C125.09 242.788 124.702 243.048 124.406 243.392C124.11 243.728 123.962 244.136 123.962 244.616C123.962 245.096 124.098 245.464 124.37 245.72C124.642 245.976 125.022 246.184 125.51 246.344C125.998 246.496 126.562 246.676 127.202 246.884C127.946 247.116 128.638 247.376 129.278 247.664C129.926 247.944 130.446 248.296 130.838 248.72C131.238 249.144 131.434 249.692 131.426 250.364C131.426 251.068 131.214 251.68 130.79 252.2C130.374 252.72 129.826 253.12 129.146 253.4C128.474 253.68 127.754 253.812 126.986 253.796ZM143.017 253.796C142.353 253.788 141.701 253.672 141.061 253.448C140.429 253.216 139.877 252.908 139.405 252.524C138.933 252.14 138.605 251.704 138.421 251.216L139.561 250.724C139.697 251.084 139.957 251.408 140.341 251.696C140.733 251.984 141.173 252.212 141.661 252.38C142.157 252.54 142.641 252.62 143.113 252.62C143.649 252.62 144.153 252.528 144.625 252.344C145.097 252.16 145.481 251.9 145.777 251.564C146.073 251.228 146.221 250.832 146.221 250.376C146.221 249.896 146.065 249.52 145.753 249.248C145.441 248.968 145.041 248.744 144.553 248.576C144.073 248.4 143.577 248.236 143.065 248.084C142.185 247.828 141.421 247.568 140.773 247.304C140.133 247.032 139.637 246.688 139.285 246.272C138.933 245.856 138.757 245.308 138.757 244.628C138.757 243.924 138.961 243.312 139.369 242.792C139.777 242.272 140.313 241.872 140.977 241.592C141.641 241.304 142.353 241.16 143.113 241.16C144.097 241.16 144.989 241.376 145.789 241.808C146.597 242.24 147.165 242.808 147.493 243.512L146.437 244.136C146.277 243.768 146.025 243.452 145.681 243.188C145.337 242.924 144.945 242.72 144.505 242.576C144.065 242.432 143.621 242.356 143.173 242.348C142.613 242.34 142.089 242.428 141.601 242.612C141.121 242.788 140.733 243.048 140.437 243.392C140.141 243.728 139.993 244.136 139.993 244.616C139.993 245.096 140.129 245.464 140.401 245.72C140.673 245.976 141.053 246.184 141.541 246.344C142.029 246.496 142.593 246.676 143.233 246.884C143.977 247.116 144.669 247.376 145.309 247.664C145.957 247.944 146.477 248.296 146.869 248.72C147.269 249.144 147.465 249.692 147.457 250.364C147.457 251.068 147.245 251.68 146.821 252.2C146.405 252.72 145.857 253.12 145.177 253.4C144.505 253.68 143.785 253.812 143.017 253.796ZM154.737 253.88C153.633 253.88 152.625 253.596 151.713 253.028C150.809 252.46 150.085 251.7 149.541 250.748C149.005 249.788 148.737 248.728 148.737 247.568C148.737 246.688 148.893 245.868 149.205 245.108C149.517 244.34 149.945 243.668 150.489 243.092C151.041 242.508 151.681 242.052 152.409 241.724C153.137 241.396 153.913 241.232 154.737 241.232C155.841 241.232 156.845 241.516 157.749 242.084C158.661 242.652 159.385 243.416 159.921 244.376C160.465 245.336 160.737 246.4 160.737 247.568C160.737 248.44 160.581 249.256 160.269 250.016C159.957 250.776 159.525 251.448 158.973 252.032C158.429 252.608 157.793 253.06 157.065 253.388C156.345 253.716 155.569 253.88 154.737 253.88ZM154.737 252.584C155.625 252.584 156.421 252.352 157.125 251.888C157.837 251.424 158.401 250.812 158.817 250.052C159.233 249.292 159.441 248.464 159.441 247.568C159.441 246.664 159.233 245.828 158.817 245.06C158.401 244.292 157.837 243.68 157.125 243.224C156.413 242.76 155.617 242.528 154.737 242.528C153.849 242.528 153.049 242.76 152.337 243.224C151.625 243.688 151.061 244.304 150.645 245.072C150.237 245.832 150.033 246.664 150.033 247.568C150.033 248.504 150.245 249.352 150.669 250.112C151.101 250.864 151.673 251.464 152.385 251.912C153.097 252.36 153.881 252.584 154.737 252.584ZM162.746 253.568V235.568H164.042V253.568H162.746ZM166.438 248.924V241.568H167.734V248.72C167.734 249.432 167.906 250.08 168.25 250.664C168.602 251.248 169.07 251.712 169.654 252.056C170.238 252.4 170.882 252.572 171.586 252.572C172.298 252.572 172.942 252.4 173.518 252.056C174.102 251.712 174.566 251.248 174.91 250.664C175.262 250.08 175.438 249.432 175.438 248.72V241.568H176.734V253.568H175.438V251.708C175.006 252.364 174.434 252.892 173.722 253.292C173.018 253.684 172.242 253.88 171.394 253.88C170.482 253.88 169.65 253.66 168.898 253.22C168.146 252.772 167.546 252.172 167.098 251.42C166.658 250.668 166.438 249.836 166.438 248.924ZM187.974 250.748L189.126 251.372C188.582 252.132 187.89 252.74 187.05 253.196C186.218 253.652 185.314 253.88 184.338 253.88C183.234 253.88 182.226 253.596 181.314 253.028C180.41 252.46 179.686 251.7 179.142 250.748C178.606 249.788 178.338 248.728 178.338 247.568C178.338 246.688 178.494 245.868 178.806 245.108C179.118 244.34 179.546 243.668 180.09 243.092C180.642 242.508 181.282 242.052 182.01 241.724C182.738 241.396 183.514 241.232 184.338 241.232C185.314 241.232 186.218 241.46 187.05 241.916C187.89 242.372 188.582 242.984 189.126 243.752L187.974 244.364C187.518 243.772 186.966 243.32 186.318 243.008C185.67 242.688 185.01 242.528 184.338 242.528C183.458 242.528 182.662 242.76 181.95 243.224C181.238 243.68 180.674 244.292 180.258 245.06C179.842 245.82 179.634 246.656 179.634 247.568C179.634 248.488 179.846 249.328 180.27 250.088C180.694 250.848 181.262 251.456 181.974 251.912C182.686 252.36 183.474 252.584 184.338 252.584C185.066 252.584 185.75 252.412 186.39 252.068C187.03 251.724 187.558 251.284 187.974 250.748ZM191.152 241.568H192.448V253.568H191.152V241.568ZM191.812 239.3C191.588 239.3 191.396 239.228 191.236 239.084C191.084 238.932 191.008 238.744 191.008 238.52C191.008 238.296 191.084 238.112 191.236 237.968C191.396 237.816 191.588 237.74 191.812 237.74C192.028 237.74 192.212 237.816 192.364 237.968C192.524 238.112 192.604 238.296 192.604 238.52C192.604 238.744 192.528 238.932 192.376 239.084C192.224 239.228 192.036 239.3 191.812 239.3ZM200.533 253.88C199.429 253.88 198.421 253.596 197.509 253.028C196.605 252.46 195.881 251.7 195.337 250.748C194.801 249.788 194.533 248.728 194.533 247.568C194.533 246.688 194.689 245.868 195.001 245.108C195.313 244.34 195.741 243.668 196.285 243.092C196.837 242.508 197.477 242.052 198.205 241.724C198.933 241.396 199.709 241.232 200.533 241.232C201.637 241.232 202.641 241.516 203.545 242.084C204.457 242.652 205.181 243.416 205.717 244.376C206.261 245.336 206.533 246.4 206.533 247.568C206.533 248.44 206.377 249.256 206.065 250.016C205.753 250.776 205.321 251.448 204.769 252.032C204.225 252.608 203.589 253.06 202.861 253.388C202.141 253.716 201.365 253.88 200.533 253.88ZM200.533 252.584C201.421 252.584 202.217 252.352 202.921 251.888C203.633 251.424 204.197 250.812 204.613 250.052C205.029 249.292 205.237 248.464 205.237 247.568C205.237 246.664 205.029 245.828 204.613 245.06C204.197 244.292 203.633 243.68 202.921 243.224C202.209 242.76 201.413 242.528 200.533 242.528C199.645 242.528 198.845 242.76 198.133 243.224C197.421 243.688 196.857 244.304 196.441 245.072C196.033 245.832 195.829 246.664 195.829 247.568C195.829 248.504 196.041 249.352 196.465 250.112C196.897 250.864 197.469 251.464 198.181 251.912C198.893 252.36 199.677 252.584 200.533 252.584ZM218.909 246.188V253.568H217.613V246.392C217.613 245.68 217.441 245.032 217.097 244.448C216.753 243.864 216.289 243.4 215.705 243.056C215.121 242.712 214.473 242.54 213.761 242.54C213.057 242.54 212.413 242.712 211.829 243.056C211.245 243.4 210.777 243.864 210.425 244.448C210.081 245.032 209.909 245.68 209.909 246.392V253.568H208.613V241.568H209.909V243.404C210.341 242.74 210.913 242.212 211.625 241.82C212.337 241.428 213.113 241.232 213.953 241.232C214.873 241.232 215.705 241.456 216.449 241.904C217.201 242.344 217.797 242.94 218.237 243.692C218.685 244.444 218.909 245.276 218.909 246.188ZM226.362 253.88C225.258 253.88 224.25 253.596 223.338 253.028C222.434 252.46 221.71 251.7 221.166 250.748C220.63 249.788 220.362 248.728 220.362 247.568C220.362 246.688 220.518 245.868 220.83 245.108C221.142 244.34 221.57 243.668 222.114 243.092C222.666 242.508 223.306 242.052 224.034 241.724C224.762 241.396 225.538 241.232 226.362 241.232C227.234 241.232 228.038 241.404 228.774 241.748C229.518 242.084 230.158 242.56 230.694 243.176C231.23 243.792 231.642 244.52 231.93 245.36C232.218 246.192 232.35 247.104 232.326 248.096H221.718C221.806 248.952 222.062 249.72 222.486 250.4C222.918 251.072 223.47 251.604 224.142 251.996C224.814 252.38 225.554 252.576 226.362 252.584C227.25 252.584 228.05 252.352 228.762 251.888C229.474 251.416 230.046 250.772 230.478 249.956L231.786 250.256C231.306 251.32 230.582 252.192 229.614 252.872C228.646 253.544 227.562 253.88 226.362 253.88ZM221.682 246.992H231.018C230.97 246.168 230.73 245.412 230.298 244.724C229.874 244.028 229.318 243.472 228.63 243.056C227.942 242.64 227.186 242.432 226.362 242.432C225.538 242.432 224.786 242.636 224.106 243.044C223.426 243.452 222.87 244.004 222.438 244.7C222.014 245.388 221.762 246.152 221.682 246.992ZM238.174 253.796C237.51 253.788 236.858 253.672 236.218 253.448C235.586 253.216 235.034 252.908 234.562 252.524C234.09 252.14 233.762 251.704 233.578 251.216L234.718 250.724C234.854 251.084 235.114 251.408 235.498 251.696C235.89 251.984 236.33 252.212 236.818 252.38C237.314 252.54 237.798 252.62 238.27 252.62C238.806 252.62 239.31 252.528 239.782 252.344C240.254 252.16 240.638 251.9 240.934 251.564C241.23 251.228 241.378 250.832 241.378 250.376C241.378 249.896 241.222 249.52 240.91 249.248C240.598 248.968 240.198 248.744 239.71 248.576C239.23 248.4 238.734 248.236 238.222 248.084C237.342 247.828 236.578 247.568 235.93 247.304C235.29 247.032 234.794 246.688 234.442 246.272C234.09 245.856 233.914 245.308 233.914 244.628C233.914 243.924 234.118 243.312 234.526 242.792C234.934 242.272 235.47 241.872 236.134 241.592C236.798 241.304 237.51 241.16 238.27 241.16C239.254 241.16 240.146 241.376 240.946 241.808C241.754 242.24 242.322 242.808 242.65 243.512L241.594 244.136C241.434 243.768 241.182 243.452 240.838 243.188C240.494 242.924 240.102 242.72 239.662 242.576C239.222 242.432 238.778 242.356 238.33 242.348C237.77 242.34 237.246 242.428 236.758 242.612C236.278 242.788 235.89 243.048 235.594 243.392C235.298 243.728 235.15 244.136 235.15 244.616C235.15 245.096 235.286 245.464 235.558 245.72C235.83 245.976 236.21 246.184 236.698 246.344C237.186 246.496 237.75 246.676 238.39 246.884C239.134 247.116 239.826 247.376 240.466 247.664C241.114 247.944 241.634 248.296 242.026 248.72C242.426 249.144 242.622 249.692 242.614 250.364C242.614 251.068 242.402 251.68 241.978 252.2C241.562 252.72 241.014 253.12 240.334 253.4C239.662 253.68 238.942 253.812 238.174 253.796ZM256.041 253.904C254.881 253.904 253.821 253.62 252.861 253.052C251.909 252.484 251.149 251.72 250.581 250.76C250.013 249.8 249.729 248.736 249.729 247.568C249.729 246.696 249.893 245.88 250.221 245.12C250.549 244.36 251.001 243.692 251.577 243.116C252.161 242.532 252.833 242.076 253.593 241.748C254.353 241.42 255.169 241.256 256.041 241.256C257.105 241.256 258.017 241.512 258.777 242.024C259.545 242.536 260.141 243.208 260.565 244.04V241.568H261.861V259.568H260.565V251.12C260.141 251.952 259.545 252.624 258.777 253.136C258.017 253.648 257.105 253.904 256.041 253.904ZM256.053 242.528C255.125 242.528 254.281 242.756 253.521 243.212C252.769 243.668 252.169 244.28 251.721 245.048C251.273 245.808 251.049 246.648 251.049 247.568C251.049 248.52 251.277 249.38 251.733 250.148C252.189 250.908 252.797 251.512 253.557 251.96C254.317 252.408 255.149 252.632 256.053 252.632C256.973 252.632 257.761 252.404 258.417 251.948C259.081 251.484 259.589 250.868 259.941 250.1C260.293 249.332 260.469 248.488 260.469 247.568C260.469 246.632 260.289 245.784 259.929 245.024C259.577 244.264 259.069 243.66 258.405 243.212C257.749 242.756 256.965 242.528 256.053 242.528ZM264.172 248.924V241.568H265.468V248.72C265.468 249.432 265.64 250.08 265.984 250.664C266.336 251.248 266.804 251.712 267.388 252.056C267.972 252.4 268.616 252.572 269.32 252.572C270.032 252.572 270.676 252.4 271.252 252.056C271.836 251.712 272.3 251.248 272.644 250.664C272.996 250.08 273.172 249.432 273.172 248.72V241.568H274.468V253.568H273.172V251.708C272.74 252.364 272.168 252.892 271.456 253.292C270.752 253.684 269.976 253.88 269.128 253.88C268.216 253.88 267.384 253.66 266.632 253.22C265.88 252.772 265.28 252.172 264.832 251.42C264.392 250.668 264.172 249.836 264.172 248.924ZM282.073 253.88C280.969 253.88 279.961 253.596 279.049 253.028C278.145 252.46 277.421 251.7 276.877 250.748C276.341 249.788 276.073 248.728 276.073 247.568C276.073 246.688 276.229 245.868 276.541 245.108C276.853 244.34 277.281 243.668 277.825 243.092C278.377 242.508 279.017 242.052 279.745 241.724C280.473 241.396 281.249 241.232 282.073 241.232C282.945 241.232 283.749 241.404 284.485 241.748C285.229 242.084 285.869 242.56 286.405 243.176C286.941 243.792 287.353 244.52 287.641 245.36C287.929 246.192 288.061 247.104 288.037 248.096H277.429C277.517 248.952 277.773 249.72 278.197 250.4C278.629 251.072 279.181 251.604 279.853 251.996C280.525 252.38 281.265 252.576 282.073 252.584C282.961 252.584 283.761 252.352 284.473 251.888C285.185 251.416 285.757 250.772 286.189 249.956L287.497 250.256C287.017 251.32 286.293 252.192 285.325 252.872C284.357 253.544 283.273 253.88 282.073 253.88ZM277.393 246.992H286.729C286.681 246.168 286.441 245.412 286.009 244.724C285.585 244.028 285.029 243.472 284.341 243.056C283.653 242.64 282.897 242.432 282.073 242.432C281.249 242.432 280.497 242.636 279.817 243.044C279.137 243.452 278.581 244.004 278.149 244.7C277.725 245.388 277.473 246.152 277.393 246.992ZM64.8186 282.88C63.7146 282.88 62.7066 282.596 61.7946 282.028C60.8906 281.46 60.1666 280.7 59.6226 279.748C59.0866 278.788 58.8186 277.728 58.8186 276.568C58.8186 275.688 58.9746 274.868 59.2866 274.108C59.5986 273.34 60.0266 272.668 60.5706 272.092C61.1226 271.508 61.7626 271.052 62.4906 270.724C63.2186 270.396 63.9946 270.232 64.8186 270.232C65.9226 270.232 66.9266 270.516 67.8306 271.084C68.7426 271.652 69.4666 272.416 70.0026 273.376C70.5466 274.336 70.8186 275.4 70.8186 276.568C70.8186 277.44 70.6626 278.256 70.3506 279.016C70.0386 279.776 69.6066 280.448 69.0546 281.032C68.5106 281.608 67.8746 282.06 67.1466 282.388C66.4266 282.716 65.6506 282.88 64.8186 282.88ZM64.8186 281.584C65.7066 281.584 66.5026 281.352 67.2066 280.888C67.9186 280.424 68.4826 279.812 68.8986 279.052C69.3146 278.292 69.5226 277.464 69.5226 276.568C69.5226 275.664 69.3146 274.828 68.8986 274.06C68.4826 273.292 67.9186 272.68 67.2066 272.224C66.4946 271.76 65.6986 271.528 64.8186 271.528C63.9306 271.528 63.1306 271.76 62.4186 272.224C61.7066 272.688 61.1426 273.304 60.7266 274.072C60.3186 274.832 60.1146 275.664 60.1146 276.568C60.1146 277.504 60.3266 278.352 60.7506 279.112C61.1826 279.864 61.7546 280.464 62.4666 280.912C63.1786 281.36 63.9626 281.584 64.8186 281.584ZM75.1643 267.244V270.568H78.8723V271.864H75.1643V282.568H73.8683V271.864H72.1283V270.568H73.8683V267.244C73.8683 266.7 74.0003 266.204 74.2643 265.756C74.5363 265.308 74.8963 264.952 75.3443 264.688C75.8003 264.416 76.3003 264.28 76.8443 264.28C77.2443 264.28 77.6283 264.36 77.9963 264.52C78.3643 264.672 78.6923 264.896 78.9803 265.192L78.0563 266.104C77.9123 265.936 77.7323 265.808 77.5163 265.72C77.3003 265.624 77.0763 265.576 76.8443 265.576C76.3883 265.576 75.9923 265.74 75.6563 266.068C75.3283 266.396 75.1643 266.788 75.1643 267.244ZM81.148 282.568V270.568H82.444V272.404C82.876 271.74 83.448 271.212 84.16 270.82C84.872 270.428 85.648 270.232 86.488 270.232C86.96 270.232 87.412 270.292 87.844 270.412L87.304 271.684C86.96 271.588 86.624 271.54 86.296 271.54C85.592 271.54 84.948 271.712 84.364 272.056C83.78 272.4 83.312 272.864 82.96 273.448C82.616 274.032 82.444 274.68 82.444 275.392V282.568H81.148ZM94.0217 282.88C92.9177 282.88 91.9097 282.596 90.9977 282.028C90.0937 281.46 89.3697 280.7 88.8257 279.748C88.2897 278.788 88.0217 277.728 88.0217 276.568C88.0217 275.688 88.1777 274.868 88.4897 274.108C88.8017 273.34 89.2297 272.668 89.7737 272.092C90.3257 271.508 90.9657 271.052 91.6937 270.724C92.4217 270.396 93.1977 270.232 94.0217 270.232C94.8937 270.232 95.6977 270.404 96.4337 270.748C97.1777 271.084 97.8177 271.56 98.3537 272.176C98.8897 272.792 99.3017 273.52 99.5897 274.36C99.8777 275.192 100.01 276.104 99.9857 277.096H89.3777C89.4657 277.952 89.7217 278.72 90.1457 279.4C90.5777 280.072 91.1297 280.604 91.8017 280.996C92.4737 281.38 93.2137 281.576 94.0217 281.584C94.9097 281.584 95.7097 281.352 96.4217 280.888C97.1337 280.416 97.7057 279.772 98.1377 278.956L99.4457 279.256C98.9657 280.32 98.2417 281.192 97.2737 281.872C96.3057 282.544 95.2217 282.88 94.0217 282.88ZM89.3417 275.992H98.6777C98.6297 275.168 98.3897 274.412 97.9577 273.724C97.5337 273.028 96.9777 272.472 96.2897 272.056C95.6017 271.64 94.8457 271.432 94.0217 271.432C93.1977 271.432 92.4457 271.636 91.7657 272.044C91.0857 272.452 90.5297 273.004 90.0977 273.7C89.6737 274.388 89.4217 275.152 89.3417 275.992ZM110.83 279.748L111.982 280.372C111.438 281.132 110.746 281.74 109.906 282.196C109.074 282.652 108.17 282.88 107.194 282.88C106.09 282.88 105.082 282.596 104.17 282.028C103.266 281.46 102.542 280.7 101.998 279.748C101.462 278.788 101.194 277.728 101.194 276.568C101.194 275.688 101.35 274.868 101.662 274.108C101.974 273.34 102.402 272.668 102.946 272.092C103.498 271.508 104.138 271.052 104.866 270.724C105.594 270.396 106.37 270.232 107.194 270.232C108.17 270.232 109.074 270.46 109.906 270.916C110.746 271.372 111.438 271.984 111.982 272.752L110.83 273.364C110.374 272.772 109.822 272.32 109.174 272.008C108.526 271.688 107.866 271.528 107.194 271.528C106.314 271.528 105.518 271.76 104.806 272.224C104.094 272.68 103.53 273.292 103.114 274.06C102.698 274.82 102.49 275.656 102.49 276.568C102.49 277.488 102.702 278.328 103.126 279.088C103.55 279.848 104.118 280.456 104.83 280.912C105.542 281.36 106.33 281.584 107.194 281.584C107.922 281.584 108.606 281.412 109.246 281.068C109.886 280.724 110.414 280.284 110.83 279.748ZM119.334 282.88C118.23 282.88 117.222 282.596 116.31 282.028C115.406 281.46 114.682 280.7 114.138 279.748C113.602 278.788 113.334 277.728 113.334 276.568C113.334 275.688 113.49 274.868 113.802 274.108C114.114 273.34 114.542 272.668 115.086 272.092C115.638 271.508 116.278 271.052 117.006 270.724C117.734 270.396 118.51 270.232 119.334 270.232C120.206 270.232 121.01 270.404 121.746 270.748C122.49 271.084 123.13 271.56 123.666 272.176C124.202 272.792 124.614 273.52 124.902 274.36C125.19 275.192 125.322 276.104 125.298 277.096H114.69C114.778 277.952 115.034 278.72 115.458 279.4C115.89 280.072 116.442 280.604 117.114 280.996C117.786 281.38 118.526 281.576 119.334 281.584C120.222 281.584 121.022 281.352 121.734 280.888C122.446 280.416 123.018 279.772 123.45 278.956L124.758 279.256C124.278 280.32 123.554 281.192 122.586 281.872C121.618 282.544 120.534 282.88 119.334 282.88ZM114.654 275.992H123.99C123.942 275.168 123.702 274.412 123.27 273.724C122.846 273.028 122.29 272.472 121.602 272.056C120.914 271.64 120.158 271.432 119.334 271.432C118.51 271.432 117.758 271.636 117.078 272.044C116.398 272.452 115.842 273.004 115.41 273.7C114.986 274.388 114.734 275.152 114.654 275.992ZM127.39 282.568V270.568H128.686V272.404C129.126 271.74 129.698 271.212 130.402 270.82C131.106 270.428 131.882 270.232 132.73 270.232C133.658 270.232 134.502 270.464 135.262 270.928C136.03 271.384 136.626 271.992 137.05 272.752C137.474 271.992 138.066 271.384 138.826 270.928C139.586 270.464 140.43 270.232 141.358 270.232C142.27 270.232 143.102 270.456 143.854 270.904C144.606 271.344 145.202 271.94 145.642 272.692C146.09 273.444 146.314 274.276 146.314 275.188V282.568H145.018V275.428C145.018 274.732 144.85 274.092 144.514 273.508C144.178 272.916 143.726 272.44 143.158 272.08C142.59 271.72 141.958 271.54 141.262 271.54C140.574 271.54 139.942 271.708 139.366 272.044C138.798 272.372 138.346 272.828 138.01 273.412C137.674 273.996 137.506 274.668 137.506 275.428V282.568H136.21V275.428C136.21 274.668 136.038 273.996 135.694 273.412C135.358 272.828 134.906 272.372 134.338 272.044C133.77 271.708 133.138 271.54 132.442 271.54C131.754 271.54 131.126 271.72 130.558 272.08C129.99 272.44 129.534 272.916 129.19 273.508C128.854 274.092 128.686 274.732 128.686 275.428V282.568H127.39ZM153.764 282.88C152.66 282.88 151.652 282.596 150.74 282.028C149.836 281.46 149.112 280.7 148.568 279.748C148.032 278.788 147.764 277.728 147.764 276.568C147.764 275.688 147.92 274.868 148.232 274.108C148.544 273.34 148.972 272.668 149.516 272.092C150.068 271.508 150.708 271.052 151.436 270.724C152.164 270.396 152.94 270.232 153.764 270.232C154.868 270.232 155.872 270.516 156.776 271.084C157.688 271.652 158.412 272.416 158.948 273.376C159.492 274.336 159.764 275.4 159.764 276.568C159.764 277.44 159.608 278.256 159.296 279.016C158.984 279.776 158.552 280.448 158 281.032C157.456 281.608 156.82 282.06 156.092 282.388C155.372 282.716 154.596 282.88 153.764 282.88ZM153.764 281.584C154.652 281.584 155.448 281.352 156.152 280.888C156.864 280.424 157.428 279.812 157.844 279.052C158.26 278.292 158.468 277.464 158.468 276.568C158.468 275.664 158.26 274.828 157.844 274.06C157.428 273.292 156.864 272.68 156.152 272.224C155.44 271.76 154.644 271.528 153.764 271.528C152.876 271.528 152.076 271.76 151.364 272.224C150.652 272.688 150.088 273.304 149.672 274.072C149.264 274.832 149.06 275.664 149.06 276.568C149.06 277.504 149.272 278.352 149.696 279.112C150.128 279.864 150.7 280.464 151.412 280.912C152.124 281.36 152.908 281.584 153.764 281.584ZM165.599 282.796C164.935 282.788 164.283 282.672 163.643 282.448C163.011 282.216 162.459 281.908 161.987 281.524C161.515 281.14 161.187 280.704 161.003 280.216L162.143 279.724C162.279 280.084 162.539 280.408 162.923 280.696C163.315 280.984 163.755 281.212 164.243 281.38C164.739 281.54 165.223 281.62 165.695 281.62C166.231 281.62 166.735 281.528 167.207 281.344C167.679 281.16 168.063 280.9 168.359 280.564C168.655 280.228 168.803 279.832 168.803 279.376C168.803 278.896 168.647 278.52 168.335 278.248C168.023 277.968 167.623 277.744 167.135 277.576C166.655 277.4 166.159 277.236 165.647 277.084C164.767 276.828 164.003 276.568 163.355 276.304C162.715 276.032 162.219 275.688 161.867 275.272C161.515 274.856 161.339 274.308 161.339 273.628C161.339 272.924 161.543 272.312 161.951 271.792C162.359 271.272 162.895 270.872 163.559 270.592C164.223 270.304 164.935 270.16 165.695 270.16C166.679 270.16 167.571 270.376 168.371 270.808C169.179 271.24 169.747 271.808 170.075 272.512L169.019 273.136C168.859 272.768 168.607 272.452 168.263 272.188C167.919 271.924 167.527 271.72 167.087 271.576C166.647 271.432 166.203 271.356 165.755 271.348C165.195 271.34 164.671 271.428 164.183 271.612C163.703 271.788 163.315 272.048 163.019 272.392C162.723 272.728 162.575 273.136 162.575 273.616C162.575 274.096 162.711 274.464 162.983 274.72C163.255 274.976 163.635 275.184 164.123 275.344C164.611 275.496 165.175 275.676 165.815 275.884C166.559 276.116 167.251 276.376 167.891 276.664C168.539 276.944 169.059 277.296 169.451 277.72C169.851 278.144 170.047 278.692 170.039 279.364C170.039 280.068 169.827 280.68 169.403 281.2C168.987 281.72 168.439 282.12 167.759 282.4C167.087 282.68 166.367 282.812 165.599 282.796ZM181.631 282.796C180.967 282.788 180.315 282.672 179.675 282.448C179.043 282.216 178.491 281.908 178.019 281.524C177.547 281.14 177.219 280.704 177.035 280.216L178.175 279.724C178.311 280.084 178.571 280.408 178.955 280.696C179.347 280.984 179.787 281.212 180.275 281.38C180.771 281.54 181.255 281.62 181.727 281.62C182.263 281.62 182.767 281.528 183.239 281.344C183.711 281.16 184.095 280.9 184.391 280.564C184.687 280.228 184.835 279.832 184.835 279.376C184.835 278.896 184.679 278.52 184.367 278.248C184.055 277.968 183.655 277.744 183.167 277.576C182.687 277.4 182.191 277.236 181.679 277.084C180.799 276.828 180.035 276.568 179.387 276.304C178.747 276.032 178.251 275.688 177.899 275.272C177.547 274.856 177.371 274.308 177.371 273.628C177.371 272.924 177.575 272.312 177.983 271.792C178.391 271.272 178.927 270.872 179.591 270.592C180.255 270.304 180.967 270.16 181.727 270.16C182.711 270.16 183.603 270.376 184.403 270.808C185.211 271.24 185.779 271.808 186.107 272.512L185.051 273.136C184.891 272.768 184.639 272.452 184.295 272.188C183.951 271.924 183.559 271.72 183.119 271.576C182.679 271.432 182.235 271.356 181.787 271.348C181.227 271.34 180.703 271.428 180.215 271.612C179.735 271.788 179.347 272.048 179.051 272.392C178.755 272.728 178.607 273.136 178.607 273.616C178.607 274.096 178.743 274.464 179.015 274.72C179.287 274.976 179.667 275.184 180.155 275.344C180.643 275.496 181.207 275.676 181.847 275.884C182.591 276.116 183.283 276.376 183.923 276.664C184.571 276.944 185.091 277.296 185.483 277.72C185.883 278.144 186.079 278.692 186.071 279.364C186.071 280.068 185.859 280.68 185.435 281.2C185.019 281.72 184.471 282.12 183.791 282.4C183.119 282.68 182.399 282.812 181.631 282.796ZM193.35 282.88C192.246 282.88 191.238 282.596 190.326 282.028C189.422 281.46 188.698 280.7 188.154 279.748C187.618 278.788 187.35 277.728 187.35 276.568C187.35 275.688 187.506 274.868 187.818 274.108C188.13 273.34 188.558 272.668 189.102 272.092C189.654 271.508 190.294 271.052 191.022 270.724C191.75 270.396 192.526 270.232 193.35 270.232C194.454 270.232 195.458 270.516 196.362 271.084C197.274 271.652 197.998 272.416 198.534 273.376C199.078 274.336 199.35 275.4 199.35 276.568C199.35 277.44 199.194 278.256 198.882 279.016C198.57 279.776 198.138 280.448 197.586 281.032C197.042 281.608 196.406 282.06 195.678 282.388C194.958 282.716 194.182 282.88 193.35 282.88ZM193.35 281.584C194.238 281.584 195.034 281.352 195.738 280.888C196.45 280.424 197.014 279.812 197.43 279.052C197.846 278.292 198.054 277.464 198.054 276.568C198.054 275.664 197.846 274.828 197.43 274.06C197.014 273.292 196.45 272.68 195.738 272.224C195.026 271.76 194.23 271.528 193.35 271.528C192.462 271.528 191.662 271.76 190.95 272.224C190.238 272.688 189.674 273.304 189.258 274.072C188.85 274.832 188.646 275.664 188.646 276.568C188.646 277.504 188.858 278.352 189.282 279.112C189.714 279.864 190.286 280.464 190.998 280.912C191.71 281.36 192.494 281.584 193.35 281.584ZM211.725 275.188V282.568H210.429V275.392C210.429 274.68 210.257 274.032 209.913 273.448C209.569 272.864 209.105 272.4 208.521 272.056C207.937 271.712 207.289 271.54 206.577 271.54C205.873 271.54 205.229 271.712 204.645 272.056C204.061 272.4 203.593 272.864 203.241 273.448C202.897 274.032 202.725 274.68 202.725 275.392V282.568H201.429V270.568H202.725V272.404C203.157 271.74 203.729 271.212 204.441 270.82C205.153 270.428 205.929 270.232 206.769 270.232C207.689 270.232 208.521 270.456 209.265 270.904C210.017 271.344 210.613 271.94 211.053 272.692C211.501 273.444 211.725 274.276 211.725 275.188ZM225.178 282.88C224.074 282.88 223.066 282.596 222.154 282.028C221.25 281.46 220.526 280.7 219.982 279.748C219.446 278.788 219.178 277.728 219.178 276.568C219.178 275.688 219.334 274.868 219.646 274.108C219.958 273.34 220.386 272.668 220.93 272.092C221.482 271.508 222.122 271.052 222.85 270.724C223.578 270.396 224.354 270.232 225.178 270.232C226.05 270.232 226.854 270.404 227.59 270.748C228.334 271.084 228.974 271.56 229.51 272.176C230.046 272.792 230.458 273.52 230.746 274.36C231.034 275.192 231.166 276.104 231.142 277.096H220.534C220.622 277.952 220.878 278.72 221.302 279.4C221.734 280.072 222.286 280.604 222.958 280.996C223.63 281.38 224.37 281.576 225.178 281.584C226.066 281.584 226.866 281.352 227.578 280.888C228.29 280.416 228.862 279.772 229.294 278.956L230.602 279.256C230.122 280.32 229.398 281.192 228.43 281.872C227.462 282.544 226.378 282.88 225.178 282.88ZM220.498 275.992H229.834C229.786 275.168 229.546 274.412 229.114 273.724C228.69 273.028 228.134 272.472 227.446 272.056C226.758 271.64 226.002 271.432 225.178 271.432C224.354 271.432 223.602 271.636 222.922 272.044C222.242 272.452 221.686 273.004 221.254 273.7C220.83 274.388 220.578 275.152 220.498 275.992ZM236.99 282.796C236.326 282.788 235.674 282.672 235.034 282.448C234.402 282.216 233.85 281.908 233.378 281.524C232.906 281.14 232.578 280.704 232.394 280.216L233.534 279.724C233.67 280.084 233.93 280.408 234.314 280.696C234.706 280.984 235.146 281.212 235.634 281.38C236.13 281.54 236.614 281.62 237.086 281.62C237.622 281.62 238.126 281.528 238.598 281.344C239.07 281.16 239.454 280.9 239.75 280.564C240.046 280.228 240.194 279.832 240.194 279.376C240.194 278.896 240.038 278.52 239.726 278.248C239.414 277.968 239.014 277.744 238.526 277.576C238.046 277.4 237.55 277.236 237.038 277.084C236.158 276.828 235.394 276.568 234.746 276.304C234.106 276.032 233.61 275.688 233.258 275.272C232.906 274.856 232.73 274.308 232.73 273.628C232.73 272.924 232.934 272.312 233.342 271.792C233.75 271.272 234.286 270.872 234.95 270.592C235.614 270.304 236.326 270.16 237.086 270.16C238.07 270.16 238.962 270.376 239.762 270.808C240.57 271.24 241.138 271.808 241.466 272.512L240.41 273.136C240.25 272.768 239.998 272.452 239.654 272.188C239.31 271.924 238.918 271.72 238.478 271.576C238.038 271.432 237.594 271.356 237.146 271.348C236.586 271.34 236.062 271.428 235.574 271.612C235.094 271.788 234.706 272.048 234.41 272.392C234.114 272.728 233.966 273.136 233.966 273.616C233.966 274.096 234.102 274.464 234.374 274.72C234.646 274.976 235.026 275.184 235.514 275.344C236.002 275.496 236.566 275.676 237.206 275.884C237.95 276.116 238.642 276.376 239.282 276.664C239.93 276.944 240.45 277.296 240.842 277.72C241.242 278.144 241.438 278.692 241.43 279.364C241.43 280.068 241.218 280.68 240.794 281.2C240.378 281.72 239.83 282.12 239.15 282.4C238.478 282.68 237.758 282.812 236.99 282.796ZM252.345 279.748L253.497 280.372C252.953 281.132 252.261 281.74 251.421 282.196C250.589 282.652 249.685 282.88 248.709 282.88C247.605 282.88 246.597 282.596 245.685 282.028C244.781 281.46 244.057 280.7 243.513 279.748C242.977 278.788 242.709 277.728 242.709 276.568C242.709 275.688 242.865 274.868 243.177 274.108C243.489 273.34 243.917 272.668 244.461 272.092C245.013 271.508 245.653 271.052 246.381 270.724C247.109 270.396 247.885 270.232 248.709 270.232C249.685 270.232 250.589 270.46 251.421 270.916C252.261 271.372 252.953 271.984 253.497 272.752L252.345 273.364C251.889 272.772 251.337 272.32 250.689 272.008C250.041 271.688 249.381 271.528 248.709 271.528C247.829 271.528 247.033 271.76 246.321 272.224C245.609 272.68 245.045 273.292 244.629 274.06C244.213 274.82 244.005 275.656 244.005 276.568C244.005 277.488 244.217 278.328 244.641 279.088C245.065 279.848 245.633 280.456 246.345 280.912C247.057 281.36 247.845 281.584 248.709 281.584C249.437 281.584 250.121 281.412 250.761 281.068C251.401 280.724 251.929 280.284 252.345 279.748ZM265.686 270.568H266.982V282.568H265.686L265.65 280.108C265.242 280.94 264.658 281.612 263.898 282.124C263.146 282.628 262.242 282.88 261.186 282.88C260.314 282.88 259.494 282.716 258.726 282.388C257.966 282.052 257.294 281.596 256.71 281.02C256.126 280.436 255.67 279.764 255.342 279.004C255.014 278.236 254.85 277.412 254.85 276.532C254.85 275.66 255.01 274.844 255.33 274.084C255.658 273.324 256.11 272.656 256.686 272.08C257.262 271.496 257.93 271.044 258.69 270.724C259.45 270.396 260.262 270.232 261.126 270.232C262.19 270.232 263.11 270.492 263.886 271.012C264.67 271.524 265.282 272.196 265.722 273.028L265.686 270.568ZM261.174 281.608C262.094 281.608 262.882 281.384 263.538 280.936C264.202 280.48 264.71 279.868 265.062 279.1C265.414 278.332 265.59 277.488 265.59 276.568C265.59 275.624 265.41 274.772 265.05 274.012C264.698 273.244 264.19 272.636 263.526 272.188C262.87 271.732 262.086 271.504 261.174 271.504C260.246 271.504 259.402 271.732 258.642 272.188C257.89 272.644 257.29 273.256 256.842 274.024C256.394 274.792 256.17 275.64 256.17 276.568C256.17 277.512 256.398 278.364 256.854 279.124C257.318 279.884 257.93 280.488 258.69 280.936C259.45 281.384 260.278 281.608 261.174 281.608ZM269.562 282.568V264.568H270.858V282.568H269.562ZM283.78 270.568H285.076V282.568H283.78L283.744 280.108C283.336 280.94 282.752 281.612 281.992 282.124C281.24 282.628 280.336 282.88 279.28 282.88C278.408 282.88 277.588 282.716 276.82 282.388C276.06 282.052 275.388 281.596 274.804 281.02C274.22 280.436 273.764 279.764 273.436 279.004C273.108 278.236 272.944 277.412 272.944 276.532C272.944 275.66 273.104 274.844 273.424 274.084C273.752 273.324 274.204 272.656 274.78 272.08C275.356 271.496 276.024 271.044 276.784 270.724C277.544 270.396 278.356 270.232 279.22 270.232C280.284 270.232 281.204 270.492 281.98 271.012C282.764 271.524 283.376 272.196 283.816 273.028L283.78 270.568ZM279.268 281.608C280.188 281.608 280.976 281.384 281.632 280.936C282.296 280.48 282.804 279.868 283.156 279.1C283.508 278.332 283.684 277.488 283.684 276.568C283.684 275.624 283.504 274.772 283.144 274.012C282.792 273.244 282.284 272.636 281.62 272.188C280.964 271.732 280.18 271.504 279.268 271.504C278.34 271.504 277.496 271.732 276.736 272.188C275.984 272.644 275.384 273.256 274.936 274.024C274.488 274.792 274.264 275.64 274.264 276.568C274.264 277.512 274.492 278.364 274.948 279.124C275.412 279.884 276.024 280.488 276.784 280.936C277.544 281.384 278.372 281.608 279.268 281.608ZM293.476 270.232C294.636 270.232 295.692 270.516 296.644 271.084C297.604 271.652 298.368 272.416 298.936 273.376C299.504 274.328 299.788 275.388 299.788 276.556C299.788 277.428 299.624 278.248 299.296 279.016C298.968 279.776 298.512 280.448 297.928 281.032C297.352 281.608 296.684 282.06 295.924 282.388C295.164 282.716 294.348 282.88 293.476 282.88C292.412 282.88 291.496 282.624 290.728 282.112C289.968 281.6 289.376 280.928 288.952 280.096V282.568H287.656V264.568H288.952V273.016C289.376 272.184 289.968 271.512 290.728 271C291.496 270.488 292.412 270.232 293.476 270.232ZM293.464 281.608C294.392 281.608 295.232 281.38 295.984 280.924C296.744 280.468 297.348 279.86 297.796 279.1C298.252 278.332 298.48 277.484 298.48 276.556C298.48 275.612 298.248 274.76 297.784 274C297.32 273.232 296.708 272.624 295.948 272.176C295.196 271.728 294.368 271.504 293.464 271.504C292.544 271.504 291.752 271.732 291.088 272.188C290.432 272.644 289.928 273.256 289.576 274.024C289.224 274.792 289.048 275.636 289.048 276.556C289.048 277.5 289.224 278.352 289.576 279.112C289.936 279.872 290.444 280.48 291.1 280.936C291.764 281.384 292.552 281.608 293.464 281.608ZM301.812 282.568V264.568H303.108V282.568H301.812ZM311.194 282.88C310.09 282.88 309.082 282.596 308.17 282.028C307.266 281.46 306.542 280.7 305.998 279.748C305.462 278.788 305.194 277.728 305.194 276.568C305.194 275.688 305.35 274.868 305.662 274.108C305.974 273.34 306.402 272.668 306.946 272.092C307.498 271.508 308.138 271.052 308.866 270.724C309.594 270.396 310.37 270.232 311.194 270.232C312.066 270.232 312.87 270.404 313.606 270.748C314.35 271.084 314.99 271.56 315.526 272.176C316.062 272.792 316.474 273.52 316.762 274.36C317.05 275.192 317.182 276.104 317.158 277.096H306.55C306.638 277.952 306.894 278.72 307.318 279.4C307.75 280.072 308.302 280.604 308.974 280.996C309.646 281.38 310.386 281.576 311.194 281.584C312.082 281.584 312.882 281.352 313.594 280.888C314.306 280.416 314.878 279.772 315.31 278.956L316.618 279.256C316.138 280.32 315.414 281.192 314.446 281.872C313.478 282.544 312.394 282.88 311.194 282.88ZM306.514 275.992H315.85C315.802 275.168 315.562 274.412 315.13 273.724C314.706 273.028 314.15 272.472 313.462 272.056C312.774 271.64 312.018 271.432 311.194 271.432C310.37 271.432 309.618 271.636 308.938 272.044C308.258 272.452 307.702 273.004 307.27 273.7C306.846 274.388 306.594 275.152 306.514 275.992ZM323.006 282.796C322.342 282.788 321.69 282.672 321.05 282.448C320.418 282.216 319.866 281.908 319.394 281.524C318.922 281.14 318.594 280.704 318.41 280.216L319.55 279.724C319.686 280.084 319.946 280.408 320.33 280.696C320.722 280.984 321.162 281.212 321.65 281.38C322.146 281.54 322.63 281.62 323.102 281.62C323.638 281.62 324.142 281.528 324.614 281.344C325.086 281.16 325.47 280.9 325.766 280.564C326.062 280.228 326.21 279.832 326.21 279.376C326.21 278.896 326.054 278.52 325.742 278.248C325.43 277.968 325.03 277.744 324.542 277.576C324.062 277.4 323.566 277.236 323.054 277.084C322.174 276.828 321.41 276.568 320.762 276.304C320.122 276.032 319.626 275.688 319.274 275.272C318.922 274.856 318.746 274.308 318.746 273.628C318.746 272.924 318.95 272.312 319.358 271.792C319.766 271.272 320.302 270.872 320.966 270.592C321.63 270.304 322.342 270.16 323.102 270.16C324.086 270.16 324.978 270.376 325.778 270.808C326.586 271.24 327.154 271.808 327.482 272.512L326.426 273.136C326.266 272.768 326.014 272.452 325.67 272.188C325.326 271.924 324.934 271.72 324.494 271.576C324.054 271.432 323.61 271.356 323.162 271.348C322.602 271.34 322.078 271.428 321.59 271.612C321.11 271.788 320.722 272.048 320.426 272.392C320.13 272.728 319.982 273.136 319.982 273.616C319.982 274.096 320.118 274.464 320.39 274.72C320.662 274.976 321.042 275.184 321.53 275.344C322.018 275.496 322.582 275.676 323.222 275.884C323.966 276.116 324.658 276.376 325.298 276.664C325.946 276.944 326.466 277.296 326.858 277.72C327.258 278.144 327.454 278.692 327.446 279.364C327.446 280.068 327.234 280.68 326.81 281.2C326.394 281.72 325.846 282.12 325.166 282.4C324.494 282.68 323.774 282.812 323.006 282.796ZM81.2469 299.568H82.6029L76.0509 317.568H74.6709L76.8549 311.568L72.5469 299.568H73.9629L77.5029 309.78L81.2469 299.568ZM100.885 299.568H102.181V311.568H100.885L100.849 309.108C100.441 309.94 99.8571 310.612 99.0971 311.124C98.3451 311.628 97.4411 311.88 96.3851 311.88C95.5131 311.88 94.6931 311.716 93.9251 311.388C93.1651 311.052 92.4931 310.596 91.9091 310.02C91.3251 309.436 90.8691 308.764 90.5411 308.004C90.2131 307.236 90.0491 306.412 90.0491 305.532C90.0491 304.66 90.2091 303.844 90.5291 303.084C90.8571 302.324 91.3091 301.656 91.8851 301.08C92.4611 300.496 93.1291 300.044 93.8891 299.724C94.6491 299.396 95.4611 299.232 96.3251 299.232C97.3891 299.232 98.3091 299.492 99.0851 300.012C99.8691 300.524 100.481 301.196 100.921 302.028L100.885 299.568ZM96.3731 310.608C97.2931 310.608 98.0811 310.384 98.7371 309.936C99.4011 309.48 99.9091 308.868 100.261 308.1C100.613 307.332 100.789 306.488 100.789 305.568C100.789 304.624 100.609 303.772 100.249 303.012C99.8971 302.244 99.3891 301.636 98.7251 301.188C98.0691 300.732 97.2851 300.504 96.3731 300.504C95.4451 300.504 94.6011 300.732 93.8411 301.188C93.0891 301.644 92.4891 302.256 92.0411 303.024C91.5931 303.792 91.3691 304.64 91.3691 305.568C91.3691 306.512 91.5971 307.364 92.0531 308.124C92.5171 308.884 93.1291 309.488 93.8891 309.936C94.6491 310.384 95.4771 310.608 96.3731 310.608ZM114.455 293.568H115.751V311.568H114.455V309.096C114.039 309.936 113.447 310.612 112.679 311.124C111.911 311.628 110.995 311.88 109.931 311.88C109.059 311.88 108.243 311.716 107.483 311.388C106.723 311.06 106.051 310.608 105.467 310.032C104.891 309.448 104.439 308.776 104.111 308.016C103.783 307.256 103.619 306.44 103.619 305.568C103.619 304.696 103.783 303.88 104.111 303.12C104.439 302.352 104.891 301.68 105.467 301.104C106.051 300.52 106.723 300.064 107.483 299.736C108.243 299.408 109.059 299.244 109.931 299.244C110.995 299.244 111.911 299.5 112.679 300.012C113.447 300.516 114.039 301.184 114.455 302.016V293.568ZM109.943 310.608C110.863 310.608 111.651 310.384 112.307 309.936C112.971 309.48 113.479 308.868 113.831 308.1C114.183 307.332 114.359 306.488 114.359 305.568C114.359 304.624 114.179 303.772 113.819 303.012C113.467 302.244 112.959 301.636 112.295 301.188C111.639 300.732 110.855 300.504 109.943 300.504C109.023 300.504 108.183 300.732 107.423 301.188C106.671 301.644 106.067 302.256 105.611 303.024C105.163 303.792 104.939 304.64 104.939 305.568C104.939 306.512 105.167 307.364 105.623 308.124C106.087 308.884 106.699 309.488 107.459 309.936C108.219 310.384 109.047 310.608 109.943 310.608ZM128.682 299.568H129.978V311.568H128.682L128.646 309.108C128.238 309.94 127.654 310.612 126.894 311.124C126.142 311.628 125.238 311.88 124.182 311.88C123.31 311.88 122.49 311.716 121.722 311.388C120.962 311.052 120.29 310.596 119.706 310.02C119.122 309.436 118.666 308.764 118.338 308.004C118.01 307.236 117.846 306.412 117.846 305.532C117.846 304.66 118.006 303.844 118.326 303.084C118.654 302.324 119.106 301.656 119.682 301.08C120.258 300.496 120.926 300.044 121.686 299.724C122.446 299.396 123.258 299.232 124.122 299.232C125.186 299.232 126.106 299.492 126.882 300.012C127.666 300.524 128.278 301.196 128.718 302.028L128.682 299.568ZM124.17 310.608C125.09 310.608 125.878 310.384 126.534 309.936C127.198 309.48 127.706 308.868 128.058 308.1C128.41 307.332 128.586 306.488 128.586 305.568C128.586 304.624 128.406 303.772 128.046 303.012C127.694 302.244 127.186 301.636 126.522 301.188C125.866 300.732 125.082 300.504 124.17 300.504C123.242 300.504 122.398 300.732 121.638 301.188C120.886 301.644 120.286 302.256 119.838 303.024C119.39 303.792 119.166 304.64 119.166 305.568C119.166 306.512 119.394 307.364 119.85 308.124C120.314 308.884 120.926 309.488 121.686 309.936C122.446 310.384 123.274 310.608 124.17 310.608ZM133.667 317.568H132.371V299.568H133.667V302.04C134.091 301.208 134.683 300.536 135.443 300.024C136.211 299.512 137.127 299.256 138.191 299.256C139.063 299.256 139.879 299.42 140.639 299.748C141.399 300.076 142.067 300.532 142.643 301.116C143.227 301.692 143.683 302.36 144.011 303.12C144.339 303.88 144.503 304.696 144.503 305.568C144.503 306.44 144.339 307.26 144.011 308.028C143.683 308.796 143.227 309.472 142.643 310.056C142.067 310.632 141.399 311.084 140.639 311.412C139.879 311.74 139.063 311.904 138.191 311.904C137.127 311.904 136.211 311.648 135.443 311.136C134.683 310.624 134.091 309.952 133.667 309.12V317.568ZM138.179 300.528C137.267 300.528 136.479 300.756 135.815 301.212C135.159 301.66 134.651 302.264 134.291 303.024C133.939 303.784 133.763 304.632 133.763 305.568C133.763 306.488 133.939 307.332 134.291 308.1C134.643 308.868 135.147 309.484 135.803 309.948C136.467 310.404 137.259 310.632 138.179 310.632C139.083 310.632 139.911 310.408 140.663 309.96C141.423 309.512 142.035 308.908 142.499 308.148C142.963 307.38 143.195 306.52 143.195 305.568C143.195 304.648 142.967 303.808 142.511 303.048C142.063 302.28 141.459 301.668 140.699 301.212C139.947 300.756 139.107 300.528 138.179 300.528ZM152.352 300.864H149.316L149.304 311.568H148.008L148.02 300.864H145.728V299.568H148.02L148.008 295.8H149.304L149.316 299.568H152.352V300.864ZM164.26 299.568H165.556V311.568H164.26L164.224 309.108C163.816 309.94 163.232 310.612 162.472 311.124C161.72 311.628 160.816 311.88 159.76 311.88C158.888 311.88 158.068 311.716 157.3 311.388C156.54 311.052 155.868 310.596 155.284 310.02C154.7 309.436 154.244 308.764 153.916 308.004C153.588 307.236 153.424 306.412 153.424 305.532C153.424 304.66 153.584 303.844 153.904 303.084C154.232 302.324 154.684 301.656 155.26 301.08C155.836 300.496 156.504 300.044 157.264 299.724C158.024 299.396 158.836 299.232 159.7 299.232C160.764 299.232 161.684 299.492 162.46 300.012C163.244 300.524 163.856 301.196 164.296 302.028L164.26 299.568ZM159.748 310.608C160.668 310.608 161.456 310.384 162.112 309.936C162.776 309.48 163.284 308.868 163.636 308.1C163.988 307.332 164.164 306.488 164.164 305.568C164.164 304.624 163.984 303.772 163.624 303.012C163.272 302.244 162.764 301.636 162.1 301.188C161.444 300.732 160.66 300.504 159.748 300.504C158.82 300.504 157.976 300.732 157.216 301.188C156.464 301.644 155.864 302.256 155.416 303.024C154.968 303.792 154.744 304.64 154.744 305.568C154.744 306.512 154.972 307.364 155.428 308.124C155.892 308.884 156.504 309.488 157.264 309.936C158.024 310.384 158.852 310.608 159.748 310.608ZM173.956 299.232C175.116 299.232 176.172 299.516 177.124 300.084C178.084 300.652 178.848 301.416 179.416 302.376C179.984 303.328 180.268 304.388 180.268 305.556C180.268 306.428 180.104 307.248 179.776 308.016C179.448 308.776 178.992 309.448 178.408 310.032C177.832 310.608 177.164 311.06 176.404 311.388C175.644 311.716 174.828 311.88 173.956 311.88C172.892 311.88 171.976 311.624 171.208 311.112C170.448 310.6 169.856 309.928 169.432 309.096V311.568H168.136V293.568H169.432V302.016C169.856 301.184 170.448 300.512 171.208 300C171.976 299.488 172.892 299.232 173.956 299.232ZM173.944 310.608C174.872 310.608 175.712 310.38 176.464 309.924C177.224 309.468 177.828 308.86 178.276 308.1C178.732 307.332 178.96 306.484 178.96 305.556C178.96 304.612 178.728 303.76 178.264 303C177.8 302.232 177.188 301.624 176.428 301.176C175.676 300.728 174.848 300.504 173.944 300.504C173.024 300.504 172.232 300.732 171.568 301.188C170.912 301.644 170.408 302.256 170.056 303.024C169.704 303.792 169.528 304.636 169.528 305.556C169.528 306.5 169.704 307.352 170.056 308.112C170.416 308.872 170.924 309.48 171.58 309.936C172.244 310.384 173.032 310.608 173.944 310.608ZM182.293 311.568V293.568H183.589V311.568H182.293ZM191.674 311.88C190.57 311.88 189.562 311.596 188.65 311.028C187.746 310.46 187.022 309.7 186.478 308.748C185.942 307.788 185.674 306.728 185.674 305.568C185.674 304.688 185.83 303.868 186.142 303.108C186.454 302.34 186.882 301.668 187.426 301.092C187.978 300.508 188.618 300.052 189.346 299.724C190.074 299.396 190.85 299.232 191.674 299.232C192.546 299.232 193.35 299.404 194.086 299.748C194.83 300.084 195.47 300.56 196.006 301.176C196.542 301.792 196.954 302.52 197.242 303.36C197.53 304.192 197.662 305.104 197.638 306.096H187.03C187.118 306.952 187.374 307.72 187.798 308.4C188.23 309.072 188.782 309.604 189.454 309.996C190.126 310.38 190.866 310.576 191.674 310.584C192.562 310.584 193.362 310.352 194.074 309.888C194.786 309.416 195.358 308.772 195.79 307.956L197.098 308.256C196.618 309.32 195.894 310.192 194.926 310.872C193.958 311.544 192.874 311.88 191.674 311.88ZM186.994 304.992H196.33C196.282 304.168 196.042 303.412 195.61 302.724C195.186 302.028 194.63 301.472 193.942 301.056C193.254 300.64 192.498 300.432 191.674 300.432C190.85 300.432 190.098 300.636 189.418 301.044C188.738 301.452 188.182 302.004 187.75 302.7C187.326 303.388 187.074 304.152 186.994 304.992ZM203.486 311.796C202.822 311.788 202.17 311.672 201.53 311.448C200.898 311.216 200.346 310.908 199.874 310.524C199.402 310.14 199.074 309.704 198.89 309.216L200.03 308.724C200.166 309.084 200.426 309.408 200.81 309.696C201.202 309.984 201.642 310.212 202.13 310.38C202.626 310.54 203.11 310.62 203.582 310.62C204.118 310.62 204.622 310.528 205.094 310.344C205.566 310.16 205.95 309.9 206.246 309.564C206.542 309.228 206.69 308.832 206.69 308.376C206.69 307.896 206.534 307.52 206.222 307.248C205.91 306.968 205.51 306.744 205.022 306.576C204.542 306.4 204.046 306.236 203.534 306.084C202.654 305.828 201.89 305.568 201.242 305.304C200.602 305.032 200.106 304.688 199.754 304.272C199.402 303.856 199.226 303.308 199.226 302.628C199.226 301.924 199.43 301.312 199.838 300.792C200.246 300.272 200.782 299.872 201.446 299.592C202.11 299.304 202.822 299.16 203.582 299.16C204.566 299.16 205.458 299.376 206.258 299.808C207.066 300.24 207.634 300.808 207.962 301.512L206.906 302.136C206.746 301.768 206.494 301.452 206.15 301.188C205.806 300.924 205.414 300.72 204.974 300.576C204.534 300.432 204.09 300.356 203.642 300.348C203.082 300.34 202.558 300.428 202.07 300.612C201.59 300.788 201.202 301.048 200.906 301.392C200.61 301.728 200.462 302.136 200.462 302.616C200.462 303.096 200.598 303.464 200.87 303.72C201.142 303.976 201.522 304.184 202.01 304.344C202.498 304.496 203.062 304.676 203.702 304.884C204.446 305.116 205.138 305.376 205.778 305.664C206.426 305.944 206.946 306.296 207.338 306.72C207.738 307.144 207.934 307.692 207.926 308.364C207.926 309.068 207.714 309.68 207.29 310.2C206.874 310.72 206.326 311.12 205.646 311.4C204.974 311.68 204.254 311.812 203.486 311.796ZM225.877 299.568H227.173V311.568H225.877L225.841 309.108C225.433 309.94 224.849 310.612 224.089 311.124C223.337 311.628 222.433 311.88 221.377 311.88C220.505 311.88 219.685 311.716 218.917 311.388C218.157 311.052 217.485 310.596 216.901 310.02C216.317 309.436 215.861 308.764 215.533 308.004C215.205 307.236 215.041 306.412 215.041 305.532C215.041 304.66 215.201 303.844 215.521 303.084C215.849 302.324 216.301 301.656 216.877 301.08C217.453 300.496 218.121 300.044 218.881 299.724C219.641 299.396 220.453 299.232 221.317 299.232C222.381 299.232 223.301 299.492 224.077 300.012C224.861 300.524 225.473 301.196 225.913 302.028L225.877 299.568ZM221.365 310.608C222.285 310.608 223.073 310.384 223.729 309.936C224.393 309.48 224.901 308.868 225.253 308.1C225.605 307.332 225.781 306.488 225.781 305.568C225.781 304.624 225.601 303.772 225.241 303.012C224.889 302.244 224.381 301.636 223.717 301.188C223.061 300.732 222.277 300.504 221.365 300.504C220.437 300.504 219.593 300.732 218.833 301.188C218.081 301.644 217.481 302.256 217.033 303.024C216.585 303.792 216.361 304.64 216.361 305.568C216.361 306.512 216.589 307.364 217.045 308.124C217.509 308.884 218.121 309.488 218.881 309.936C219.641 310.384 220.469 310.608 221.365 310.608ZM235.332 311.568V299.568H236.628V301.404C237.068 300.74 237.64 300.212 238.344 299.82C239.048 299.428 239.824 299.232 240.672 299.232C241.6 299.232 242.444 299.464 243.204 299.928C243.972 300.384 244.568 300.992 244.992 301.752C245.416 300.992 246.008 300.384 246.768 299.928C247.528 299.464 248.372 299.232 249.3 299.232C250.212 299.232 251.044 299.456 251.796 299.904C252.548 300.344 253.144 300.94 253.584 301.692C254.032 302.444 254.256 303.276 254.256 304.188V311.568H252.96V304.428C252.96 303.732 252.792 303.092 252.456 302.508C252.12 301.916 251.668 301.44 251.1 301.08C250.532 300.72 249.9 300.54 249.204 300.54C248.516 300.54 247.884 300.708 247.308 301.044C246.74 301.372 246.288 301.828 245.952 302.412C245.616 302.996 245.448 303.668 245.448 304.428V311.568H244.152V304.428C244.152 303.668 243.98 302.996 243.636 302.412C243.3 301.828 242.848 301.372 242.28 301.044C241.712 300.708 241.08 300.54 240.384 300.54C239.696 300.54 239.068 300.72 238.5 301.08C237.932 301.44 237.476 301.916 237.132 302.508C236.796 303.092 236.628 303.732 236.628 304.428V311.568H235.332ZM261.705 311.88C260.601 311.88 259.593 311.596 258.681 311.028C257.777 310.46 257.053 309.7 256.509 308.748C255.973 307.788 255.705 306.728 255.705 305.568C255.705 304.688 255.861 303.868 256.173 303.108C256.485 302.34 256.913 301.668 257.457 301.092C258.009 300.508 258.649 300.052 259.377 299.724C260.105 299.396 260.881 299.232 261.705 299.232C262.577 299.232 263.381 299.404 264.117 299.748C264.861 300.084 265.501 300.56 266.037 301.176C266.573 301.792 266.985 302.52 267.273 303.36C267.561 304.192 267.693 305.104 267.669 306.096H257.061C257.149 306.952 257.405 307.72 257.829 308.4C258.261 309.072 258.813 309.604 259.485 309.996C260.157 310.38 260.897 310.576 261.705 310.584C262.593 310.584 263.393 310.352 264.105 309.888C264.817 309.416 265.389 308.772 265.821 307.956L267.129 308.256C266.649 309.32 265.925 310.192 264.957 310.872C263.989 311.544 262.905 311.88 261.705 311.88ZM257.025 304.992H266.361C266.313 304.168 266.073 303.412 265.641 302.724C265.217 302.028 264.661 301.472 263.973 301.056C263.285 300.64 262.529 300.432 261.705 300.432C260.881 300.432 260.129 300.636 259.449 301.044C258.769 301.452 258.213 302.004 257.781 302.7C257.357 303.388 257.105 304.152 257.025 304.992ZM279.713 293.568H281.009V311.568H279.713V309.096C279.297 309.936 278.705 310.612 277.937 311.124C277.169 311.628 276.253 311.88 275.189 311.88C274.317 311.88 273.501 311.716 272.741 311.388C271.981 311.06 271.309 310.608 270.725 310.032C270.149 309.448 269.697 308.776 269.369 308.016C269.041 307.256 268.877 306.44 268.877 305.568C268.877 304.696 269.041 303.88 269.369 303.12C269.697 302.352 270.149 301.68 270.725 301.104C271.309 300.52 271.981 300.064 272.741 299.736C273.501 299.408 274.317 299.244 275.189 299.244C276.253 299.244 277.169 299.5 277.937 300.012C278.705 300.516 279.297 301.184 279.713 302.016V293.568ZM275.201 310.608C276.121 310.608 276.909 310.384 277.565 309.936C278.229 309.48 278.737 308.868 279.089 308.1C279.441 307.332 279.617 306.488 279.617 305.568C279.617 304.624 279.437 303.772 279.077 303.012C278.725 302.244 278.217 301.636 277.553 301.188C276.897 300.732 276.113 300.504 275.201 300.504C274.281 300.504 273.441 300.732 272.681 301.188C271.929 301.644 271.325 302.256 270.869 303.024C270.421 303.792 270.197 304.64 270.197 305.568C270.197 306.512 270.425 307.364 270.881 308.124C271.345 308.884 271.957 309.488 272.717 309.936C273.477 310.384 274.305 310.608 275.201 310.608ZM283.894 299.568H285.19V311.568H283.894V299.568ZM284.554 297.3C284.33 297.3 284.138 297.228 283.978 297.084C283.826 296.932 283.75 296.744 283.75 296.52C283.75 296.296 283.826 296.112 283.978 295.968C284.138 295.816 284.33 295.74 284.554 295.74C284.77 295.74 284.954 295.816 285.106 295.968C285.266 296.112 285.346 296.296 285.346 296.52C285.346 296.744 285.27 296.932 285.118 297.084C284.966 297.228 284.778 297.3 284.554 297.3ZM298.112 293.568H299.408V311.568H298.112V309.096C297.696 309.936 297.104 310.612 296.336 311.124C295.568 311.628 294.652 311.88 293.588 311.88C292.716 311.88 291.9 311.716 291.14 311.388C290.38 311.06 289.708 310.608 289.124 310.032C288.548 309.448 288.096 308.776 287.768 308.016C287.44 307.256 287.276 306.44 287.276 305.568C287.276 304.696 287.44 303.88 287.768 303.12C288.096 302.352 288.548 301.68 289.124 301.104C289.708 300.52 290.38 300.064 291.14 299.736C291.9 299.408 292.716 299.244 293.588 299.244C294.652 299.244 295.568 299.5 296.336 300.012C297.104 300.516 297.696 301.184 298.112 302.016V293.568ZM293.6 310.608C294.52 310.608 295.308 310.384 295.964 309.936C296.628 309.48 297.136 308.868 297.488 308.1C297.84 307.332 298.016 306.488 298.016 305.568C298.016 304.624 297.836 303.772 297.476 303.012C297.124 302.244 296.616 301.636 295.952 301.188C295.296 300.732 294.512 300.504 293.6 300.504C292.68 300.504 291.84 300.732 291.08 301.188C290.328 301.644 289.724 302.256 289.268 303.024C288.82 303.792 288.596 304.64 288.596 305.568C288.596 306.512 288.824 307.364 289.28 308.124C289.744 308.884 290.356 309.488 291.116 309.936C291.876 310.384 292.704 310.608 293.6 310.608ZM312.338 299.568H313.634V311.568H312.338L312.302 309.108C311.894 309.94 311.31 310.612 310.55 311.124C309.798 311.628 308.894 311.88 307.838 311.88C306.966 311.88 306.146 311.716 305.378 311.388C304.618 311.052 303.946 310.596 303.362 310.02C302.778 309.436 302.322 308.764 301.994 308.004C301.666 307.236 301.502 306.412 301.502 305.532C301.502 304.66 301.662 303.844 301.982 303.084C302.31 302.324 302.762 301.656 303.338 301.08C303.914 300.496 304.582 300.044 305.342 299.724C306.102 299.396 306.914 299.232 307.778 299.232C308.842 299.232 309.762 299.492 310.538 300.012C311.322 300.524 311.934 301.196 312.374 302.028L312.338 299.568ZM307.826 310.608C308.746 310.608 309.534 310.384 310.19 309.936C310.854 309.48 311.362 308.868 311.714 308.1C312.066 307.332 312.242 306.488 312.242 305.568C312.242 304.624 312.062 303.772 311.702 303.012C311.35 302.244 310.842 301.636 310.178 301.188C309.522 300.732 308.738 300.504 307.826 300.504C306.898 300.504 306.054 300.732 305.294 301.188C304.542 301.644 303.942 302.256 303.494 303.024C303.046 303.792 302.822 304.64 302.822 305.568C302.822 306.512 303.05 307.364 303.506 308.124C303.97 308.884 304.582 309.488 305.342 309.936C306.102 310.384 306.93 310.608 307.826 310.608ZM93.6306 340.904C92.4706 340.904 91.4106 340.62 90.4506 340.052C89.4986 339.484 88.7386 338.72 88.1706 337.76C87.6026 336.8 87.3186 335.736 87.3186 334.568C87.3186 333.696 87.4826 332.88 87.8106 332.12C88.1386 331.36 88.5906 330.692 89.1666 330.116C89.7506 329.532 90.4226 329.076 91.1826 328.748C91.9426 328.42 92.7586 328.256 93.6306 328.256C94.6946 328.256 95.6066 328.512 96.3666 329.024C97.1346 329.536 97.7306 330.208 98.1546 331.04V328.568H99.4506V346.568H98.1546V338.12C97.7306 338.952 97.1346 339.624 96.3666 340.136C95.6066 340.648 94.6946 340.904 93.6306 340.904ZM93.6426 329.528C92.7146 329.528 91.8706 329.756 91.1106 330.212C90.3586 330.668 89.7586 331.28 89.3106 332.048C88.8626 332.808 88.6386 333.648 88.6386 334.568C88.6386 335.52 88.8666 336.38 89.3226 337.148C89.7786 337.908 90.3866 338.512 91.1466 338.96C91.9066 339.408 92.7386 339.632 93.6426 339.632C94.5626 339.632 95.3506 339.404 96.0066 338.948C96.6706 338.484 97.1786 337.868 97.5306 337.1C97.8826 336.332 98.0586 335.488 98.0586 334.568C98.0586 333.632 97.8786 332.784 97.5186 332.024C97.1666 331.264 96.6586 330.66 95.9946 330.212C95.3386 329.756 94.5546 329.528 93.6426 329.528ZM101.762 335.924V328.568H103.058V335.72C103.058 336.432 103.23 337.08 103.574 337.664C103.926 338.248 104.394 338.712 104.978 339.056C105.562 339.4 106.206 339.572 106.91 339.572C107.622 339.572 108.266 339.4 108.842 339.056C109.426 338.712 109.89 338.248 110.234 337.664C110.586 337.08 110.762 336.432 110.762 335.72V328.568H112.058V340.568H110.762V338.708C110.33 339.364 109.758 339.892 109.046 340.292C108.342 340.684 107.566 340.88 106.718 340.88C105.806 340.88 104.974 340.66 104.222 340.22C103.47 339.772 102.87 339.172 102.422 338.42C101.982 337.668 101.762 336.836 101.762 335.924ZM119.662 340.88C118.558 340.88 117.55 340.596 116.638 340.028C115.734 339.46 115.01 338.7 114.466 337.748C113.93 336.788 113.662 335.728 113.662 334.568C113.662 333.688 113.818 332.868 114.13 332.108C114.442 331.34 114.87 330.668 115.414 330.092C115.966 329.508 116.606 329.052 117.334 328.724C118.062 328.396 118.838 328.232 119.662 328.232C120.534 328.232 121.338 328.404 122.074 328.748C122.818 329.084 123.458 329.56 123.994 330.176C124.53 330.792 124.942 331.52 125.23 332.36C125.518 333.192 125.65 334.104 125.626 335.096H115.018C115.106 335.952 115.362 336.72 115.786 337.4C116.218 338.072 116.77 338.604 117.442 338.996C118.114 339.38 118.854 339.576 119.662 339.584C120.55 339.584 121.35 339.352 122.062 338.888C122.774 338.416 123.346 337.772 123.778 336.956L125.086 337.256C124.606 338.32 123.882 339.192 122.914 339.872C121.946 340.544 120.862 340.88 119.662 340.88ZM114.982 333.992H124.318C124.27 333.168 124.03 332.412 123.598 331.724C123.174 331.028 122.618 330.472 121.93 330.056C121.242 329.64 120.486 329.432 119.662 329.432C118.838 329.432 118.086 329.636 117.406 330.044C116.726 330.452 116.17 331.004 115.738 331.7C115.314 332.388 115.062 333.152 114.982 333.992ZM139.59 329.864H136.554L136.542 340.568H135.246L135.258 329.864H132.966V328.568H135.258L135.246 324.8H136.542L136.554 328.568H139.59V329.864ZM141.254 335.924V328.568H142.55V335.72C142.55 336.432 142.722 337.08 143.066 337.664C143.418 338.248 143.886 338.712 144.47 339.056C145.054 339.4 145.698 339.572 146.402 339.572C147.114 339.572 147.758 339.4 148.334 339.056C148.918 338.712 149.382 338.248 149.726 337.664C150.078 337.08 150.254 336.432 150.254 335.72V328.568H151.55V340.568H150.254V338.708C149.822 339.364 149.25 339.892 148.538 340.292C147.834 340.684 147.058 340.88 146.21 340.88C145.298 340.88 144.466 340.66 143.714 340.22C142.962 339.772 142.362 339.172 141.914 338.42C141.474 337.668 141.254 336.836 141.254 335.924ZM157.701 340.796C157.037 340.788 156.385 340.672 155.745 340.448C155.113 340.216 154.561 339.908 154.089 339.524C153.617 339.14 153.289 338.704 153.105 338.216L154.245 337.724C154.381 338.084 154.641 338.408 155.025 338.696C155.417 338.984 155.857 339.212 156.345 339.38C156.841 339.54 157.325 339.62 157.797 339.62C158.333 339.62 158.837 339.528 159.309 339.344C159.781 339.16 160.165 338.9 160.461 338.564C160.757 338.228 160.905 337.832 160.905 337.376C160.905 336.896 160.749 336.52 160.437 336.248C160.125 335.968 159.725 335.744 159.237 335.576C158.757 335.4 158.261 335.236 157.749 335.084C156.869 334.828 156.105 334.568 155.457 334.304C154.817 334.032 154.321 333.688 153.969 333.272C153.617 332.856 153.441 332.308 153.441 331.628C153.441 330.924 153.645 330.312 154.053 329.792C154.461 329.272 154.997 328.872 155.661 328.592C156.325 328.304 157.037 328.16 157.797 328.16C158.781 328.16 159.673 328.376 160.473 328.808C161.281 329.24 161.849 329.808 162.177 330.512L161.121 331.136C160.961 330.768 160.709 330.452 160.365 330.188C160.021 329.924 159.629 329.72 159.189 329.576C158.749 329.432 158.305 329.356 157.857 329.348C157.297 329.34 156.773 329.428 156.285 329.612C155.805 329.788 155.417 330.048 155.121 330.392C154.825 330.728 154.677 331.136 154.677 331.616C154.677 332.096 154.813 332.464 155.085 332.72C155.357 332.976 155.737 333.184 156.225 333.344C156.713 333.496 157.277 333.676 157.917 333.884C158.661 334.116 159.353 334.376 159.993 334.664C160.641 334.944 161.161 335.296 161.553 335.72C161.953 336.144 162.149 336.692 162.141 337.364C162.141 338.068 161.929 338.68 161.505 339.2C161.089 339.72 160.541 340.12 159.861 340.4C159.189 340.68 158.469 340.812 157.701 340.796ZM180.272 333.188V340.568H178.976V333.392C178.976 332.68 178.804 332.032 178.46 331.448C178.116 330.864 177.652 330.4 177.068 330.056C176.484 329.712 175.836 329.54 175.124 329.54C174.42 329.54 173.776 329.712 173.192 330.056C172.608 330.4 172.14 330.864 171.788 331.448C171.444 332.032 171.272 332.68 171.272 333.392V340.568H169.976V328.568H171.272V330.404C171.704 329.74 172.276 329.212 172.988 328.82C173.7 328.428 174.476 328.232 175.316 328.232C176.236 328.232 177.068 328.456 177.812 328.904C178.564 329.344 179.16 329.94 179.6 330.692C180.048 331.444 180.272 332.276 180.272 333.188ZM187.725 340.88C186.621 340.88 185.613 340.596 184.701 340.028C183.797 339.46 183.073 338.7 182.529 337.748C181.993 336.788 181.725 335.728 181.725 334.568C181.725 333.688 181.881 332.868 182.193 332.108C182.505 331.34 182.933 330.668 183.477 330.092C184.029 329.508 184.669 329.052 185.397 328.724C186.125 328.396 186.901 328.232 187.725 328.232C188.597 328.232 189.401 328.404 190.137 328.748C190.881 329.084 191.521 329.56 192.057 330.176C192.593 330.792 193.005 331.52 193.293 332.36C193.581 333.192 193.713 334.104 193.689 335.096H183.081C183.169 335.952 183.425 336.72 183.849 337.4C184.281 338.072 184.833 338.604 185.505 338.996C186.177 339.38 186.917 339.576 187.725 339.584C188.613 339.584 189.413 339.352 190.125 338.888C190.837 338.416 191.409 337.772 191.841 336.956L193.149 337.256C192.669 338.32 191.945 339.192 190.977 339.872C190.009 340.544 188.925 340.88 187.725 340.88ZM183.045 333.992H192.381C192.333 333.168 192.093 332.412 191.661 331.724C191.237 331.028 190.681 330.472 189.993 330.056C189.305 329.64 188.549 329.432 187.725 329.432C186.901 329.432 186.149 329.636 185.469 330.044C184.789 330.452 184.233 331.004 183.801 331.7C183.377 332.388 183.125 333.152 183.045 333.992ZM204.533 337.748L205.685 338.372C205.141 339.132 204.449 339.74 203.609 340.196C202.777 340.652 201.873 340.88 200.897 340.88C199.793 340.88 198.785 340.596 197.873 340.028C196.969 339.46 196.245 338.7 195.701 337.748C195.165 336.788 194.897 335.728 194.897 334.568C194.897 333.688 195.053 332.868 195.365 332.108C195.677 331.34 196.105 330.668 196.649 330.092C197.201 329.508 197.841 329.052 198.569 328.724C199.297 328.396 200.073 328.232 200.897 328.232C201.873 328.232 202.777 328.46 203.609 328.916C204.449 329.372 205.141 329.984 205.685 330.752L204.533 331.364C204.077 330.772 203.525 330.32 202.877 330.008C202.229 329.688 201.569 329.528 200.897 329.528C200.017 329.528 199.221 329.76 198.509 330.224C197.797 330.68 197.233 331.292 196.817 332.06C196.401 332.82 196.193 333.656 196.193 334.568C196.193 335.488 196.405 336.328 196.829 337.088C197.253 337.848 197.821 338.456 198.533 338.912C199.245 339.36 200.033 339.584 200.897 339.584C201.625 339.584 202.309 339.412 202.949 339.068C203.589 338.724 204.117 338.284 204.533 337.748ZM213.037 340.88C211.933 340.88 210.925 340.596 210.013 340.028C209.109 339.46 208.385 338.7 207.841 337.748C207.305 336.788 207.037 335.728 207.037 334.568C207.037 333.688 207.193 332.868 207.505 332.108C207.817 331.34 208.245 330.668 208.789 330.092C209.341 329.508 209.981 329.052 210.709 328.724C211.437 328.396 212.213 328.232 213.037 328.232C213.909 328.232 214.713 328.404 215.449 328.748C216.193 329.084 216.833 329.56 217.369 330.176C217.905 330.792 218.317 331.52 218.605 332.36C218.893 333.192 219.025 334.104 219.001 335.096H208.393C208.481 335.952 208.737 336.72 209.161 337.4C209.593 338.072 210.145 338.604 210.817 338.996C211.489 339.38 212.229 339.576 213.037 339.584C213.925 339.584 214.725 339.352 215.437 338.888C216.149 338.416 216.721 337.772 217.153 336.956L218.461 337.256C217.981 338.32 217.257 339.192 216.289 339.872C215.321 340.544 214.237 340.88 213.037 340.88ZM208.357 333.992H217.693C217.645 333.168 217.405 332.412 216.973 331.724C216.549 331.028 215.993 330.472 215.305 330.056C214.617 329.64 213.861 329.432 213.037 329.432C212.213 329.432 211.461 329.636 210.781 330.044C210.101 330.452 209.545 331.004 209.113 331.7C208.689 332.388 208.437 333.152 208.357 333.992ZM224.849 340.796C224.185 340.788 223.533 340.672 222.893 340.448C222.261 340.216 221.709 339.908 221.237 339.524C220.765 339.14 220.437 338.704 220.253 338.216L221.393 337.724C221.529 338.084 221.789 338.408 222.173 338.696C222.565 338.984 223.005 339.212 223.493 339.38C223.989 339.54 224.473 339.62 224.945 339.62C225.481 339.62 225.985 339.528 226.457 339.344C226.929 339.16 227.313 338.9 227.609 338.564C227.905 338.228 228.053 337.832 228.053 337.376C228.053 336.896 227.897 336.52 227.585 336.248C227.273 335.968 226.873 335.744 226.385 335.576C225.905 335.4 225.409 335.236 224.897 335.084C224.017 334.828 223.253 334.568 222.605 334.304C221.965 334.032 221.469 333.688 221.117 333.272C220.765 332.856 220.589 332.308 220.589 331.628C220.589 330.924 220.793 330.312 221.201 329.792C221.609 329.272 222.145 328.872 222.809 328.592C223.473 328.304 224.185 328.16 224.945 328.16C225.929 328.16 226.821 328.376 227.621 328.808C228.429 329.24 228.997 329.808 229.325 330.512L228.269 331.136C228.109 330.768 227.857 330.452 227.513 330.188C227.169 329.924 226.777 329.72 226.337 329.576C225.897 329.432 225.453 329.356 225.005 329.348C224.445 329.34 223.921 329.428 223.433 329.612C222.953 329.788 222.565 330.048 222.269 330.392C221.973 330.728 221.825 331.136 221.825 331.616C221.825 332.096 221.961 332.464 222.233 332.72C222.505 332.976 222.885 333.184 223.373 333.344C223.861 333.496 224.425 333.676 225.065 333.884C225.809 334.116 226.501 334.376 227.141 334.664C227.789 334.944 228.309 335.296 228.701 335.72C229.101 336.144 229.297 336.692 229.289 337.364C229.289 338.068 229.077 338.68 228.653 339.2C228.237 339.72 227.689 340.12 227.009 340.4C226.337 340.68 225.617 340.812 224.849 340.796ZM231.289 328.568H232.585V340.568H231.289V328.568ZM231.949 326.3C231.725 326.3 231.533 326.228 231.373 326.084C231.221 325.932 231.145 325.744 231.145 325.52C231.145 325.296 231.221 325.112 231.373 324.968C231.533 324.816 231.725 324.74 231.949 324.74C232.165 324.74 232.349 324.816 232.501 324.968C232.661 325.112 232.741 325.296 232.741 325.52C232.741 325.744 232.665 325.932 232.513 326.084C232.361 326.228 232.173 326.3 231.949 326.3ZM245.506 322.568H246.802V340.568H245.506V338.096C245.09 338.936 244.498 339.612 243.73 340.124C242.962 340.628 242.046 340.88 240.982 340.88C240.11 340.88 239.294 340.716 238.534 340.388C237.774 340.06 237.102 339.608 236.518 339.032C235.942 338.448 235.49 337.776 235.162 337.016C234.834 336.256 234.67 335.44 234.67 334.568C234.67 333.696 234.834 332.88 235.162 332.12C235.49 331.352 235.942 330.68 236.518 330.104C237.102 329.52 237.774 329.064 238.534 328.736C239.294 328.408 240.11 328.244 240.982 328.244C242.046 328.244 242.962 328.5 243.73 329.012C244.498 329.516 245.09 330.184 245.506 331.016V322.568ZM240.994 339.608C241.914 339.608 242.702 339.384 243.358 338.936C244.022 338.48 244.53 337.868 244.882 337.1C245.234 336.332 245.41 335.488 245.41 334.568C245.41 333.624 245.23 332.772 244.87 332.012C244.518 331.244 244.01 330.636 243.346 330.188C242.69 329.732 241.906 329.504 240.994 329.504C240.074 329.504 239.234 329.732 238.474 330.188C237.722 330.644 237.118 331.256 236.662 332.024C236.214 332.792 235.99 333.64 235.99 334.568C235.99 335.512 236.218 336.364 236.674 337.124C237.138 337.884 237.75 338.488 238.51 338.936C239.27 339.384 240.098 339.608 240.994 339.608ZM259.733 328.568H261.029V340.568H259.733L259.697 338.108C259.289 338.94 258.705 339.612 257.945 340.124C257.193 340.628 256.289 340.88 255.233 340.88C254.361 340.88 253.541 340.716 252.773 340.388C252.013 340.052 251.341 339.596 250.757 339.02C250.173 338.436 249.717 337.764 249.389 337.004C249.061 336.236 248.897 335.412 248.897 334.532C248.897 333.66 249.057 332.844 249.377 332.084C249.705 331.324 250.157 330.656 250.733 330.08C251.309 329.496 251.977 329.044 252.737 328.724C253.497 328.396 254.309 328.232 255.173 328.232C256.237 328.232 257.157 328.492 257.933 329.012C258.717 329.524 259.329 330.196 259.769 331.028L259.733 328.568ZM255.221 339.608C256.141 339.608 256.929 339.384 257.585 338.936C258.249 338.48 258.757 337.868 259.109 337.1C259.461 336.332 259.637 335.488 259.637 334.568C259.637 333.624 259.457 332.772 259.097 332.012C258.745 331.244 258.237 330.636 257.573 330.188C256.917 329.732 256.133 329.504 255.221 329.504C254.293 329.504 253.449 329.732 252.689 330.188C251.937 330.644 251.337 331.256 250.889 332.024C250.441 332.792 250.217 333.64 250.217 334.568C250.217 335.512 250.445 336.364 250.901 337.124C251.365 337.884 251.977 338.488 252.737 338.936C253.497 339.384 254.325 339.608 255.221 339.608ZM273.303 322.568H274.599V340.568H273.303V338.096C272.887 338.936 272.295 339.612 271.527 340.124C270.759 340.628 269.843 340.88 268.779 340.88C267.907 340.88 267.091 340.716 266.331 340.388C265.571 340.06 264.899 339.608 264.315 339.032C263.739 338.448 263.287 337.776 262.959 337.016C262.631 336.256 262.467 335.44 262.467 334.568C262.467 333.696 262.631 332.88 262.959 332.12C263.287 331.352 263.739 330.68 264.315 330.104C264.899 329.52 265.571 329.064 266.331 328.736C267.091 328.408 267.907 328.244 268.779 328.244C269.843 328.244 270.759 328.5 271.527 329.012C272.295 329.516 272.887 330.184 273.303 331.016V322.568ZM268.791 339.608C269.711 339.608 270.499 339.384 271.155 338.936C271.819 338.48 272.327 337.868 272.679 337.1C273.031 336.332 273.207 335.488 273.207 334.568C273.207 333.624 273.027 332.772 272.667 332.012C272.315 331.244 271.807 330.636 271.143 330.188C270.487 329.732 269.703 329.504 268.791 329.504C267.871 329.504 267.031 329.732 266.271 330.188C265.519 330.644 264.915 331.256 264.459 332.024C264.011 332.792 263.787 333.64 263.787 334.568C263.787 335.512 264.015 336.364 264.471 337.124C264.935 337.884 265.547 338.488 266.307 338.936C267.067 339.384 267.895 339.608 268.791 339.608ZM282.694 340.88C281.59 340.88 280.582 340.596 279.67 340.028C278.766 339.46 278.042 338.7 277.498 337.748C276.962 336.788 276.694 335.728 276.694 334.568C276.694 333.688 276.85 332.868 277.162 332.108C277.474 331.34 277.902 330.668 278.446 330.092C278.998 329.508 279.638 329.052 280.366 328.724C281.094 328.396 281.87 328.232 282.694 328.232C283.566 328.232 284.37 328.404 285.106 328.748C285.85 329.084 286.49 329.56 287.026 330.176C287.562 330.792 287.974 331.52 288.262 332.36C288.55 333.192 288.682 334.104 288.658 335.096H278.05C278.138 335.952 278.394 336.72 278.818 337.4C279.25 338.072 279.802 338.604 280.474 338.996C281.146 339.38 281.886 339.576 282.694 339.584C283.582 339.584 284.382 339.352 285.094 338.888C285.806 338.416 286.378 337.772 286.81 336.956L288.118 337.256C287.638 338.32 286.914 339.192 285.946 339.872C284.978 340.544 283.894 340.88 282.694 340.88ZM278.014 333.992H287.35C287.302 333.168 287.062 332.412 286.63 331.724C286.206 331.028 285.65 330.472 284.962 330.056C284.274 329.64 283.518 329.432 282.694 329.432C281.87 329.432 281.118 329.636 280.438 330.044C279.758 330.452 279.202 331.004 278.77 331.7C278.346 332.388 278.094 333.152 278.014 333.992ZM294.506 340.796C293.842 340.788 293.19 340.672 292.55 340.448C291.918 340.216 291.366 339.908 290.894 339.524C290.422 339.14 290.094 338.704 289.91 338.216L291.05 337.724C291.186 338.084 291.446 338.408 291.83 338.696C292.222 338.984 292.662 339.212 293.15 339.38C293.646 339.54 294.13 339.62 294.602 339.62C295.138 339.62 295.642 339.528 296.114 339.344C296.586 339.16 296.97 338.9 297.266 338.564C297.562 338.228 297.71 337.832 297.71 337.376C297.71 336.896 297.554 336.52 297.242 336.248C296.93 335.968 296.53 335.744 296.042 335.576C295.562 335.4 295.066 335.236 294.554 335.084C293.674 334.828 292.91 334.568 292.262 334.304C291.622 334.032 291.126 333.688 290.774 333.272C290.422 332.856 290.246 332.308 290.246 331.628C290.246 330.924 290.45 330.312 290.858 329.792C291.266 329.272 291.802 328.872 292.466 328.592C293.13 328.304 293.842 328.16 294.602 328.16C295.586 328.16 296.478 328.376 297.278 328.808C298.086 329.24 298.654 329.808 298.982 330.512L297.926 331.136C297.766 330.768 297.514 330.452 297.17 330.188C296.826 329.924 296.434 329.72 295.994 329.576C295.554 329.432 295.11 329.356 294.662 329.348C294.102 329.34 293.578 329.428 293.09 329.612C292.61 329.788 292.222 330.048 291.926 330.392C291.63 330.728 291.482 331.136 291.482 331.616C291.482 332.096 291.618 332.464 291.89 332.72C292.162 332.976 292.542 333.184 293.03 333.344C293.518 333.496 294.082 333.676 294.722 333.884C295.466 334.116 296.158 334.376 296.798 334.664C297.446 334.944 297.966 335.296 298.358 335.72C298.758 336.144 298.954 336.692 298.946 337.364C298.946 338.068 298.734 338.68 298.31 339.2C297.894 339.72 297.346 340.12 296.666 340.4C295.994 340.68 295.274 340.812 294.506 340.796ZM157.564 366.748L158.716 367.372C158.172 368.132 157.48 368.74 156.64 369.196C155.808 369.652 154.904 369.88 153.928 369.88C152.824 369.88 151.816 369.596 150.904 369.028C150 368.46 149.276 367.7 148.732 366.748C148.196 365.788 147.928 364.728 147.928 363.568C147.928 362.688 148.084 361.868 148.396 361.108C148.708 360.34 149.136 359.668 149.68 359.092C150.232 358.508 150.872 358.052 151.6 357.724C152.328 357.396 153.104 357.232 153.928 357.232C154.904 357.232 155.808 357.46 156.64 357.916C157.48 358.372 158.172 358.984 158.716 359.752L157.564 360.364C157.108 359.772 156.556 359.32 155.908 359.008C155.26 358.688 154.6 358.528 153.928 358.528C153.048 358.528 152.252 358.76 151.54 359.224C150.828 359.68 150.264 360.292 149.848 361.06C149.432 361.82 149.224 362.656 149.224 363.568C149.224 364.488 149.436 365.328 149.86 366.088C150.284 366.848 150.852 367.456 151.564 367.912C152.276 368.36 153.064 368.584 153.928 368.584C154.656 368.584 155.34 368.412 155.98 368.068C156.62 367.724 157.148 367.284 157.564 366.748ZM170.905 357.568H172.201V369.568H170.905L170.869 367.108C170.461 367.94 169.877 368.612 169.117 369.124C168.365 369.628 167.461 369.88 166.405 369.88C165.533 369.88 164.713 369.716 163.945 369.388C163.185 369.052 162.513 368.596 161.929 368.02C161.345 367.436 160.889 366.764 160.561 366.004C160.233 365.236 160.069 364.412 160.069 363.532C160.069 362.66 160.229 361.844 160.549 361.084C160.877 360.324 161.329 359.656 161.905 359.08C162.481 358.496 163.149 358.044 163.909 357.724C164.669 357.396 165.481 357.232 166.345 357.232C167.409 357.232 168.329 357.492 169.105 358.012C169.889 358.524 170.501 359.196 170.941 360.028L170.905 357.568ZM166.393 368.608C167.313 368.608 168.101 368.384 168.757 367.936C169.421 367.48 169.929 366.868 170.281 366.1C170.633 365.332 170.809 364.488 170.809 363.568C170.809 362.624 170.629 361.772 170.269 361.012C169.917 360.244 169.409 359.636 168.745 359.188C168.089 358.732 167.305 358.504 166.393 358.504C165.465 358.504 164.621 358.732 163.861 359.188C163.109 359.644 162.509 360.256 162.061 361.024C161.613 361.792 161.389 362.64 161.389 363.568C161.389 364.512 161.617 365.364 162.073 366.124C162.537 366.884 163.149 367.488 163.909 367.936C164.669 368.384 165.497 368.608 166.393 368.608ZM174.593 369.568V357.568H175.889V359.404C176.329 358.74 176.901 358.212 177.605 357.82C178.309 357.428 179.085 357.232 179.933 357.232C180.861 357.232 181.705 357.464 182.465 357.928C183.233 358.384 183.829 358.992 184.253 359.752C184.677 358.992 185.269 358.384 186.029 357.928C186.789 357.464 187.633 357.232 188.561 357.232C189.473 357.232 190.305 357.456 191.057 357.904C191.809 358.344 192.405 358.94 192.845 359.692C193.293 360.444 193.517 361.276 193.517 362.188V369.568H192.221V362.428C192.221 361.732 192.053 361.092 191.717 360.508C191.381 359.916 190.929 359.44 190.361 359.08C189.793 358.72 189.161 358.54 188.465 358.54C187.777 358.54 187.145 358.708 186.569 359.044C186.001 359.372 185.549 359.828 185.213 360.412C184.877 360.996 184.709 361.668 184.709 362.428V369.568H183.413V362.428C183.413 361.668 183.241 360.996 182.897 360.412C182.561 359.828 182.109 359.372 181.541 359.044C180.973 358.708 180.341 358.54 179.645 358.54C178.957 358.54 178.329 358.72 177.761 359.08C177.193 359.44 176.737 359.916 176.393 360.508C176.057 361.092 175.889 361.732 175.889 362.428V369.568H174.593ZM201.929 357.232C203.089 357.232 204.145 357.516 205.097 358.084C206.057 358.652 206.821 359.416 207.389 360.376C207.957 361.328 208.241 362.388 208.241 363.556C208.241 364.428 208.077 365.248 207.749 366.016C207.421 366.776 206.965 367.448 206.381 368.032C205.805 368.608 205.137 369.06 204.377 369.388C203.617 369.716 202.801 369.88 201.929 369.88C200.865 369.88 199.949 369.624 199.181 369.112C198.421 368.6 197.829 367.928 197.405 367.096V369.568H196.109V351.568H197.405V360.016C197.829 359.184 198.421 358.512 199.181 358C199.949 357.488 200.865 357.232 201.929 357.232ZM201.917 368.608C202.845 368.608 203.685 368.38 204.437 367.924C205.197 367.468 205.801 366.86 206.249 366.1C206.705 365.332 206.933 364.484 206.933 363.556C206.933 362.612 206.701 361.76 206.237 361C205.773 360.232 205.161 359.624 204.401 359.176C203.649 358.728 202.821 358.504 201.917 358.504C200.997 358.504 200.205 358.732 199.541 359.188C198.885 359.644 198.381 360.256 198.029 361.024C197.677 361.792 197.501 362.636 197.501 363.556C197.501 364.5 197.677 365.352 198.029 366.112C198.389 366.872 198.897 367.48 199.553 367.936C200.217 368.384 201.005 368.608 201.917 368.608ZM210.265 357.568H211.561V369.568H210.265V357.568ZM210.925 355.3C210.701 355.3 210.509 355.228 210.349 355.084C210.197 354.932 210.121 354.744 210.121 354.52C210.121 354.296 210.197 354.112 210.349 353.968C210.509 353.816 210.701 353.74 210.925 353.74C211.141 353.74 211.325 353.816 211.477 353.968C211.637 354.112 211.717 354.296 211.717 354.52C211.717 354.744 211.641 354.932 211.489 355.084C211.337 355.228 211.149 355.3 210.925 355.3ZM219.647 369.88C218.543 369.88 217.535 369.596 216.623 369.028C215.719 368.46 214.995 367.7 214.451 366.748C213.915 365.788 213.647 364.728 213.647 363.568C213.647 362.688 213.803 361.868 214.115 361.108C214.427 360.34 214.855 359.668 215.399 359.092C215.951 358.508 216.591 358.052 217.319 357.724C218.047 357.396 218.823 357.232 219.647 357.232C220.519 357.232 221.323 357.404 222.059 357.748C222.803 358.084 223.443 358.56 223.979 359.176C224.515 359.792 224.927 360.52 225.215 361.36C225.503 362.192 225.635 363.104 225.611 364.096H215.003C215.091 364.952 215.347 365.72 215.771 366.4C216.203 367.072 216.755 367.604 217.427 367.996C218.099 368.38 218.839 368.576 219.647 368.584C220.535 368.584 221.335 368.352 222.047 367.888C222.759 367.416 223.331 366.772 223.763 365.956L225.071 366.256C224.591 367.32 223.867 368.192 222.899 368.872C221.931 369.544 220.847 369.88 219.647 369.88ZM214.967 362.992H224.303C224.255 362.168 224.015 361.412 223.583 360.724C223.159 360.028 222.603 359.472 221.915 359.056C221.227 358.64 220.471 358.432 219.647 358.432C218.823 358.432 218.071 358.636 217.391 359.044C216.711 359.452 216.155 360.004 215.723 360.7C215.299 361.388 215.047 362.152 214.967 362.992ZM237.999 362.188V369.568H236.703V362.392C236.703 361.68 236.531 361.032 236.187 360.448C235.843 359.864 235.379 359.4 234.795 359.056C234.211 358.712 233.563 358.54 232.851 358.54C232.147 358.54 231.503 358.712 230.919 359.056C230.335 359.4 229.867 359.864 229.515 360.448C229.171 361.032 228.999 361.68 228.999 362.392V369.568H227.703V357.568H228.999V359.404C229.431 358.74 230.003 358.212 230.715 357.82C231.427 357.428 232.203 357.232 233.043 357.232C233.963 357.232 234.795 357.456 235.539 357.904C236.291 358.344 236.887 358.94 237.327 359.692C237.775 360.444 237.999 361.276 237.999 362.188Z" fill="white"/>
<defs>
<linearGradient id="paint0_linear_240_17" x1="152.453" y1="99.6647" x2="238.336" y2="143.749" gradientUnits="userSpaceOnUse">
<stop offset="0.29" stop-color="#F56D50"/>
<stop offset="0.99" stop-color="#F57438"/>
</linearGradient>
</defs>
</svg>
