<svg width="386" height="418" viewBox="0 0 386 418" fill="none" xmlns="http://www.w3.org/2000/svg">
<rect width="385.261" height="418" rx="59" fill="black" fill-opacity="0.53"/>
<path d="M192.631 163.696C198.311 163.696 203.758 161.44 207.775 157.423C211.791 153.407 214.047 147.959 214.047 142.279C214.047 136.599 211.791 131.152 207.775 127.135C203.758 123.119 198.311 120.862 192.631 120.862C186.95 120.862 181.503 123.119 177.486 127.135C173.47 131.152 171.214 136.599 171.214 142.279C171.214 147.959 173.47 153.407 177.486 157.423C181.503 161.44 186.95 163.696 192.631 163.696Z" stroke="url(#paint0_linear_240_16)" stroke-width="8.03135" stroke-miterlimit="10" stroke-linecap="round" stroke-linejoin="round"/>
<path d="M184.278 142.815L187.758 146.295C188.775 147.312 190.435 147.312 191.453 146.348L200.983 137.567" stroke="url(#paint1_linear_240_16)" stroke-width="8.03135" stroke-linecap="round" stroke-linejoin="round"/>
<path d="M171.214 98.3747V94.0913C171.214 84.6143 171.214 76.9578 188.347 76.9578H196.914C214.047 76.9578 214.047 84.6143 214.047 94.0913V98.3747M171.214 184.042H214.047C235.571 184.042 239.427 175.422 240.551 164.928L244.567 122.094C246.012 109.03 242.264 98.3747 219.402 98.3747H165.859C142.997 98.3747 139.249 109.03 140.694 122.094L144.71 164.928C145.835 175.422 149.69 184.042 171.214 184.042Z" stroke="url(#paint2_linear_240_16)" stroke-width="8.03135" stroke-miterlimit="10" stroke-linecap="round" stroke-linejoin="round"/>
<path d="M244.299 125.146C235.232 131.75 224.98 136.549 214.101 139.281M142.408 126.592C151.349 132.695 161.094 137.032 171.214 139.495" stroke="url(#paint3_linear_240_16)" stroke-width="8.03135" stroke-miterlimit="10" stroke-linecap="round" stroke-linejoin="round"/>
<path d="M95.1668 224.063C94.2228 224.063 93.3188 223.915 92.4548 223.619C91.5988 223.323 90.8468 222.895 90.1988 222.335C89.5588 221.775 89.0988 221.111 88.8188 220.343L91.9268 219.191C92.0228 219.463 92.2228 219.719 92.5268 219.959C92.8308 220.191 93.2108 220.383 93.6668 220.535C94.1228 220.679 94.6228 220.751 95.1668 220.751C95.6868 220.751 96.1748 220.675 96.6308 220.523C97.0948 220.363 97.4668 220.143 97.7468 219.863C98.0348 219.583 98.1788 219.255 98.1788 218.879C98.1788 218.503 98.0308 218.191 97.7348 217.943C97.4388 217.695 97.0588 217.499 96.5948 217.355C96.1308 217.203 95.6548 217.087 95.1668 217.007C93.9588 216.831 92.8748 216.547 91.9148 216.155C90.9628 215.755 90.2108 215.207 89.6588 214.511C89.1068 213.807 88.8308 212.915 88.8308 211.835C88.8308 210.795 89.1228 209.887 89.7068 209.111C90.2988 208.335 91.0748 207.731 92.0348 207.299C93.0028 206.867 94.0468 206.651 95.1668 206.651C96.0948 206.651 96.9908 206.799 97.8548 207.095C98.7188 207.391 99.4708 207.819 100.111 208.379C100.759 208.939 101.223 209.611 101.503 210.395L98.3948 211.523C98.2988 211.251 98.0988 210.999 97.7948 210.767C97.4908 210.535 97.1108 210.347 96.6548 210.203C96.1988 210.059 95.7028 209.987 95.1668 209.987C94.6548 209.979 94.1668 210.055 93.7028 210.215C93.2468 210.375 92.8708 210.595 92.5748 210.875C92.2868 211.155 92.1428 211.475 92.1428 211.835C92.1428 212.307 92.2788 212.663 92.5508 212.903C92.8308 213.143 93.1988 213.315 93.6548 213.419C94.1108 213.523 94.6148 213.615 95.1668 213.695C96.3028 213.863 97.3508 214.163 98.3108 214.595C99.2708 215.019 100.039 215.587 100.615 216.299C101.199 217.003 101.491 217.863 101.491 218.879C101.491 219.919 101.199 220.827 100.615 221.603C100.031 222.379 99.2588 222.983 98.2988 223.415C97.3388 223.847 96.2948 224.063 95.1668 224.063ZM103.824 211.751H107.136V223.751H103.824V211.751ZM105.504 210.371C105.024 210.371 104.62 210.211 104.292 209.891C103.964 209.571 103.8 209.175 103.8 208.703C103.8 208.231 103.964 207.835 104.292 207.515C104.62 207.195 105.02 207.035 105.492 207.035C105.964 207.035 106.36 207.195 106.68 207.515C107.008 207.835 107.172 208.231 107.172 208.703C107.172 209.175 107.012 209.571 106.692 209.891C106.38 210.211 105.984 210.371 105.504 210.371ZM122.306 215.063H120.146V223.751H116.834V215.063H115.178V211.751H116.834V207.983H120.146V211.751H122.306V215.063ZM123.993 219.359V211.751H127.305V218.447C127.305 218.871 127.405 219.255 127.605 219.599C127.813 219.935 128.089 220.203 128.433 220.403C128.777 220.603 129.153 220.703 129.561 220.703C129.977 220.703 130.357 220.603 130.701 220.403C131.045 220.203 131.317 219.935 131.517 219.599C131.717 219.255 131.817 218.871 131.817 218.447V211.751H135.129L135.141 223.751H131.829L131.817 222.839C131.417 223.223 130.945 223.523 130.401 223.739C129.865 223.955 129.297 224.063 128.697 224.063C127.833 224.063 127.045 223.851 126.333 223.427C125.621 223.003 125.053 222.439 124.629 221.735C124.205 221.023 123.993 220.231 123.993 219.359ZM148.597 224.063C147.493 224.063 146.485 223.779 145.573 223.211C144.669 222.643 143.945 221.879 143.401 220.919C142.865 219.959 142.597 218.899 142.597 217.739C142.597 216.867 142.753 216.051 143.065 215.291C143.377 214.523 143.805 213.851 144.349 213.275C144.901 212.691 145.541 212.235 146.269 211.907C146.997 211.579 147.773 211.415 148.597 211.415C149.549 211.415 150.417 211.619 151.201 212.027C151.993 212.435 152.661 212.991 153.205 213.695C153.757 214.399 154.149 215.195 154.381 216.083C154.621 216.971 154.661 217.895 154.501 218.855H146.173C146.277 219.207 146.437 219.527 146.653 219.815C146.877 220.095 147.149 220.319 147.469 220.487C147.797 220.655 148.173 220.743 148.597 220.751C149.013 220.759 149.397 220.663 149.749 220.463C150.101 220.263 150.401 219.995 150.649 219.659L154.033 220.439C153.545 221.503 152.817 222.375 151.849 223.055C150.881 223.727 149.797 224.063 148.597 224.063ZM146.053 216.407H151.153C151.049 216.007 150.873 215.647 150.625 215.327C150.377 215.007 150.077 214.755 149.725 214.571C149.381 214.387 149.005 214.295 148.597 214.295C148.197 214.295 147.821 214.387 147.469 214.571C147.125 214.755 146.829 215.007 146.581 215.327C146.341 215.639 146.165 215.999 146.053 216.407ZM167.566 216.119V223.751H164.254V217.031C164.254 216.607 164.15 216.227 163.942 215.891C163.742 215.547 163.47 215.275 163.126 215.075C162.79 214.875 162.414 214.775 161.998 214.775C161.582 214.775 161.202 214.875 160.858 215.075C160.514 215.275 160.242 215.547 160.042 215.891C159.842 216.227 159.742 216.607 159.742 217.031V223.751H156.43L156.418 211.751H159.73L159.742 212.639C160.142 212.255 160.61 211.955 161.146 211.739C161.69 211.523 162.262 211.415 162.862 211.415C163.734 211.415 164.522 211.627 165.226 212.051C165.938 212.475 166.506 213.043 166.93 213.755C167.354 214.459 167.566 215.247 167.566 216.119ZM176.493 215.063H174.333V223.751H171.021V215.063H169.365V211.751H171.021V207.983H174.333V211.751H176.493V215.063ZM178.426 211.751H181.738V223.751H178.426V211.751ZM180.106 210.371C179.626 210.371 179.222 210.211 178.894 209.891C178.566 209.571 178.402 209.175 178.402 208.703C178.402 208.231 178.566 207.835 178.894 207.515C179.222 207.195 179.622 207.035 180.094 207.035C180.566 207.035 180.962 207.195 181.282 207.515C181.61 207.835 181.774 208.231 181.774 208.703C181.774 209.175 181.614 209.571 181.294 209.891C180.982 210.211 180.586 210.371 180.106 210.371ZM193.105 205.751H196.417V223.751H193.105V222.479C192.737 222.943 192.281 223.323 191.737 223.619C191.193 223.915 190.573 224.063 189.877 224.063C189.005 224.063 188.189 223.899 187.429 223.571C186.669 223.243 185.997 222.791 185.413 222.215C184.837 221.631 184.385 220.959 184.057 220.199C183.729 219.439 183.565 218.623 183.565 217.751C183.565 216.879 183.729 216.063 184.057 215.303C184.385 214.543 184.837 213.875 185.413 213.299C185.997 212.715 186.669 212.259 187.429 211.931C188.189 211.603 189.005 211.439 189.877 211.439C190.573 211.439 191.193 211.587 191.737 211.883C192.281 212.171 192.737 212.551 193.105 213.023V205.751ZM189.925 220.883C190.469 220.883 190.961 220.743 191.401 220.463C191.841 220.183 192.189 219.807 192.445 219.335C192.701 218.855 192.829 218.327 192.829 217.751C192.829 217.167 192.701 216.639 192.445 216.167C192.189 215.695 191.841 215.319 191.401 215.039C190.961 214.759 190.469 214.619 189.925 214.619C189.373 214.619 188.873 214.759 188.425 215.039C187.977 215.319 187.621 215.699 187.357 216.179C187.093 216.651 186.961 217.175 186.961 217.751C186.961 218.327 187.093 218.855 187.357 219.335C187.629 219.807 187.989 220.183 188.437 220.463C188.885 220.743 189.381 220.883 189.925 220.883ZM207.882 211.751H211.194V223.751H207.87L207.714 222.503C207.402 222.967 207.002 223.343 206.514 223.631C206.026 223.919 205.454 224.063 204.798 224.063C203.902 224.063 203.066 223.895 202.29 223.559C201.514 223.223 200.83 222.759 200.238 222.167C199.646 221.575 199.182 220.891 198.846 220.115C198.518 219.331 198.354 218.491 198.354 217.595C198.354 216.739 198.51 215.939 198.822 215.195C199.134 214.451 199.574 213.795 200.142 213.227C200.71 212.659 201.362 212.215 202.098 211.895C202.842 211.575 203.642 211.415 204.498 211.415C205.234 211.415 205.894 211.571 206.478 211.883C207.07 212.195 207.586 212.591 208.026 213.071L207.882 211.751ZM204.714 220.883C205.258 220.883 205.75 220.743 206.19 220.463C206.63 220.183 206.978 219.807 207.234 219.335C207.49 218.855 207.618 218.327 207.618 217.751C207.618 217.167 207.49 216.639 207.234 216.167C206.978 215.695 206.63 215.319 206.19 215.039C205.75 214.759 205.258 214.619 204.714 214.619C204.162 214.619 203.662 214.759 203.214 215.039C202.766 215.319 202.41 215.699 202.146 216.179C201.882 216.651 201.75 217.175 201.75 217.751C201.75 218.327 201.882 218.855 202.146 219.335C202.418 219.807 202.778 220.183 203.226 220.463C203.674 220.743 204.17 220.883 204.714 220.883ZM222.191 205.751H225.503V223.751H222.191V222.479C221.823 222.943 221.367 223.323 220.823 223.619C220.279 223.915 219.659 224.063 218.963 224.063C218.091 224.063 217.275 223.899 216.515 223.571C215.755 223.243 215.083 222.791 214.499 222.215C213.923 221.631 213.471 220.959 213.143 220.199C212.815 219.439 212.651 218.623 212.651 217.751C212.651 216.879 212.815 216.063 213.143 215.303C213.471 214.543 213.923 213.875 214.499 213.299C215.083 212.715 215.755 212.259 216.515 211.931C217.275 211.603 218.091 211.439 218.963 211.439C219.659 211.439 220.279 211.587 220.823 211.883C221.367 212.171 221.823 212.551 222.191 213.023V205.751ZM219.011 220.883C219.555 220.883 220.047 220.743 220.487 220.463C220.927 220.183 221.275 219.807 221.531 219.335C221.787 218.855 221.915 218.327 221.915 217.751C221.915 217.167 221.787 216.639 221.531 216.167C221.275 215.695 220.927 215.319 220.487 215.039C220.047 214.759 219.555 214.619 219.011 214.619C218.459 214.619 217.959 214.759 217.511 215.039C217.063 215.319 216.707 215.699 216.443 216.179C216.179 216.651 216.047 217.175 216.047 217.751C216.047 218.327 216.179 218.855 216.443 219.335C216.715 219.807 217.075 220.183 217.523 220.463C217.971 220.743 218.467 220.883 219.011 220.883ZM239.44 224.063C238.336 224.063 237.328 223.779 236.416 223.211C235.512 222.643 234.788 221.879 234.244 220.919C233.708 219.959 233.44 218.899 233.44 217.739C233.44 216.867 233.596 216.051 233.908 215.291C234.22 214.523 234.648 213.851 235.192 213.275C235.744 212.691 236.384 212.235 237.112 211.907C237.84 211.579 238.616 211.415 239.44 211.415C240.392 211.415 241.26 211.619 242.044 212.027C242.836 212.435 243.504 212.991 244.048 213.695C244.6 214.399 244.992 215.195 245.224 216.083C245.464 216.971 245.504 217.895 245.344 218.855H237.016C237.12 219.207 237.28 219.527 237.496 219.815C237.72 220.095 237.992 220.319 238.312 220.487C238.64 220.655 239.016 220.743 239.44 220.751C239.856 220.759 240.24 220.663 240.592 220.463C240.944 220.263 241.244 219.995 241.492 219.659L244.876 220.439C244.388 221.503 243.66 222.375 242.692 223.055C241.724 223.727 240.64 224.063 239.44 224.063ZM236.896 216.407H241.996C241.892 216.007 241.716 215.647 241.468 215.327C241.22 215.007 240.92 214.755 240.568 214.571C240.224 214.387 239.848 214.295 239.44 214.295C239.04 214.295 238.664 214.387 238.312 214.571C237.968 214.755 237.672 215.007 237.424 215.327C237.184 215.639 237.008 215.999 236.896 216.407ZM250.848 223.967C250.232 223.919 249.64 223.791 249.072 223.583C248.504 223.367 247.996 223.079 247.548 222.719C247.108 222.351 246.764 221.911 246.516 221.399L249.3 220.199C249.388 220.327 249.52 220.467 249.696 220.619C249.872 220.763 250.084 220.891 250.332 221.003C250.588 221.115 250.884 221.171 251.22 221.171C251.468 221.171 251.708 221.143 251.94 221.087C252.172 221.023 252.36 220.923 252.504 220.787C252.648 220.643 252.72 220.455 252.72 220.223C252.72 219.967 252.628 219.771 252.444 219.635C252.26 219.499 252.036 219.399 251.772 219.335C251.516 219.263 251.268 219.203 251.028 219.155C250.292 219.027 249.596 218.799 248.94 218.471C248.292 218.135 247.764 217.703 247.356 217.175C246.948 216.647 246.744 216.015 246.744 215.279C246.744 214.471 246.956 213.775 247.38 213.191C247.804 212.599 248.356 212.143 249.036 211.823C249.716 211.503 250.452 211.343 251.244 211.343C252.18 211.343 253.048 211.539 253.848 211.931C254.648 212.323 255.292 212.875 255.78 213.587L253.164 215.135C253.06 214.983 252.924 214.839 252.756 214.703C252.596 214.559 252.408 214.439 252.192 214.343C251.984 214.239 251.76 214.179 251.52 214.163C251.208 214.139 250.924 214.159 250.668 214.223C250.412 214.279 250.208 214.387 250.056 214.547C249.912 214.707 249.84 214.923 249.84 215.195C249.84 215.459 249.956 215.655 250.188 215.783C250.42 215.903 250.688 215.995 250.992 216.059C251.296 216.115 251.564 216.183 251.796 216.263C252.492 216.487 253.144 216.775 253.752 217.127C254.368 217.471 254.864 217.895 255.24 218.399C255.616 218.903 255.792 219.495 255.768 220.175C255.768 220.967 255.532 221.663 255.06 222.263C254.588 222.855 253.976 223.307 253.224 223.619C252.48 223.923 251.688 224.039 250.848 223.967ZM267.066 223.967C266.45 223.919 265.858 223.791 265.29 223.583C264.722 223.367 264.214 223.079 263.766 222.719C263.326 222.351 262.982 221.911 262.734 221.399L265.518 220.199C265.606 220.327 265.738 220.467 265.914 220.619C266.09 220.763 266.302 220.891 266.55 221.003C266.806 221.115 267.102 221.171 267.438 221.171C267.686 221.171 267.926 221.143 268.158 221.087C268.39 221.023 268.578 220.923 268.722 220.787C268.866 220.643 268.938 220.455 268.938 220.223C268.938 219.967 268.846 219.771 268.662 219.635C268.478 219.499 268.254 219.399 267.99 219.335C267.734 219.263 267.486 219.203 267.246 219.155C266.51 219.027 265.814 218.799 265.158 218.471C264.51 218.135 263.982 217.703 263.574 217.175C263.166 216.647 262.962 216.015 262.962 215.279C262.962 214.471 263.174 213.775 263.598 213.191C264.022 212.599 264.574 212.143 265.254 211.823C265.934 211.503 266.67 211.343 267.462 211.343C268.398 211.343 269.266 211.539 270.066 211.931C270.866 212.323 271.51 212.875 271.998 213.587L269.382 215.135C269.278 214.983 269.142 214.839 268.974 214.703C268.814 214.559 268.626 214.439 268.41 214.343C268.202 214.239 267.978 214.179 267.738 214.163C267.426 214.139 267.142 214.159 266.886 214.223C266.63 214.279 266.426 214.387 266.274 214.547C266.13 214.707 266.058 214.923 266.058 215.195C266.058 215.459 266.174 215.655 266.406 215.783C266.638 215.903 266.906 215.995 267.21 216.059C267.514 216.115 267.782 216.183 268.014 216.263C268.71 216.487 269.362 216.775 269.97 217.127C270.586 217.471 271.082 217.895 271.458 218.399C271.834 218.903 272.01 219.495 271.986 220.175C271.986 220.967 271.75 221.663 271.278 222.263C270.806 222.855 270.194 223.307 269.442 223.619C268.698 223.923 267.906 224.039 267.066 223.967ZM273.699 211.751H277.011V223.751H273.699V211.751ZM275.379 210.371C274.899 210.371 274.495 210.211 274.167 209.891C273.839 209.571 273.675 209.175 273.675 208.703C273.675 208.231 273.839 207.835 274.167 207.515C274.495 207.195 274.895 207.035 275.367 207.035C275.839 207.035 276.235 207.195 276.555 207.515C276.883 207.835 277.047 208.231 277.047 208.703C277.047 209.175 276.887 209.571 276.567 209.891C276.255 210.211 275.859 210.371 275.379 210.371ZM290.918 216.119V223.751H287.606V217.031C287.606 216.607 287.502 216.227 287.294 215.891C287.094 215.547 286.822 215.275 286.478 215.075C286.142 214.875 285.766 214.775 285.35 214.775C284.934 214.775 284.554 214.875 284.21 215.075C283.866 215.275 283.594 215.547 283.394 215.891C283.194 216.227 283.094 216.607 283.094 217.031V223.751H279.782L279.77 211.751H283.082L283.094 212.639C283.494 212.255 283.962 211.955 284.498 211.739C285.042 211.523 285.614 211.415 286.214 211.415C287.086 211.415 287.874 211.627 288.578 212.051C289.29 212.475 289.858 213.043 290.282 213.755C290.706 214.459 290.918 215.247 290.918 216.119ZM122.066 240.751H125.378V252.751H122.054L121.898 251.503C121.586 251.967 121.186 252.343 120.698 252.631C120.21 252.919 119.638 253.063 118.982 253.063C118.086 253.063 117.25 252.895 116.474 252.559C115.698 252.223 115.014 251.759 114.422 251.167C113.83 250.575 113.366 249.891 113.03 249.115C112.702 248.331 112.538 247.491 112.538 246.595C112.538 245.739 112.694 244.939 113.006 244.195C113.318 243.451 113.758 242.795 114.326 242.227C114.894 241.659 115.546 241.215 116.282 240.895C117.026 240.575 117.826 240.415 118.682 240.415C119.418 240.415 120.078 240.571 120.662 240.883C121.254 241.195 121.77 241.591 122.21 242.071L122.066 240.751ZM118.898 249.883C119.442 249.883 119.934 249.743 120.374 249.463C120.814 249.183 121.162 248.807 121.418 248.335C121.674 247.855 121.802 247.327 121.802 246.751C121.802 246.167 121.674 245.639 121.418 245.167C121.162 244.695 120.814 244.319 120.374 244.039C119.934 243.759 119.442 243.619 118.898 243.619C118.346 243.619 117.846 243.759 117.398 244.039C116.95 244.319 116.594 244.699 116.33 245.179C116.066 245.651 115.934 246.175 115.934 246.751C115.934 247.327 116.066 247.855 116.33 248.335C116.602 248.807 116.962 249.183 117.41 249.463C117.858 249.743 118.354 249.883 118.898 249.883ZM138.937 245.119V252.751H135.625V246.031C135.625 245.607 135.521 245.227 135.313 244.891C135.113 244.547 134.841 244.275 134.497 244.075C134.161 243.875 133.785 243.775 133.369 243.775C132.953 243.775 132.573 243.875 132.229 244.075C131.885 244.275 131.613 244.547 131.413 244.891C131.213 245.227 131.113 245.607 131.113 246.031V252.751H127.801L127.789 240.751H131.101L131.113 241.639C131.513 241.255 131.981 240.955 132.517 240.739C133.061 240.523 133.633 240.415 134.233 240.415C135.105 240.415 135.893 240.627 136.597 241.051C137.309 241.475 137.877 242.043 138.301 242.755C138.725 243.459 138.937 244.247 138.937 245.119ZM141.336 240.751H144.648V252.751H141.336V240.751ZM143.016 239.371C142.536 239.371 142.132 239.211 141.804 238.891C141.476 238.571 141.312 238.175 141.312 237.703C141.312 237.231 141.476 236.835 141.804 236.515C142.132 236.195 142.532 236.035 143.004 236.035C143.476 236.035 143.872 236.195 144.192 236.515C144.52 236.835 144.684 237.231 144.684 237.703C144.684 238.175 144.524 238.571 144.204 238.891C143.892 239.211 143.496 239.371 143.016 239.371ZM147.406 252.751V240.751H150.718V241.639C151.126 241.255 151.598 240.955 152.134 240.739C152.67 240.523 153.238 240.415 153.838 240.415C154.654 240.415 155.402 240.603 156.082 240.979C156.77 241.355 157.322 241.855 157.738 242.479C158.162 241.855 158.714 241.355 159.394 240.979C160.074 240.603 160.818 240.415 161.626 240.415C162.498 240.415 163.286 240.627 163.99 241.051C164.702 241.475 165.27 242.043 165.694 242.755C166.118 243.459 166.33 244.247 166.33 245.119V252.751H163.018V246.031C163.018 245.615 162.914 245.239 162.706 244.903C162.506 244.559 162.238 244.287 161.902 244.087C161.566 243.879 161.19 243.775 160.774 243.775C160.358 243.775 159.978 243.875 159.634 244.075C159.298 244.275 159.026 244.547 158.818 244.891C158.618 245.227 158.518 245.607 158.518 246.031V252.751H155.206V246.031C155.206 245.607 155.106 245.227 154.906 244.891C154.706 244.547 154.434 244.275 154.09 244.075C153.754 243.875 153.378 243.775 152.962 243.775C152.554 243.775 152.178 243.879 151.834 244.087C151.498 244.287 151.226 244.559 151.018 244.903C150.818 245.239 150.718 245.615 150.718 246.031V252.751H147.406ZM173.78 253.063C172.676 253.063 171.668 252.779 170.756 252.211C169.852 251.643 169.128 250.883 168.584 249.931C168.048 248.971 167.78 247.911 167.78 246.751C167.78 245.871 167.936 245.051 168.248 244.291C168.56 243.523 168.988 242.851 169.532 242.275C170.084 241.691 170.724 241.235 171.452 240.907C172.18 240.579 172.956 240.415 173.78 240.415C174.884 240.415 175.888 240.699 176.792 241.267C177.704 241.835 178.428 242.599 178.964 243.559C179.508 244.519 179.78 245.583 179.78 246.751C179.78 247.623 179.624 248.439 179.312 249.199C179 249.959 178.568 250.631 178.016 251.215C177.472 251.791 176.836 252.243 176.108 252.571C175.388 252.899 174.612 253.063 173.78 253.063ZM173.78 249.751C174.292 249.751 174.752 249.615 175.16 249.343C175.568 249.063 175.888 248.695 176.12 248.239C176.352 247.783 176.468 247.287 176.468 246.751C176.468 246.199 176.344 245.695 176.096 245.239C175.856 244.775 175.532 244.407 175.124 244.135C174.716 243.863 174.268 243.727 173.78 243.727C173.276 243.727 172.82 243.867 172.412 244.147C172.004 244.427 171.68 244.795 171.44 245.251C171.208 245.707 171.092 246.207 171.092 246.751C171.092 247.319 171.212 247.831 171.452 248.287C171.7 248.735 172.028 249.091 172.436 249.355C172.844 249.619 173.292 249.751 173.78 249.751ZM196.516 234.751H199.828V252.751H196.516V251.479C196.148 251.943 195.692 252.323 195.148 252.619C194.604 252.915 193.984 253.063 193.288 253.063C192.416 253.063 191.6 252.899 190.84 252.571C190.08 252.243 189.408 251.791 188.824 251.215C188.248 250.631 187.796 249.959 187.468 249.199C187.14 248.439 186.976 247.623 186.976 246.751C186.976 245.879 187.14 245.063 187.468 244.303C187.796 243.543 188.248 242.875 188.824 242.299C189.408 241.715 190.08 241.259 190.84 240.931C191.6 240.603 192.416 240.439 193.288 240.439C193.984 240.439 194.604 240.587 195.148 240.883C195.692 241.171 196.148 241.551 196.516 242.023V234.751ZM193.336 249.883C193.88 249.883 194.372 249.743 194.812 249.463C195.252 249.183 195.6 248.807 195.856 248.335C196.112 247.855 196.24 247.327 196.24 246.751C196.24 246.167 196.112 245.639 195.856 245.167C195.6 244.695 195.252 244.319 194.812 244.039C194.372 243.759 193.88 243.619 193.336 243.619C192.784 243.619 192.284 243.759 191.836 244.039C191.388 244.319 191.032 244.699 190.768 245.179C190.504 245.651 190.372 246.175 190.372 246.751C190.372 247.327 190.504 247.855 190.768 248.335C191.04 248.807 191.4 249.183 191.848 249.463C192.296 249.743 192.792 249.883 193.336 249.883ZM207.765 253.063C206.661 253.063 205.653 252.779 204.741 252.211C203.837 251.643 203.113 250.879 202.569 249.919C202.033 248.959 201.765 247.899 201.765 246.739C201.765 245.867 201.921 245.051 202.233 244.291C202.545 243.523 202.973 242.851 203.517 242.275C204.069 241.691 204.709 241.235 205.437 240.907C206.165 240.579 206.941 240.415 207.765 240.415C208.717 240.415 209.585 240.619 210.369 241.027C211.161 241.435 211.829 241.991 212.373 242.695C212.925 243.399 213.317 244.195 213.549 245.083C213.789 245.971 213.829 246.895 213.669 247.855H205.341C205.445 248.207 205.605 248.527 205.821 248.815C206.045 249.095 206.317 249.319 206.637 249.487C206.965 249.655 207.341 249.743 207.765 249.751C208.181 249.759 208.565 249.663 208.917 249.463C209.269 249.263 209.569 248.995 209.817 248.659L213.201 249.439C212.713 250.503 211.985 251.375 211.017 252.055C210.049 252.727 208.965 253.063 207.765 253.063ZM205.221 245.407H210.321C210.217 245.007 210.041 244.647 209.793 244.327C209.545 244.007 209.245 243.755 208.893 243.571C208.549 243.387 208.173 243.295 207.765 243.295C207.365 243.295 206.989 243.387 206.637 243.571C206.293 243.755 205.997 244.007 205.749 244.327C205.509 244.639 205.333 244.999 205.221 245.407ZM221.68 252.751V234.751H224.992V252.751H221.68ZM227.387 248.359V240.751H230.699V247.447C230.699 247.871 230.799 248.255 230.999 248.599C231.207 248.935 231.483 249.203 231.827 249.403C232.171 249.603 232.547 249.703 232.955 249.703C233.371 249.703 233.751 249.603 234.095 249.403C234.439 249.203 234.711 248.935 234.911 248.599C235.111 248.255 235.211 247.871 235.211 247.447V240.751H238.523L238.535 252.751H235.223L235.211 251.839C234.811 252.223 234.339 252.523 233.795 252.739C233.259 252.955 232.691 253.063 232.091 253.063C231.227 253.063 230.439 252.851 229.727 252.427C229.015 252.003 228.447 251.439 228.023 250.735C227.599 250.023 227.387 249.231 227.387 248.359ZM247.815 248.959L250.791 250.567C250.239 251.319 249.547 251.923 248.715 252.379C247.883 252.835 246.975 253.063 245.991 253.063C244.887 253.063 243.879 252.779 242.967 252.211C242.063 251.643 241.339 250.883 240.795 249.931C240.259 248.971 239.991 247.911 239.991 246.751C239.991 245.871 240.147 245.051 240.459 244.291C240.771 243.523 241.199 242.851 241.743 242.275C242.295 241.691 242.935 241.235 243.663 240.907C244.391 240.579 245.167 240.415 245.991 240.415C246.975 240.415 247.883 240.643 248.715 241.099C249.547 241.555 250.239 242.167 250.791 242.935L247.815 244.543C247.567 244.279 247.283 244.079 246.963 243.943C246.651 243.799 246.327 243.727 245.991 243.727C245.479 243.727 245.019 243.867 244.611 244.147C244.211 244.427 243.891 244.799 243.651 245.263C243.419 245.719 243.303 246.215 243.303 246.751C243.303 247.279 243.423 247.771 243.663 248.227C243.903 248.683 244.223 249.051 244.623 249.331C245.031 249.611 245.487 249.751 245.991 249.751C246.335 249.751 246.663 249.679 246.975 249.535C247.287 249.391 247.567 249.199 247.815 248.959ZM252.958 252.751L252.946 240.751H256.258L256.27 241.639C256.67 241.255 257.138 240.955 257.674 240.739C258.218 240.523 258.79 240.415 259.39 240.415C259.83 240.415 260.27 240.479 260.71 240.607L259.402 243.955C259.114 243.835 258.822 243.775 258.526 243.775C258.11 243.775 257.73 243.875 257.386 244.075C257.042 244.275 256.77 244.547 256.57 244.891C256.37 245.227 256.27 245.607 256.27 246.031V252.751H252.958ZM266.733 253.063C265.629 253.063 264.621 252.779 263.709 252.211C262.805 251.643 262.081 250.883 261.537 249.931C261.001 248.971 260.733 247.911 260.733 246.751C260.733 245.871 260.889 245.051 261.201 244.291C261.513 243.523 261.941 242.851 262.485 242.275C263.037 241.691 263.677 241.235 264.405 240.907C265.133 240.579 265.909 240.415 266.733 240.415C267.837 240.415 268.841 240.699 269.745 241.267C270.657 241.835 271.381 242.599 271.917 243.559C272.461 244.519 272.733 245.583 272.733 246.751C272.733 247.623 272.577 248.439 272.265 249.199C271.953 249.959 271.521 250.631 270.969 251.215C270.425 251.791 269.789 252.243 269.061 252.571C268.341 252.899 267.565 253.063 266.733 253.063ZM266.733 249.751C267.245 249.751 267.705 249.615 268.113 249.343C268.521 249.063 268.841 248.695 269.073 248.239C269.305 247.783 269.421 247.287 269.421 246.751C269.421 246.199 269.297 245.695 269.049 245.239C268.809 244.775 268.485 244.407 268.077 244.135C267.669 243.863 267.221 243.727 266.733 243.727C266.229 243.727 265.773 243.867 265.365 244.147C264.957 244.427 264.633 244.795 264.393 245.251C264.161 245.707 264.045 246.207 264.045 246.751C264.045 247.319 264.165 247.831 264.405 248.287C264.653 248.735 264.981 249.091 265.389 249.355C265.797 249.619 266.245 249.751 266.733 249.751Z" fill="white"/>
<path d="M67.7784 277.047H64.7424L64.7304 287.751H63.4344L63.4464 277.047H61.1544V275.751H63.4464L63.4344 271.983H64.7304L64.7424 275.751H67.7784V277.047ZM74.8505 288.063C73.7465 288.063 72.7385 287.779 71.8265 287.211C70.9225 286.643 70.1985 285.883 69.6545 284.931C69.1185 283.971 68.8505 282.911 68.8505 281.751C68.8505 280.871 69.0065 280.051 69.3185 279.291C69.6305 278.523 70.0585 277.851 70.6025 277.275C71.1545 276.691 71.7945 276.235 72.5225 275.907C73.2505 275.579 74.0265 275.415 74.8505 275.415C75.7225 275.415 76.5265 275.587 77.2625 275.931C78.0065 276.267 78.6465 276.743 79.1825 277.359C79.7185 277.975 80.1305 278.703 80.4185 279.543C80.7065 280.375 80.8385 281.287 80.8145 282.279H70.2065C70.2945 283.135 70.5505 283.903 70.9745 284.583C71.4065 285.255 71.9585 285.787 72.6305 286.179C73.3025 286.563 74.0425 286.759 74.8505 286.767C75.7385 286.767 76.5385 286.535 77.2505 286.071C77.9625 285.599 78.5345 284.955 78.9665 284.139L80.2745 284.439C79.7945 285.503 79.0705 286.375 78.1025 287.055C77.1345 287.727 76.0505 288.063 74.8505 288.063ZM70.1705 281.175H79.5065C79.4585 280.351 79.2185 279.595 78.7865 278.907C78.3625 278.211 77.8065 277.655 77.1185 277.239C76.4305 276.823 75.6745 276.615 74.8505 276.615C74.0265 276.615 73.2745 276.819 72.5945 277.227C71.9145 277.635 71.3585 278.187 70.9265 278.883C70.5025 279.571 70.2505 280.335 70.1705 281.175ZM98.8584 275.751H100.154V287.751H98.8584L98.8224 285.291C98.4144 286.123 97.8304 286.795 97.0704 287.307C96.3184 287.811 95.4144 288.063 94.3584 288.063C93.4864 288.063 92.6664 287.899 91.8984 287.571C91.1384 287.235 90.4664 286.779 89.8824 286.203C89.2984 285.619 88.8424 284.947 88.5144 284.187C88.1864 283.419 88.0224 282.595 88.0224 281.715C88.0224 280.843 88.1824 280.027 88.5024 279.267C88.8304 278.507 89.2824 277.839 89.8584 277.263C90.4344 276.679 91.1024 276.227 91.8624 275.907C92.6224 275.579 93.4344 275.415 94.2984 275.415C95.3624 275.415 96.2824 275.675 97.0584 276.195C97.8424 276.707 98.4544 277.379 98.8944 278.211L98.8584 275.751ZM94.3464 286.791C95.2664 286.791 96.0544 286.567 96.7104 286.119C97.3744 285.663 97.8824 285.051 98.2344 284.283C98.5864 283.515 98.7624 282.671 98.7624 281.751C98.7624 280.807 98.5824 279.955 98.2224 279.195C97.8704 278.427 97.3624 277.819 96.6984 277.371C96.0424 276.915 95.2584 276.687 94.3464 276.687C93.4184 276.687 92.5744 276.915 91.8144 277.371C91.0624 277.827 90.4624 278.439 90.0144 279.207C89.5664 279.975 89.3424 280.823 89.3424 281.751C89.3424 282.695 89.5704 283.547 90.0264 284.307C90.4904 285.067 91.1024 285.671 91.8624 286.119C92.6224 286.567 93.4504 286.791 94.3464 286.791ZM110.603 275.751H111.959L105.407 293.751H104.027L106.211 287.751L101.903 275.751H103.319L106.859 285.963L110.603 275.751ZM113.387 283.107V275.751H114.683V282.903C114.683 283.615 114.855 284.263 115.199 284.847C115.551 285.431 116.019 285.895 116.603 286.239C117.187 286.583 117.831 286.755 118.535 286.755C119.247 286.755 119.891 286.583 120.467 286.239C121.051 285.895 121.515 285.431 121.859 284.847C122.211 284.263 122.387 283.615 122.387 282.903V275.751H123.683V287.751H122.387V285.891C121.955 286.547 121.383 287.075 120.671 287.475C119.967 287.867 119.191 288.063 118.343 288.063C117.431 288.063 116.599 287.843 115.847 287.403C115.095 286.955 114.495 286.355 114.047 285.603C113.607 284.851 113.387 284.019 113.387 283.107ZM136.124 269.751H137.42V287.751H136.124V285.279C135.708 286.119 135.116 286.795 134.348 287.307C133.58 287.811 132.664 288.063 131.6 288.063C130.728 288.063 129.912 287.899 129.152 287.571C128.392 287.243 127.72 286.791 127.136 286.215C126.56 285.631 126.108 284.959 125.78 284.199C125.452 283.439 125.288 282.623 125.288 281.751C125.288 280.879 125.452 280.063 125.78 279.303C126.108 278.535 126.56 277.863 127.136 277.287C127.72 276.703 128.392 276.247 129.152 275.919C129.912 275.591 130.728 275.427 131.6 275.427C132.664 275.427 133.58 275.683 134.348 276.195C135.116 276.699 135.708 277.367 136.124 278.199V269.751ZM131.612 286.791C132.532 286.791 133.32 286.567 133.976 286.119C134.64 285.663 135.148 285.051 135.5 284.283C135.852 283.515 136.028 282.671 136.028 281.751C136.028 280.807 135.848 279.955 135.488 279.195C135.136 278.427 134.628 277.819 133.964 277.371C133.308 276.915 132.524 276.687 131.612 276.687C130.692 276.687 129.852 276.915 129.092 277.371C128.34 277.827 127.736 278.439 127.28 279.207C126.832 279.975 126.608 280.823 126.608 281.751C126.608 282.695 126.836 283.547 127.292 284.307C127.756 285.067 128.368 285.671 129.128 286.119C129.888 286.567 130.716 286.791 131.612 286.791ZM150.351 275.751H151.647V287.751H150.351L150.315 285.291C149.907 286.123 149.323 286.795 148.563 287.307C147.811 287.811 146.907 288.063 145.851 288.063C144.979 288.063 144.159 287.899 143.391 287.571C142.631 287.235 141.959 286.779 141.375 286.203C140.791 285.619 140.335 284.947 140.007 284.187C139.679 283.419 139.515 282.595 139.515 281.715C139.515 280.843 139.675 280.027 139.995 279.267C140.323 278.507 140.775 277.839 141.351 277.263C141.927 276.679 142.595 276.227 143.355 275.907C144.115 275.579 144.927 275.415 145.791 275.415C146.855 275.415 147.775 275.675 148.551 276.195C149.335 276.707 149.947 277.379 150.387 278.211L150.351 275.751ZM145.839 286.791C146.759 286.791 147.547 286.567 148.203 286.119C148.867 285.663 149.375 285.051 149.727 284.283C150.079 283.515 150.255 282.671 150.255 281.751C150.255 280.807 150.075 279.955 149.715 279.195C149.363 278.427 148.855 277.819 148.191 277.371C147.535 276.915 146.751 276.687 145.839 276.687C144.911 276.687 144.067 276.915 143.307 277.371C142.555 277.827 141.955 278.439 141.507 279.207C141.059 279.975 140.835 280.823 140.835 281.751C140.835 282.695 141.063 283.547 141.519 284.307C141.983 285.067 142.595 285.671 143.355 286.119C144.115 286.567 144.943 286.791 145.839 286.791ZM154.039 287.751V275.751H155.335V277.587C155.767 276.923 156.339 276.395 157.051 276.003C157.763 275.611 158.539 275.415 159.379 275.415C159.851 275.415 160.303 275.475 160.735 275.595L160.195 276.867C159.851 276.771 159.515 276.723 159.187 276.723C158.483 276.723 157.839 276.895 157.255 277.239C156.671 277.583 156.203 278.047 155.851 278.631C155.507 279.215 155.335 279.863 155.335 280.575V287.751H154.039ZM166.913 288.063C165.809 288.063 164.801 287.779 163.889 287.211C162.985 286.643 162.261 285.883 161.717 284.931C161.181 283.971 160.913 282.911 160.913 281.751C160.913 280.871 161.069 280.051 161.381 279.291C161.693 278.523 162.121 277.851 162.665 277.275C163.217 276.691 163.857 276.235 164.585 275.907C165.313 275.579 166.089 275.415 166.913 275.415C167.785 275.415 168.589 275.587 169.325 275.931C170.069 276.267 170.709 276.743 171.245 277.359C171.781 277.975 172.193 278.703 172.481 279.543C172.769 280.375 172.901 281.287 172.877 282.279H162.269C162.357 283.135 162.613 283.903 163.037 284.583C163.469 285.255 164.021 285.787 164.693 286.179C165.365 286.563 166.105 286.759 166.913 286.767C167.801 286.767 168.601 286.535 169.313 286.071C170.025 285.599 170.597 284.955 171.029 284.139L172.337 284.439C171.857 285.503 171.133 286.375 170.165 287.055C169.197 287.727 168.113 288.063 166.913 288.063ZM162.233 281.175H171.569C171.521 280.351 171.281 279.595 170.849 278.907C170.425 278.211 169.869 277.655 169.181 277.239C168.493 276.823 167.737 276.615 166.913 276.615C166.089 276.615 165.337 276.819 164.657 277.227C163.977 277.635 163.421 278.187 162.989 278.883C162.565 279.571 162.313 280.335 162.233 281.175ZM174.969 287.751V275.751H176.265V277.587C176.705 276.923 177.277 276.395 177.981 276.003C178.685 275.611 179.461 275.415 180.309 275.415C181.237 275.415 182.081 275.647 182.841 276.111C183.609 276.567 184.205 277.175 184.629 277.935C185.053 277.175 185.645 276.567 186.405 276.111C187.165 275.647 188.009 275.415 188.937 275.415C189.849 275.415 190.681 275.639 191.433 276.087C192.185 276.527 192.781 277.123 193.221 277.875C193.669 278.627 193.893 279.459 193.893 280.371V287.751H192.597V280.611C192.597 279.915 192.429 279.275 192.093 278.691C191.757 278.099 191.305 277.623 190.737 277.263C190.169 276.903 189.537 276.723 188.841 276.723C188.153 276.723 187.521 276.891 186.945 277.227C186.377 277.555 185.925 278.011 185.589 278.595C185.253 279.179 185.085 279.851 185.085 280.611V287.751H183.789V280.611C183.789 279.851 183.617 279.179 183.273 278.595C182.937 278.011 182.485 277.555 181.917 277.227C181.349 276.891 180.717 276.723 180.021 276.723C179.333 276.723 178.705 276.903 178.137 277.263C177.569 277.623 177.113 278.099 176.769 278.691C176.433 279.275 176.265 279.915 176.265 280.611V287.751H174.969ZM201.343 288.063C200.239 288.063 199.231 287.779 198.319 287.211C197.415 286.643 196.691 285.883 196.147 284.931C195.611 283.971 195.343 282.911 195.343 281.751C195.343 280.871 195.499 280.051 195.811 279.291C196.123 278.523 196.551 277.851 197.095 277.275C197.647 276.691 198.287 276.235 199.015 275.907C199.743 275.579 200.519 275.415 201.343 275.415C202.447 275.415 203.451 275.699 204.355 276.267C205.267 276.835 205.991 277.599 206.527 278.559C207.071 279.519 207.343 280.583 207.343 281.751C207.343 282.623 207.187 283.439 206.875 284.199C206.563 284.959 206.131 285.631 205.579 286.215C205.035 286.791 204.399 287.243 203.671 287.571C202.951 287.899 202.175 288.063 201.343 288.063ZM201.343 286.767C202.231 286.767 203.027 286.535 203.731 286.071C204.443 285.607 205.007 284.995 205.423 284.235C205.839 283.475 206.047 282.647 206.047 281.751C206.047 280.847 205.839 280.011 205.423 279.243C205.007 278.475 204.443 277.863 203.731 277.407C203.019 276.943 202.223 276.711 201.343 276.711C200.455 276.711 199.655 276.943 198.943 277.407C198.231 277.871 197.667 278.487 197.251 279.255C196.843 280.015 196.639 280.847 196.639 281.751C196.639 282.687 196.851 283.535 197.275 284.295C197.707 285.047 198.279 285.647 198.991 286.095C199.703 286.543 200.487 286.767 201.343 286.767ZM213.178 287.979C212.514 287.971 211.862 287.855 211.222 287.631C210.59 287.399 210.038 287.091 209.566 286.707C209.094 286.323 208.766 285.887 208.582 285.399L209.722 284.907C209.858 285.267 210.118 285.591 210.502 285.879C210.894 286.167 211.334 286.395 211.822 286.563C212.318 286.723 212.802 286.803 213.274 286.803C213.81 286.803 214.314 286.711 214.786 286.527C215.258 286.343 215.642 286.083 215.938 285.747C216.234 285.411 216.382 285.015 216.382 284.559C216.382 284.079 216.226 283.703 215.914 283.431C215.602 283.151 215.202 282.927 214.714 282.759C214.234 282.583 213.738 282.419 213.226 282.267C212.346 282.011 211.582 281.751 210.934 281.487C210.294 281.215 209.798 280.871 209.446 280.455C209.094 280.039 208.918 279.491 208.918 278.811C208.918 278.107 209.122 277.495 209.53 276.975C209.938 276.455 210.474 276.055 211.138 275.775C211.802 275.487 212.514 275.343 213.274 275.343C214.258 275.343 215.15 275.559 215.95 275.991C216.758 276.423 217.326 276.991 217.654 277.695L216.598 278.319C216.438 277.951 216.186 277.635 215.842 277.371C215.498 277.107 215.106 276.903 214.666 276.759C214.226 276.615 213.782 276.539 213.334 276.531C212.774 276.523 212.25 276.611 211.762 276.795C211.282 276.971 210.894 277.231 210.598 277.575C210.302 277.911 210.154 278.319 210.154 278.799C210.154 279.279 210.29 279.647 210.562 279.903C210.834 280.159 211.214 280.367 211.702 280.527C212.19 280.679 212.754 280.859 213.394 281.067C214.138 281.299 214.83 281.559 215.47 281.847C216.118 282.127 216.638 282.479 217.03 282.903C217.43 283.327 217.626 283.875 217.618 284.547C217.618 285.251 217.406 285.863 216.982 286.383C216.566 286.903 216.018 287.303 215.338 287.583C214.666 287.863 213.946 287.995 213.178 287.979ZM235.569 275.751H236.865V287.751H235.569L235.533 285.291C235.125 286.123 234.541 286.795 233.781 287.307C233.029 287.811 232.125 288.063 231.069 288.063C230.197 288.063 229.377 287.899 228.609 287.571C227.849 287.235 227.177 286.779 226.593 286.203C226.009 285.619 225.553 284.947 225.225 284.187C224.897 283.419 224.733 282.595 224.733 281.715C224.733 280.843 224.893 280.027 225.213 279.267C225.541 278.507 225.993 277.839 226.569 277.263C227.145 276.679 227.813 276.227 228.573 275.907C229.333 275.579 230.145 275.415 231.009 275.415C232.073 275.415 232.993 275.675 233.769 276.195C234.553 276.707 235.165 277.379 235.605 278.211L235.569 275.751ZM231.057 286.791C231.977 286.791 232.765 286.567 233.421 286.119C234.085 285.663 234.593 285.051 234.945 284.283C235.297 283.515 235.473 282.671 235.473 281.751C235.473 280.807 235.293 279.955 234.933 279.195C234.581 278.427 234.073 277.819 233.409 277.371C232.753 276.915 231.969 276.687 231.057 276.687C230.129 276.687 229.285 276.915 228.525 277.371C227.773 277.827 227.173 278.439 226.725 279.207C226.277 279.975 226.053 280.823 226.053 281.751C226.053 282.695 226.281 283.547 226.737 284.307C227.201 285.067 227.813 285.671 228.573 286.119C229.333 286.567 230.161 286.791 231.057 286.791ZM245.024 287.751V269.751H246.32V287.751H245.024ZM249.196 287.751V269.751H250.492V287.751H249.196ZM258.577 288.063C257.473 288.063 256.465 287.779 255.553 287.211C254.649 286.643 253.925 285.883 253.381 284.931C252.845 283.971 252.577 282.911 252.577 281.751C252.577 280.871 252.733 280.051 253.045 279.291C253.357 278.523 253.785 277.851 254.329 277.275C254.881 276.691 255.521 276.235 256.249 275.907C256.977 275.579 257.753 275.415 258.577 275.415C259.449 275.415 260.253 275.587 260.989 275.931C261.733 276.267 262.373 276.743 262.909 277.359C263.445 277.975 263.857 278.703 264.145 279.543C264.433 280.375 264.565 281.287 264.541 282.279H253.933C254.021 283.135 254.277 283.903 254.701 284.583C255.133 285.255 255.685 285.787 256.357 286.179C257.029 286.563 257.769 286.759 258.577 286.767C259.465 286.767 260.265 286.535 260.977 286.071C261.689 285.599 262.261 284.955 262.693 284.139L264.001 284.439C263.521 285.503 262.797 286.375 261.829 287.055C260.861 287.727 259.777 288.063 258.577 288.063ZM253.897 281.175H263.233C263.185 280.351 262.945 279.595 262.513 278.907C262.089 278.211 261.533 277.655 260.845 277.239C260.157 276.823 259.401 276.615 258.577 276.615C257.753 276.615 257.001 276.819 256.321 277.227C255.641 277.635 255.085 278.187 254.653 278.883C254.229 279.571 253.977 280.335 253.897 281.175ZM276.201 275.751H277.497V288.255C277.497 288.999 277.333 289.699 277.005 290.355C276.685 291.019 276.249 291.603 275.697 292.107C275.145 292.619 274.517 293.019 273.813 293.307C273.117 293.603 272.397 293.751 271.653 293.751C270.821 293.751 270.017 293.555 269.241 293.163C268.465 292.779 267.793 292.263 267.225 291.615C266.665 290.967 266.277 290.259 266.061 289.491L267.261 288.939C267.405 289.587 267.701 290.175 268.149 290.703C268.597 291.239 269.129 291.663 269.745 291.975C270.369 292.287 271.005 292.443 271.653 292.443C272.229 292.443 272.789 292.331 273.333 292.107C273.877 291.883 274.365 291.575 274.797 291.183C275.229 290.799 275.569 290.355 275.817 289.851C276.073 289.347 276.201 288.815 276.201 288.255V285.315C275.777 286.131 275.189 286.795 274.437 287.307C273.685 287.811 272.809 288.063 271.809 288.063C270.977 288.063 270.193 287.899 269.457 287.571C268.721 287.243 268.077 286.791 267.525 286.215C266.973 285.631 266.537 284.959 266.217 284.199C265.905 283.439 265.749 282.623 265.749 281.751C265.749 280.879 265.905 280.063 266.217 279.303C266.537 278.535 266.973 277.863 267.525 277.287C268.077 276.703 268.721 276.247 269.457 275.919C270.193 275.591 270.977 275.427 271.809 275.427C272.809 275.427 273.685 275.679 274.437 276.183C275.189 276.679 275.777 277.343 276.201 278.175V275.751ZM271.821 286.791C272.717 286.791 273.485 286.559 274.125 286.095C274.773 285.631 275.269 285.015 275.613 284.247C275.965 283.479 276.141 282.647 276.141 281.751C276.141 280.831 275.965 279.991 275.613 279.231C275.261 278.463 274.761 277.847 274.113 277.383C273.465 276.919 272.701 276.687 271.821 276.687C270.941 276.687 270.141 276.915 269.421 277.371C268.701 277.827 268.129 278.439 267.705 279.207C267.281 279.975 267.069 280.823 267.069 281.751C267.069 282.687 267.285 283.535 267.717 284.295C268.149 285.055 268.725 285.663 269.445 286.119C270.165 286.567 270.957 286.791 271.821 286.791ZM290.413 275.751H291.709V287.751H290.413L290.377 285.291C289.969 286.123 289.385 286.795 288.625 287.307C287.873 287.811 286.969 288.063 285.913 288.063C285.041 288.063 284.221 287.899 283.453 287.571C282.693 287.235 282.021 286.779 281.437 286.203C280.853 285.619 280.397 284.947 280.069 284.187C279.741 283.419 279.577 282.595 279.577 281.715C279.577 280.843 279.737 280.027 280.057 279.267C280.385 278.507 280.837 277.839 281.413 277.263C281.989 276.679 282.657 276.227 283.417 275.907C284.177 275.579 284.989 275.415 285.853 275.415C286.917 275.415 287.837 275.675 288.613 276.195C289.397 276.707 290.009 277.379 290.449 278.211L290.413 275.751ZM285.901 286.791C286.821 286.791 287.609 286.567 288.265 286.119C288.929 285.663 289.437 285.051 289.789 284.283C290.141 283.515 290.317 282.671 290.317 281.751C290.317 280.807 290.137 279.955 289.777 279.195C289.425 278.427 288.917 277.819 288.253 277.371C287.597 276.915 286.813 276.687 285.901 276.687C284.973 276.687 284.129 276.915 283.369 277.371C282.617 277.827 282.017 278.439 281.569 279.207C281.121 279.975 280.897 280.823 280.897 281.751C280.897 282.695 281.125 283.547 281.581 284.307C282.045 285.067 282.657 285.671 283.417 286.119C284.177 286.567 285.005 286.791 285.901 286.791ZM294.102 287.751V275.751H295.398V277.587C295.83 276.923 296.402 276.395 297.114 276.003C297.826 275.611 298.602 275.415 299.442 275.415C299.914 275.415 300.366 275.475 300.798 275.595L300.258 276.867C299.914 276.771 299.578 276.723 299.25 276.723C298.546 276.723 297.902 276.895 297.318 277.239C296.734 277.583 296.266 278.047 295.914 278.631C295.57 279.215 295.398 279.863 295.398 280.575V287.751H294.102ZM318.351 275.751H319.647V287.751H318.351L318.315 285.291C317.907 286.123 317.323 286.795 316.563 287.307C315.811 287.811 314.907 288.063 313.851 288.063C312.979 288.063 312.159 287.899 311.391 287.571C310.631 287.235 309.959 286.779 309.375 286.203C308.791 285.619 308.335 284.947 308.007 284.187C307.679 283.419 307.515 282.595 307.515 281.715C307.515 280.843 307.675 280.027 307.995 279.267C308.323 278.507 308.775 277.839 309.351 277.263C309.927 276.679 310.595 276.227 311.355 275.907C312.115 275.579 312.927 275.415 313.791 275.415C314.855 275.415 315.775 275.675 316.551 276.195C317.335 276.707 317.947 277.379 318.387 278.211L318.351 275.751ZM313.839 286.791C314.759 286.791 315.547 286.567 316.203 286.119C316.867 285.663 317.375 285.051 317.727 284.283C318.079 283.515 318.255 282.671 318.255 281.751C318.255 280.807 318.075 279.955 317.715 279.195C317.363 278.427 316.855 277.819 316.191 277.371C315.535 276.915 314.751 276.687 313.839 276.687C312.911 276.687 312.067 276.915 311.307 277.371C310.555 277.827 309.955 278.439 309.507 279.207C309.059 279.975 308.835 280.823 308.835 281.751C308.835 282.695 309.063 283.547 309.519 284.307C309.983 285.067 310.595 285.671 311.355 286.119C312.115 286.567 312.943 286.791 313.839 286.791ZM322.227 287.751V269.751H323.523V287.751H322.227ZM126.354 316.979C125.69 316.971 125.038 316.855 124.398 316.631C123.766 316.399 123.214 316.091 122.742 315.707C122.27 315.323 121.942 314.887 121.758 314.399L122.898 313.907C123.034 314.267 123.294 314.591 123.678 314.879C124.07 315.167 124.51 315.395 124.998 315.563C125.494 315.723 125.978 315.803 126.45 315.803C126.986 315.803 127.49 315.711 127.962 315.527C128.434 315.343 128.818 315.083 129.114 314.747C129.41 314.411 129.558 314.015 129.558 313.559C129.558 313.079 129.402 312.703 129.09 312.431C128.778 312.151 128.378 311.927 127.89 311.759C127.41 311.583 126.914 311.419 126.402 311.267C125.522 311.011 124.758 310.751 124.11 310.487C123.47 310.215 122.974 309.871 122.622 309.455C122.27 309.039 122.094 308.491 122.094 307.811C122.094 307.107 122.298 306.495 122.706 305.975C123.114 305.455 123.65 305.055 124.314 304.775C124.978 304.487 125.69 304.343 126.45 304.343C127.434 304.343 128.326 304.559 129.126 304.991C129.934 305.423 130.502 305.991 130.83 306.695L129.774 307.319C129.614 306.951 129.362 306.635 129.018 306.371C128.674 306.107 128.282 305.903 127.842 305.759C127.402 305.615 126.958 305.539 126.51 305.531C125.95 305.523 125.426 305.611 124.938 305.795C124.458 305.971 124.07 306.231 123.774 306.575C123.478 306.911 123.33 307.319 123.33 307.799C123.33 308.279 123.466 308.647 123.738 308.903C124.01 309.159 124.39 309.367 124.878 309.527C125.366 309.679 125.93 309.859 126.57 310.067C127.314 310.299 128.006 310.559 128.646 310.847C129.294 311.127 129.814 311.479 130.206 311.903C130.606 312.327 130.802 312.875 130.794 313.547C130.794 314.251 130.582 314.863 130.158 315.383C129.742 315.903 129.194 316.303 128.514 316.583C127.842 316.863 127.122 316.995 126.354 316.979ZM132.793 304.751H134.089V316.751H132.793V304.751ZM133.453 302.483C133.229 302.483 133.037 302.411 132.877 302.267C132.725 302.115 132.649 301.927 132.649 301.703C132.649 301.479 132.725 301.295 132.877 301.151C133.037 300.999 133.229 300.923 133.453 300.923C133.669 300.923 133.853 300.999 134.005 301.151C134.165 301.295 134.245 301.479 134.245 301.703C134.245 301.927 134.169 302.115 134.017 302.267C133.865 302.411 133.677 302.483 133.453 302.483ZM146.627 304.751H147.923V317.255C147.923 317.999 147.759 318.699 147.431 319.355C147.111 320.019 146.675 320.603 146.123 321.107C145.571 321.619 144.943 322.019 144.239 322.307C143.543 322.603 142.823 322.751 142.079 322.751C141.247 322.751 140.443 322.555 139.667 322.163C138.891 321.779 138.219 321.263 137.651 320.615C137.091 319.967 136.703 319.259 136.487 318.491L137.687 317.939C137.831 318.587 138.127 319.175 138.575 319.703C139.023 320.239 139.555 320.663 140.171 320.975C140.795 321.287 141.431 321.443 142.079 321.443C142.655 321.443 143.215 321.331 143.759 321.107C144.303 320.883 144.791 320.575 145.223 320.183C145.655 319.799 145.995 319.355 146.243 318.851C146.499 318.347 146.627 317.815 146.627 317.255V314.315C146.203 315.131 145.615 315.795 144.863 316.307C144.111 316.811 143.235 317.063 142.235 317.063C141.403 317.063 140.619 316.899 139.883 316.571C139.147 316.243 138.503 315.791 137.951 315.215C137.399 314.631 136.963 313.959 136.643 313.199C136.331 312.439 136.175 311.623 136.175 310.751C136.175 309.879 136.331 309.063 136.643 308.303C136.963 307.535 137.399 306.863 137.951 306.287C138.503 305.703 139.147 305.247 139.883 304.919C140.619 304.591 141.403 304.427 142.235 304.427C143.235 304.427 144.111 304.679 144.863 305.183C145.615 305.679 146.203 306.343 146.627 307.175V304.751ZM142.247 315.791C143.143 315.791 143.911 315.559 144.551 315.095C145.199 314.631 145.695 314.015 146.039 313.247C146.391 312.479 146.567 311.647 146.567 310.751C146.567 309.831 146.391 308.991 146.039 308.231C145.687 307.463 145.187 306.847 144.539 306.383C143.891 305.919 143.127 305.687 142.247 305.687C141.367 305.687 140.567 305.915 139.847 306.371C139.127 306.827 138.555 307.439 138.131 308.207C137.707 308.975 137.495 309.823 137.495 310.751C137.495 311.687 137.711 312.535 138.143 313.295C138.575 314.055 139.151 314.663 139.871 315.119C140.591 315.567 141.383 315.791 142.247 315.791ZM150.219 312.107V304.751H151.515V311.903C151.515 312.615 151.687 313.263 152.031 313.847C152.383 314.431 152.851 314.895 153.435 315.239C154.019 315.583 154.663 315.755 155.367 315.755C156.079 315.755 156.723 315.583 157.299 315.239C157.883 314.895 158.347 314.431 158.691 313.847C159.043 313.263 159.219 312.615 159.219 311.903V304.751H160.515V316.751H159.219V314.891C158.787 315.547 158.215 316.075 157.503 316.475C156.799 316.867 156.023 317.063 155.175 317.063C154.263 317.063 153.431 316.843 152.679 316.403C151.927 315.955 151.327 315.355 150.879 314.603C150.439 313.851 150.219 313.019 150.219 312.107ZM162.91 304.751H164.206V316.751H162.91V304.751ZM163.57 302.483C163.346 302.483 163.154 302.411 162.994 302.267C162.842 302.115 162.766 301.927 162.766 301.703C162.766 301.479 162.842 301.295 162.994 301.151C163.154 300.999 163.346 300.923 163.57 300.923C163.786 300.923 163.97 300.999 164.122 301.151C164.282 301.295 164.362 301.479 164.362 301.703C164.362 301.927 164.286 302.115 164.134 302.267C163.982 302.411 163.794 302.483 163.57 302.483ZM172.292 317.063C171.188 317.063 170.18 316.779 169.268 316.211C168.364 315.643 167.64 314.883 167.096 313.931C166.56 312.971 166.292 311.911 166.292 310.751C166.292 309.871 166.448 309.051 166.76 308.291C167.072 307.523 167.5 306.851 168.044 306.275C168.596 305.691 169.236 305.235 169.964 304.907C170.692 304.579 171.468 304.415 172.292 304.415C173.164 304.415 173.968 304.587 174.704 304.931C175.448 305.267 176.088 305.743 176.624 306.359C177.16 306.975 177.572 307.703 177.86 308.543C178.148 309.375 178.28 310.287 178.256 311.279H167.648C167.736 312.135 167.992 312.903 168.416 313.583C168.848 314.255 169.4 314.787 170.072 315.179C170.744 315.563 171.484 315.759 172.292 315.767C173.18 315.767 173.98 315.535 174.692 315.071C175.404 314.599 175.976 313.955 176.408 313.139L177.716 313.439C177.236 314.503 176.512 315.375 175.544 316.055C174.576 316.727 173.492 317.063 172.292 317.063ZM167.612 310.175H176.948C176.9 309.351 176.66 308.595 176.228 307.907C175.804 307.211 175.248 306.655 174.56 306.239C173.872 305.823 173.116 305.615 172.292 305.615C171.468 305.615 170.716 305.819 170.036 306.227C169.356 306.635 168.8 307.187 168.368 307.883C167.944 308.571 167.692 309.335 167.612 310.175ZM190.644 309.371V316.751H189.348V309.575C189.348 308.863 189.176 308.215 188.832 307.631C188.488 307.047 188.024 306.583 187.44 306.239C186.856 305.895 186.208 305.723 185.496 305.723C184.792 305.723 184.148 305.895 183.564 306.239C182.98 306.583 182.512 307.047 182.16 307.631C181.816 308.215 181.644 308.863 181.644 309.575V316.751H180.348V304.751H181.644V306.587C182.076 305.923 182.648 305.395 183.36 305.003C184.072 304.611 184.848 304.415 185.688 304.415C186.608 304.415 187.44 304.639 188.184 305.087C188.936 305.527 189.532 306.123 189.972 306.875C190.42 307.627 190.644 308.459 190.644 309.371ZM199.087 306.047H196.051L196.039 316.751H194.743L194.755 306.047H192.463V304.751H194.755L194.743 300.983H196.039L196.051 304.751H199.087V306.047ZM206.159 317.063C205.055 317.063 204.047 316.779 203.135 316.211C202.231 315.643 201.507 314.883 200.963 313.931C200.427 312.971 200.159 311.911 200.159 310.751C200.159 309.871 200.315 309.051 200.627 308.291C200.939 307.523 201.367 306.851 201.911 306.275C202.463 305.691 203.103 305.235 203.831 304.907C204.559 304.579 205.335 304.415 206.159 304.415C207.031 304.415 207.835 304.587 208.571 304.931C209.315 305.267 209.955 305.743 210.491 306.359C211.027 306.975 211.439 307.703 211.727 308.543C212.015 309.375 212.147 310.287 212.123 311.279H201.515C201.603 312.135 201.859 312.903 202.283 313.583C202.715 314.255 203.267 314.787 203.939 315.179C204.611 315.563 205.351 315.759 206.159 315.767C207.047 315.767 207.847 315.535 208.559 315.071C209.271 314.599 209.843 313.955 210.275 313.139L211.583 313.439C211.103 314.503 210.379 315.375 209.411 316.055C208.443 316.727 207.359 317.063 206.159 317.063ZM201.479 310.175H210.815C210.767 309.351 210.527 308.595 210.095 307.907C209.671 307.211 209.115 306.655 208.427 306.239C207.739 305.823 206.983 305.615 206.159 305.615C205.335 305.615 204.583 305.819 203.903 306.227C203.223 306.635 202.667 307.187 202.235 307.883C201.811 308.571 201.559 309.335 201.479 310.175ZM230.347 309.371V316.751H229.051V309.575C229.051 308.863 228.879 308.215 228.535 307.631C228.191 307.047 227.727 306.583 227.143 306.239C226.559 305.895 225.911 305.723 225.199 305.723C224.495 305.723 223.851 305.895 223.267 306.239C222.683 306.583 222.215 307.047 221.863 307.631C221.519 308.215 221.347 308.863 221.347 309.575V316.751H220.051V304.751H221.347V306.587C221.779 305.923 222.351 305.395 223.063 305.003C223.775 304.611 224.551 304.415 225.391 304.415C226.311 304.415 227.143 304.639 227.887 305.087C228.639 305.527 229.235 306.123 229.675 306.875C230.123 307.627 230.347 308.459 230.347 309.371ZM232.754 304.751H234.05V316.751H232.754V304.751ZM233.414 302.483C233.19 302.483 232.998 302.411 232.838 302.267C232.686 302.115 232.61 301.927 232.61 301.703C232.61 301.479 232.686 301.295 232.838 301.151C232.998 300.999 233.19 300.923 233.414 300.923C233.63 300.923 233.814 300.999 233.966 301.151C234.126 301.295 234.206 301.479 234.206 301.703C234.206 301.927 234.13 302.115 233.978 302.267C233.826 302.411 233.638 302.483 233.414 302.483ZM242.124 316.751H240.492L236.112 304.715H237.492L241.308 315.215L245.124 304.715H246.504L242.124 316.751ZM253.386 317.063C252.282 317.063 251.274 316.779 250.362 316.211C249.458 315.643 248.734 314.883 248.19 313.931C247.654 312.971 247.386 311.911 247.386 310.751C247.386 309.871 247.542 309.051 247.854 308.291C248.166 307.523 248.594 306.851 249.138 306.275C249.69 305.691 250.33 305.235 251.058 304.907C251.786 304.579 252.562 304.415 253.386 304.415C254.258 304.415 255.062 304.587 255.798 304.931C256.542 305.267 257.182 305.743 257.718 306.359C258.254 306.975 258.666 307.703 258.954 308.543C259.242 309.375 259.374 310.287 259.35 311.279H248.742C248.83 312.135 249.086 312.903 249.51 313.583C249.942 314.255 250.494 314.787 251.166 315.179C251.838 315.563 252.578 315.759 253.386 315.767C254.274 315.767 255.074 315.535 255.786 315.071C256.498 314.599 257.07 313.955 257.502 313.139L258.81 313.439C258.33 314.503 257.606 315.375 256.638 316.055C255.67 316.727 254.586 317.063 253.386 317.063ZM248.706 310.175H258.042C257.994 309.351 257.754 308.595 257.322 307.907C256.898 307.211 256.342 306.655 255.654 306.239C254.966 305.823 254.21 305.615 253.386 305.615C252.562 305.615 251.81 305.819 251.13 306.227C250.45 306.635 249.894 307.187 249.462 307.883C249.038 308.571 248.786 309.335 248.706 310.175ZM261.371 316.751V298.751H262.667V316.751H261.371ZM85.1662 342.931L86.3182 343.555C85.7742 344.315 85.0822 344.923 84.2422 345.379C83.4102 345.835 82.5062 346.063 81.5302 346.063C80.4262 346.063 79.4182 345.779 78.5062 345.211C77.6022 344.643 76.8782 343.883 76.3342 342.931C75.7982 341.971 75.5302 340.911 75.5302 339.751C75.5302 338.871 75.6862 338.051 75.9982 337.291C76.3102 336.523 76.7382 335.851 77.2822 335.275C77.8342 334.691 78.4742 334.235 79.2022 333.907C79.9302 333.579 80.7062 333.415 81.5302 333.415C82.5062 333.415 83.4102 333.643 84.2422 334.099C85.0822 334.555 85.7742 335.167 86.3182 335.935L85.1662 336.547C84.7102 335.955 84.1582 335.503 83.5102 335.191C82.8622 334.871 82.2022 334.711 81.5302 334.711C80.6502 334.711 79.8542 334.943 79.1422 335.407C78.4302 335.863 77.8662 336.475 77.4502 337.243C77.0342 338.003 76.8262 338.839 76.8262 339.751C76.8262 340.671 77.0382 341.511 77.4622 342.271C77.8862 343.031 78.4542 343.639 79.1662 344.095C79.8782 344.543 80.6662 344.767 81.5302 344.767C82.2582 344.767 82.9422 344.595 83.5822 344.251C84.2222 343.907 84.7502 343.467 85.1662 342.931ZM93.6708 346.063C92.5668 346.063 91.5588 345.779 90.6468 345.211C89.7428 344.643 89.0188 343.883 88.4748 342.931C87.9388 341.971 87.6708 340.911 87.6708 339.751C87.6708 338.871 87.8268 338.051 88.1388 337.291C88.4508 336.523 88.8788 335.851 89.4228 335.275C89.9748 334.691 90.6148 334.235 91.3428 333.907C92.0708 333.579 92.8468 333.415 93.6708 333.415C94.7748 333.415 95.7788 333.699 96.6828 334.267C97.5948 334.835 98.3188 335.599 98.8548 336.559C99.3988 337.519 99.6708 338.583 99.6708 339.751C99.6708 340.623 99.5148 341.439 99.2028 342.199C98.8908 342.959 98.4588 343.631 97.9068 344.215C97.3628 344.791 96.7268 345.243 95.9988 345.571C95.2788 345.899 94.5028 346.063 93.6708 346.063ZM93.6708 344.767C94.5588 344.767 95.3548 344.535 96.0588 344.071C96.7708 343.607 97.3348 342.995 97.7508 342.235C98.1668 341.475 98.3748 340.647 98.3748 339.751C98.3748 338.847 98.1668 338.011 97.7508 337.243C97.3348 336.475 96.7708 335.863 96.0588 335.407C95.3468 334.943 94.5508 334.711 93.6708 334.711C92.7828 334.711 91.9828 334.943 91.2708 335.407C90.5588 335.871 89.9948 336.487 89.5788 337.255C89.1708 338.015 88.9668 338.847 88.9668 339.751C88.9668 340.687 89.1788 341.535 89.6028 342.295C90.0348 343.047 90.6068 343.647 91.3188 344.095C92.0308 344.543 92.8148 344.767 93.6708 344.767ZM101.75 345.751V333.751H103.046V335.587C103.486 334.923 104.058 334.395 104.762 334.003C105.466 333.611 106.242 333.415 107.09 333.415C108.018 333.415 108.862 333.647 109.622 334.111C110.39 334.567 110.986 335.175 111.41 335.935C111.834 335.175 112.426 334.567 113.186 334.111C113.946 333.647 114.79 333.415 115.718 333.415C116.63 333.415 117.462 333.639 118.214 334.087C118.966 334.527 119.562 335.123 120.002 335.875C120.45 336.627 120.674 337.459 120.674 338.371V345.751H119.378V338.611C119.378 337.915 119.21 337.275 118.874 336.691C118.538 336.099 118.086 335.623 117.518 335.263C116.95 334.903 116.318 334.723 115.622 334.723C114.934 334.723 114.302 334.891 113.726 335.227C113.158 335.555 112.706 336.011 112.37 336.595C112.034 337.179 111.866 337.851 111.866 338.611V345.751H110.57V338.611C110.57 337.851 110.398 337.179 110.054 336.595C109.718 336.011 109.266 335.555 108.698 335.227C108.13 334.891 107.498 334.723 106.802 334.723C106.114 334.723 105.486 334.903 104.918 335.263C104.35 335.623 103.894 336.099 103.55 336.691C103.214 337.275 103.046 337.915 103.046 338.611V345.751H101.75ZM124.374 351.751H123.078V333.751H124.374V336.223C124.798 335.391 125.39 334.719 126.15 334.207C126.918 333.695 127.834 333.439 128.898 333.439C129.77 333.439 130.586 333.603 131.346 333.931C132.106 334.259 132.774 334.715 133.35 335.299C133.934 335.875 134.39 336.543 134.718 337.303C135.046 338.063 135.21 338.879 135.21 339.751C135.21 340.623 135.046 341.443 134.718 342.211C134.39 342.979 133.934 343.655 133.35 344.239C132.774 344.815 132.106 345.267 131.346 345.595C130.586 345.923 129.77 346.087 128.898 346.087C127.834 346.087 126.918 345.831 126.15 345.319C125.39 344.807 124.798 344.135 124.374 343.303V351.751ZM128.886 334.711C127.974 334.711 127.186 334.939 126.522 335.395C125.866 335.843 125.358 336.447 124.998 337.207C124.646 337.967 124.47 338.815 124.47 339.751C124.47 340.671 124.646 341.515 124.998 342.283C125.35 343.051 125.854 343.667 126.51 344.131C127.174 344.587 127.966 344.815 128.886 344.815C129.79 344.815 130.618 344.591 131.37 344.143C132.13 343.695 132.742 343.091 133.206 342.331C133.67 341.563 133.902 340.703 133.902 339.751C133.902 338.831 133.674 337.991 133.218 337.231C132.77 336.463 132.166 335.851 131.406 335.395C130.654 334.939 129.814 334.711 128.886 334.711ZM137.235 345.751V327.751H138.531V345.751H137.235ZM146.616 346.063C145.512 346.063 144.504 345.779 143.592 345.211C142.688 344.643 141.964 343.883 141.42 342.931C140.884 341.971 140.616 340.911 140.616 339.751C140.616 338.871 140.772 338.051 141.084 337.291C141.396 336.523 141.824 335.851 142.368 335.275C142.92 334.691 143.56 334.235 144.288 333.907C145.016 333.579 145.792 333.415 146.616 333.415C147.488 333.415 148.292 333.587 149.028 333.931C149.772 334.267 150.412 334.743 150.948 335.359C151.484 335.975 151.896 336.703 152.184 337.543C152.472 338.375 152.604 339.287 152.58 340.279H141.972C142.06 341.135 142.316 341.903 142.74 342.583C143.172 343.255 143.724 343.787 144.396 344.179C145.068 344.563 145.808 344.759 146.616 344.767C147.504 344.767 148.304 344.535 149.016 344.071C149.728 343.599 150.3 342.955 150.732 342.139L152.04 342.439C151.56 343.503 150.836 344.375 149.868 345.055C148.9 345.727 147.816 346.063 146.616 346.063ZM141.936 339.175H151.272C151.224 338.351 150.984 337.595 150.552 336.907C150.128 336.211 149.572 335.655 148.884 335.239C148.196 334.823 147.44 334.615 146.616 334.615C145.792 334.615 145.04 334.819 144.36 335.227C143.68 335.635 143.124 336.187 142.692 336.883C142.268 337.571 142.016 338.335 141.936 339.175ZM160.427 335.047H157.391L157.379 345.751H156.083L156.095 335.047H153.803V333.751H156.095L156.083 329.983H157.379L157.391 333.751H160.427V335.047ZM172.335 333.751H173.631V345.751H172.335L172.299 343.291C171.891 344.123 171.307 344.795 170.547 345.307C169.795 345.811 168.891 346.063 167.835 346.063C166.963 346.063 166.143 345.899 165.375 345.571C164.615 345.235 163.943 344.779 163.359 344.203C162.775 343.619 162.319 342.947 161.991 342.187C161.663 341.419 161.499 340.595 161.499 339.715C161.499 338.843 161.659 338.027 161.979 337.267C162.307 336.507 162.759 335.839 163.335 335.263C163.911 334.679 164.579 334.227 165.339 333.907C166.099 333.579 166.911 333.415 167.775 333.415C168.839 333.415 169.759 333.675 170.535 334.195C171.319 334.707 171.931 335.379 172.371 336.211L172.335 333.751ZM167.823 344.791C168.743 344.791 169.531 344.567 170.187 344.119C170.851 343.663 171.359 343.051 171.711 342.283C172.063 341.515 172.239 340.671 172.239 339.751C172.239 338.807 172.059 337.955 171.699 337.195C171.347 336.427 170.839 335.819 170.175 335.371C169.519 334.915 168.735 334.687 167.823 334.687C166.895 334.687 166.051 334.915 165.291 335.371C164.539 335.827 163.939 336.439 163.491 337.207C163.043 337.975 162.819 338.823 162.819 339.751C162.819 340.695 163.047 341.547 163.503 342.307C163.967 343.067 164.579 343.671 165.339 344.119C166.099 344.567 166.927 344.791 167.823 344.791ZM176.024 345.751V333.751H177.32V335.587C177.76 334.923 178.332 334.395 179.036 334.003C179.74 333.611 180.516 333.415 181.364 333.415C182.292 333.415 183.136 333.647 183.896 334.111C184.664 334.567 185.26 335.175 185.684 335.935C186.108 335.175 186.7 334.567 187.46 334.111C188.22 333.647 189.064 333.415 189.992 333.415C190.904 333.415 191.736 333.639 192.488 334.087C193.24 334.527 193.836 335.123 194.276 335.875C194.724 336.627 194.948 337.459 194.948 338.371V345.751H193.652V338.611C193.652 337.915 193.484 337.275 193.148 336.691C192.812 336.099 192.36 335.623 191.792 335.263C191.224 334.903 190.592 334.723 189.896 334.723C189.208 334.723 188.576 334.891 188 335.227C187.432 335.555 186.98 336.011 186.644 336.595C186.308 337.179 186.14 337.851 186.14 338.611V345.751H184.844V338.611C184.844 337.851 184.672 337.179 184.328 336.595C183.992 336.011 183.54 335.555 182.972 335.227C182.404 334.891 181.772 334.723 181.076 334.723C180.388 334.723 179.76 334.903 179.192 335.263C178.624 335.623 178.168 336.099 177.824 336.691C177.488 337.275 177.32 337.915 177.32 338.611V345.751H176.024ZM202.397 346.063C201.293 346.063 200.285 345.779 199.373 345.211C198.469 344.643 197.745 343.883 197.201 342.931C196.665 341.971 196.397 340.911 196.397 339.751C196.397 338.871 196.553 338.051 196.865 337.291C197.177 336.523 197.605 335.851 198.149 335.275C198.701 334.691 199.341 334.235 200.069 333.907C200.797 333.579 201.573 333.415 202.397 333.415C203.269 333.415 204.073 333.587 204.809 333.931C205.553 334.267 206.193 334.743 206.729 335.359C207.265 335.975 207.677 336.703 207.965 337.543C208.253 338.375 208.385 339.287 208.361 340.279H197.753C197.841 341.135 198.097 341.903 198.521 342.583C198.953 343.255 199.505 343.787 200.177 344.179C200.849 344.563 201.589 344.759 202.397 344.767C203.285 344.767 204.085 344.535 204.797 344.071C205.509 343.599 206.081 342.955 206.513 342.139L207.821 342.439C207.341 343.503 206.617 344.375 205.649 345.055C204.681 345.727 203.597 346.063 202.397 346.063ZM197.717 339.175H207.053C207.005 338.351 206.765 337.595 206.333 336.907C205.909 336.211 205.353 335.655 204.665 335.239C203.977 334.823 203.221 334.615 202.397 334.615C201.573 334.615 200.821 334.819 200.141 335.227C199.461 335.635 198.905 336.187 198.473 336.883C198.049 337.571 197.797 338.335 197.717 339.175ZM220.749 338.371V345.751H219.453V338.575C219.453 337.863 219.281 337.215 218.937 336.631C218.593 336.047 218.129 335.583 217.545 335.239C216.961 334.895 216.313 334.723 215.601 334.723C214.897 334.723 214.253 334.895 213.669 335.239C213.085 335.583 212.617 336.047 212.265 336.631C211.921 337.215 211.749 337.863 211.749 338.575V345.751H210.453V333.751H211.749V335.587C212.181 334.923 212.753 334.395 213.465 334.003C214.177 333.611 214.953 333.415 215.793 333.415C216.713 333.415 217.545 333.639 218.289 334.087C219.041 334.527 219.637 335.123 220.077 335.875C220.525 336.627 220.749 337.459 220.749 338.371ZM229.192 335.047H226.156L226.144 345.751H224.848L224.86 335.047H222.568V333.751H224.86L224.848 329.983H226.144L226.156 333.751H229.192V335.047ZM236.265 346.063C235.161 346.063 234.153 345.779 233.241 345.211C232.337 344.643 231.613 343.883 231.069 342.931C230.533 341.971 230.265 340.911 230.265 339.751C230.265 338.871 230.421 338.051 230.733 337.291C231.045 336.523 231.473 335.851 232.017 335.275C232.569 334.691 233.209 334.235 233.937 333.907C234.665 333.579 235.441 333.415 236.265 333.415C237.137 333.415 237.941 333.587 238.677 333.931C239.421 334.267 240.061 334.743 240.597 335.359C241.133 335.975 241.545 336.703 241.833 337.543C242.121 338.375 242.253 339.287 242.229 340.279H231.621C231.709 341.135 231.965 341.903 232.389 342.583C232.821 343.255 233.373 343.787 234.045 344.179C234.717 344.563 235.457 344.759 236.265 344.767C237.153 344.767 237.953 344.535 238.665 344.071C239.377 343.599 239.949 342.955 240.381 342.139L241.689 342.439C241.209 343.503 240.485 344.375 239.517 345.055C238.549 345.727 237.465 346.063 236.265 346.063ZM231.585 339.175H240.921C240.873 338.351 240.633 337.595 240.201 336.907C239.777 336.211 239.221 335.655 238.533 335.239C237.845 334.823 237.089 334.615 236.265 334.615C235.441 334.615 234.689 334.819 234.009 335.227C233.329 335.635 232.773 336.187 232.341 336.883C231.917 337.571 231.665 338.335 231.585 339.175ZM259.888 333.751H261.184V346.255C261.184 346.999 261.02 347.699 260.692 348.355C260.372 349.019 259.936 349.603 259.384 350.107C258.832 350.619 258.204 351.019 257.5 351.307C256.804 351.603 256.084 351.751 255.34 351.751C254.508 351.751 253.704 351.555 252.928 351.163C252.152 350.779 251.48 350.263 250.912 349.615C250.352 348.967 249.964 348.259 249.748 347.491L250.948 346.939C251.092 347.587 251.388 348.175 251.836 348.703C252.284 349.239 252.816 349.663 253.432 349.975C254.056 350.287 254.692 350.443 255.34 350.443C255.916 350.443 256.476 350.331 257.02 350.107C257.564 349.883 258.052 349.575 258.484 349.183C258.916 348.799 259.256 348.355 259.504 347.851C259.76 347.347 259.888 346.815 259.888 346.255V343.315C259.464 344.131 258.876 344.795 258.124 345.307C257.372 345.811 256.496 346.063 255.496 346.063C254.664 346.063 253.88 345.899 253.144 345.571C252.408 345.243 251.764 344.791 251.212 344.215C250.66 343.631 250.224 342.959 249.904 342.199C249.592 341.439 249.436 340.623 249.436 339.751C249.436 338.879 249.592 338.063 249.904 337.303C250.224 336.535 250.66 335.863 251.212 335.287C251.764 334.703 252.408 334.247 253.144 333.919C253.88 333.591 254.664 333.427 255.496 333.427C256.496 333.427 257.372 333.679 258.124 334.183C258.876 334.679 259.464 335.343 259.888 336.175V333.751ZM255.508 344.791C256.404 344.791 257.172 344.559 257.812 344.095C258.46 343.631 258.956 343.015 259.3 342.247C259.652 341.479 259.828 340.647 259.828 339.751C259.828 338.831 259.652 337.991 259.3 337.231C258.948 336.463 258.448 335.847 257.8 335.383C257.152 334.919 256.388 334.687 255.508 334.687C254.628 334.687 253.828 334.915 253.108 335.371C252.388 335.827 251.816 336.439 251.392 337.207C250.968 337.975 250.756 338.823 250.756 339.751C250.756 340.687 250.972 341.535 251.404 342.295C251.836 343.055 252.412 343.663 253.132 344.119C253.852 344.567 254.644 344.791 255.508 344.791ZM264.055 345.751V333.751H265.351V335.587C265.783 334.923 266.355 334.395 267.067 334.003C267.779 333.611 268.555 333.415 269.395 333.415C269.867 333.415 270.319 333.475 270.751 333.595L270.211 334.867C269.867 334.771 269.531 334.723 269.203 334.723C268.499 334.723 267.855 334.895 267.271 335.239C266.687 335.583 266.219 336.047 265.867 336.631C265.523 337.215 265.351 337.863 265.351 338.575V345.751H264.055ZM281.765 333.751H283.061V345.751H281.765L281.729 343.291C281.321 344.123 280.737 344.795 279.977 345.307C279.225 345.811 278.321 346.063 277.265 346.063C276.393 346.063 275.573 345.899 274.805 345.571C274.045 345.235 273.373 344.779 272.789 344.203C272.205 343.619 271.749 342.947 271.421 342.187C271.093 341.419 270.929 340.595 270.929 339.715C270.929 338.843 271.089 338.027 271.409 337.267C271.737 336.507 272.189 335.839 272.765 335.263C273.341 334.679 274.009 334.227 274.769 333.907C275.529 333.579 276.341 333.415 277.205 333.415C278.269 333.415 279.189 333.675 279.965 334.195C280.749 334.707 281.361 335.379 281.801 336.211L281.765 333.751ZM277.253 344.791C278.173 344.791 278.961 344.567 279.617 344.119C280.281 343.663 280.789 343.051 281.141 342.283C281.493 341.515 281.669 340.671 281.669 339.751C281.669 338.807 281.489 337.955 281.129 337.195C280.777 336.427 280.269 335.819 279.605 335.371C278.949 334.915 278.165 334.687 277.253 334.687C276.325 334.687 275.481 334.915 274.721 335.371C273.969 335.827 273.369 336.439 272.921 337.207C272.473 337.975 272.249 338.823 272.249 339.751C272.249 340.695 272.477 341.547 272.933 342.307C273.397 343.067 274.009 343.671 274.769 344.119C275.529 344.567 276.357 344.791 277.253 344.791ZM291.489 335.047H288.453L288.441 345.751H287.145L287.157 335.047H284.865V333.751H287.157L287.145 329.983H288.441L288.453 333.751H291.489V335.047ZM293.563 333.751H294.859V345.751H293.563V333.751ZM294.223 331.483C293.999 331.483 293.807 331.411 293.647 331.267C293.495 331.115 293.419 330.927 293.419 330.703C293.419 330.479 293.495 330.295 293.647 330.151C293.807 329.999 293.999 329.923 294.223 329.923C294.439 329.923 294.623 329.999 294.775 330.151C294.935 330.295 295.015 330.479 295.015 330.703C295.015 330.927 294.939 331.115 294.787 331.267C294.635 331.411 294.447 331.483 294.223 331.483ZM301.42 345.979C300.756 345.971 300.104 345.855 299.464 345.631C298.832 345.399 298.28 345.091 297.808 344.707C297.336 344.323 297.008 343.887 296.824 343.399L297.964 342.907C298.1 343.267 298.36 343.591 298.744 343.879C299.136 344.167 299.576 344.395 300.064 344.563C300.56 344.723 301.044 344.803 301.516 344.803C302.052 344.803 302.556 344.711 303.028 344.527C303.5 344.343 303.884 344.083 304.18 343.747C304.476 343.411 304.624 343.015 304.624 342.559C304.624 342.079 304.468 341.703 304.156 341.431C303.844 341.151 303.444 340.927 302.956 340.759C302.476 340.583 301.98 340.419 301.468 340.267C300.588 340.011 299.824 339.751 299.176 339.487C298.536 339.215 298.04 338.871 297.688 338.455C297.336 338.039 297.16 337.491 297.16 336.811C297.16 336.107 297.364 335.495 297.772 334.975C298.18 334.455 298.716 334.055 299.38 333.775C300.044 333.487 300.756 333.343 301.516 333.343C302.5 333.343 303.392 333.559 304.192 333.991C305 334.423 305.568 334.991 305.896 335.695L304.84 336.319C304.68 335.951 304.428 335.635 304.084 335.371C303.74 335.107 303.348 334.903 302.908 334.759C302.468 334.615 302.024 334.539 301.576 334.531C301.016 334.523 300.492 334.611 300.004 334.795C299.524 334.971 299.136 335.231 298.84 335.575C298.544 335.911 298.396 336.319 298.396 336.799C298.396 337.279 298.532 337.647 298.804 337.903C299.076 338.159 299.456 338.367 299.944 338.527C300.432 338.679 300.996 338.859 301.636 339.067C302.38 339.299 303.072 339.559 303.712 339.847C304.36 340.127 304.88 340.479 305.272 340.903C305.672 341.327 305.868 341.875 305.86 342.547C305.86 343.251 305.648 343.863 305.224 344.383C304.808 344.903 304.26 345.303 303.58 345.583C302.908 345.863 302.188 345.995 301.42 345.979ZM308.206 346.063C307.99 346.063 307.806 345.983 307.654 345.823C307.502 345.671 307.426 345.483 307.426 345.259C307.426 345.051 307.502 344.871 307.654 344.719C307.806 344.559 307.99 344.479 308.206 344.479C308.43 344.479 308.618 344.559 308.77 344.719C308.93 344.871 309.01 345.051 309.01 345.259C309.01 345.483 308.93 345.671 308.77 345.823C308.618 345.983 308.43 346.063 308.206 346.063Z" fill="white"/>
<defs>
<linearGradient id="paint0_linear_240_16" x1="174.131" y1="131.593" x2="211.181" y2="152.985" gradientUnits="userSpaceOnUse">
<stop offset="0.29" stop-color="#F56D50"/>
<stop offset="0.99" stop-color="#F57438"/>
</linearGradient>
<linearGradient id="paint1_linear_240_16" x1="185.416" y1="139.947" x2="194.9" y2="149.579" gradientUnits="userSpaceOnUse">
<stop offset="0.29" stop-color="#F56D50"/>
<stop offset="0.99" stop-color="#F57438"/>
</linearGradient>
<linearGradient id="paint2_linear_240_16" x1="147.535" y1="103.785" x2="238.977" y2="155.267" gradientUnits="userSpaceOnUse">
<stop offset="0.29" stop-color="#F56D50"/>
<stop offset="0.99" stop-color="#F57438"/>
</linearGradient>
<linearGradient id="paint3_linear_240_16" x1="149.348" y1="128.741" x2="155.947" y2="155.794" gradientUnits="userSpaceOnUse">
<stop offset="0.29" stop-color="#F56D50"/>
<stop offset="0.99" stop-color="#F57438"/>
</linearGradient>
</defs>
</svg>
