<svg width="386" height="401" viewBox="0 0 386 401" fill="none" xmlns="http://www.w3.org/2000/svg">
<rect width="385.261" height="401" rx="59" fill="black" fill-opacity="0.53"/>
<path d="M192.631 159.447C198.311 159.447 203.758 157.19 207.775 153.174C211.791 149.157 214.047 143.71 214.047 138.03C214.047 132.35 211.791 126.902 207.775 122.886C203.758 118.869 198.311 116.613 192.631 116.613C186.95 116.613 181.503 118.869 177.486 122.886C173.47 126.902 171.214 132.35 171.214 138.03C171.214 143.71 173.47 149.157 177.486 153.174C181.503 157.19 186.95 159.447 192.631 159.447Z" stroke="url(#paint0_linear_240_16)" stroke-width="8.03135" stroke-miterlimit="10" stroke-linecap="round" stroke-linejoin="round"/>
<path d="M184.278 138.565L187.758 142.046C188.775 143.063 190.435 143.063 191.453 142.099L200.983 133.318" stroke="url(#paint1_linear_240_16)" stroke-width="8.03135" stroke-linecap="round" stroke-linejoin="round"/>
<path d="M171.214 94.1254V89.842C171.214 80.365 171.214 72.7085 188.347 72.7085H196.914C214.047 72.7085 214.047 80.365 214.047 89.842V94.1254M171.214 179.793H214.047C235.571 179.793 239.427 171.173 240.551 160.679L244.567 117.845C246.012 104.78 242.264 94.1254 219.402 94.1254H165.859C142.997 94.1254 139.249 104.78 140.694 117.845L144.71 160.679C145.835 171.173 149.69 179.793 171.214 179.793Z" stroke="url(#paint2_linear_240_16)" stroke-width="8.03135" stroke-miterlimit="10" stroke-linecap="round" stroke-linejoin="round"/>
<path d="M244.299 120.897C235.232 127.501 224.98 132.3 214.101 135.032M142.408 122.342C151.349 128.446 161.094 132.783 171.214 135.246" stroke="url(#paint3_linear_240_16)" stroke-width="8.03135" stroke-miterlimit="10" stroke-linecap="round" stroke-linejoin="round"/>
<path d="M84.6797 224.614C83.6397 224.614 82.6917 224.358 81.8357 223.846C80.9877 223.342 80.3077 222.666 79.7957 221.818C79.2917 220.97 79.0397 220.03 79.0397 218.998C79.0397 217.934 79.2997 216.954 79.8197 216.058C80.3397 215.154 81.0477 214.466 81.9437 213.994C82.2317 213.842 82.4557 213.63 82.6157 213.358C82.7757 213.078 82.8557 212.774 82.8557 212.446H86.1677C86.1677 213.382 85.9317 214.246 85.4597 215.038C84.9877 215.83 84.3357 216.454 83.5037 216.91C83.1437 217.094 82.8597 217.374 82.6517 217.75C82.4517 218.126 82.3517 218.542 82.3517 218.998C82.3517 219.422 82.4557 219.81 82.6637 220.162C82.8717 220.514 83.1517 220.79 83.5037 220.99C83.8637 221.198 84.2557 221.302 84.6797 221.302C85.1037 221.302 85.4917 221.198 85.8437 220.99C86.2037 220.79 86.4877 220.514 86.6957 220.162C86.9037 219.81 87.0077 219.422 87.0077 218.998H90.3197C90.3197 220.03 90.0637 220.97 89.5517 221.818C89.0477 222.666 88.3677 223.342 87.5117 223.846C86.6637 224.358 85.7197 224.614 84.6797 224.614ZM84.3557 210.538C83.8997 210.538 83.5077 210.378 83.1797 210.058C82.8597 209.73 82.6997 209.338 82.6997 208.882C82.6997 208.402 82.8597 208.002 83.1797 207.682C83.5077 207.354 83.8997 207.19 84.3557 207.19C84.8197 207.19 85.2117 207.354 85.5317 207.682C85.8597 208.002 86.0237 208.402 86.0237 208.882C86.0237 209.338 85.8597 209.73 85.5317 210.058C85.2117 210.378 84.8197 210.538 84.3557 210.538ZM99.2684 219.814C98.3244 219.814 97.4204 219.666 96.5564 219.37C95.7004 219.074 94.9484 218.646 94.3004 218.086C93.6604 217.526 93.2004 216.862 92.9204 216.094L96.0284 214.942C96.1244 215.214 96.3244 215.47 96.6284 215.71C96.9324 215.942 97.3124 216.134 97.7684 216.286C98.2244 216.43 98.7244 216.502 99.2684 216.502C99.7884 216.502 100.276 216.426 100.732 216.274C101.196 216.114 101.568 215.894 101.848 215.614C102.136 215.334 102.28 215.006 102.28 214.63C102.28 214.254 102.132 213.942 101.836 213.694C101.54 213.446 101.16 213.25 100.696 213.106C100.232 212.954 99.7564 212.838 99.2684 212.758C98.0604 212.582 96.9764 212.298 96.0164 211.906C95.0644 211.506 94.3124 210.958 93.7604 210.262C93.2084 209.558 92.9324 208.666 92.9324 207.586C92.9324 206.546 93.2244 205.638 93.8084 204.862C94.4004 204.086 95.1764 203.482 96.1364 203.05C97.1044 202.618 98.1484 202.402 99.2684 202.402C100.196 202.402 101.092 202.55 101.956 202.846C102.82 203.142 103.572 203.57 104.212 204.13C104.86 204.69 105.324 205.362 105.604 206.146L102.496 207.274C102.4 207.002 102.2 206.75 101.896 206.518C101.592 206.286 101.212 206.098 100.756 205.954C100.3 205.81 99.8044 205.738 99.2684 205.738C98.7564 205.73 98.2684 205.806 97.8044 205.966C97.3484 206.126 96.9724 206.346 96.6764 206.626C96.3884 206.906 96.2444 207.226 96.2444 207.586C96.2444 208.058 96.3804 208.414 96.6524 208.654C96.9324 208.894 97.3004 209.066 97.7564 209.17C98.2124 209.274 98.7164 209.366 99.2684 209.446C100.404 209.614 101.452 209.914 102.412 210.346C103.372 210.77 104.14 211.338 104.716 212.05C105.3 212.754 105.592 213.614 105.592 214.63C105.592 215.67 105.3 216.578 104.716 217.354C104.132 218.13 103.36 218.734 102.4 219.166C101.44 219.598 100.396 219.814 99.2684 219.814ZM107.926 207.502H111.238V219.502H107.926V207.502ZM109.606 206.122C109.126 206.122 108.722 205.962 108.394 205.642C108.066 205.322 107.902 204.926 107.902 204.454C107.902 203.982 108.066 203.586 108.394 203.266C108.722 202.946 109.122 202.786 109.594 202.786C110.066 202.786 110.462 202.946 110.782 203.266C111.11 203.586 111.274 203.982 111.274 204.454C111.274 204.926 111.114 205.322 110.794 205.642C110.482 205.962 110.086 206.122 109.606 206.122ZM125.144 211.87V219.502H121.832V212.782C121.832 212.358 121.728 211.978 121.52 211.642C121.32 211.298 121.048 211.026 120.704 210.826C120.368 210.626 119.992 210.526 119.576 210.526C119.16 210.526 118.78 210.626 118.436 210.826C118.092 211.026 117.82 211.298 117.62 211.642C117.42 211.978 117.32 212.358 117.32 212.782V219.502H114.008L113.996 207.502H117.308L117.32 208.39C117.72 208.006 118.188 207.706 118.724 207.49C119.268 207.274 119.84 207.166 120.44 207.166C121.312 207.166 122.1 207.378 122.804 207.802C123.516 208.226 124.084 208.794 124.508 209.506C124.932 210.21 125.144 210.998 125.144 211.87ZM142.117 207.502H145.429V219.502H142.105L141.949 218.254C141.637 218.718 141.237 219.094 140.749 219.382C140.261 219.67 139.689 219.814 139.033 219.814C138.137 219.814 137.301 219.646 136.525 219.31C135.749 218.974 135.065 218.51 134.473 217.918C133.881 217.326 133.417 216.642 133.081 215.866C132.753 215.082 132.589 214.242 132.589 213.346C132.589 212.49 132.745 211.69 133.057 210.946C133.369 210.202 133.809 209.546 134.377 208.978C134.945 208.41 135.597 207.966 136.333 207.646C137.077 207.326 137.877 207.166 138.733 207.166C139.469 207.166 140.129 207.322 140.713 207.634C141.305 207.946 141.821 208.342 142.261 208.822L142.117 207.502ZM138.949 216.634C139.493 216.634 139.985 216.494 140.425 216.214C140.865 215.934 141.213 215.558 141.469 215.086C141.725 214.606 141.853 214.078 141.853 213.502C141.853 212.918 141.725 212.39 141.469 211.918C141.213 211.446 140.865 211.07 140.425 210.79C139.985 210.51 139.493 210.37 138.949 210.37C138.397 210.37 137.897 210.51 137.449 210.79C137.001 211.07 136.645 211.45 136.381 211.93C136.117 212.402 135.985 212.926 135.985 213.502C135.985 214.078 136.117 214.606 136.381 215.086C136.653 215.558 137.013 215.934 137.461 216.214C137.909 216.494 138.405 216.634 138.949 216.634ZM138.421 206.182L139.381 202.726H142.693L140.629 206.182H138.421ZM158.988 211.87V219.502H155.676V212.782C155.676 212.358 155.572 211.978 155.364 211.642C155.164 211.298 154.892 211.026 154.548 210.826C154.212 210.626 153.836 210.526 153.42 210.526C153.004 210.526 152.624 210.626 152.28 210.826C151.936 211.026 151.664 211.298 151.464 211.642C151.264 211.978 151.164 212.358 151.164 212.782V219.502H147.852L147.84 207.502H151.152L151.164 208.39C151.564 208.006 152.032 207.706 152.568 207.49C153.112 207.274 153.684 207.166 154.284 207.166C155.156 207.166 155.944 207.378 156.648 207.802C157.36 208.226 157.928 208.794 158.352 209.506C158.776 210.21 158.988 210.998 158.988 211.87ZM161.387 207.502H164.699V219.502H161.387V207.502ZM163.067 206.122C162.587 206.122 162.183 205.962 161.855 205.642C161.527 205.322 161.363 204.926 161.363 204.454C161.363 203.982 161.527 203.586 161.855 203.266C162.183 202.946 162.583 202.786 163.055 202.786C163.527 202.786 163.923 202.946 164.243 203.266C164.571 203.586 164.735 203.982 164.735 204.454C164.735 204.926 164.575 205.322 164.255 205.642C163.943 205.962 163.547 206.122 163.067 206.122ZM167.457 219.502V207.502H170.769V208.39C171.177 208.006 171.649 207.706 172.185 207.49C172.721 207.274 173.289 207.166 173.889 207.166C174.705 207.166 175.453 207.354 176.133 207.73C176.821 208.106 177.373 208.606 177.789 209.23C178.213 208.606 178.765 208.106 179.445 207.73C180.125 207.354 180.869 207.166 181.677 207.166C182.549 207.166 183.337 207.378 184.041 207.802C184.753 208.226 185.321 208.794 185.745 209.506C186.169 210.21 186.381 210.998 186.381 211.87V219.502H183.069V212.782C183.069 212.366 182.965 211.99 182.757 211.654C182.557 211.31 182.289 211.038 181.953 210.838C181.617 210.63 181.241 210.526 180.825 210.526C180.409 210.526 180.029 210.626 179.685 210.826C179.349 211.026 179.077 211.298 178.869 211.642C178.669 211.978 178.569 212.358 178.569 212.782V219.502H175.257V212.782C175.257 212.358 175.157 211.978 174.957 211.642C174.757 211.298 174.485 211.026 174.141 210.826C173.805 210.626 173.429 210.526 173.013 210.526C172.605 210.526 172.229 210.63 171.885 210.838C171.549 211.038 171.277 211.31 171.069 211.654C170.869 211.99 170.769 212.366 170.769 212.782V219.502H167.457ZM193.831 219.814C192.727 219.814 191.719 219.53 190.807 218.962C189.903 218.394 189.179 217.634 188.635 216.682C188.099 215.722 187.831 214.662 187.831 213.502C187.831 212.622 187.987 211.802 188.299 211.042C188.611 210.274 189.039 209.602 189.583 209.026C190.135 208.442 190.775 207.986 191.503 207.658C192.231 207.33 193.007 207.166 193.831 207.166C194.935 207.166 195.939 207.45 196.843 208.018C197.755 208.586 198.479 209.35 199.015 210.31C199.559 211.27 199.831 212.334 199.831 213.502C199.831 214.374 199.675 215.19 199.363 215.95C199.051 216.71 198.619 217.382 198.067 217.966C197.523 218.542 196.887 218.994 196.159 219.322C195.439 219.65 194.663 219.814 193.831 219.814ZM193.831 216.502C194.343 216.502 194.803 216.366 195.211 216.094C195.619 215.814 195.939 215.446 196.171 214.99C196.403 214.534 196.519 214.038 196.519 213.502C196.519 212.95 196.395 212.446 196.147 211.99C195.907 211.526 195.583 211.158 195.175 210.886C194.767 210.614 194.319 210.478 193.831 210.478C193.327 210.478 192.871 210.618 192.463 210.898C192.055 211.178 191.731 211.546 191.491 212.002C191.259 212.458 191.143 212.958 191.143 213.502C191.143 214.07 191.263 214.582 191.503 215.038C191.751 215.486 192.079 215.842 192.487 216.106C192.895 216.37 193.343 216.502 193.831 216.502ZM216.566 201.502H219.878V219.502H216.566V218.23C216.198 218.694 215.742 219.074 215.198 219.37C214.654 219.666 214.034 219.814 213.338 219.814C212.466 219.814 211.65 219.65 210.89 219.322C210.13 218.994 209.458 218.542 208.874 217.966C208.298 217.382 207.846 216.71 207.518 215.95C207.19 215.19 207.026 214.374 207.026 213.502C207.026 212.63 207.19 211.814 207.518 211.054C207.846 210.294 208.298 209.626 208.874 209.05C209.458 208.466 210.13 208.01 210.89 207.682C211.65 207.354 212.466 207.19 213.338 207.19C214.034 207.19 214.654 207.338 215.198 207.634C215.742 207.922 216.198 208.302 216.566 208.774V201.502ZM213.386 216.634C213.93 216.634 214.422 216.494 214.862 216.214C215.302 215.934 215.65 215.558 215.906 215.086C216.162 214.606 216.29 214.078 216.29 213.502C216.29 212.918 216.162 212.39 215.906 211.918C215.65 211.446 215.302 211.07 214.862 210.79C214.422 210.51 213.93 210.37 213.386 210.37C212.834 210.37 212.334 210.51 211.886 210.79C211.438 211.07 211.082 211.45 210.818 211.93C210.554 212.402 210.422 212.926 210.422 213.502C210.422 214.078 210.554 214.606 210.818 215.086C211.09 215.558 211.45 215.934 211.898 216.214C212.346 216.494 212.842 216.634 213.386 216.634ZM227.815 219.814C226.711 219.814 225.703 219.53 224.791 218.962C223.887 218.394 223.163 217.63 222.619 216.67C222.083 215.71 221.815 214.65 221.815 213.49C221.815 212.618 221.971 211.802 222.283 211.042C222.595 210.274 223.023 209.602 223.567 209.026C224.119 208.442 224.759 207.986 225.487 207.658C226.215 207.33 226.991 207.166 227.815 207.166C228.767 207.166 229.635 207.37 230.419 207.778C231.211 208.186 231.879 208.742 232.423 209.446C232.975 210.15 233.367 210.946 233.599 211.834C233.839 212.722 233.879 213.646 233.719 214.606H225.391C225.495 214.958 225.655 215.278 225.871 215.566C226.095 215.846 226.367 216.07 226.687 216.238C227.015 216.406 227.391 216.494 227.815 216.502C228.231 216.51 228.615 216.414 228.967 216.214C229.319 216.014 229.619 215.746 229.867 215.41L233.251 216.19C232.763 217.254 232.035 218.126 231.067 218.806C230.099 219.478 229.015 219.814 227.815 219.814ZM225.271 212.158H230.371C230.267 211.758 230.091 211.398 229.843 211.078C229.595 210.758 229.295 210.506 228.943 210.322C228.599 210.138 228.223 210.046 227.815 210.046C227.415 210.046 227.039 210.138 226.687 210.322C226.343 210.506 226.047 210.758 225.799 211.078C225.559 211.39 225.383 211.75 225.271 212.158ZM241.731 219.502V201.502H245.043V219.502H241.731ZM247.438 215.11V207.502H250.75V214.198C250.75 214.622 250.85 215.006 251.05 215.35C251.258 215.686 251.534 215.954 251.878 216.154C252.222 216.354 252.598 216.454 253.006 216.454C253.422 216.454 253.802 216.354 254.146 216.154C254.49 215.954 254.762 215.686 254.962 215.35C255.162 215.006 255.262 214.622 255.262 214.198V207.502H258.574L258.586 219.502H255.274L255.262 218.59C254.862 218.974 254.39 219.274 253.846 219.49C253.31 219.706 252.742 219.814 252.142 219.814C251.278 219.814 250.49 219.602 249.778 219.178C249.066 218.754 248.498 218.19 248.074 217.486C247.65 216.774 247.438 215.982 247.438 215.11ZM267.866 215.71L270.842 217.318C270.29 218.07 269.598 218.674 268.766 219.13C267.934 219.586 267.026 219.814 266.042 219.814C264.938 219.814 263.93 219.53 263.018 218.962C262.114 218.394 261.39 217.634 260.846 216.682C260.31 215.722 260.042 214.662 260.042 213.502C260.042 212.622 260.198 211.802 260.51 211.042C260.822 210.274 261.25 209.602 261.794 209.026C262.346 208.442 262.986 207.986 263.714 207.658C264.442 207.33 265.218 207.166 266.042 207.166C267.026 207.166 267.934 207.394 268.766 207.85C269.598 208.306 270.29 208.918 270.842 209.686L267.866 211.294C267.618 211.03 267.334 210.83 267.014 210.694C266.702 210.55 266.378 210.478 266.042 210.478C265.53 210.478 265.07 210.618 264.662 210.898C264.262 211.178 263.942 211.55 263.702 212.014C263.47 212.47 263.354 212.966 263.354 213.502C263.354 214.03 263.474 214.522 263.714 214.978C263.954 215.434 264.274 215.802 264.674 216.082C265.082 216.362 265.538 216.502 266.042 216.502C266.386 216.502 266.714 216.43 267.026 216.286C267.338 216.142 267.618 215.95 267.866 215.71ZM273.008 219.502L272.996 207.502H276.308L276.32 208.39C276.72 208.006 277.188 207.706 277.724 207.49C278.268 207.274 278.84 207.166 279.44 207.166C279.88 207.166 280.32 207.23 280.76 207.358L279.452 210.706C279.164 210.586 278.872 210.526 278.576 210.526C278.16 210.526 277.78 210.626 277.436 210.826C277.092 211.026 276.82 211.298 276.62 211.642C276.42 211.978 276.32 212.358 276.32 212.782V219.502H273.008ZM286.784 219.814C285.68 219.814 284.672 219.53 283.76 218.962C282.856 218.394 282.132 217.634 281.588 216.682C281.052 215.722 280.784 214.662 280.784 213.502C280.784 212.622 280.94 211.802 281.252 211.042C281.564 210.274 281.992 209.602 282.536 209.026C283.088 208.442 283.728 207.986 284.456 207.658C285.184 207.33 285.96 207.166 286.784 207.166C287.888 207.166 288.892 207.45 289.796 208.018C290.708 208.586 291.432 209.35 291.968 210.31C292.512 211.27 292.784 212.334 292.784 213.502C292.784 214.374 292.628 215.19 292.316 215.95C292.004 216.71 291.572 217.382 291.02 217.966C290.476 218.542 289.84 218.994 289.112 219.322C288.392 219.65 287.616 219.814 286.784 219.814ZM286.784 216.502C287.296 216.502 287.756 216.366 288.164 216.094C288.572 215.814 288.892 215.446 289.124 214.99C289.356 214.534 289.472 214.038 289.472 213.502C289.472 212.95 289.348 212.446 289.1 211.99C288.86 211.526 288.536 211.158 288.128 210.886C287.72 210.614 287.272 210.478 286.784 210.478C286.28 210.478 285.824 210.618 285.416 210.898C285.008 211.178 284.684 211.546 284.444 212.002C284.212 212.458 284.096 212.958 284.096 213.502C284.096 214.07 284.216 214.582 284.456 215.038C284.704 215.486 285.032 215.842 285.44 216.106C285.848 216.37 286.296 216.502 286.784 216.502ZM298.606 214.558C298.606 213.614 298.842 212.75 299.314 211.966C299.786 211.174 300.438 210.55 301.27 210.094C301.63 209.902 301.91 209.622 302.11 209.254C302.318 208.878 302.422 208.462 302.422 208.006C302.422 207.582 302.318 207.194 302.11 206.842C301.902 206.49 301.618 206.214 301.258 206.014C300.906 205.806 300.518 205.702 300.094 205.702C299.67 205.702 299.278 205.806 298.918 206.014C298.566 206.214 298.286 206.49 298.078 206.842C297.87 207.194 297.766 207.582 297.766 208.006H294.454C294.454 206.974 294.706 206.034 295.21 205.186C295.722 204.338 296.402 203.662 297.25 203.158C298.106 202.646 299.054 202.39 300.094 202.39C301.134 202.39 302.078 202.646 302.926 203.158C303.782 203.662 304.462 204.338 304.966 205.186C305.478 206.034 305.734 206.974 305.734 208.006C305.734 209.07 305.474 210.05 304.954 210.946C304.442 211.842 303.734 212.53 302.83 213.01C302.542 213.162 302.318 213.374 302.158 213.646C301.998 213.918 301.918 214.222 301.918 214.558H298.606ZM300.418 219.814C299.946 219.814 299.546 219.65 299.218 219.322C298.898 218.994 298.738 218.594 298.738 218.122C298.738 217.658 298.898 217.266 299.218 216.946C299.546 216.626 299.946 216.466 300.418 216.466C300.874 216.466 301.262 216.626 301.582 216.946C301.91 217.266 302.074 217.658 302.074 218.122C302.074 218.594 301.91 218.994 301.582 219.322C301.262 219.65 300.874 219.814 300.418 219.814Z" fill="white"/>
<path d="M94.246 254.814C93.358 254.814 92.498 254.678 91.666 254.406C90.834 254.126 90.106 253.734 89.482 253.23C88.866 252.718 88.434 252.106 88.186 251.394L89.398 250.938C89.59 251.482 89.938 251.95 90.442 252.342C90.954 252.726 91.542 253.018 92.206 253.218C92.878 253.418 93.558 253.518 94.246 253.518C95.062 253.518 95.826 253.378 96.538 253.098C97.25 252.818 97.826 252.43 98.266 251.934C98.706 251.43 98.926 250.834 98.926 250.146C98.926 249.458 98.698 248.894 98.242 248.454C97.786 248.006 97.198 247.654 96.478 247.398C95.766 247.134 95.022 246.93 94.246 246.786C93.11 246.586 92.094 246.322 91.198 245.994C90.302 245.658 89.59 245.186 89.062 244.578C88.542 243.97 88.282 243.154 88.282 242.13C88.282 241.178 88.558 240.354 89.11 239.658C89.67 238.962 90.402 238.422 91.306 238.038C92.21 237.654 93.19 237.462 94.246 237.462C95.102 237.462 95.942 237.598 96.766 237.87C97.59 238.134 98.318 238.522 98.95 239.034C99.582 239.546 100.038 240.17 100.318 240.906L99.082 241.35C98.89 240.798 98.542 240.33 98.038 239.946C97.534 239.562 96.946 239.27 96.274 239.07C95.61 238.87 94.934 238.77 94.246 238.77C93.422 238.762 92.654 238.902 91.942 239.19C91.238 239.47 90.666 239.862 90.226 240.366C89.794 240.87 89.578 241.458 89.578 242.13C89.578 242.906 89.782 243.506 90.19 243.93C90.598 244.354 91.154 244.674 91.858 244.89C92.562 245.098 93.358 245.286 94.246 245.454C95.302 245.638 96.282 245.922 97.186 246.306C98.098 246.682 98.83 247.186 99.382 247.818C99.942 248.442 100.222 249.218 100.222 250.146C100.222 251.09 99.942 251.914 99.382 252.618C98.83 253.314 98.102 253.854 97.198 254.238C96.294 254.622 95.31 254.814 94.246 254.814ZM102.887 242.502H104.183V254.502H102.887V242.502ZM103.547 240.234C103.323 240.234 103.131 240.162 102.971 240.018C102.819 239.866 102.743 239.678 102.743 239.454C102.743 239.23 102.819 239.046 102.971 238.902C103.131 238.75 103.323 238.674 103.547 238.674C103.763 238.674 103.947 238.75 104.099 238.902C104.259 239.046 104.339 239.23 104.339 239.454C104.339 239.678 104.263 239.866 104.111 240.018C103.959 240.162 103.771 240.234 103.547 240.234ZM118.104 254.814C117 254.814 115.992 254.53 115.08 253.962C114.176 253.394 113.452 252.634 112.908 251.682C112.372 250.722 112.104 249.662 112.104 248.502C112.104 247.622 112.26 246.802 112.572 246.042C112.884 245.274 113.312 244.602 113.856 244.026C114.408 243.442 115.048 242.986 115.776 242.658C116.504 242.33 117.28 242.166 118.104 242.166C118.976 242.166 119.78 242.338 120.516 242.682C121.26 243.018 121.9 243.494 122.436 244.11C122.972 244.726 123.384 245.454 123.672 246.294C123.96 247.126 124.092 248.038 124.068 249.03H113.46C113.548 249.886 113.804 250.654 114.228 251.334C114.66 252.006 115.212 252.538 115.884 252.93C116.556 253.314 117.296 253.51 118.104 253.518C118.992 253.518 119.792 253.286 120.504 252.822C121.216 252.35 121.788 251.706 122.22 250.89L123.528 251.19C123.048 252.254 122.324 253.126 121.356 253.806C120.388 254.478 119.304 254.814 118.104 254.814ZM113.424 247.926H122.76C122.712 247.102 122.472 246.346 122.04 245.658C121.616 244.962 121.06 244.406 120.372 243.99C119.684 243.574 118.928 243.366 118.104 243.366C117.28 243.366 116.528 243.57 115.848 243.978C115.168 244.386 114.612 244.938 114.18 245.634C113.756 246.322 113.504 247.086 113.424 247.926ZM129.916 254.73C129.252 254.722 128.6 254.606 127.96 254.382C127.328 254.15 126.776 253.842 126.304 253.458C125.832 253.074 125.504 252.638 125.32 252.15L126.46 251.658C126.596 252.018 126.856 252.342 127.24 252.63C127.632 252.918 128.072 253.146 128.56 253.314C129.056 253.474 129.54 253.554 130.012 253.554C130.548 253.554 131.052 253.462 131.524 253.278C131.996 253.094 132.38 252.834 132.676 252.498C132.972 252.162 133.12 251.766 133.12 251.31C133.12 250.83 132.964 250.454 132.652 250.182C132.34 249.902 131.94 249.678 131.452 249.51C130.972 249.334 130.476 249.17 129.964 249.018C129.084 248.762 128.32 248.502 127.672 248.238C127.032 247.966 126.536 247.622 126.184 247.206C125.832 246.79 125.656 246.242 125.656 245.562C125.656 244.858 125.86 244.246 126.268 243.726C126.676 243.206 127.212 242.806 127.876 242.526C128.54 242.238 129.252 242.094 130.012 242.094C130.996 242.094 131.888 242.31 132.688 242.742C133.496 243.174 134.064 243.742 134.392 244.446L133.336 245.07C133.176 244.702 132.924 244.386 132.58 244.122C132.236 243.858 131.844 243.654 131.404 243.51C130.964 243.366 130.52 243.29 130.072 243.282C129.512 243.274 128.988 243.362 128.5 243.546C128.02 243.722 127.632 243.982 127.336 244.326C127.04 244.662 126.892 245.07 126.892 245.55C126.892 246.03 127.028 246.398 127.3 246.654C127.572 246.91 127.952 247.118 128.44 247.278C128.928 247.43 129.492 247.61 130.132 247.818C130.876 248.05 131.568 248.31 132.208 248.598C132.856 248.878 133.376 249.23 133.768 249.654C134.168 250.078 134.364 250.626 134.356 251.298C134.356 252.002 134.144 252.614 133.72 253.134C133.304 253.654 132.756 254.054 132.076 254.334C131.404 254.614 130.684 254.746 129.916 254.73ZM142.462 243.798H139.426L139.414 254.502H138.118L138.13 243.798H135.838V242.502H138.13L138.118 238.734H139.414L139.426 242.502H142.462V243.798ZM149.534 254.814C148.43 254.814 147.422 254.53 146.51 253.962C145.606 253.394 144.882 252.634 144.338 251.682C143.802 250.722 143.534 249.662 143.534 248.502C143.534 247.622 143.69 246.802 144.002 246.042C144.314 245.274 144.742 244.602 145.286 244.026C145.838 243.442 146.478 242.986 147.206 242.658C147.934 242.33 148.71 242.166 149.534 242.166C150.406 242.166 151.21 242.338 151.946 242.682C152.69 243.018 153.33 243.494 153.866 244.11C154.402 244.726 154.814 245.454 155.102 246.294C155.39 247.126 155.522 248.038 155.498 249.03H144.89C144.978 249.886 145.234 250.654 145.658 251.334C146.09 252.006 146.642 252.538 147.314 252.93C147.986 253.314 148.726 253.51 149.534 253.518C150.422 253.518 151.222 253.286 151.934 252.822C152.646 252.35 153.218 251.706 153.65 250.89L154.958 251.19C154.478 252.254 153.754 253.126 152.786 253.806C151.818 254.478 150.734 254.814 149.534 254.814ZM144.854 247.926H154.19C154.142 247.102 153.902 246.346 153.47 245.658C153.046 244.962 152.49 244.406 151.802 243.99C151.114 243.574 150.358 243.366 149.534 243.366C148.71 243.366 147.958 243.57 147.278 243.978C146.598 244.386 146.042 244.938 145.61 245.634C145.186 246.322 144.934 247.086 144.854 247.926ZM168.706 254.814C167.602 254.814 166.594 254.53 165.682 253.962C164.778 253.394 164.054 252.634 163.51 251.682C162.974 250.722 162.706 249.662 162.706 248.502C162.706 247.622 162.862 246.802 163.174 246.042C163.486 245.274 163.914 244.602 164.458 244.026C165.01 243.442 165.65 242.986 166.378 242.658C167.106 242.33 167.882 242.166 168.706 242.166C169.578 242.166 170.382 242.338 171.118 242.682C171.862 243.018 172.502 243.494 173.038 244.11C173.574 244.726 173.986 245.454 174.274 246.294C174.562 247.126 174.694 248.038 174.67 249.03H164.062C164.15 249.886 164.406 250.654 164.83 251.334C165.262 252.006 165.814 252.538 166.486 252.93C167.158 253.314 167.898 253.51 168.706 253.518C169.594 253.518 170.394 253.286 171.106 252.822C171.818 252.35 172.39 251.706 172.822 250.89L174.13 251.19C173.65 252.254 172.926 253.126 171.958 253.806C170.99 254.478 169.906 254.814 168.706 254.814ZM164.026 247.926H173.362C173.314 247.102 173.074 246.346 172.642 245.658C172.218 244.962 171.662 244.406 170.974 243.99C170.286 243.574 169.53 243.366 168.706 243.366C167.882 243.366 167.13 243.57 166.45 243.978C165.77 244.386 165.214 244.938 164.782 245.634C164.358 246.322 164.106 247.086 164.026 247.926ZM180.518 254.73C179.854 254.722 179.202 254.606 178.562 254.382C177.93 254.15 177.378 253.842 176.906 253.458C176.434 253.074 176.106 252.638 175.922 252.15L177.062 251.658C177.198 252.018 177.458 252.342 177.842 252.63C178.234 252.918 178.674 253.146 179.162 253.314C179.658 253.474 180.142 253.554 180.614 253.554C181.15 253.554 181.654 253.462 182.126 253.278C182.598 253.094 182.982 252.834 183.278 252.498C183.574 252.162 183.722 251.766 183.722 251.31C183.722 250.83 183.566 250.454 183.254 250.182C182.942 249.902 182.542 249.678 182.054 249.51C181.574 249.334 181.078 249.17 180.566 249.018C179.686 248.762 178.922 248.502 178.274 248.238C177.634 247.966 177.138 247.622 176.786 247.206C176.434 246.79 176.258 246.242 176.258 245.562C176.258 244.858 176.462 244.246 176.87 243.726C177.278 243.206 177.814 242.806 178.478 242.526C179.142 242.238 179.854 242.094 180.614 242.094C181.598 242.094 182.49 242.31 183.29 242.742C184.098 243.174 184.666 243.742 184.994 244.446L183.938 245.07C183.778 244.702 183.526 244.386 183.182 244.122C182.838 243.858 182.446 243.654 182.006 243.51C181.566 243.366 181.122 243.29 180.674 243.282C180.114 243.274 179.59 243.362 179.102 243.546C178.622 243.722 178.234 243.982 177.938 244.326C177.642 244.662 177.494 245.07 177.494 245.55C177.494 246.03 177.63 246.398 177.902 246.654C178.174 246.91 178.554 247.118 179.042 247.278C179.53 247.43 180.094 247.61 180.734 247.818C181.478 248.05 182.17 248.31 182.81 248.598C183.458 248.878 183.978 249.23 184.37 249.654C184.77 250.078 184.966 250.626 184.958 251.298C184.958 252.002 184.746 252.614 184.322 253.134C183.906 253.654 183.358 254.054 182.678 254.334C182.006 254.614 181.286 254.746 180.518 254.73ZM198.829 243.798H195.793L195.781 254.502H194.485L194.497 243.798H192.205V242.502H194.497L194.485 238.734H195.781L195.793 242.502H198.829V243.798ZM200.493 249.858V242.502H201.789V249.654C201.789 250.366 201.961 251.014 202.305 251.598C202.657 252.182 203.125 252.646 203.709 252.99C204.293 253.334 204.937 253.506 205.641 253.506C206.353 253.506 206.997 253.334 207.573 252.99C208.157 252.646 208.621 252.182 208.965 251.598C209.317 251.014 209.493 250.366 209.493 249.654V242.502H210.789V254.502H209.493V252.642C209.061 253.298 208.489 253.826 207.777 254.226C207.073 254.618 206.297 254.814 205.449 254.814C204.537 254.814 203.705 254.594 202.953 254.154C202.201 253.706 201.601 253.106 201.153 252.354C200.713 251.602 200.493 250.77 200.493 249.858ZM227.865 251.682L229.017 252.306C228.473 253.066 227.781 253.674 226.941 254.13C226.109 254.586 225.205 254.814 224.229 254.814C223.125 254.814 222.117 254.53 221.205 253.962C220.301 253.394 219.577 252.634 219.033 251.682C218.497 250.722 218.229 249.662 218.229 248.502C218.229 247.622 218.385 246.802 218.697 246.042C219.009 245.274 219.437 244.602 219.981 244.026C220.533 243.442 221.173 242.986 221.901 242.658C222.629 242.33 223.405 242.166 224.229 242.166C225.205 242.166 226.109 242.394 226.941 242.85C227.781 243.306 228.473 243.918 229.017 244.686L227.865 245.298C227.409 244.706 226.857 244.254 226.209 243.942C225.561 243.622 224.901 243.462 224.229 243.462C223.349 243.462 222.553 243.694 221.841 244.158C221.129 244.614 220.565 245.226 220.149 245.994C219.733 246.754 219.525 247.59 219.525 248.502C219.525 249.422 219.737 250.262 220.161 251.022C220.585 251.782 221.153 252.39 221.865 252.846C222.577 253.294 223.365 253.518 224.229 253.518C224.957 253.518 225.641 253.346 226.281 253.002C226.921 252.658 227.449 252.218 227.865 251.682ZM241.206 242.502H242.502V254.502H241.206L241.17 252.042C240.762 252.874 240.178 253.546 239.418 254.058C238.666 254.562 237.762 254.814 236.706 254.814C235.834 254.814 235.014 254.65 234.246 254.322C233.486 253.986 232.814 253.53 232.23 252.954C231.646 252.37 231.19 251.698 230.862 250.938C230.534 250.17 230.37 249.346 230.37 248.466C230.37 247.594 230.53 246.778 230.85 246.018C231.178 245.258 231.63 244.59 232.206 244.014C232.782 243.43 233.45 242.978 234.21 242.658C234.97 242.33 235.782 242.166 236.646 242.166C237.71 242.166 238.63 242.426 239.406 242.946C240.19 243.458 240.802 244.13 241.242 244.962L241.206 242.502ZM236.694 253.542C237.614 253.542 238.402 253.318 239.058 252.87C239.722 252.414 240.23 251.802 240.582 251.034C240.934 250.266 241.11 249.422 241.11 248.502C241.11 247.558 240.93 246.706 240.57 245.946C240.218 245.178 239.71 244.57 239.046 244.122C238.39 243.666 237.606 243.438 236.694 243.438C235.766 243.438 234.922 243.666 234.162 244.122C233.41 244.578 232.81 245.19 232.362 245.958C231.914 246.726 231.69 247.574 231.69 248.502C231.69 249.446 231.918 250.298 232.374 251.058C232.838 251.818 233.45 252.422 234.21 252.87C234.97 253.318 235.798 253.542 236.694 253.542ZM248.651 254.73C247.987 254.722 247.335 254.606 246.695 254.382C246.063 254.15 245.511 253.842 245.039 253.458C244.567 253.074 244.239 252.638 244.055 252.15L245.195 251.658C245.331 252.018 245.591 252.342 245.975 252.63C246.367 252.918 246.807 253.146 247.295 253.314C247.791 253.474 248.275 253.554 248.747 253.554C249.283 253.554 249.787 253.462 250.259 253.278C250.731 253.094 251.115 252.834 251.411 252.498C251.707 252.162 251.855 251.766 251.855 251.31C251.855 250.83 251.699 250.454 251.387 250.182C251.075 249.902 250.675 249.678 250.187 249.51C249.707 249.334 249.211 249.17 248.699 249.018C247.819 248.762 247.055 248.502 246.407 248.238C245.767 247.966 245.271 247.622 244.919 247.206C244.567 246.79 244.391 246.242 244.391 245.562C244.391 244.858 244.595 244.246 245.003 243.726C245.411 243.206 245.947 242.806 246.611 242.526C247.275 242.238 247.987 242.094 248.747 242.094C249.731 242.094 250.623 242.31 251.423 242.742C252.231 243.174 252.799 243.742 253.127 244.446L252.071 245.07C251.911 244.702 251.659 244.386 251.315 244.122C250.971 243.858 250.579 243.654 250.139 243.51C249.699 243.366 249.255 243.29 248.807 243.282C248.247 243.274 247.723 243.362 247.235 243.546C246.755 243.722 246.367 243.982 246.071 244.326C245.775 244.662 245.627 245.07 245.627 245.55C245.627 246.03 245.763 246.398 246.035 246.654C246.307 246.91 246.687 247.118 247.175 247.278C247.663 247.43 248.227 247.61 248.867 247.818C249.611 248.05 250.303 248.31 250.943 248.598C251.591 248.878 252.111 249.23 252.503 249.654C252.903 250.078 253.099 250.626 253.091 251.298C253.091 252.002 252.879 252.614 252.455 253.134C252.039 253.654 251.491 254.054 250.811 254.334C250.139 254.614 249.419 254.746 248.651 254.73ZM260.37 254.814C259.266 254.814 258.258 254.53 257.346 253.962C256.442 253.394 255.718 252.634 255.174 251.682C254.638 250.722 254.37 249.662 254.37 248.502C254.37 247.622 254.526 246.802 254.838 246.042C255.15 245.274 255.578 244.602 256.122 244.026C256.674 243.442 257.314 242.986 258.042 242.658C258.77 242.33 259.546 242.166 260.37 242.166C261.474 242.166 262.478 242.45 263.382 243.018C264.294 243.586 265.018 244.35 265.554 245.31C266.098 246.27 266.37 247.334 266.37 248.502C266.37 249.374 266.214 250.19 265.902 250.95C265.59 251.71 265.158 252.382 264.606 252.966C264.062 253.542 263.426 253.994 262.698 254.322C261.978 254.65 261.202 254.814 260.37 254.814ZM260.37 253.518C261.258 253.518 262.054 253.286 262.758 252.822C263.47 252.358 264.034 251.746 264.45 250.986C264.866 250.226 265.074 249.398 265.074 248.502C265.074 247.598 264.866 246.762 264.45 245.994C264.034 245.226 263.47 244.614 262.758 244.158C262.046 243.694 261.25 243.462 260.37 243.462C259.482 243.462 258.682 243.694 257.97 244.158C257.258 244.622 256.694 245.238 256.278 246.006C255.87 246.766 255.666 247.598 255.666 248.502C255.666 249.438 255.878 250.286 256.302 251.046C256.734 251.798 257.306 252.398 258.018 252.846C258.73 253.294 259.514 253.518 260.37 253.518ZM267.805 255.846L268.549 251.79H269.845L268.669 255.846H267.805ZM284.517 243.798H281.481L281.469 254.502H280.173L280.185 243.798H277.893V242.502H280.185L280.173 238.734H281.469L281.481 242.502H284.517V243.798ZM291.589 254.814C290.485 254.814 289.477 254.53 288.565 253.962C287.661 253.394 286.937 252.634 286.393 251.682C285.857 250.722 285.589 249.662 285.589 248.502C285.589 247.622 285.745 246.802 286.057 246.042C286.369 245.274 286.797 244.602 287.341 244.026C287.893 243.442 288.533 242.986 289.261 242.658C289.989 242.33 290.765 242.166 291.589 242.166C292.461 242.166 293.265 242.338 294.001 242.682C294.745 243.018 295.385 243.494 295.921 244.11C296.457 244.726 296.869 245.454 297.157 246.294C297.445 247.126 297.577 248.038 297.553 249.03H286.945C287.033 249.886 287.289 250.654 287.713 251.334C288.145 252.006 288.697 252.538 289.369 252.93C290.041 253.314 290.781 253.51 291.589 253.518C292.477 253.518 293.277 253.286 293.989 252.822C294.701 252.35 295.273 251.706 295.705 250.89L297.013 251.19C296.533 252.254 295.809 253.126 294.841 253.806C293.873 254.478 292.789 254.814 291.589 254.814ZM286.909 247.926H296.245C296.197 247.102 295.957 246.346 295.525 245.658C295.101 244.962 294.545 244.406 293.857 243.99C293.169 243.574 292.413 243.366 291.589 243.366C290.765 243.366 290.013 243.57 289.333 243.978C288.653 244.386 288.097 244.938 287.665 245.634C287.241 246.322 286.989 247.086 286.909 247.926ZM85.3584 271.502H86.6544V283.502H85.3584L85.3224 281.042C84.9144 281.874 84.3304 282.546 83.5704 283.058C82.8184 283.562 81.9144 283.814 80.8584 283.814C79.9864 283.814 79.1664 283.65 78.3984 283.322C77.6384 282.986 76.9664 282.53 76.3824 281.954C75.7984 281.37 75.3424 280.698 75.0144 279.938C74.6864 279.17 74.5224 278.346 74.5224 277.466C74.5224 276.594 74.6824 275.778 75.0024 275.018C75.3304 274.258 75.7824 273.59 76.3584 273.014C76.9344 272.43 77.6024 271.978 78.3624 271.658C79.1224 271.33 79.9344 271.166 80.7984 271.166C81.8624 271.166 82.7824 271.426 83.5584 271.946C84.3424 272.458 84.9544 273.13 85.3944 273.962L85.3584 271.502ZM80.8464 282.542C81.7664 282.542 82.5544 282.318 83.2104 281.87C83.8744 281.414 84.3824 280.802 84.7344 280.034C85.0864 279.266 85.2624 278.422 85.2624 277.502C85.2624 276.558 85.0824 275.706 84.7224 274.946C84.3704 274.178 83.8624 273.57 83.1984 273.122C82.5424 272.666 81.7584 272.438 80.8464 272.438C79.9184 272.438 79.0744 272.666 78.3144 273.122C77.5624 273.578 76.9624 274.19 76.5144 274.958C76.0664 275.726 75.8424 276.574 75.8424 277.502C75.8424 278.446 76.0704 279.298 76.5264 280.058C76.9904 280.818 77.6024 281.422 78.3624 281.87C79.1224 282.318 79.9504 282.542 80.8464 282.542ZM97.103 271.502H98.459L91.907 289.502H90.527L92.711 283.502L88.403 271.502H89.819L93.359 281.714L97.103 271.502ZM99.8874 278.858V271.502H101.183V278.654C101.183 279.366 101.355 280.014 101.699 280.598C102.051 281.182 102.519 281.646 103.103 281.99C103.687 282.334 104.331 282.506 105.035 282.506C105.747 282.506 106.391 282.334 106.967 281.99C107.551 281.646 108.015 281.182 108.359 280.598C108.711 280.014 108.887 279.366 108.887 278.654V271.502H110.183V283.502H108.887V281.642C108.455 282.298 107.883 282.826 107.171 283.226C106.467 283.618 105.691 283.814 104.843 283.814C103.931 283.814 103.099 283.594 102.347 283.154C101.595 282.706 100.995 282.106 100.547 281.354C100.107 280.602 99.8874 279.77 99.8874 278.858ZM122.624 265.502H123.92V283.502H122.624V281.03C122.208 281.87 121.616 282.546 120.848 283.058C120.08 283.562 119.164 283.814 118.1 283.814C117.228 283.814 116.412 283.65 115.652 283.322C114.892 282.994 114.22 282.542 113.636 281.966C113.06 281.382 112.608 280.71 112.28 279.95C111.952 279.19 111.788 278.374 111.788 277.502C111.788 276.63 111.952 275.814 112.28 275.054C112.608 274.286 113.06 273.614 113.636 273.038C114.22 272.454 114.892 271.998 115.652 271.67C116.412 271.342 117.228 271.178 118.1 271.178C119.164 271.178 120.08 271.434 120.848 271.946C121.616 272.45 122.208 273.118 122.624 273.95V265.502ZM118.112 282.542C119.032 282.542 119.82 282.318 120.476 281.87C121.14 281.414 121.648 280.802 122 280.034C122.352 279.266 122.528 278.422 122.528 277.502C122.528 276.558 122.348 275.706 121.988 274.946C121.636 274.178 121.128 273.57 120.464 273.122C119.808 272.666 119.024 272.438 118.112 272.438C117.192 272.438 116.352 272.666 115.592 273.122C114.84 273.578 114.236 274.19 113.78 274.958C113.332 275.726 113.108 276.574 113.108 277.502C113.108 278.446 113.336 279.298 113.792 280.058C114.256 280.818 114.868 281.422 115.628 281.87C116.388 282.318 117.216 282.542 118.112 282.542ZM136.851 271.502H138.147V283.502H136.851L136.815 281.042C136.407 281.874 135.823 282.546 135.063 283.058C134.311 283.562 133.407 283.814 132.351 283.814C131.479 283.814 130.659 283.65 129.891 283.322C129.131 282.986 128.459 282.53 127.875 281.954C127.291 281.37 126.835 280.698 126.507 279.938C126.179 279.17 126.015 278.346 126.015 277.466C126.015 276.594 126.175 275.778 126.495 275.018C126.823 274.258 127.275 273.59 127.851 273.014C128.427 272.43 129.095 271.978 129.855 271.658C130.615 271.33 131.427 271.166 132.291 271.166C133.355 271.166 134.275 271.426 135.051 271.946C135.835 272.458 136.447 273.13 136.887 273.962L136.851 271.502ZM132.339 282.542C133.259 282.542 134.047 282.318 134.703 281.87C135.367 281.414 135.875 280.802 136.227 280.034C136.579 279.266 136.755 278.422 136.755 277.502C136.755 276.558 136.575 275.706 136.215 274.946C135.863 274.178 135.355 273.57 134.691 273.122C134.035 272.666 133.251 272.438 132.339 272.438C131.411 272.438 130.567 272.666 129.807 273.122C129.055 273.578 128.455 274.19 128.007 274.958C127.559 275.726 127.335 276.574 127.335 277.502C127.335 278.446 127.563 279.298 128.019 280.058C128.483 280.818 129.095 281.422 129.855 281.87C130.615 282.318 131.443 282.542 132.339 282.542ZM140.539 283.502V271.502H141.835V273.338C142.267 272.674 142.839 272.146 143.551 271.754C144.263 271.362 145.039 271.166 145.879 271.166C146.351 271.166 146.803 271.226 147.235 271.346L146.695 272.618C146.351 272.522 146.015 272.474 145.687 272.474C144.983 272.474 144.339 272.646 143.755 272.99C143.171 273.334 142.703 273.798 142.351 274.382C142.007 274.966 141.835 275.614 141.835 276.326V283.502H140.539ZM153.413 283.814C152.309 283.814 151.301 283.53 150.389 282.962C149.485 282.394 148.761 281.634 148.217 280.682C147.681 279.722 147.413 278.662 147.413 277.502C147.413 276.622 147.569 275.802 147.881 275.042C148.193 274.274 148.621 273.602 149.165 273.026C149.717 272.442 150.357 271.986 151.085 271.658C151.813 271.33 152.589 271.166 153.413 271.166C154.285 271.166 155.089 271.338 155.825 271.682C156.569 272.018 157.209 272.494 157.745 273.11C158.281 273.726 158.693 274.454 158.981 275.294C159.269 276.126 159.401 277.038 159.377 278.03H148.769C148.857 278.886 149.113 279.654 149.537 280.334C149.969 281.006 150.521 281.538 151.193 281.93C151.865 282.314 152.605 282.51 153.413 282.518C154.301 282.518 155.101 282.286 155.813 281.822C156.525 281.35 157.097 280.706 157.529 279.89L158.837 280.19C158.357 281.254 157.633 282.126 156.665 282.806C155.697 283.478 154.613 283.814 153.413 283.814ZM148.733 276.926H158.069C158.021 276.102 157.781 275.346 157.349 274.658C156.925 273.962 156.369 273.406 155.681 272.99C154.993 272.574 154.237 272.366 153.413 272.366C152.589 272.366 151.837 272.57 151.157 272.978C150.477 273.386 149.921 273.938 149.489 274.634C149.065 275.322 148.813 276.086 148.733 276.926ZM161.469 283.502V271.502H162.765V273.338C163.205 272.674 163.777 272.146 164.481 271.754C165.185 271.362 165.961 271.166 166.809 271.166C167.737 271.166 168.581 271.398 169.341 271.862C170.109 272.318 170.705 272.926 171.129 273.686C171.553 272.926 172.145 272.318 172.905 271.862C173.665 271.398 174.509 271.166 175.437 271.166C176.349 271.166 177.181 271.39 177.933 271.838C178.685 272.278 179.281 272.874 179.721 273.626C180.169 274.378 180.393 275.21 180.393 276.122V283.502H179.097V276.362C179.097 275.666 178.929 275.026 178.593 274.442C178.257 273.85 177.805 273.374 177.237 273.014C176.669 272.654 176.037 272.474 175.341 272.474C174.653 272.474 174.021 272.642 173.445 272.978C172.877 273.306 172.425 273.762 172.089 274.346C171.753 274.93 171.585 275.602 171.585 276.362V283.502H170.289V276.362C170.289 275.602 170.117 274.93 169.773 274.346C169.437 273.762 168.985 273.306 168.417 272.978C167.849 272.642 167.217 272.474 166.521 272.474C165.833 272.474 165.205 272.654 164.637 273.014C164.069 273.374 163.613 273.85 163.269 274.442C162.933 275.026 162.765 275.666 162.765 276.362V283.502H161.469ZM187.843 283.814C186.739 283.814 185.731 283.53 184.819 282.962C183.915 282.394 183.191 281.634 182.647 280.682C182.111 279.722 181.843 278.662 181.843 277.502C181.843 276.622 181.999 275.802 182.311 275.042C182.623 274.274 183.051 273.602 183.595 273.026C184.147 272.442 184.787 271.986 185.515 271.658C186.243 271.33 187.019 271.166 187.843 271.166C188.947 271.166 189.951 271.45 190.855 272.018C191.767 272.586 192.491 273.35 193.027 274.31C193.571 275.27 193.843 276.334 193.843 277.502C193.843 278.374 193.687 279.19 193.375 279.95C193.063 280.71 192.631 281.382 192.079 281.966C191.535 282.542 190.899 282.994 190.171 283.322C189.451 283.65 188.675 283.814 187.843 283.814ZM187.843 282.518C188.731 282.518 189.527 282.286 190.231 281.822C190.943 281.358 191.507 280.746 191.923 279.986C192.339 279.226 192.547 278.398 192.547 277.502C192.547 276.598 192.339 275.762 191.923 274.994C191.507 274.226 190.943 273.614 190.231 273.158C189.519 272.694 188.723 272.462 187.843 272.462C186.955 272.462 186.155 272.694 185.443 273.158C184.731 273.622 184.167 274.238 183.751 275.006C183.343 275.766 183.139 276.598 183.139 277.502C183.139 278.438 183.351 279.286 183.775 280.046C184.207 280.798 184.779 281.398 185.491 281.846C186.203 282.294 186.987 282.518 187.843 282.518ZM199.678 283.73C199.014 283.722 198.362 283.606 197.722 283.382C197.09 283.15 196.538 282.842 196.066 282.458C195.594 282.074 195.266 281.638 195.082 281.15L196.222 280.658C196.358 281.018 196.618 281.342 197.002 281.63C197.394 281.918 197.834 282.146 198.322 282.314C198.818 282.474 199.302 282.554 199.774 282.554C200.31 282.554 200.814 282.462 201.286 282.278C201.758 282.094 202.142 281.834 202.438 281.498C202.734 281.162 202.882 280.766 202.882 280.31C202.882 279.83 202.726 279.454 202.414 279.182C202.102 278.902 201.702 278.678 201.214 278.51C200.734 278.334 200.238 278.17 199.726 278.018C198.846 277.762 198.082 277.502 197.434 277.238C196.794 276.966 196.298 276.622 195.946 276.206C195.594 275.79 195.418 275.242 195.418 274.562C195.418 273.858 195.622 273.246 196.03 272.726C196.438 272.206 196.974 271.806 197.638 271.526C198.302 271.238 199.014 271.094 199.774 271.094C200.758 271.094 201.65 271.31 202.45 271.742C203.258 272.174 203.826 272.742 204.154 273.446L203.098 274.07C202.938 273.702 202.686 273.386 202.342 273.122C201.998 272.858 201.606 272.654 201.166 272.51C200.726 272.366 200.282 272.29 199.834 272.282C199.274 272.274 198.75 272.362 198.262 272.546C197.782 272.722 197.394 272.982 197.098 273.326C196.802 273.662 196.654 274.07 196.654 274.55C196.654 275.03 196.79 275.398 197.062 275.654C197.334 275.91 197.714 276.118 198.202 276.278C198.69 276.43 199.254 276.61 199.894 276.818C200.638 277.05 201.33 277.31 201.97 277.598C202.618 277.878 203.138 278.23 203.53 278.654C203.93 279.078 204.126 279.626 204.118 280.298C204.118 281.002 203.906 281.614 203.482 282.134C203.066 282.654 202.518 283.054 201.838 283.334C201.166 283.614 200.446 283.746 199.678 283.73ZM222.069 271.502H223.365V283.502H222.069L222.033 281.042C221.625 281.874 221.041 282.546 220.281 283.058C219.529 283.562 218.625 283.814 217.569 283.814C216.697 283.814 215.877 283.65 215.109 283.322C214.349 282.986 213.677 282.53 213.093 281.954C212.509 281.37 212.053 280.698 211.725 279.938C211.397 279.17 211.233 278.346 211.233 277.466C211.233 276.594 211.393 275.778 211.713 275.018C212.041 274.258 212.493 273.59 213.069 273.014C213.645 272.43 214.313 271.978 215.073 271.658C215.833 271.33 216.645 271.166 217.509 271.166C218.573 271.166 219.493 271.426 220.269 271.946C221.053 272.458 221.665 273.13 222.105 273.962L222.069 271.502ZM217.557 282.542C218.477 282.542 219.265 282.318 219.921 281.87C220.585 281.414 221.093 280.802 221.445 280.034C221.797 279.266 221.973 278.422 221.973 277.502C221.973 276.558 221.793 275.706 221.433 274.946C221.081 274.178 220.573 273.57 219.909 273.122C219.253 272.666 218.469 272.438 217.557 272.438C216.629 272.438 215.785 272.666 215.025 273.122C214.273 273.578 213.673 274.19 213.225 274.958C212.777 275.726 212.553 276.574 212.553 277.502C212.553 278.446 212.781 279.298 213.237 280.058C213.701 280.818 214.313 281.422 215.073 281.87C215.833 282.318 216.661 282.542 217.557 282.542ZM231.524 283.502V265.502H232.82V283.502H231.524ZM235.696 283.502V265.502H236.992V283.502H235.696ZM245.077 283.814C243.973 283.814 242.965 283.53 242.053 282.962C241.149 282.394 240.425 281.634 239.881 280.682C239.345 279.722 239.077 278.662 239.077 277.502C239.077 276.622 239.233 275.802 239.545 275.042C239.857 274.274 240.285 273.602 240.829 273.026C241.381 272.442 242.021 271.986 242.749 271.658C243.477 271.33 244.253 271.166 245.077 271.166C245.949 271.166 246.753 271.338 247.489 271.682C248.233 272.018 248.873 272.494 249.409 273.11C249.945 273.726 250.357 274.454 250.645 275.294C250.933 276.126 251.065 277.038 251.041 278.03H240.433C240.521 278.886 240.777 279.654 241.201 280.334C241.633 281.006 242.185 281.538 242.857 281.93C243.529 282.314 244.269 282.51 245.077 282.518C245.965 282.518 246.765 282.286 247.477 281.822C248.189 281.35 248.761 280.706 249.193 279.89L250.501 280.19C250.021 281.254 249.297 282.126 248.329 282.806C247.361 283.478 246.277 283.814 245.077 283.814ZM240.397 276.926H249.733C249.685 276.102 249.445 275.346 249.013 274.658C248.589 273.962 248.033 273.406 247.345 272.99C246.657 272.574 245.901 272.366 245.077 272.366C244.253 272.366 243.501 272.57 242.821 272.978C242.141 273.386 241.585 273.938 241.153 274.634C240.729 275.322 240.477 276.086 240.397 276.926ZM262.701 271.502H263.997V284.006C263.997 284.75 263.833 285.45 263.505 286.106C263.185 286.77 262.749 287.354 262.197 287.858C261.645 288.37 261.017 288.77 260.313 289.058C259.617 289.354 258.897 289.502 258.153 289.502C257.321 289.502 256.517 289.306 255.741 288.914C254.965 288.53 254.293 288.014 253.725 287.366C253.165 286.718 252.777 286.01 252.561 285.242L253.761 284.69C253.905 285.338 254.201 285.926 254.649 286.454C255.097 286.99 255.629 287.414 256.245 287.726C256.869 288.038 257.505 288.194 258.153 288.194C258.729 288.194 259.289 288.082 259.833 287.858C260.377 287.634 260.865 287.326 261.297 286.934C261.729 286.55 262.069 286.106 262.317 285.602C262.573 285.098 262.701 284.566 262.701 284.006V281.066C262.277 281.882 261.689 282.546 260.937 283.058C260.185 283.562 259.309 283.814 258.309 283.814C257.477 283.814 256.693 283.65 255.957 283.322C255.221 282.994 254.577 282.542 254.025 281.966C253.473 281.382 253.037 280.71 252.717 279.95C252.405 279.19 252.249 278.374 252.249 277.502C252.249 276.63 252.405 275.814 252.717 275.054C253.037 274.286 253.473 273.614 254.025 273.038C254.577 272.454 255.221 271.998 255.957 271.67C256.693 271.342 257.477 271.178 258.309 271.178C259.309 271.178 260.185 271.43 260.937 271.934C261.689 272.43 262.277 273.094 262.701 273.926V271.502ZM258.321 282.542C259.217 282.542 259.985 282.31 260.625 281.846C261.273 281.382 261.769 280.766 262.113 279.998C262.465 279.23 262.641 278.398 262.641 277.502C262.641 276.582 262.465 275.742 262.113 274.982C261.761 274.214 261.261 273.598 260.613 273.134C259.965 272.67 259.201 272.438 258.321 272.438C257.441 272.438 256.641 272.666 255.921 273.122C255.201 273.578 254.629 274.19 254.205 274.958C253.781 275.726 253.569 276.574 253.569 277.502C253.569 278.438 253.785 279.286 254.217 280.046C254.649 280.806 255.225 281.414 255.945 281.87C256.665 282.318 257.457 282.542 258.321 282.542ZM276.913 271.502H278.209V283.502H276.913L276.877 281.042C276.469 281.874 275.885 282.546 275.125 283.058C274.373 283.562 273.469 283.814 272.413 283.814C271.541 283.814 270.721 283.65 269.953 283.322C269.193 282.986 268.521 282.53 267.937 281.954C267.353 281.37 266.897 280.698 266.569 279.938C266.241 279.17 266.077 278.346 266.077 277.466C266.077 276.594 266.237 275.778 266.557 275.018C266.885 274.258 267.337 273.59 267.913 273.014C268.489 272.43 269.157 271.978 269.917 271.658C270.677 271.33 271.489 271.166 272.353 271.166C273.417 271.166 274.337 271.426 275.113 271.946C275.897 272.458 276.509 273.13 276.949 273.962L276.913 271.502ZM272.401 282.542C273.321 282.542 274.109 282.318 274.765 281.87C275.429 281.414 275.937 280.802 276.289 280.034C276.641 279.266 276.817 278.422 276.817 277.502C276.817 276.558 276.637 275.706 276.277 274.946C275.925 274.178 275.417 273.57 274.753 273.122C274.097 272.666 273.313 272.438 272.401 272.438C271.473 272.438 270.629 272.666 269.869 273.122C269.117 273.578 268.517 274.19 268.069 274.958C267.621 275.726 267.397 276.574 267.397 277.502C267.397 278.446 267.625 279.298 268.081 280.058C268.545 280.818 269.157 281.422 269.917 281.87C270.677 282.318 271.505 282.542 272.401 282.542ZM280.602 283.502V271.502H281.898V273.338C282.33 272.674 282.902 272.146 283.614 271.754C284.326 271.362 285.102 271.166 285.942 271.166C286.414 271.166 286.866 271.226 287.298 271.346L286.758 272.618C286.414 272.522 286.078 272.474 285.75 272.474C285.046 272.474 284.402 272.646 283.818 272.99C283.234 273.334 282.766 273.798 282.414 274.382C282.07 274.966 281.898 275.614 281.898 276.326V283.502H280.602ZM304.851 271.502H306.147V283.502H304.851L304.815 281.042C304.407 281.874 303.823 282.546 303.063 283.058C302.311 283.562 301.407 283.814 300.351 283.814C299.479 283.814 298.659 283.65 297.891 283.322C297.131 282.986 296.459 282.53 295.875 281.954C295.291 281.37 294.835 280.698 294.507 279.938C294.179 279.17 294.015 278.346 294.015 277.466C294.015 276.594 294.175 275.778 294.495 275.018C294.823 274.258 295.275 273.59 295.851 273.014C296.427 272.43 297.095 271.978 297.855 271.658C298.615 271.33 299.427 271.166 300.291 271.166C301.355 271.166 302.275 271.426 303.051 271.946C303.835 272.458 304.447 273.13 304.887 273.962L304.851 271.502ZM300.339 282.542C301.259 282.542 302.047 282.318 302.703 281.87C303.367 281.414 303.875 280.802 304.227 280.034C304.579 279.266 304.755 278.422 304.755 277.502C304.755 276.558 304.575 275.706 304.215 274.946C303.863 274.178 303.355 273.57 302.691 273.122C302.035 272.666 301.251 272.438 300.339 272.438C299.411 272.438 298.567 272.666 297.807 273.122C297.055 273.578 296.455 274.19 296.007 274.958C295.559 275.726 295.335 276.574 295.335 277.502C295.335 278.446 295.563 279.298 296.019 280.058C296.483 280.818 297.095 281.422 297.855 281.87C298.615 282.318 299.443 282.542 300.339 282.542ZM308.727 283.502V265.502H310.023V283.502H308.727ZM126.354 312.73C125.69 312.722 125.038 312.606 124.398 312.382C123.766 312.15 123.214 311.842 122.742 311.458C122.27 311.074 121.942 310.638 121.758 310.15L122.898 309.658C123.034 310.018 123.294 310.342 123.678 310.63C124.07 310.918 124.51 311.146 124.998 311.314C125.494 311.474 125.978 311.554 126.45 311.554C126.986 311.554 127.49 311.462 127.962 311.278C128.434 311.094 128.818 310.834 129.114 310.498C129.41 310.162 129.558 309.766 129.558 309.31C129.558 308.83 129.402 308.454 129.09 308.182C128.778 307.902 128.378 307.678 127.89 307.51C127.41 307.334 126.914 307.17 126.402 307.018C125.522 306.762 124.758 306.502 124.11 306.238C123.47 305.966 122.974 305.622 122.622 305.206C122.27 304.79 122.094 304.242 122.094 303.562C122.094 302.858 122.298 302.246 122.706 301.726C123.114 301.206 123.65 300.806 124.314 300.526C124.978 300.238 125.69 300.094 126.45 300.094C127.434 300.094 128.326 300.31 129.126 300.742C129.934 301.174 130.502 301.742 130.83 302.446L129.774 303.07C129.614 302.702 129.362 302.386 129.018 302.122C128.674 301.858 128.282 301.654 127.842 301.51C127.402 301.366 126.958 301.29 126.51 301.282C125.95 301.274 125.426 301.362 124.938 301.546C124.458 301.722 124.07 301.982 123.774 302.326C123.478 302.662 123.33 303.07 123.33 303.55C123.33 304.03 123.466 304.398 123.738 304.654C124.01 304.91 124.39 305.118 124.878 305.278C125.366 305.43 125.93 305.61 126.57 305.818C127.314 306.05 128.006 306.31 128.646 306.598C129.294 306.878 129.814 307.23 130.206 307.654C130.606 308.078 130.802 308.626 130.794 309.298C130.794 310.002 130.582 310.614 130.158 311.134C129.742 311.654 129.194 312.054 128.514 312.334C127.842 312.614 127.122 312.746 126.354 312.73ZM132.793 300.502H134.089V312.502H132.793V300.502ZM133.453 298.234C133.229 298.234 133.037 298.162 132.877 298.018C132.725 297.866 132.649 297.678 132.649 297.454C132.649 297.23 132.725 297.046 132.877 296.902C133.037 296.75 133.229 296.674 133.453 296.674C133.669 296.674 133.853 296.75 134.005 296.902C134.165 297.046 134.245 297.23 134.245 297.454C134.245 297.678 134.169 297.866 134.017 298.018C133.865 298.162 133.677 298.234 133.453 298.234ZM146.627 300.502H147.923V313.006C147.923 313.75 147.759 314.45 147.431 315.106C147.111 315.77 146.675 316.354 146.123 316.858C145.571 317.37 144.943 317.77 144.239 318.058C143.543 318.354 142.823 318.502 142.079 318.502C141.247 318.502 140.443 318.306 139.667 317.914C138.891 317.53 138.219 317.014 137.651 316.366C137.091 315.718 136.703 315.01 136.487 314.242L137.687 313.69C137.831 314.338 138.127 314.926 138.575 315.454C139.023 315.99 139.555 316.414 140.171 316.726C140.795 317.038 141.431 317.194 142.079 317.194C142.655 317.194 143.215 317.082 143.759 316.858C144.303 316.634 144.791 316.326 145.223 315.934C145.655 315.55 145.995 315.106 146.243 314.602C146.499 314.098 146.627 313.566 146.627 313.006V310.066C146.203 310.882 145.615 311.546 144.863 312.058C144.111 312.562 143.235 312.814 142.235 312.814C141.403 312.814 140.619 312.65 139.883 312.322C139.147 311.994 138.503 311.542 137.951 310.966C137.399 310.382 136.963 309.71 136.643 308.95C136.331 308.19 136.175 307.374 136.175 306.502C136.175 305.63 136.331 304.814 136.643 304.054C136.963 303.286 137.399 302.614 137.951 302.038C138.503 301.454 139.147 300.998 139.883 300.67C140.619 300.342 141.403 300.178 142.235 300.178C143.235 300.178 144.111 300.43 144.863 300.934C145.615 301.43 146.203 302.094 146.627 302.926V300.502ZM142.247 311.542C143.143 311.542 143.911 311.31 144.551 310.846C145.199 310.382 145.695 309.766 146.039 308.998C146.391 308.23 146.567 307.398 146.567 306.502C146.567 305.582 146.391 304.742 146.039 303.982C145.687 303.214 145.187 302.598 144.539 302.134C143.891 301.67 143.127 301.438 142.247 301.438C141.367 301.438 140.567 301.666 139.847 302.122C139.127 302.578 138.555 303.19 138.131 303.958C137.707 304.726 137.495 305.574 137.495 306.502C137.495 307.438 137.711 308.286 138.143 309.046C138.575 309.806 139.151 310.414 139.871 310.87C140.591 311.318 141.383 311.542 142.247 311.542ZM150.219 307.858V300.502H151.515V307.654C151.515 308.366 151.687 309.014 152.031 309.598C152.383 310.182 152.851 310.646 153.435 310.99C154.019 311.334 154.663 311.506 155.367 311.506C156.079 311.506 156.723 311.334 157.299 310.99C157.883 310.646 158.347 310.182 158.691 309.598C159.043 309.014 159.219 308.366 159.219 307.654V300.502H160.515V312.502H159.219V310.642C158.787 311.298 158.215 311.826 157.503 312.226C156.799 312.618 156.023 312.814 155.175 312.814C154.263 312.814 153.431 312.594 152.679 312.154C151.927 311.706 151.327 311.106 150.879 310.354C150.439 309.602 150.219 308.77 150.219 307.858ZM162.91 300.502H164.206V312.502H162.91V300.502ZM163.57 298.234C163.346 298.234 163.154 298.162 162.994 298.018C162.842 297.866 162.766 297.678 162.766 297.454C162.766 297.23 162.842 297.046 162.994 296.902C163.154 296.75 163.346 296.674 163.57 296.674C163.786 296.674 163.97 296.75 164.122 296.902C164.282 297.046 164.362 297.23 164.362 297.454C164.362 297.678 164.286 297.866 164.134 298.018C163.982 298.162 163.794 298.234 163.57 298.234ZM172.292 312.814C171.188 312.814 170.18 312.53 169.268 311.962C168.364 311.394 167.64 310.634 167.096 309.682C166.56 308.722 166.292 307.662 166.292 306.502C166.292 305.622 166.448 304.802 166.76 304.042C167.072 303.274 167.5 302.602 168.044 302.026C168.596 301.442 169.236 300.986 169.964 300.658C170.692 300.33 171.468 300.166 172.292 300.166C173.164 300.166 173.968 300.338 174.704 300.682C175.448 301.018 176.088 301.494 176.624 302.11C177.16 302.726 177.572 303.454 177.86 304.294C178.148 305.126 178.28 306.038 178.256 307.03H167.648C167.736 307.886 167.992 308.654 168.416 309.334C168.848 310.006 169.4 310.538 170.072 310.93C170.744 311.314 171.484 311.51 172.292 311.518C173.18 311.518 173.98 311.286 174.692 310.822C175.404 310.35 175.976 309.706 176.408 308.89L177.716 309.19C177.236 310.254 176.512 311.126 175.544 311.806C174.576 312.478 173.492 312.814 172.292 312.814ZM167.612 305.926H176.948C176.9 305.102 176.66 304.346 176.228 303.658C175.804 302.962 175.248 302.406 174.56 301.99C173.872 301.574 173.116 301.366 172.292 301.366C171.468 301.366 170.716 301.57 170.036 301.978C169.356 302.386 168.8 302.938 168.368 303.634C167.944 304.322 167.692 305.086 167.612 305.926ZM190.644 305.122V312.502H189.348V305.326C189.348 304.614 189.176 303.966 188.832 303.382C188.488 302.798 188.024 302.334 187.44 301.99C186.856 301.646 186.208 301.474 185.496 301.474C184.792 301.474 184.148 301.646 183.564 301.99C182.98 302.334 182.512 302.798 182.16 303.382C181.816 303.966 181.644 304.614 181.644 305.326V312.502H180.348V300.502H181.644V302.338C182.076 301.674 182.648 301.146 183.36 300.754C184.072 300.362 184.848 300.166 185.688 300.166C186.608 300.166 187.44 300.39 188.184 300.838C188.936 301.278 189.532 301.874 189.972 302.626C190.42 303.378 190.644 304.21 190.644 305.122ZM199.087 301.798H196.051L196.039 312.502H194.743L194.755 301.798H192.463V300.502H194.755L194.743 296.734H196.039L196.051 300.502H199.087V301.798ZM206.159 312.814C205.055 312.814 204.047 312.53 203.135 311.962C202.231 311.394 201.507 310.634 200.963 309.682C200.427 308.722 200.159 307.662 200.159 306.502C200.159 305.622 200.315 304.802 200.627 304.042C200.939 303.274 201.367 302.602 201.911 302.026C202.463 301.442 203.103 300.986 203.831 300.658C204.559 300.33 205.335 300.166 206.159 300.166C207.031 300.166 207.835 300.338 208.571 300.682C209.315 301.018 209.955 301.494 210.491 302.11C211.027 302.726 211.439 303.454 211.727 304.294C212.015 305.126 212.147 306.038 212.123 307.03H201.515C201.603 307.886 201.859 308.654 202.283 309.334C202.715 310.006 203.267 310.538 203.939 310.93C204.611 311.314 205.351 311.51 206.159 311.518C207.047 311.518 207.847 311.286 208.559 310.822C209.271 310.35 209.843 309.706 210.275 308.89L211.583 309.19C211.103 310.254 210.379 311.126 209.411 311.806C208.443 312.478 207.359 312.814 206.159 312.814ZM201.479 305.926H210.815C210.767 305.102 210.527 304.346 210.095 303.658C209.671 302.962 209.115 302.406 208.427 301.99C207.739 301.574 206.983 301.366 206.159 301.366C205.335 301.366 204.583 301.57 203.903 301.978C203.223 302.386 202.667 302.938 202.235 303.634C201.811 304.322 201.559 305.086 201.479 305.926ZM230.347 305.122V312.502H229.051V305.326C229.051 304.614 228.879 303.966 228.535 303.382C228.191 302.798 227.727 302.334 227.143 301.99C226.559 301.646 225.911 301.474 225.199 301.474C224.495 301.474 223.851 301.646 223.267 301.99C222.683 302.334 222.215 302.798 221.863 303.382C221.519 303.966 221.347 304.614 221.347 305.326V312.502H220.051V300.502H221.347V302.338C221.779 301.674 222.351 301.146 223.063 300.754C223.775 300.362 224.551 300.166 225.391 300.166C226.311 300.166 227.143 300.39 227.887 300.838C228.639 301.278 229.235 301.874 229.675 302.626C230.123 303.378 230.347 304.21 230.347 305.122ZM232.754 300.502H234.05V312.502H232.754V300.502ZM233.414 298.234C233.19 298.234 232.998 298.162 232.838 298.018C232.686 297.866 232.61 297.678 232.61 297.454C232.61 297.23 232.686 297.046 232.838 296.902C232.998 296.75 233.19 296.674 233.414 296.674C233.63 296.674 233.814 296.75 233.966 296.902C234.126 297.046 234.206 297.23 234.206 297.454C234.206 297.678 234.13 297.866 233.978 298.018C233.826 298.162 233.638 298.234 233.414 298.234ZM242.124 312.502H240.492L236.112 300.466H237.492L241.308 310.966L245.124 300.466H246.504L242.124 312.502ZM253.386 312.814C252.282 312.814 251.274 312.53 250.362 311.962C249.458 311.394 248.734 310.634 248.19 309.682C247.654 308.722 247.386 307.662 247.386 306.502C247.386 305.622 247.542 304.802 247.854 304.042C248.166 303.274 248.594 302.602 249.138 302.026C249.69 301.442 250.33 300.986 251.058 300.658C251.786 300.33 252.562 300.166 253.386 300.166C254.258 300.166 255.062 300.338 255.798 300.682C256.542 301.018 257.182 301.494 257.718 302.11C258.254 302.726 258.666 303.454 258.954 304.294C259.242 305.126 259.374 306.038 259.35 307.03H248.742C248.83 307.886 249.086 308.654 249.51 309.334C249.942 310.006 250.494 310.538 251.166 310.93C251.838 311.314 252.578 311.51 253.386 311.518C254.274 311.518 255.074 311.286 255.786 310.822C256.498 310.35 257.07 309.706 257.502 308.89L258.81 309.19C258.33 310.254 257.606 311.126 256.638 311.806C255.67 312.478 254.586 312.814 253.386 312.814ZM248.706 305.926H258.042C257.994 305.102 257.754 304.346 257.322 303.658C256.898 302.962 256.342 302.406 255.654 301.99C254.966 301.574 254.21 301.366 253.386 301.366C252.562 301.366 251.81 301.57 251.13 301.978C250.45 302.386 249.894 302.938 249.462 303.634C249.038 304.322 248.786 305.086 248.706 305.926ZM261.371 312.502V294.502H262.667V312.502H261.371ZM85.1662 338.682L86.3182 339.306C85.7742 340.066 85.0822 340.674 84.2422 341.13C83.4102 341.586 82.5062 341.814 81.5302 341.814C80.4262 341.814 79.4182 341.53 78.5062 340.962C77.6022 340.394 76.8782 339.634 76.3342 338.682C75.7982 337.722 75.5302 336.662 75.5302 335.502C75.5302 334.622 75.6862 333.802 75.9982 333.042C76.3102 332.274 76.7382 331.602 77.2822 331.026C77.8342 330.442 78.4742 329.986 79.2022 329.658C79.9302 329.33 80.7062 329.166 81.5302 329.166C82.5062 329.166 83.4102 329.394 84.2422 329.85C85.0822 330.306 85.7742 330.918 86.3182 331.686L85.1662 332.298C84.7102 331.706 84.1582 331.254 83.5102 330.942C82.8622 330.622 82.2022 330.462 81.5302 330.462C80.6502 330.462 79.8542 330.694 79.1422 331.158C78.4302 331.614 77.8662 332.226 77.4502 332.994C77.0342 333.754 76.8262 334.59 76.8262 335.502C76.8262 336.422 77.0382 337.262 77.4622 338.022C77.8862 338.782 78.4542 339.39 79.1662 339.846C79.8782 340.294 80.6662 340.518 81.5302 340.518C82.2582 340.518 82.9422 340.346 83.5822 340.002C84.2222 339.658 84.7502 339.218 85.1662 338.682ZM93.6708 341.814C92.5668 341.814 91.5588 341.53 90.6468 340.962C89.7428 340.394 89.0188 339.634 88.4748 338.682C87.9388 337.722 87.6708 336.662 87.6708 335.502C87.6708 334.622 87.8268 333.802 88.1388 333.042C88.4508 332.274 88.8788 331.602 89.4228 331.026C89.9748 330.442 90.6148 329.986 91.3428 329.658C92.0708 329.33 92.8468 329.166 93.6708 329.166C94.7748 329.166 95.7788 329.45 96.6828 330.018C97.5948 330.586 98.3188 331.35 98.8548 332.31C99.3988 333.27 99.6708 334.334 99.6708 335.502C99.6708 336.374 99.5148 337.19 99.2028 337.95C98.8908 338.71 98.4588 339.382 97.9068 339.966C97.3628 340.542 96.7268 340.994 95.9988 341.322C95.2788 341.65 94.5028 341.814 93.6708 341.814ZM93.6708 340.518C94.5588 340.518 95.3548 340.286 96.0588 339.822C96.7708 339.358 97.3348 338.746 97.7508 337.986C98.1668 337.226 98.3748 336.398 98.3748 335.502C98.3748 334.598 98.1668 333.762 97.7508 332.994C97.3348 332.226 96.7708 331.614 96.0588 331.158C95.3468 330.694 94.5508 330.462 93.6708 330.462C92.7828 330.462 91.9828 330.694 91.2708 331.158C90.5588 331.622 89.9948 332.238 89.5788 333.006C89.1708 333.766 88.9668 334.598 88.9668 335.502C88.9668 336.438 89.1788 337.286 89.6028 338.046C90.0348 338.798 90.6068 339.398 91.3188 339.846C92.0308 340.294 92.8148 340.518 93.6708 340.518ZM101.75 341.502V329.502H103.046V331.338C103.486 330.674 104.058 330.146 104.762 329.754C105.466 329.362 106.242 329.166 107.09 329.166C108.018 329.166 108.862 329.398 109.622 329.862C110.39 330.318 110.986 330.926 111.41 331.686C111.834 330.926 112.426 330.318 113.186 329.862C113.946 329.398 114.79 329.166 115.718 329.166C116.63 329.166 117.462 329.39 118.214 329.838C118.966 330.278 119.562 330.874 120.002 331.626C120.45 332.378 120.674 333.21 120.674 334.122V341.502H119.378V334.362C119.378 333.666 119.21 333.026 118.874 332.442C118.538 331.85 118.086 331.374 117.518 331.014C116.95 330.654 116.318 330.474 115.622 330.474C114.934 330.474 114.302 330.642 113.726 330.978C113.158 331.306 112.706 331.762 112.37 332.346C112.034 332.93 111.866 333.602 111.866 334.362V341.502H110.57V334.362C110.57 333.602 110.398 332.93 110.054 332.346C109.718 331.762 109.266 331.306 108.698 330.978C108.13 330.642 107.498 330.474 106.802 330.474C106.114 330.474 105.486 330.654 104.918 331.014C104.35 331.374 103.894 331.85 103.55 332.442C103.214 333.026 103.046 333.666 103.046 334.362V341.502H101.75ZM124.374 347.502H123.078V329.502H124.374V331.974C124.798 331.142 125.39 330.47 126.15 329.958C126.918 329.446 127.834 329.19 128.898 329.19C129.77 329.19 130.586 329.354 131.346 329.682C132.106 330.01 132.774 330.466 133.35 331.05C133.934 331.626 134.39 332.294 134.718 333.054C135.046 333.814 135.21 334.63 135.21 335.502C135.21 336.374 135.046 337.194 134.718 337.962C134.39 338.73 133.934 339.406 133.35 339.99C132.774 340.566 132.106 341.018 131.346 341.346C130.586 341.674 129.77 341.838 128.898 341.838C127.834 341.838 126.918 341.582 126.15 341.07C125.39 340.558 124.798 339.886 124.374 339.054V347.502ZM128.886 330.462C127.974 330.462 127.186 330.69 126.522 331.146C125.866 331.594 125.358 332.198 124.998 332.958C124.646 333.718 124.47 334.566 124.47 335.502C124.47 336.422 124.646 337.266 124.998 338.034C125.35 338.802 125.854 339.418 126.51 339.882C127.174 340.338 127.966 340.566 128.886 340.566C129.79 340.566 130.618 340.342 131.37 339.894C132.13 339.446 132.742 338.842 133.206 338.082C133.67 337.314 133.902 336.454 133.902 335.502C133.902 334.582 133.674 333.742 133.218 332.982C132.77 332.214 132.166 331.602 131.406 331.146C130.654 330.69 129.814 330.462 128.886 330.462ZM137.235 341.502V323.502H138.531V341.502H137.235ZM146.616 341.814C145.512 341.814 144.504 341.53 143.592 340.962C142.688 340.394 141.964 339.634 141.42 338.682C140.884 337.722 140.616 336.662 140.616 335.502C140.616 334.622 140.772 333.802 141.084 333.042C141.396 332.274 141.824 331.602 142.368 331.026C142.92 330.442 143.56 329.986 144.288 329.658C145.016 329.33 145.792 329.166 146.616 329.166C147.488 329.166 148.292 329.338 149.028 329.682C149.772 330.018 150.412 330.494 150.948 331.11C151.484 331.726 151.896 332.454 152.184 333.294C152.472 334.126 152.604 335.038 152.58 336.03H141.972C142.06 336.886 142.316 337.654 142.74 338.334C143.172 339.006 143.724 339.538 144.396 339.93C145.068 340.314 145.808 340.51 146.616 340.518C147.504 340.518 148.304 340.286 149.016 339.822C149.728 339.35 150.3 338.706 150.732 337.89L152.04 338.19C151.56 339.254 150.836 340.126 149.868 340.806C148.9 341.478 147.816 341.814 146.616 341.814ZM141.936 334.926H151.272C151.224 334.102 150.984 333.346 150.552 332.658C150.128 331.962 149.572 331.406 148.884 330.99C148.196 330.574 147.44 330.366 146.616 330.366C145.792 330.366 145.04 330.57 144.36 330.978C143.68 331.386 143.124 331.938 142.692 332.634C142.268 333.322 142.016 334.086 141.936 334.926ZM160.427 330.798H157.391L157.379 341.502H156.083L156.095 330.798H153.803V329.502H156.095L156.083 325.734H157.379L157.391 329.502H160.427V330.798ZM172.335 329.502H173.631V341.502H172.335L172.299 339.042C171.891 339.874 171.307 340.546 170.547 341.058C169.795 341.562 168.891 341.814 167.835 341.814C166.963 341.814 166.143 341.65 165.375 341.322C164.615 340.986 163.943 340.53 163.359 339.954C162.775 339.37 162.319 338.698 161.991 337.938C161.663 337.17 161.499 336.346 161.499 335.466C161.499 334.594 161.659 333.778 161.979 333.018C162.307 332.258 162.759 331.59 163.335 331.014C163.911 330.43 164.579 329.978 165.339 329.658C166.099 329.33 166.911 329.166 167.775 329.166C168.839 329.166 169.759 329.426 170.535 329.946C171.319 330.458 171.931 331.13 172.371 331.962L172.335 329.502ZM167.823 340.542C168.743 340.542 169.531 340.318 170.187 339.87C170.851 339.414 171.359 338.802 171.711 338.034C172.063 337.266 172.239 336.422 172.239 335.502C172.239 334.558 172.059 333.706 171.699 332.946C171.347 332.178 170.839 331.57 170.175 331.122C169.519 330.666 168.735 330.438 167.823 330.438C166.895 330.438 166.051 330.666 165.291 331.122C164.539 331.578 163.939 332.19 163.491 332.958C163.043 333.726 162.819 334.574 162.819 335.502C162.819 336.446 163.047 337.298 163.503 338.058C163.967 338.818 164.579 339.422 165.339 339.87C166.099 340.318 166.927 340.542 167.823 340.542ZM176.024 341.502V329.502H177.32V331.338C177.76 330.674 178.332 330.146 179.036 329.754C179.74 329.362 180.516 329.166 181.364 329.166C182.292 329.166 183.136 329.398 183.896 329.862C184.664 330.318 185.26 330.926 185.684 331.686C186.108 330.926 186.7 330.318 187.46 329.862C188.22 329.398 189.064 329.166 189.992 329.166C190.904 329.166 191.736 329.39 192.488 329.838C193.24 330.278 193.836 330.874 194.276 331.626C194.724 332.378 194.948 333.21 194.948 334.122V341.502H193.652V334.362C193.652 333.666 193.484 333.026 193.148 332.442C192.812 331.85 192.36 331.374 191.792 331.014C191.224 330.654 190.592 330.474 189.896 330.474C189.208 330.474 188.576 330.642 188 330.978C187.432 331.306 186.98 331.762 186.644 332.346C186.308 332.93 186.14 333.602 186.14 334.362V341.502H184.844V334.362C184.844 333.602 184.672 332.93 184.328 332.346C183.992 331.762 183.54 331.306 182.972 330.978C182.404 330.642 181.772 330.474 181.076 330.474C180.388 330.474 179.76 330.654 179.192 331.014C178.624 331.374 178.168 331.85 177.824 332.442C177.488 333.026 177.32 333.666 177.32 334.362V341.502H176.024ZM202.397 341.814C201.293 341.814 200.285 341.53 199.373 340.962C198.469 340.394 197.745 339.634 197.201 338.682C196.665 337.722 196.397 336.662 196.397 335.502C196.397 334.622 196.553 333.802 196.865 333.042C197.177 332.274 197.605 331.602 198.149 331.026C198.701 330.442 199.341 329.986 200.069 329.658C200.797 329.33 201.573 329.166 202.397 329.166C203.269 329.166 204.073 329.338 204.809 329.682C205.553 330.018 206.193 330.494 206.729 331.11C207.265 331.726 207.677 332.454 207.965 333.294C208.253 334.126 208.385 335.038 208.361 336.03H197.753C197.841 336.886 198.097 337.654 198.521 338.334C198.953 339.006 199.505 339.538 200.177 339.93C200.849 340.314 201.589 340.51 202.397 340.518C203.285 340.518 204.085 340.286 204.797 339.822C205.509 339.35 206.081 338.706 206.513 337.89L207.821 338.19C207.341 339.254 206.617 340.126 205.649 340.806C204.681 341.478 203.597 341.814 202.397 341.814ZM197.717 334.926H207.053C207.005 334.102 206.765 333.346 206.333 332.658C205.909 331.962 205.353 331.406 204.665 330.99C203.977 330.574 203.221 330.366 202.397 330.366C201.573 330.366 200.821 330.57 200.141 330.978C199.461 331.386 198.905 331.938 198.473 332.634C198.049 333.322 197.797 334.086 197.717 334.926ZM220.749 334.122V341.502H219.453V334.326C219.453 333.614 219.281 332.966 218.937 332.382C218.593 331.798 218.129 331.334 217.545 330.99C216.961 330.646 216.313 330.474 215.601 330.474C214.897 330.474 214.253 330.646 213.669 330.99C213.085 331.334 212.617 331.798 212.265 332.382C211.921 332.966 211.749 333.614 211.749 334.326V341.502H210.453V329.502H211.749V331.338C212.181 330.674 212.753 330.146 213.465 329.754C214.177 329.362 214.953 329.166 215.793 329.166C216.713 329.166 217.545 329.39 218.289 329.838C219.041 330.278 219.637 330.874 220.077 331.626C220.525 332.378 220.749 333.21 220.749 334.122ZM229.192 330.798H226.156L226.144 341.502H224.848L224.86 330.798H222.568V329.502H224.86L224.848 325.734H226.144L226.156 329.502H229.192V330.798ZM236.265 341.814C235.161 341.814 234.153 341.53 233.241 340.962C232.337 340.394 231.613 339.634 231.069 338.682C230.533 337.722 230.265 336.662 230.265 335.502C230.265 334.622 230.421 333.802 230.733 333.042C231.045 332.274 231.473 331.602 232.017 331.026C232.569 330.442 233.209 329.986 233.937 329.658C234.665 329.33 235.441 329.166 236.265 329.166C237.137 329.166 237.941 329.338 238.677 329.682C239.421 330.018 240.061 330.494 240.597 331.11C241.133 331.726 241.545 332.454 241.833 333.294C242.121 334.126 242.253 335.038 242.229 336.03H231.621C231.709 336.886 231.965 337.654 232.389 338.334C232.821 339.006 233.373 339.538 234.045 339.93C234.717 340.314 235.457 340.51 236.265 340.518C237.153 340.518 237.953 340.286 238.665 339.822C239.377 339.35 239.949 338.706 240.381 337.89L241.689 338.19C241.209 339.254 240.485 340.126 239.517 340.806C238.549 341.478 237.465 341.814 236.265 341.814ZM231.585 334.926H240.921C240.873 334.102 240.633 333.346 240.201 332.658C239.777 331.962 239.221 331.406 238.533 330.99C237.845 330.574 237.089 330.366 236.265 330.366C235.441 330.366 234.689 330.57 234.009 330.978C233.329 331.386 232.773 331.938 232.341 332.634C231.917 333.322 231.665 334.086 231.585 334.926ZM259.888 329.502H261.184V342.006C261.184 342.75 261.02 343.45 260.692 344.106C260.372 344.77 259.936 345.354 259.384 345.858C258.832 346.37 258.204 346.77 257.5 347.058C256.804 347.354 256.084 347.502 255.34 347.502C254.508 347.502 253.704 347.306 252.928 346.914C252.152 346.53 251.48 346.014 250.912 345.366C250.352 344.718 249.964 344.01 249.748 343.242L250.948 342.69C251.092 343.338 251.388 343.926 251.836 344.454C252.284 344.99 252.816 345.414 253.432 345.726C254.056 346.038 254.692 346.194 255.34 346.194C255.916 346.194 256.476 346.082 257.02 345.858C257.564 345.634 258.052 345.326 258.484 344.934C258.916 344.55 259.256 344.106 259.504 343.602C259.76 343.098 259.888 342.566 259.888 342.006V339.066C259.464 339.882 258.876 340.546 258.124 341.058C257.372 341.562 256.496 341.814 255.496 341.814C254.664 341.814 253.88 341.65 253.144 341.322C252.408 340.994 251.764 340.542 251.212 339.966C250.66 339.382 250.224 338.71 249.904 337.95C249.592 337.19 249.436 336.374 249.436 335.502C249.436 334.63 249.592 333.814 249.904 333.054C250.224 332.286 250.66 331.614 251.212 331.038C251.764 330.454 252.408 329.998 253.144 329.67C253.88 329.342 254.664 329.178 255.496 329.178C256.496 329.178 257.372 329.43 258.124 329.934C258.876 330.43 259.464 331.094 259.888 331.926V329.502ZM255.508 340.542C256.404 340.542 257.172 340.31 257.812 339.846C258.46 339.382 258.956 338.766 259.3 337.998C259.652 337.23 259.828 336.398 259.828 335.502C259.828 334.582 259.652 333.742 259.3 332.982C258.948 332.214 258.448 331.598 257.8 331.134C257.152 330.67 256.388 330.438 255.508 330.438C254.628 330.438 253.828 330.666 253.108 331.122C252.388 331.578 251.816 332.19 251.392 332.958C250.968 333.726 250.756 334.574 250.756 335.502C250.756 336.438 250.972 337.286 251.404 338.046C251.836 338.806 252.412 339.414 253.132 339.87C253.852 340.318 254.644 340.542 255.508 340.542ZM264.055 341.502V329.502H265.351V331.338C265.783 330.674 266.355 330.146 267.067 329.754C267.779 329.362 268.555 329.166 269.395 329.166C269.867 329.166 270.319 329.226 270.751 329.346L270.211 330.618C269.867 330.522 269.531 330.474 269.203 330.474C268.499 330.474 267.855 330.646 267.271 330.99C266.687 331.334 266.219 331.798 265.867 332.382C265.523 332.966 265.351 333.614 265.351 334.326V341.502H264.055ZM281.765 329.502H283.061V341.502H281.765L281.729 339.042C281.321 339.874 280.737 340.546 279.977 341.058C279.225 341.562 278.321 341.814 277.265 341.814C276.393 341.814 275.573 341.65 274.805 341.322C274.045 340.986 273.373 340.53 272.789 339.954C272.205 339.37 271.749 338.698 271.421 337.938C271.093 337.17 270.929 336.346 270.929 335.466C270.929 334.594 271.089 333.778 271.409 333.018C271.737 332.258 272.189 331.59 272.765 331.014C273.341 330.43 274.009 329.978 274.769 329.658C275.529 329.33 276.341 329.166 277.205 329.166C278.269 329.166 279.189 329.426 279.965 329.946C280.749 330.458 281.361 331.13 281.801 331.962L281.765 329.502ZM277.253 340.542C278.173 340.542 278.961 340.318 279.617 339.87C280.281 339.414 280.789 338.802 281.141 338.034C281.493 337.266 281.669 336.422 281.669 335.502C281.669 334.558 281.489 333.706 281.129 332.946C280.777 332.178 280.269 331.57 279.605 331.122C278.949 330.666 278.165 330.438 277.253 330.438C276.325 330.438 275.481 330.666 274.721 331.122C273.969 331.578 273.369 332.19 272.921 332.958C272.473 333.726 272.249 334.574 272.249 335.502C272.249 336.446 272.477 337.298 272.933 338.058C273.397 338.818 274.009 339.422 274.769 339.87C275.529 340.318 276.357 340.542 277.253 340.542ZM291.489 330.798H288.453L288.441 341.502H287.145L287.157 330.798H284.865V329.502H287.157L287.145 325.734H288.441L288.453 329.502H291.489V330.798ZM293.563 329.502H294.859V341.502H293.563V329.502ZM294.223 327.234C293.999 327.234 293.807 327.162 293.647 327.018C293.495 326.866 293.419 326.678 293.419 326.454C293.419 326.23 293.495 326.046 293.647 325.902C293.807 325.75 293.999 325.674 294.223 325.674C294.439 325.674 294.623 325.75 294.775 325.902C294.935 326.046 295.015 326.23 295.015 326.454C295.015 326.678 294.939 326.866 294.787 327.018C294.635 327.162 294.447 327.234 294.223 327.234ZM301.42 341.73C300.756 341.722 300.104 341.606 299.464 341.382C298.832 341.15 298.28 340.842 297.808 340.458C297.336 340.074 297.008 339.638 296.824 339.15L297.964 338.658C298.1 339.018 298.36 339.342 298.744 339.63C299.136 339.918 299.576 340.146 300.064 340.314C300.56 340.474 301.044 340.554 301.516 340.554C302.052 340.554 302.556 340.462 303.028 340.278C303.5 340.094 303.884 339.834 304.18 339.498C304.476 339.162 304.624 338.766 304.624 338.31C304.624 337.83 304.468 337.454 304.156 337.182C303.844 336.902 303.444 336.678 302.956 336.51C302.476 336.334 301.98 336.17 301.468 336.018C300.588 335.762 299.824 335.502 299.176 335.238C298.536 334.966 298.04 334.622 297.688 334.206C297.336 333.79 297.16 333.242 297.16 332.562C297.16 331.858 297.364 331.246 297.772 330.726C298.18 330.206 298.716 329.806 299.38 329.526C300.044 329.238 300.756 329.094 301.516 329.094C302.5 329.094 303.392 329.31 304.192 329.742C305 330.174 305.568 330.742 305.896 331.446L304.84 332.07C304.68 331.702 304.428 331.386 304.084 331.122C303.74 330.858 303.348 330.654 302.908 330.51C302.468 330.366 302.024 330.29 301.576 330.282C301.016 330.274 300.492 330.362 300.004 330.546C299.524 330.722 299.136 330.982 298.84 331.326C298.544 331.662 298.396 332.07 298.396 332.55C298.396 333.03 298.532 333.398 298.804 333.654C299.076 333.91 299.456 334.118 299.944 334.278C300.432 334.43 300.996 334.61 301.636 334.818C302.38 335.05 303.072 335.31 303.712 335.598C304.36 335.878 304.88 336.23 305.272 336.654C305.672 337.078 305.868 337.626 305.86 338.298C305.86 339.002 305.648 339.614 305.224 340.134C304.808 340.654 304.26 341.054 303.58 341.334C302.908 341.614 302.188 341.746 301.42 341.73ZM308.206 341.814C307.99 341.814 307.806 341.734 307.654 341.574C307.502 341.422 307.426 341.234 307.426 341.01C307.426 340.802 307.502 340.622 307.654 340.47C307.806 340.31 307.99 340.23 308.206 340.23C308.43 340.23 308.618 340.31 308.77 340.47C308.93 340.622 309.01 340.802 309.01 341.01C309.01 341.234 308.93 341.422 308.77 341.574C308.618 341.734 308.43 341.814 308.206 341.814Z" fill="white"/>
<defs>
<linearGradient id="paint0_linear_240_16" x1="174.131" y1="127.344" x2="211.181" y2="148.736" gradientUnits="userSpaceOnUse">
<stop offset="0.29" stop-color="#F56D50"/>
<stop offset="0.99" stop-color="#F57438"/>
</linearGradient>
<linearGradient id="paint1_linear_240_16" x1="185.416" y1="135.697" x2="194.9" y2="145.33" gradientUnits="userSpaceOnUse">
<stop offset="0.29" stop-color="#F56D50"/>
<stop offset="0.99" stop-color="#F57438"/>
</linearGradient>
<linearGradient id="paint2_linear_240_16" x1="147.535" y1="99.5354" x2="238.977" y2="151.018" gradientUnits="userSpaceOnUse">
<stop offset="0.29" stop-color="#F56D50"/>
<stop offset="0.99" stop-color="#F57438"/>
</linearGradient>
<linearGradient id="paint3_linear_240_16" x1="149.348" y1="124.491" x2="155.947" y2="151.545" gradientUnits="userSpaceOnUse">
<stop offset="0.29" stop-color="#F56D50"/>
<stop offset="0.99" stop-color="#F57438"/>
</linearGradient>
</defs>
</svg>
