<svg width="386" height="401" viewBox="0 0 386 401" fill="none" xmlns="http://www.w3.org/2000/svg">
<rect width="385.261" height="401" rx="59" fill="black" fill-opacity="0.53"/>
<path d="M192.63 159.447C198.31 159.447 203.758 157.19 207.774 153.174C211.791 149.157 214.047 143.71 214.047 138.03C214.047 132.35 211.791 126.902 207.774 122.886C203.758 118.869 198.31 116.613 192.63 116.613C186.95 116.613 181.503 118.869 177.486 122.886C173.47 126.902 171.213 132.35 171.213 138.03C171.213 143.71 173.47 149.157 177.486 153.174C181.503 157.19 186.95 159.447 192.63 159.447Z" stroke="url(#paint0_linear_359_144)" stroke-width="8.03135" stroke-miterlimit="10" stroke-linecap="round" stroke-linejoin="round"/>
<path d="M184.278 138.565L187.758 142.046C188.775 143.063 190.435 143.063 191.453 142.099L200.983 133.318" stroke="url(#paint1_linear_359_144)" stroke-width="8.03135" stroke-linecap="round" stroke-linejoin="round"/>
<path d="M171.213 94.1254V89.842C171.213 80.365 171.213 72.7085 188.347 72.7085H196.914C214.047 72.7085 214.047 80.365 214.047 89.842V94.1254M171.213 179.793H214.047C235.571 179.793 239.426 171.173 240.551 160.679L244.566 117.845C246.012 104.78 242.264 94.1254 219.402 94.1254H165.859C142.997 94.1254 139.249 104.78 140.694 117.845L144.71 160.679C145.834 171.173 149.689 179.793 171.213 179.793Z" stroke="url(#paint2_linear_359_144)" stroke-width="8.03135" stroke-miterlimit="10" stroke-linecap="round" stroke-linejoin="round"/>
<path d="M244.299 120.897C235.232 127.501 224.98 132.3 214.101 135.032M142.408 122.342C151.349 128.446 161.094 132.783 171.213 135.246" stroke="url(#paint3_linear_359_144)" stroke-width="8.03135" stroke-miterlimit="10" stroke-linecap="round" stroke-linejoin="round"/>
<path d="M135.746 219.502V202.702H139.322L145.874 213.514V202.702H149.186V219.502H145.61L139.058 208.69V219.502H135.746ZM157.104 219.814C156 219.814 154.992 219.53 154.08 218.962C153.176 218.394 152.452 217.634 151.908 216.682C151.372 215.722 151.104 214.662 151.104 213.502C151.104 212.622 151.26 211.802 151.572 211.042C151.884 210.274 152.312 209.602 152.856 209.026C153.408 208.442 154.048 207.986 154.776 207.658C155.504 207.33 156.28 207.166 157.104 207.166C158.208 207.166 159.212 207.45 160.116 208.018C161.028 208.586 161.752 209.35 162.288 210.31C162.832 211.27 163.104 212.334 163.104 213.502C163.104 214.374 162.948 215.19 162.636 215.95C162.324 216.71 161.892 217.382 161.34 217.966C160.796 218.542 160.16 218.994 159.432 219.322C158.712 219.65 157.936 219.814 157.104 219.814ZM157.104 216.502C157.616 216.502 158.076 216.366 158.484 216.094C158.892 215.814 159.212 215.446 159.444 214.99C159.676 214.534 159.792 214.038 159.792 213.502C159.792 212.95 159.668 212.446 159.42 211.99C159.18 211.526 158.856 211.158 158.448 210.886C158.04 210.614 157.592 210.478 157.104 210.478C156.6 210.478 156.144 210.618 155.736 210.898C155.328 211.178 155.004 211.546 154.764 212.002C154.532 212.458 154.416 212.958 154.416 213.502C154.416 214.07 154.536 214.582 154.776 215.038C155.024 215.486 155.352 215.842 155.76 216.106C156.168 216.37 156.616 216.502 157.104 216.502ZM176.074 211.87V219.502H172.762V212.782C172.762 212.358 172.658 211.978 172.45 211.642C172.25 211.298 171.978 211.026 171.634 210.826C171.298 210.626 170.922 210.526 170.506 210.526C170.09 210.526 169.71 210.626 169.366 210.826C169.022 211.026 168.75 211.298 168.55 211.642C168.35 211.978 168.25 212.358 168.25 212.782V219.502H164.938L164.926 207.502H168.238L168.25 208.39C168.65 208.006 169.118 207.706 169.654 207.49C170.198 207.274 170.77 207.166 171.37 207.166C172.242 207.166 173.03 207.378 173.734 207.802C174.446 208.226 175.014 208.794 175.438 209.506C175.862 210.21 176.074 210.998 176.074 211.87ZM181.785 225.502H178.473V207.502H181.785V208.798C182.169 208.326 182.625 207.942 183.153 207.646C183.681 207.342 184.297 207.19 185.001 207.19C185.873 207.19 186.689 207.354 187.449 207.682C188.217 208.01 188.889 208.466 189.465 209.05C190.041 209.626 190.493 210.294 190.821 211.054C191.149 211.814 191.313 212.63 191.313 213.502C191.313 214.374 191.149 215.194 190.821 215.962C190.493 216.73 190.041 217.406 189.465 217.99C188.889 218.566 188.217 219.018 187.449 219.346C186.689 219.674 185.873 219.838 185.001 219.838C184.297 219.838 183.681 219.686 183.153 219.382C182.625 219.078 182.169 218.694 181.785 218.23V225.502ZM184.953 210.37C184.409 210.37 183.917 210.514 183.477 210.802C183.045 211.082 182.701 211.458 182.445 211.93C182.197 212.402 182.073 212.926 182.073 213.502C182.073 214.078 182.197 214.606 182.445 215.086C182.701 215.558 183.045 215.934 183.477 216.214C183.917 216.494 184.409 216.634 184.953 216.634C185.497 216.634 185.993 216.494 186.441 216.214C186.897 215.934 187.257 215.558 187.521 215.086C187.793 214.614 187.929 214.086 187.929 213.502C187.929 212.934 187.797 212.414 187.533 211.942C187.269 211.462 186.909 211.082 186.453 210.802C186.005 210.514 185.505 210.37 184.953 210.37ZM193.157 219.502L193.145 207.502H196.457L196.469 208.39C196.869 208.006 197.337 207.706 197.873 207.49C198.417 207.274 198.989 207.166 199.589 207.166C200.029 207.166 200.469 207.23 200.909 207.358L199.601 210.706C199.313 210.586 199.021 210.526 198.725 210.526C198.309 210.526 197.929 210.626 197.585 210.826C197.241 211.026 196.969 211.298 196.769 211.642C196.569 211.978 196.469 212.358 196.469 212.782V219.502H193.157ZM206.933 219.814C205.829 219.814 204.821 219.53 203.909 218.962C203.005 218.394 202.281 217.634 201.737 216.682C201.201 215.722 200.933 214.662 200.933 213.502C200.933 212.622 201.089 211.802 201.401 211.042C201.713 210.274 202.141 209.602 202.685 209.026C203.237 208.442 203.877 207.986 204.605 207.658C205.333 207.33 206.109 207.166 206.933 207.166C208.037 207.166 209.041 207.45 209.945 208.018C210.857 208.586 211.581 209.35 212.117 210.31C212.661 211.27 212.933 212.334 212.933 213.502C212.933 214.374 212.777 215.19 212.465 215.95C212.153 216.71 211.721 217.382 211.169 217.966C210.625 218.542 209.989 218.994 209.261 219.322C208.541 219.65 207.765 219.814 206.933 219.814ZM206.933 216.502C207.445 216.502 207.905 216.366 208.313 216.094C208.721 215.814 209.041 215.446 209.273 214.99C209.505 214.534 209.621 214.038 209.621 213.502C209.621 212.95 209.497 212.446 209.249 211.99C209.009 211.526 208.685 211.158 208.277 210.886C207.869 210.614 207.421 210.478 206.933 210.478C206.429 210.478 205.973 210.618 205.565 210.898C205.157 211.178 204.833 211.546 204.593 212.002C204.361 212.458 204.245 212.958 204.245 213.502C204.245 214.07 204.365 214.582 204.605 215.038C204.853 215.486 205.181 215.842 205.589 216.106C205.997 216.37 206.445 216.502 206.933 216.502ZM218.754 205.174V207.502H221.934V210.814H218.754V219.502H215.442V210.814H214.242V207.502H215.442V205.174C215.442 204.446 215.622 203.786 215.982 203.194C216.342 202.594 216.822 202.114 217.422 201.754C218.03 201.394 218.698 201.214 219.426 201.214C219.962 201.214 220.49 201.326 221.01 201.55C221.53 201.766 221.994 202.106 222.402 202.57L220.026 204.91C219.97 204.782 219.886 204.686 219.774 204.622C219.662 204.558 219.546 204.526 219.426 204.526C219.242 204.526 219.082 204.59 218.946 204.718C218.818 204.838 218.754 204.99 218.754 205.174ZM223.824 207.502H227.136V219.502H223.824V207.502ZM225.504 206.122C225.024 206.122 224.62 205.962 224.292 205.642C223.964 205.322 223.8 204.926 223.8 204.454C223.8 203.982 223.964 203.586 224.292 203.266C224.62 202.946 225.02 202.786 225.492 202.786C225.964 202.786 226.36 202.946 226.68 203.266C227.008 203.586 227.172 203.982 227.172 204.454C227.172 204.926 227.012 205.322 226.692 205.642C226.38 205.962 225.984 206.122 225.504 206.122ZM236.54 210.814H234.38V219.502H231.068V210.814H229.412V207.502H231.068V203.734H234.38V207.502H236.54V210.814ZM242.379 214.558C242.379 213.614 242.615 212.75 243.087 211.966C243.559 211.174 244.211 210.55 245.043 210.094C245.403 209.902 245.683 209.622 245.883 209.254C246.091 208.878 246.195 208.462 246.195 208.006C246.195 207.582 246.091 207.194 245.883 206.842C245.675 206.49 245.391 206.214 245.031 206.014C244.679 205.806 244.291 205.702 243.867 205.702C243.443 205.702 243.051 205.806 242.691 206.014C242.339 206.214 242.059 206.49 241.851 206.842C241.643 207.194 241.539 207.582 241.539 208.006H238.227C238.227 206.974 238.479 206.034 238.983 205.186C239.495 204.338 240.175 203.662 241.023 203.158C241.879 202.646 242.827 202.39 243.867 202.39C244.907 202.39 245.851 202.646 246.699 203.158C247.555 203.662 248.235 204.338 248.739 205.186C249.251 206.034 249.507 206.974 249.507 208.006C249.507 209.07 249.247 210.05 248.727 210.946C248.215 211.842 247.507 212.53 246.603 213.01C246.315 213.162 246.091 213.374 245.931 213.646C245.771 213.918 245.691 214.222 245.691 214.558H242.379ZM244.191 219.814C243.719 219.814 243.319 219.65 242.991 219.322C242.671 218.994 242.511 218.594 242.511 218.122C242.511 217.658 242.671 217.266 242.991 216.946C243.319 216.626 243.719 216.466 244.191 216.466C244.647 216.466 245.035 216.626 245.355 216.946C245.683 217.266 245.847 217.658 245.847 218.122C245.847 218.594 245.683 218.994 245.355 219.322C245.035 219.65 244.647 219.814 244.191 219.814Z" fill="white"/>
<path d="M39.5908 254.502V237.702H40.8868V254.502H39.5908ZM46.3252 239.178V242.502H50.0332V243.798H46.3252V254.502H45.0292V243.798H43.2892V242.502H45.0292V239.178C45.0292 238.634 45.1612 238.138 45.4252 237.69C45.6972 237.242 46.0572 236.886 46.5052 236.622C46.9612 236.35 47.4612 236.214 48.0052 236.214C48.4052 236.214 48.7892 236.294 49.1572 236.454C49.5252 236.606 49.8532 236.83 50.1412 237.126L49.2172 238.038C49.0732 237.87 48.8932 237.742 48.6772 237.654C48.4612 237.558 48.2372 237.51 48.0052 237.51C47.5492 237.51 47.1532 237.674 46.8172 238.002C46.4892 238.33 46.3252 238.722 46.3252 239.178ZM63.7121 243.798H60.6761L60.6641 254.502H59.3681L59.3801 243.798H57.0881V242.502H59.3801L59.3681 238.734H60.6641L60.6761 242.502H63.7121V243.798ZM76.1518 247.122V254.502H74.8558V247.326C74.8558 246.614 74.6838 245.966 74.3398 245.382C73.9958 244.798 73.5318 244.334 72.9478 243.99C72.3638 243.646 71.7158 243.474 71.0038 243.474C70.2998 243.474 69.6558 243.646 69.0718 243.99C68.4878 244.334 68.0198 244.798 67.6678 245.382C67.3238 245.966 67.1518 246.614 67.1518 247.326V254.502H65.8558V236.502H67.1518V244.338C67.5838 243.674 68.1558 243.146 68.8678 242.754C69.5798 242.362 70.3558 242.166 71.1958 242.166C72.1158 242.166 72.9478 242.39 73.6918 242.838C74.4438 243.278 75.0398 243.874 75.4798 244.626C75.9278 245.378 76.1518 246.21 76.1518 247.122ZM78.5589 242.502H79.8549V254.502H78.5589V242.502ZM79.2189 240.234C78.9949 240.234 78.8029 240.162 78.6429 240.018C78.4909 239.866 78.4149 239.678 78.4149 239.454C78.4149 239.23 78.4909 239.046 78.6429 238.902C78.8029 238.75 78.9949 238.674 79.2189 238.674C79.4349 238.674 79.6189 238.75 79.7709 238.902C79.9309 239.046 80.0109 239.23 80.0109 239.454C80.0109 239.678 79.9349 239.866 79.7829 240.018C79.6309 240.162 79.4429 240.234 79.2189 240.234ZM86.4165 254.73C85.7525 254.722 85.1005 254.606 84.4605 254.382C83.8285 254.15 83.2765 253.842 82.8045 253.458C82.3325 253.074 82.0045 252.638 81.8205 252.15L82.9605 251.658C83.0965 252.018 83.3565 252.342 83.7405 252.63C84.1325 252.918 84.5725 253.146 85.0605 253.314C85.5565 253.474 86.0405 253.554 86.5125 253.554C87.0485 253.554 87.5525 253.462 88.0245 253.278C88.4965 253.094 88.8805 252.834 89.1765 252.498C89.4725 252.162 89.6205 251.766 89.6205 251.31C89.6205 250.83 89.4645 250.454 89.1525 250.182C88.8405 249.902 88.4405 249.678 87.9525 249.51C87.4725 249.334 86.9765 249.17 86.4645 249.018C85.5845 248.762 84.8205 248.502 84.1725 248.238C83.5325 247.966 83.0365 247.622 82.6845 247.206C82.3325 246.79 82.1565 246.242 82.1565 245.562C82.1565 244.858 82.3605 244.246 82.7685 243.726C83.1765 243.206 83.7125 242.806 84.3765 242.526C85.0405 242.238 85.7525 242.094 86.5125 242.094C87.4965 242.094 88.3885 242.31 89.1885 242.742C89.9965 243.174 90.5645 243.742 90.8925 244.446L89.8365 245.07C89.6765 244.702 89.4245 244.386 89.0805 244.122C88.7365 243.858 88.3445 243.654 87.9045 243.51C87.4645 243.366 87.0205 243.29 86.5725 243.282C86.0125 243.274 85.4885 243.362 85.0005 243.546C84.5205 243.722 84.1325 243.982 83.8365 244.326C83.5405 244.662 83.3925 245.07 83.3925 245.55C83.3925 246.03 83.5285 246.398 83.8005 246.654C84.0725 246.91 84.4525 247.118 84.9405 247.278C85.4285 247.43 85.9925 247.61 86.6325 247.818C87.3765 248.05 88.0685 248.31 88.7085 248.598C89.3565 248.878 89.8765 249.23 90.2685 249.654C90.6685 250.078 90.8645 250.626 90.8565 251.298C90.8565 252.002 90.6445 252.614 90.2205 253.134C89.8045 253.654 89.2565 254.054 88.5765 254.334C87.9045 254.614 87.1845 254.746 86.4165 254.73ZM98.6917 242.502H99.9877V254.502H98.6917V242.502ZM99.3517 240.234C99.1277 240.234 98.9357 240.162 98.7757 240.018C98.6237 239.866 98.5477 239.678 98.5477 239.454C98.5477 239.23 98.6237 239.046 98.7757 238.902C98.9357 238.75 99.1277 238.674 99.3517 238.674C99.5677 238.674 99.7517 238.75 99.9037 238.902C100.064 239.046 100.144 239.23 100.144 239.454C100.144 239.678 100.068 239.866 99.9157 240.018C99.7637 240.162 99.5757 240.234 99.3517 240.234ZM106.549 254.73C105.885 254.722 105.233 254.606 104.593 254.382C103.961 254.15 103.409 253.842 102.937 253.458C102.465 253.074 102.137 252.638 101.953 252.15L103.093 251.658C103.229 252.018 103.489 252.342 103.873 252.63C104.265 252.918 104.705 253.146 105.193 253.314C105.689 253.474 106.173 253.554 106.645 253.554C107.181 253.554 107.685 253.462 108.157 253.278C108.629 253.094 109.013 252.834 109.309 252.498C109.605 252.162 109.753 251.766 109.753 251.31C109.753 250.83 109.597 250.454 109.285 250.182C108.973 249.902 108.573 249.678 108.085 249.51C107.605 249.334 107.109 249.17 106.597 249.018C105.717 248.762 104.953 248.502 104.305 248.238C103.665 247.966 103.169 247.622 102.817 247.206C102.465 246.79 102.289 246.242 102.289 245.562C102.289 244.858 102.493 244.246 102.901 243.726C103.309 243.206 103.845 242.806 104.509 242.526C105.173 242.238 105.885 242.094 106.645 242.094C107.629 242.094 108.521 242.31 109.321 242.742C110.129 243.174 110.697 243.742 111.025 244.446L109.969 245.07C109.809 244.702 109.557 244.386 109.213 244.122C108.869 243.858 108.477 243.654 108.037 243.51C107.597 243.366 107.153 243.29 106.705 243.282C106.145 243.274 105.621 243.362 105.133 243.546C104.653 243.722 104.265 243.982 103.969 244.326C103.673 244.662 103.525 245.07 103.525 245.55C103.525 246.03 103.661 246.398 103.933 246.654C104.205 246.91 104.585 247.118 105.073 247.278C105.561 247.43 106.125 247.61 106.765 247.818C107.509 248.05 108.201 248.31 108.841 248.598C109.489 248.878 110.009 249.23 110.401 249.654C110.801 250.078 110.997 250.626 110.989 251.298C110.989 252.002 110.777 252.614 110.353 253.134C109.937 253.654 109.389 254.054 108.709 254.334C108.037 254.614 107.317 254.746 106.549 254.73ZM127.045 242.502H128.401L121.849 260.502H120.469L122.653 254.502L118.345 242.502H119.761L123.301 252.714L127.045 242.502ZM135.495 254.814C134.391 254.814 133.383 254.53 132.471 253.962C131.567 253.394 130.843 252.634 130.299 251.682C129.763 250.722 129.495 249.662 129.495 248.502C129.495 247.622 129.651 246.802 129.963 246.042C130.275 245.274 130.703 244.602 131.247 244.026C131.799 243.442 132.439 242.986 133.167 242.658C133.895 242.33 134.671 242.166 135.495 242.166C136.599 242.166 137.603 242.45 138.507 243.018C139.419 243.586 140.143 244.35 140.679 245.31C141.223 246.27 141.495 247.334 141.495 248.502C141.495 249.374 141.339 250.19 141.027 250.95C140.715 251.71 140.283 252.382 139.731 252.966C139.187 253.542 138.551 253.994 137.823 254.322C137.103 254.65 136.327 254.814 135.495 254.814ZM135.495 253.518C136.383 253.518 137.179 253.286 137.883 252.822C138.595 252.358 139.159 251.746 139.575 250.986C139.991 250.226 140.199 249.398 140.199 248.502C140.199 247.598 139.991 246.762 139.575 245.994C139.159 245.226 138.595 244.614 137.883 244.158C137.171 243.694 136.375 243.462 135.495 243.462C134.607 243.462 133.807 243.694 133.095 244.158C132.383 244.622 131.819 245.238 131.403 246.006C130.995 246.766 130.791 247.598 130.791 248.502C130.791 249.438 131.003 250.286 131.427 251.046C131.859 251.798 132.431 252.398 133.143 252.846C133.855 253.294 134.639 253.518 135.495 253.518ZM143.024 249.858V242.502H144.32V249.654C144.32 250.366 144.492 251.014 144.836 251.598C145.188 252.182 145.656 252.646 146.24 252.99C146.824 253.334 147.468 253.506 148.172 253.506C148.884 253.506 149.528 253.334 150.104 252.99C150.688 252.646 151.152 252.182 151.496 251.598C151.848 251.014 152.024 250.366 152.024 249.654V242.502H153.32V254.502H152.024V252.642C151.592 253.298 151.02 253.826 150.308 254.226C149.604 254.618 148.828 254.814 147.98 254.814C147.068 254.814 146.236 254.594 145.484 254.154C144.732 253.706 144.132 253.106 143.684 252.354C143.244 251.602 143.024 250.77 143.024 249.858ZM155.715 254.502V242.502H157.011V244.338C157.443 243.674 158.015 243.146 158.727 242.754C159.439 242.362 160.215 242.166 161.055 242.166C161.527 242.166 161.979 242.226 162.411 242.346L161.871 243.618C161.527 243.522 161.191 243.474 160.863 243.474C160.159 243.474 159.515 243.646 158.931 243.99C158.347 244.334 157.879 244.798 157.527 245.382C157.183 245.966 157.011 246.614 157.011 247.326V254.502H155.715ZM178.764 251.682L179.916 252.306C179.372 253.066 178.68 253.674 177.84 254.13C177.008 254.586 176.104 254.814 175.128 254.814C174.024 254.814 173.016 254.53 172.104 253.962C171.2 253.394 170.476 252.634 169.932 251.682C169.396 250.722 169.128 249.662 169.128 248.502C169.128 247.622 169.284 246.802 169.596 246.042C169.908 245.274 170.336 244.602 170.88 244.026C171.432 243.442 172.072 242.986 172.8 242.658C173.528 242.33 174.304 242.166 175.128 242.166C176.104 242.166 177.008 242.394 177.84 242.85C178.68 243.306 179.372 243.918 179.916 244.686L178.764 245.298C178.308 244.706 177.756 244.254 177.108 243.942C176.46 243.622 175.8 243.462 175.128 243.462C174.248 243.462 173.452 243.694 172.74 244.158C172.028 244.614 171.464 245.226 171.048 245.994C170.632 246.754 170.424 247.59 170.424 248.502C170.424 249.422 170.636 250.262 171.06 251.022C171.484 251.782 172.052 252.39 172.764 252.846C173.476 253.294 174.264 253.518 175.128 253.518C175.856 253.518 176.54 253.346 177.18 253.002C177.82 252.658 178.348 252.218 178.764 251.682ZM192.105 242.502H193.401V254.502H192.105L192.069 252.042C191.661 252.874 191.077 253.546 190.317 254.058C189.565 254.562 188.661 254.814 187.605 254.814C186.733 254.814 185.913 254.65 185.145 254.322C184.385 253.986 183.713 253.53 183.129 252.954C182.545 252.37 182.089 251.698 181.761 250.938C181.433 250.17 181.269 249.346 181.269 248.466C181.269 247.594 181.429 246.778 181.749 246.018C182.077 245.258 182.529 244.59 183.105 244.014C183.681 243.43 184.349 242.978 185.109 242.658C185.869 242.33 186.681 242.166 187.545 242.166C188.609 242.166 189.529 242.426 190.305 242.946C191.089 243.458 191.701 244.13 192.141 244.962L192.105 242.502ZM187.593 253.542C188.513 253.542 189.301 253.318 189.957 252.87C190.621 252.414 191.129 251.802 191.481 251.034C191.833 250.266 192.009 249.422 192.009 248.502C192.009 247.558 191.829 246.706 191.469 245.946C191.117 245.178 190.609 244.57 189.945 244.122C189.289 243.666 188.505 243.438 187.593 243.438C186.665 243.438 185.821 243.666 185.061 244.122C184.309 244.578 183.709 245.19 183.261 245.958C182.813 246.726 182.589 247.574 182.589 248.502C182.589 249.446 182.817 250.298 183.273 251.058C183.737 251.818 184.349 252.422 185.109 252.87C185.869 253.318 186.697 253.542 187.593 253.542ZM199.549 254.73C198.885 254.722 198.233 254.606 197.593 254.382C196.961 254.15 196.409 253.842 195.937 253.458C195.465 253.074 195.137 252.638 194.953 252.15L196.093 251.658C196.229 252.018 196.489 252.342 196.873 252.63C197.265 252.918 197.705 253.146 198.193 253.314C198.689 253.474 199.173 253.554 199.645 253.554C200.181 253.554 200.685 253.462 201.157 253.278C201.629 253.094 202.013 252.834 202.309 252.498C202.605 252.162 202.753 251.766 202.753 251.31C202.753 250.83 202.597 250.454 202.285 250.182C201.973 249.902 201.573 249.678 201.085 249.51C200.605 249.334 200.109 249.17 199.597 249.018C198.717 248.762 197.953 248.502 197.305 248.238C196.665 247.966 196.169 247.622 195.817 247.206C195.465 246.79 195.289 246.242 195.289 245.562C195.289 244.858 195.493 244.246 195.901 243.726C196.309 243.206 196.845 242.806 197.509 242.526C198.173 242.238 198.885 242.094 199.645 242.094C200.629 242.094 201.521 242.31 202.321 242.742C203.129 243.174 203.697 243.742 204.025 244.446L202.969 245.07C202.809 244.702 202.557 244.386 202.213 244.122C201.869 243.858 201.477 243.654 201.037 243.51C200.597 243.366 200.153 243.29 199.705 243.282C199.145 243.274 198.621 243.362 198.133 243.546C197.653 243.722 197.265 243.982 196.969 244.326C196.673 244.662 196.525 245.07 196.525 245.55C196.525 246.03 196.661 246.398 196.933 246.654C197.205 246.91 197.585 247.118 198.073 247.278C198.561 247.43 199.125 247.61 199.765 247.818C200.509 248.05 201.201 248.31 201.841 248.598C202.489 248.878 203.009 249.23 203.401 249.654C203.801 250.078 203.997 250.626 203.989 251.298C203.989 252.002 203.777 252.614 203.353 253.134C202.937 253.654 202.389 254.054 201.709 254.334C201.037 254.614 200.317 254.746 199.549 254.73ZM211.269 254.814C210.165 254.814 209.157 254.53 208.245 253.962C207.341 253.394 206.617 252.634 206.073 251.682C205.537 250.722 205.269 249.662 205.269 248.502C205.269 247.622 205.425 246.802 205.737 246.042C206.049 245.274 206.477 244.602 207.021 244.026C207.573 243.442 208.213 242.986 208.941 242.658C209.669 242.33 210.445 242.166 211.269 242.166C212.141 242.166 212.945 242.338 213.681 242.682C214.425 243.018 215.065 243.494 215.601 244.11C216.137 244.726 216.549 245.454 216.837 246.294C217.125 247.126 217.257 248.038 217.233 249.03H206.625C206.713 249.886 206.969 250.654 207.393 251.334C207.825 252.006 208.377 252.538 209.049 252.93C209.721 253.314 210.461 253.51 211.269 253.518C212.157 253.518 212.957 253.286 213.669 252.822C214.381 252.35 214.953 251.706 215.385 250.89L216.693 251.19C216.213 252.254 215.489 253.126 214.521 253.806C213.553 254.478 212.469 254.814 211.269 254.814ZM206.589 247.926H215.925C215.877 247.102 215.637 246.346 215.205 245.658C214.781 244.962 214.225 244.406 213.537 243.99C212.849 243.574 212.093 243.366 211.269 243.366C210.445 243.366 209.693 243.57 209.013 243.978C208.333 244.386 207.777 244.938 207.345 245.634C206.921 246.322 206.669 247.086 206.589 247.926ZM218.68 255.846L219.424 251.79H220.72L219.544 255.846H218.68ZM234.024 254.502H232.656L228.636 242.502H229.896L233.364 252.762L236.808 242.502H238.236L241.68 252.762L245.124 242.502H246.408L242.376 254.502H240.996L237.504 244.134L234.024 254.502ZM253.292 254.814C252.188 254.814 251.18 254.53 250.268 253.962C249.364 253.394 248.64 252.634 248.096 251.682C247.56 250.722 247.292 249.662 247.292 248.502C247.292 247.622 247.448 246.802 247.76 246.042C248.072 245.274 248.5 244.602 249.044 244.026C249.596 243.442 250.236 242.986 250.964 242.658C251.692 242.33 252.468 242.166 253.292 242.166C254.164 242.166 254.968 242.338 255.704 242.682C256.448 243.018 257.088 243.494 257.624 244.11C258.16 244.726 258.572 245.454 258.86 246.294C259.148 247.126 259.28 248.038 259.256 249.03H248.648C248.736 249.886 248.992 250.654 249.416 251.334C249.848 252.006 250.4 252.538 251.072 252.93C251.744 253.314 252.484 253.51 253.292 253.518C254.18 253.518 254.98 253.286 255.692 252.822C256.404 252.35 256.976 251.706 257.408 250.89L258.716 251.19C258.236 252.254 257.512 253.126 256.544 253.806C255.576 254.478 254.492 254.814 253.292 254.814ZM248.612 247.926H257.948C257.9 247.102 257.66 246.346 257.228 245.658C256.804 244.962 256.248 244.406 255.56 243.99C254.872 243.574 254.116 243.366 253.292 243.366C252.468 243.366 251.716 243.57 251.036 243.978C250.356 244.386 249.8 244.938 249.368 245.634C248.944 246.322 248.692 247.086 248.612 247.926ZM271.852 254.502H270.484L266.464 242.502H267.724L271.192 252.762L274.636 242.502H276.064L279.508 252.762L282.952 242.502H284.236L280.204 254.502H278.824L275.332 244.134L271.852 254.502ZM286.309 242.502H287.605V254.502H286.309V242.502ZM286.969 240.234C286.745 240.234 286.553 240.162 286.393 240.018C286.241 239.866 286.165 239.678 286.165 239.454C286.165 239.23 286.241 239.046 286.393 238.902C286.553 238.75 286.745 238.674 286.969 238.674C287.185 238.674 287.369 238.75 287.521 238.902C287.681 239.046 287.761 239.23 287.761 239.454C287.761 239.678 287.685 239.866 287.533 240.018C287.381 240.162 287.193 240.234 286.969 240.234ZM290.598 254.502V236.502H291.894V254.502H290.598ZM294.77 254.502V236.502H296.066V254.502H294.77ZM315.003 247.122V254.502H313.707V247.326C313.707 246.614 313.535 245.966 313.191 245.382C312.847 244.798 312.383 244.334 311.799 243.99C311.215 243.646 310.567 243.474 309.855 243.474C309.151 243.474 308.507 243.646 307.923 243.99C307.339 244.334 306.871 244.798 306.519 245.382C306.175 245.966 306.003 246.614 306.003 247.326V254.502H304.707V236.502H306.003V244.338C306.435 243.674 307.007 243.146 307.719 242.754C308.431 242.362 309.207 242.166 310.047 242.166C310.967 242.166 311.799 242.39 312.543 242.838C313.295 243.278 313.891 243.874 314.331 244.626C314.779 245.378 315.003 246.21 315.003 247.122ZM322.456 254.814C321.352 254.814 320.344 254.53 319.432 253.962C318.528 253.394 317.804 252.634 317.26 251.682C316.724 250.722 316.456 249.662 316.456 248.502C316.456 247.622 316.612 246.802 316.924 246.042C317.236 245.274 317.664 244.602 318.208 244.026C318.76 243.442 319.4 242.986 320.128 242.658C320.856 242.33 321.632 242.166 322.456 242.166C323.328 242.166 324.132 242.338 324.868 242.682C325.612 243.018 326.252 243.494 326.788 244.11C327.324 244.726 327.736 245.454 328.024 246.294C328.312 247.126 328.444 248.038 328.42 249.03H317.812C317.9 249.886 318.156 250.654 318.58 251.334C319.012 252.006 319.564 252.538 320.236 252.93C320.908 253.314 321.648 253.51 322.456 253.518C323.344 253.518 324.144 253.286 324.856 252.822C325.568 252.35 326.14 251.706 326.572 250.89L327.88 251.19C327.4 252.254 326.676 253.126 325.708 253.806C324.74 254.478 323.656 254.814 322.456 254.814ZM317.776 247.926H327.112C327.064 247.102 326.824 246.346 326.392 245.658C325.968 244.962 325.412 244.406 324.724 243.99C324.036 243.574 323.28 243.366 322.456 243.366C321.632 243.366 320.88 243.57 320.2 243.978C319.52 244.386 318.964 244.938 318.532 245.634C318.108 246.322 317.856 247.086 317.776 247.926ZM330.442 254.502V236.502H331.738V254.502H330.442ZM335.91 260.502H334.614V242.502H335.91V244.974C336.334 244.142 336.926 243.47 337.686 242.958C338.454 242.446 339.37 242.19 340.434 242.19C341.306 242.19 342.122 242.354 342.882 242.682C343.642 243.01 344.31 243.466 344.886 244.05C345.47 244.626 345.926 245.294 346.254 246.054C346.582 246.814 346.746 247.63 346.746 248.502C346.746 249.374 346.582 250.194 346.254 250.962C345.926 251.73 345.47 252.406 344.886 252.99C344.31 253.566 343.642 254.018 342.882 254.346C342.122 254.674 341.306 254.838 340.434 254.838C339.37 254.838 338.454 254.582 337.686 254.07C336.926 253.558 336.334 252.886 335.91 252.054V260.502ZM340.422 243.462C339.51 243.462 338.722 243.69 338.058 244.146C337.402 244.594 336.894 245.198 336.534 245.958C336.182 246.718 336.006 247.566 336.006 248.502C336.006 249.422 336.182 250.266 336.534 251.034C336.886 251.802 337.39 252.418 338.046 252.882C338.71 253.338 339.502 253.566 340.422 253.566C341.326 253.566 342.154 253.342 342.906 252.894C343.666 252.446 344.278 251.842 344.742 251.082C345.206 250.314 345.438 249.454 345.438 248.502C345.438 247.582 345.21 246.742 344.754 245.982C344.306 245.214 343.702 244.602 342.942 244.146C342.19 243.69 341.35 243.462 340.422 243.462ZM78.6695 271.502H80.0255L73.4735 289.502H72.0935L74.2775 283.502L69.9695 271.502H71.3855L74.9255 281.714L78.6695 271.502ZM87.1202 283.814C86.0162 283.814 85.0082 283.53 84.0962 282.962C83.1922 282.394 82.4682 281.634 81.9242 280.682C81.3882 279.722 81.1202 278.662 81.1202 277.502C81.1202 276.622 81.2762 275.802 81.5882 275.042C81.9002 274.274 82.3282 273.602 82.8722 273.026C83.4242 272.442 84.0642 271.986 84.7922 271.658C85.5202 271.33 86.2962 271.166 87.1202 271.166C88.2242 271.166 89.2282 271.45 90.1322 272.018C91.0442 272.586 91.7682 273.35 92.3042 274.31C92.8482 275.27 93.1202 276.334 93.1202 277.502C93.1202 278.374 92.9642 279.19 92.6522 279.95C92.3402 280.71 91.9082 281.382 91.3562 281.966C90.8122 282.542 90.1762 282.994 89.4482 283.322C88.7282 283.65 87.9522 283.814 87.1202 283.814ZM87.1202 282.518C88.0082 282.518 88.8042 282.286 89.5082 281.822C90.2202 281.358 90.7842 280.746 91.2002 279.986C91.6162 279.226 91.8242 278.398 91.8242 277.502C91.8242 276.598 91.6162 275.762 91.2002 274.994C90.7842 274.226 90.2202 273.614 89.5082 273.158C88.7962 272.694 88.0002 272.462 87.1202 272.462C86.2322 272.462 85.4322 272.694 84.7202 273.158C84.0082 273.622 83.4442 274.238 83.0282 275.006C82.6202 275.766 82.4162 276.598 82.4162 277.502C82.4162 278.438 82.6282 279.286 83.0522 280.046C83.4842 280.798 84.0562 281.398 84.7682 281.846C85.4802 282.294 86.2642 282.518 87.1202 282.518ZM94.6492 278.858V271.502H95.9452V278.654C95.9452 279.366 96.1172 280.014 96.4612 280.598C96.8132 281.182 97.2812 281.646 97.8652 281.99C98.4492 282.334 99.0932 282.506 99.7972 282.506C100.509 282.506 101.153 282.334 101.729 281.99C102.313 281.646 102.777 281.182 103.121 280.598C103.473 280.014 103.649 279.366 103.649 278.654V271.502H104.945V283.502H103.649V281.642C103.217 282.298 102.645 282.826 101.933 283.226C101.229 283.618 100.453 283.814 99.6052 283.814C98.6932 283.814 97.8612 283.594 97.1092 283.154C96.3572 282.706 95.7572 282.106 95.3092 281.354C94.8692 280.602 94.6492 279.77 94.6492 278.858ZM122.838 271.502H124.134V284.006C124.134 284.75 123.97 285.45 123.642 286.106C123.322 286.77 122.886 287.354 122.334 287.858C121.782 288.37 121.154 288.77 120.45 289.058C119.754 289.354 119.034 289.502 118.29 289.502C117.458 289.502 116.654 289.306 115.878 288.914C115.102 288.53 114.43 288.014 113.862 287.366C113.302 286.718 112.914 286.01 112.698 285.242L113.898 284.69C114.042 285.338 114.338 285.926 114.786 286.454C115.234 286.99 115.766 287.414 116.382 287.726C117.006 288.038 117.642 288.194 118.29 288.194C118.866 288.194 119.426 288.082 119.97 287.858C120.514 287.634 121.002 287.326 121.434 286.934C121.866 286.55 122.206 286.106 122.454 285.602C122.71 285.098 122.838 284.566 122.838 284.006V281.066C122.414 281.882 121.826 282.546 121.074 283.058C120.322 283.562 119.446 283.814 118.446 283.814C117.614 283.814 116.83 283.65 116.094 283.322C115.358 282.994 114.714 282.542 114.162 281.966C113.61 281.382 113.174 280.71 112.854 279.95C112.542 279.19 112.386 278.374 112.386 277.502C112.386 276.63 112.542 275.814 112.854 275.054C113.174 274.286 113.61 273.614 114.162 273.038C114.714 272.454 115.358 271.998 116.094 271.67C116.83 271.342 117.614 271.178 118.446 271.178C119.446 271.178 120.322 271.43 121.074 271.934C121.826 272.43 122.414 273.094 122.838 273.926V271.502ZM118.458 282.542C119.354 282.542 120.122 282.31 120.762 281.846C121.41 281.382 121.906 280.766 122.25 279.998C122.602 279.23 122.778 278.398 122.778 277.502C122.778 276.582 122.602 275.742 122.25 274.982C121.898 274.214 121.398 273.598 120.75 273.134C120.102 272.67 119.338 272.438 118.458 272.438C117.578 272.438 116.778 272.666 116.058 273.122C115.338 273.578 114.766 274.19 114.342 274.958C113.918 275.726 113.706 276.574 113.706 277.502C113.706 278.438 113.922 279.286 114.354 280.046C114.786 280.806 115.362 281.414 116.082 281.87C116.802 282.318 117.594 282.542 118.458 282.542ZM132.214 283.814C131.11 283.814 130.102 283.53 129.19 282.962C128.286 282.394 127.562 281.634 127.018 280.682C126.482 279.722 126.214 278.662 126.214 277.502C126.214 276.622 126.37 275.802 126.682 275.042C126.994 274.274 127.422 273.602 127.966 273.026C128.518 272.442 129.158 271.986 129.886 271.658C130.614 271.33 131.39 271.166 132.214 271.166C133.086 271.166 133.89 271.338 134.626 271.682C135.37 272.018 136.01 272.494 136.546 273.11C137.082 273.726 137.494 274.454 137.782 275.294C138.07 276.126 138.202 277.038 138.178 278.03H127.57C127.658 278.886 127.914 279.654 128.338 280.334C128.77 281.006 129.322 281.538 129.994 281.93C130.666 282.314 131.406 282.51 132.214 282.518C133.102 282.518 133.902 282.286 134.614 281.822C135.326 281.35 135.898 280.706 136.33 279.89L137.638 280.19C137.158 281.254 136.434 282.126 135.466 282.806C134.498 283.478 133.414 283.814 132.214 283.814ZM127.534 276.926H136.87C136.822 276.102 136.582 275.346 136.15 274.658C135.726 273.962 135.17 273.406 134.482 272.99C133.794 272.574 133.038 272.366 132.214 272.366C131.39 272.366 130.638 272.57 129.958 272.978C129.278 273.386 128.722 273.938 128.29 274.634C127.866 275.322 127.614 276.086 127.534 276.926ZM146.025 272.798H142.989L142.977 283.502H141.681L141.693 272.798H139.401V271.502H141.693L141.681 267.734H142.977L142.989 271.502H146.025V272.798ZM159.97 272.798H156.934L156.922 283.502H155.626L155.638 272.798H153.346V271.502H155.638L155.626 267.734H156.922L156.934 271.502H159.97V272.798ZM167.042 283.814C165.938 283.814 164.93 283.53 164.018 282.962C163.114 282.394 162.39 281.634 161.846 280.682C161.31 279.722 161.042 278.662 161.042 277.502C161.042 276.622 161.198 275.802 161.51 275.042C161.822 274.274 162.25 273.602 162.794 273.026C163.346 272.442 163.986 271.986 164.714 271.658C165.442 271.33 166.218 271.166 167.042 271.166C168.146 271.166 169.15 271.45 170.054 272.018C170.966 272.586 171.69 273.35 172.226 274.31C172.77 275.27 173.042 276.334 173.042 277.502C173.042 278.374 172.886 279.19 172.574 279.95C172.262 280.71 171.83 281.382 171.278 281.966C170.734 282.542 170.098 282.994 169.37 283.322C168.65 283.65 167.874 283.814 167.042 283.814ZM167.042 282.518C167.93 282.518 168.726 282.286 169.43 281.822C170.142 281.358 170.706 280.746 171.122 279.986C171.538 279.226 171.746 278.398 171.746 277.502C171.746 276.598 171.538 275.762 171.122 274.994C170.706 274.226 170.142 273.614 169.43 273.158C168.718 272.694 167.922 272.462 167.042 272.462C166.154 272.462 165.354 272.694 164.642 273.158C163.93 273.622 163.366 274.238 162.95 275.006C162.542 275.766 162.338 276.598 162.338 277.502C162.338 278.438 162.55 279.286 162.974 280.046C163.406 280.798 163.978 281.398 164.69 281.846C165.402 282.294 166.186 282.518 167.042 282.518ZM186.993 272.798H183.957L183.945 283.502H182.649L182.661 272.798H180.369V271.502H182.661L182.649 267.734H183.945L183.957 271.502H186.993V272.798ZM199.433 276.122V283.502H198.137V276.326C198.137 275.614 197.965 274.966 197.621 274.382C197.277 273.798 196.813 273.334 196.229 272.99C195.645 272.646 194.997 272.474 194.285 272.474C193.581 272.474 192.937 272.646 192.353 272.99C191.769 273.334 191.301 273.798 190.949 274.382C190.605 274.966 190.433 275.614 190.433 276.326V283.502H189.137V265.502H190.433V273.338C190.865 272.674 191.437 272.146 192.149 271.754C192.861 271.362 193.637 271.166 194.477 271.166C195.397 271.166 196.229 271.39 196.973 271.838C197.725 272.278 198.321 272.874 198.761 273.626C199.209 274.378 199.433 275.21 199.433 276.122ZM206.886 283.814C205.782 283.814 204.774 283.53 203.862 282.962C202.958 282.394 202.234 281.634 201.69 280.682C201.154 279.722 200.886 278.662 200.886 277.502C200.886 276.622 201.042 275.802 201.354 275.042C201.666 274.274 202.094 273.602 202.638 273.026C203.19 272.442 203.83 271.986 204.558 271.658C205.286 271.33 206.062 271.166 206.886 271.166C207.758 271.166 208.562 271.338 209.298 271.682C210.042 272.018 210.682 272.494 211.218 273.11C211.754 273.726 212.166 274.454 212.454 275.294C212.742 276.126 212.874 277.038 212.85 278.03H202.242C202.33 278.886 202.586 279.654 203.01 280.334C203.442 281.006 203.994 281.538 204.666 281.93C205.338 282.314 206.078 282.51 206.886 282.518C207.774 282.518 208.574 282.286 209.286 281.822C209.998 281.35 210.57 280.706 211.002 279.89L212.31 280.19C211.83 281.254 211.106 282.126 210.138 282.806C209.17 283.478 208.086 283.814 206.886 283.814ZM202.206 276.926H211.542C211.494 276.102 211.254 275.346 210.822 274.658C210.398 273.962 209.842 273.406 209.154 272.99C208.466 272.574 207.71 272.366 206.886 272.366C206.062 272.366 205.31 272.57 204.63 272.978C203.95 273.386 203.394 273.938 202.962 274.634C202.538 275.322 202.286 276.086 202.206 276.926ZM231.074 276.122V283.502H229.778V276.326C229.778 275.614 229.606 274.966 229.262 274.382C228.918 273.798 228.454 273.334 227.87 272.99C227.286 272.646 226.638 272.474 225.926 272.474C225.222 272.474 224.578 272.646 223.994 272.99C223.41 273.334 222.942 273.798 222.59 274.382C222.246 274.966 222.074 275.614 222.074 276.326V283.502H220.778V271.502H222.074V273.338C222.506 272.674 223.078 272.146 223.79 271.754C224.502 271.362 225.278 271.166 226.118 271.166C227.038 271.166 227.87 271.39 228.614 271.838C229.366 272.278 229.962 272.874 230.402 273.626C230.85 274.378 231.074 275.21 231.074 276.122ZM238.526 283.814C237.422 283.814 236.414 283.53 235.502 282.962C234.598 282.394 233.874 281.634 233.33 280.682C232.794 279.722 232.526 278.662 232.526 277.502C232.526 276.622 232.682 275.802 232.994 275.042C233.306 274.274 233.734 273.602 234.278 273.026C234.83 272.442 235.47 271.986 236.198 271.658C236.926 271.33 237.702 271.166 238.526 271.166C239.398 271.166 240.202 271.338 240.938 271.682C241.682 272.018 242.322 272.494 242.858 273.11C243.394 273.726 243.806 274.454 244.094 275.294C244.382 276.126 244.514 277.038 244.49 278.03H233.882C233.97 278.886 234.226 279.654 234.65 280.334C235.082 281.006 235.634 281.538 236.306 281.93C236.978 282.314 237.718 282.51 238.526 282.518C239.414 282.518 240.214 282.286 240.926 281.822C241.638 281.35 242.21 280.706 242.642 279.89L243.95 280.19C243.47 281.254 242.746 282.126 241.778 282.806C240.81 283.478 239.726 283.814 238.526 283.814ZM233.846 276.926H243.182C243.134 276.102 242.894 275.346 242.462 274.658C242.038 273.962 241.482 273.406 240.794 272.99C240.106 272.574 239.35 272.366 238.526 272.366C237.702 272.366 236.95 272.57 236.27 272.978C235.59 273.386 235.034 273.938 234.602 274.634C234.178 275.322 233.926 276.086 233.846 276.926ZM245.305 283.502L249.697 277.478L245.317 271.466H246.913L250.501 276.362L254.077 271.466H255.673L251.293 277.478L255.685 283.502H254.089L250.501 278.57L246.901 283.502H245.305ZM264.126 272.798H261.09L261.078 283.502H259.782L259.794 272.798H257.502V271.502H259.794L259.782 267.734H261.078L261.09 271.502H264.126V272.798ZM272.035 283.502V265.502H273.331V283.502H272.035ZM281.417 283.814C280.313 283.814 279.305 283.53 278.393 282.962C277.489 282.394 276.765 281.634 276.221 280.682C275.685 279.722 275.417 278.662 275.417 277.502C275.417 276.622 275.573 275.802 275.885 275.042C276.197 274.274 276.625 273.602 277.169 273.026C277.721 272.442 278.361 271.986 279.089 271.658C279.817 271.33 280.593 271.166 281.417 271.166C282.289 271.166 283.093 271.338 283.829 271.682C284.573 272.018 285.213 272.494 285.749 273.11C286.285 273.726 286.697 274.454 286.985 275.294C287.273 276.126 287.405 277.038 287.381 278.03H276.773C276.861 278.886 277.117 279.654 277.541 280.334C277.973 281.006 278.525 281.538 279.197 281.93C279.869 282.314 280.609 282.51 281.417 282.518C282.305 282.518 283.105 282.286 283.817 281.822C284.529 281.35 285.101 280.706 285.533 279.89L286.841 280.19C286.361 281.254 285.637 282.126 284.669 282.806C283.701 283.478 282.617 283.814 281.417 283.814ZM276.737 276.926H286.073C286.025 276.102 285.785 275.346 285.353 274.658C284.929 273.962 284.373 273.406 283.685 272.99C282.997 272.574 282.241 272.366 281.417 272.366C280.593 272.366 279.841 272.57 279.161 272.978C278.481 273.386 277.925 273.938 277.493 274.634C277.069 275.322 276.817 276.086 276.737 276.926ZM294.273 283.502H292.641L288.261 271.466H289.641L293.457 281.966L297.273 271.466H298.653L294.273 283.502ZM305.534 283.814C304.43 283.814 303.422 283.53 302.51 282.962C301.606 282.394 300.882 281.634 300.338 280.682C299.802 279.722 299.534 278.662 299.534 277.502C299.534 276.622 299.69 275.802 300.002 275.042C300.314 274.274 300.742 273.602 301.286 273.026C301.838 272.442 302.478 271.986 303.206 271.658C303.934 271.33 304.71 271.166 305.534 271.166C306.406 271.166 307.21 271.338 307.946 271.682C308.69 272.018 309.33 272.494 309.866 273.11C310.402 273.726 310.814 274.454 311.102 275.294C311.39 276.126 311.522 277.038 311.498 278.03H300.89C300.978 278.886 301.234 279.654 301.658 280.334C302.09 281.006 302.642 281.538 303.314 281.93C303.986 282.314 304.726 282.51 305.534 282.518C306.422 282.518 307.222 282.286 307.934 281.822C308.646 281.35 309.218 280.706 309.65 279.89L310.958 280.19C310.478 281.254 309.754 282.126 308.786 282.806C307.818 283.478 306.734 283.814 305.534 283.814ZM300.854 276.926H310.19C310.142 276.102 309.902 275.346 309.47 274.658C309.046 273.962 308.49 273.406 307.802 272.99C307.114 272.574 306.358 272.366 305.534 272.366C304.71 272.366 303.958 272.57 303.278 272.978C302.598 273.386 302.042 273.938 301.61 274.634C301.186 275.322 300.934 276.086 300.854 276.926ZM313.52 283.502V265.502H314.816V283.502H313.52ZM119.467 309.682L120.619 310.306C120.075 311.066 119.383 311.674 118.543 312.13C117.711 312.586 116.807 312.814 115.831 312.814C114.727 312.814 113.719 312.53 112.807 311.962C111.903 311.394 111.179 310.634 110.635 309.682C110.099 308.722 109.831 307.662 109.831 306.502C109.831 305.622 109.987 304.802 110.299 304.042C110.611 303.274 111.039 302.602 111.583 302.026C112.135 301.442 112.775 300.986 113.503 300.658C114.231 300.33 115.007 300.166 115.831 300.166C116.807 300.166 117.711 300.394 118.543 300.85C119.383 301.306 120.075 301.918 120.619 302.686L119.467 303.298C119.011 302.706 118.459 302.254 117.811 301.942C117.163 301.622 116.503 301.462 115.831 301.462C114.951 301.462 114.155 301.694 113.443 302.158C112.731 302.614 112.167 303.226 111.751 303.994C111.335 304.754 111.127 305.59 111.127 306.502C111.127 307.422 111.339 308.262 111.763 309.022C112.187 309.782 112.755 310.39 113.467 310.846C114.179 311.294 114.967 311.518 115.831 311.518C116.559 311.518 117.243 311.346 117.883 311.002C118.523 310.658 119.051 310.218 119.467 309.682ZM127.972 312.814C126.868 312.814 125.86 312.53 124.948 311.962C124.044 311.394 123.32 310.634 122.776 309.682C122.24 308.722 121.972 307.662 121.972 306.502C121.972 305.622 122.128 304.802 122.44 304.042C122.752 303.274 123.18 302.602 123.724 302.026C124.276 301.442 124.916 300.986 125.644 300.658C126.372 300.33 127.148 300.166 127.972 300.166C129.076 300.166 130.08 300.45 130.984 301.018C131.896 301.586 132.62 302.35 133.156 303.31C133.7 304.27 133.972 305.334 133.972 306.502C133.972 307.374 133.816 308.19 133.504 308.95C133.192 309.71 132.76 310.382 132.208 310.966C131.664 311.542 131.028 311.994 130.3 312.322C129.58 312.65 128.804 312.814 127.972 312.814ZM127.972 311.518C128.86 311.518 129.656 311.286 130.36 310.822C131.072 310.358 131.636 309.746 132.052 308.986C132.468 308.226 132.676 307.398 132.676 306.502C132.676 305.598 132.468 304.762 132.052 303.994C131.636 303.226 131.072 302.614 130.36 302.158C129.648 301.694 128.852 301.462 127.972 301.462C127.084 301.462 126.284 301.694 125.572 302.158C124.86 302.622 124.296 303.238 123.88 304.006C123.472 304.766 123.268 305.598 123.268 306.502C123.268 307.438 123.48 308.286 123.904 309.046C124.336 309.798 124.908 310.398 125.62 310.846C126.332 311.294 127.116 311.518 127.972 311.518ZM136.051 312.502V300.502H137.347V302.338C137.787 301.674 138.359 301.146 139.063 300.754C139.767 300.362 140.543 300.166 141.391 300.166C142.319 300.166 143.163 300.398 143.923 300.862C144.691 301.318 145.287 301.926 145.711 302.686C146.135 301.926 146.727 301.318 147.487 300.862C148.247 300.398 149.091 300.166 150.019 300.166C150.931 300.166 151.763 300.39 152.515 300.838C153.267 301.278 153.863 301.874 154.303 302.626C154.751 303.378 154.975 304.21 154.975 305.122V312.502H153.679V305.362C153.679 304.666 153.511 304.026 153.175 303.442C152.839 302.85 152.387 302.374 151.819 302.014C151.251 301.654 150.619 301.474 149.923 301.474C149.235 301.474 148.603 301.642 148.027 301.978C147.459 302.306 147.007 302.762 146.671 303.346C146.335 303.93 146.167 304.602 146.167 305.362V312.502H144.871V305.362C144.871 304.602 144.699 303.93 144.355 303.346C144.019 302.762 143.567 302.306 142.999 301.978C142.431 301.642 141.799 301.474 141.103 301.474C140.415 301.474 139.787 301.654 139.219 302.014C138.651 302.374 138.195 302.85 137.851 303.442C137.515 304.026 137.347 304.666 137.347 305.362V312.502H136.051ZM158.675 318.502H157.379V300.502H158.675V302.974C159.099 302.142 159.691 301.47 160.451 300.958C161.219 300.446 162.135 300.19 163.199 300.19C164.071 300.19 164.887 300.354 165.647 300.682C166.407 301.01 167.075 301.466 167.651 302.05C168.235 302.626 168.691 303.294 169.019 304.054C169.347 304.814 169.511 305.63 169.511 306.502C169.511 307.374 169.347 308.194 169.019 308.962C168.691 309.73 168.235 310.406 167.651 310.99C167.075 311.566 166.407 312.018 165.647 312.346C164.887 312.674 164.071 312.838 163.199 312.838C162.135 312.838 161.219 312.582 160.451 312.07C159.691 311.558 159.099 310.886 158.675 310.054V318.502ZM163.187 301.462C162.275 301.462 161.487 301.69 160.823 302.146C160.167 302.594 159.659 303.198 159.299 303.958C158.947 304.718 158.771 305.566 158.771 306.502C158.771 307.422 158.947 308.266 159.299 309.034C159.651 309.802 160.155 310.418 160.811 310.882C161.475 311.338 162.267 311.566 163.187 311.566C164.091 311.566 164.919 311.342 165.671 310.894C166.431 310.446 167.043 309.842 167.507 309.082C167.971 308.314 168.203 307.454 168.203 306.502C168.203 305.582 167.975 304.742 167.519 303.982C167.071 303.214 166.467 302.602 165.707 302.146C164.955 301.69 164.115 301.462 163.187 301.462ZM171.535 312.502V294.502H172.831V312.502H171.535ZM180.917 312.814C179.813 312.814 178.805 312.53 177.893 311.962C176.989 311.394 176.265 310.634 175.721 309.682C175.185 308.722 174.917 307.662 174.917 306.502C174.917 305.622 175.073 304.802 175.385 304.042C175.697 303.274 176.125 302.602 176.669 302.026C177.221 301.442 177.861 300.986 178.589 300.658C179.317 300.33 180.093 300.166 180.917 300.166C181.789 300.166 182.593 300.338 183.329 300.682C184.073 301.018 184.713 301.494 185.249 302.11C185.785 302.726 186.197 303.454 186.485 304.294C186.773 305.126 186.905 306.038 186.881 307.03H176.273C176.361 307.886 176.617 308.654 177.041 309.334C177.473 310.006 178.025 310.538 178.697 310.93C179.369 311.314 180.109 311.51 180.917 311.518C181.805 311.518 182.605 311.286 183.317 310.822C184.029 310.35 184.601 309.706 185.033 308.89L186.341 309.19C185.861 310.254 185.137 311.126 184.169 311.806C183.201 312.478 182.117 312.814 180.917 312.814ZM176.237 305.926H185.573C185.525 305.102 185.285 304.346 184.853 303.658C184.429 302.962 183.873 302.406 183.185 301.99C182.497 301.574 181.741 301.366 180.917 301.366C180.093 301.366 179.341 301.57 178.661 301.978C177.981 302.386 177.425 302.938 176.993 303.634C176.569 304.322 176.317 305.086 176.237 305.926ZM194.728 301.798H191.692L191.68 312.502H190.384L190.396 301.798H188.104V300.502H190.396L190.384 296.734H191.68L191.692 300.502H194.728V301.798ZM201.8 312.814C200.696 312.814 199.688 312.53 198.776 311.962C197.872 311.394 197.148 310.634 196.604 309.682C196.068 308.722 195.8 307.662 195.8 306.502C195.8 305.622 195.956 304.802 196.268 304.042C196.58 303.274 197.008 302.602 197.552 302.026C198.104 301.442 198.744 300.986 199.472 300.658C200.2 300.33 200.976 300.166 201.8 300.166C202.672 300.166 203.476 300.338 204.212 300.682C204.956 301.018 205.596 301.494 206.132 302.11C206.668 302.726 207.08 303.454 207.368 304.294C207.656 305.126 207.788 306.038 207.764 307.03H197.156C197.244 307.886 197.5 308.654 197.924 309.334C198.356 310.006 198.908 310.538 199.58 310.93C200.252 311.314 200.992 311.51 201.8 311.518C202.688 311.518 203.488 311.286 204.2 310.822C204.912 310.35 205.484 309.706 205.916 308.89L207.224 309.19C206.744 310.254 206.02 311.126 205.052 311.806C204.084 312.478 203 312.814 201.8 312.814ZM197.12 305.926H206.456C206.408 305.102 206.168 304.346 205.736 303.658C205.312 302.962 204.756 302.406 204.068 301.99C203.38 301.574 202.624 301.366 201.8 301.366C200.976 301.366 200.224 301.57 199.544 301.978C198.864 302.386 198.308 302.938 197.876 303.634C197.452 304.322 197.2 305.086 197.12 305.926ZM209.785 312.502V294.502H211.081V312.502H209.785ZM221.966 300.502H223.322L216.77 318.502H215.39L217.574 312.502L213.266 300.502H214.682L218.222 310.714L221.966 300.502ZM233.685 297.178V300.502H237.393V301.798H233.685V312.502H232.389V301.798H230.649V300.502H232.389V297.178C232.389 296.634 232.521 296.138 232.785 295.69C233.057 295.242 233.417 294.886 233.865 294.622C234.321 294.35 234.821 294.214 235.365 294.214C235.765 294.214 236.149 294.294 236.517 294.454C236.885 294.606 237.213 294.83 237.501 295.126L236.577 296.038C236.433 295.87 236.253 295.742 236.037 295.654C235.821 295.558 235.597 295.51 235.365 295.51C234.909 295.51 234.513 295.674 234.177 296.002C233.849 296.33 233.685 296.722 233.685 297.178ZM239.668 312.502V300.502H240.964V302.338C241.396 301.674 241.968 301.146 242.68 300.754C243.392 300.362 244.168 300.166 245.008 300.166C245.48 300.166 245.932 300.226 246.364 300.346L245.824 301.618C245.48 301.522 245.144 301.474 244.816 301.474C244.112 301.474 243.468 301.646 242.884 301.99C242.3 302.334 241.832 302.798 241.48 303.382C241.136 303.966 240.964 304.614 240.964 305.326V312.502H239.668ZM252.542 312.814C251.438 312.814 250.43 312.53 249.518 311.962C248.614 311.394 247.89 310.634 247.346 309.682C246.81 308.722 246.542 307.662 246.542 306.502C246.542 305.622 246.698 304.802 247.01 304.042C247.322 303.274 247.75 302.602 248.294 302.026C248.846 301.442 249.486 300.986 250.214 300.658C250.942 300.33 251.718 300.166 252.542 300.166C253.414 300.166 254.218 300.338 254.954 300.682C255.698 301.018 256.338 301.494 256.874 302.11C257.41 302.726 257.822 303.454 258.11 304.294C258.398 305.126 258.53 306.038 258.506 307.03H247.898C247.986 307.886 248.242 308.654 248.666 309.334C249.098 310.006 249.65 310.538 250.322 310.93C250.994 311.314 251.734 311.51 252.542 311.518C253.43 311.518 254.23 311.286 254.942 310.822C255.654 310.35 256.226 309.706 256.658 308.89L257.966 309.19C257.486 310.254 256.762 311.126 255.794 311.806C254.826 312.478 253.742 312.814 252.542 312.814ZM247.862 305.926H257.198C257.15 305.102 256.91 304.346 256.478 303.658C256.054 302.962 255.498 302.406 254.81 301.99C254.122 301.574 253.366 301.366 252.542 301.366C251.718 301.366 250.966 301.57 250.286 301.978C249.606 302.386 249.05 302.938 248.618 303.634C248.194 304.322 247.942 305.086 247.862 305.926ZM265.714 312.814C264.61 312.814 263.602 312.53 262.69 311.962C261.786 311.394 261.062 310.634 260.518 309.682C259.982 308.722 259.714 307.662 259.714 306.502C259.714 305.622 259.87 304.802 260.182 304.042C260.494 303.274 260.922 302.602 261.466 302.026C262.018 301.442 262.658 300.986 263.386 300.658C264.114 300.33 264.89 300.166 265.714 300.166C266.586 300.166 267.39 300.338 268.126 300.682C268.87 301.018 269.51 301.494 270.046 302.11C270.582 302.726 270.994 303.454 271.282 304.294C271.57 305.126 271.702 306.038 271.678 307.03H261.07C261.158 307.886 261.414 308.654 261.838 309.334C262.27 310.006 262.822 310.538 263.494 310.93C264.166 311.314 264.906 311.51 265.714 311.518C266.602 311.518 267.402 311.286 268.114 310.822C268.826 310.35 269.398 309.706 269.83 308.89L271.138 309.19C270.658 310.254 269.934 311.126 268.966 311.806C267.998 312.478 266.914 312.814 265.714 312.814ZM261.034 305.926H270.37C270.322 305.102 270.082 304.346 269.65 303.658C269.226 302.962 268.67 302.406 267.982 301.99C267.294 301.574 266.538 301.366 265.714 301.366C264.89 301.366 264.138 301.57 263.458 301.978C262.778 302.386 262.222 302.938 261.79 303.634C261.366 304.322 261.114 305.086 261.034 305.926ZM273.906 312.814C273.69 312.814 273.506 312.734 273.354 312.574C273.202 312.422 273.126 312.234 273.126 312.01C273.126 311.802 273.202 311.622 273.354 311.47C273.506 311.31 273.69 311.23 273.906 311.23C274.13 311.23 274.318 311.31 274.47 311.47C274.63 311.622 274.71 311.802 274.71 312.01C274.71 312.234 274.63 312.422 274.47 312.574C274.318 312.734 274.13 312.814 273.906 312.814Z" fill="white"/>
<defs>
<linearGradient id="paint0_linear_359_144" x1="174.131" y1="127.344" x2="211.181" y2="148.736" gradientUnits="userSpaceOnUse">
<stop offset="0.29" stop-color="#F56D50"/>
<stop offset="0.99" stop-color="#F57438"/>
</linearGradient>
<linearGradient id="paint1_linear_359_144" x1="185.416" y1="135.697" x2="194.9" y2="145.33" gradientUnits="userSpaceOnUse">
<stop offset="0.29" stop-color="#F56D50"/>
<stop offset="0.99" stop-color="#F57438"/>
</linearGradient>
<linearGradient id="paint2_linear_359_144" x1="147.535" y1="99.5354" x2="238.977" y2="151.018" gradientUnits="userSpaceOnUse">
<stop offset="0.29" stop-color="#F56D50"/>
<stop offset="0.99" stop-color="#F57438"/>
</linearGradient>
<linearGradient id="paint3_linear_359_144" x1="149.348" y1="124.491" x2="155.947" y2="151.545" gradientUnits="userSpaceOnUse">
<stop offset="0.29" stop-color="#F56D50"/>
<stop offset="0.99" stop-color="#F57438"/>
</linearGradient>
</defs>
</svg>
