<svg width="386" height="401" viewBox="0 0 386 401" fill="none" xmlns="http://www.w3.org/2000/svg">
<rect width="385.261" height="401" rx="59" fill="black" fill-opacity="0.53"/>
<path d="M179.401 134.76C179.401 139.893 183.37 144.021 188.238 144.021H198.187C202.42 144.021 205.86 140.423 205.86 135.925C205.86 131.109 203.743 129.363 200.621 128.252L184.693 122.695C181.571 121.584 179.454 119.891 179.454 115.023C179.454 110.578 182.894 106.926 187.127 106.926H197.075C201.944 106.926 205.913 111.054 205.913 116.187M192.63 101.688V149.312" stroke="url(#paint0_linear_240_28)" stroke-width="7.9375" stroke-linecap="round" stroke-linejoin="round"/>
<path d="M245.547 125.5C245.547 154.71 221.84 178.417 192.63 178.417C163.42 178.417 139.714 154.71 139.714 125.5C139.714 96.29 163.42 72.5834 192.63 72.5834" stroke="url(#paint1_linear_240_28)" stroke-width="7.9375" stroke-linecap="round" stroke-linejoin="round"/>
<path d="M219.089 77.875V99.0417M219.089 99.0417H240.255M219.089 99.0417L245.547 72.5834" stroke="url(#paint2_linear_240_28)" stroke-width="7.9375" stroke-linecap="round" stroke-linejoin="round"/>
<path d="M92.8243 223.112C91.7843 223.112 90.8363 222.856 89.9803 222.344C89.1323 221.84 88.4523 221.164 87.9403 220.316C87.4363 219.468 87.1843 218.528 87.1843 217.496C87.1843 216.432 87.4443 215.452 87.9643 214.556C88.4843 213.652 89.1923 212.964 90.0883 212.492C90.3763 212.34 90.6003 212.128 90.7603 211.856C90.9203 211.576 91.0003 211.272 91.0003 210.944H94.3123C94.3123 211.88 94.0763 212.744 93.6043 213.536C93.1323 214.328 92.4803 214.952 91.6483 215.408C91.2883 215.592 91.0043 215.872 90.7963 216.248C90.5963 216.624 90.4963 217.04 90.4963 217.496C90.4963 217.92 90.6003 218.308 90.8083 218.66C91.0163 219.012 91.2963 219.288 91.6483 219.488C92.0083 219.696 92.4003 219.8 92.8243 219.8C93.2483 219.8 93.6363 219.696 93.9883 219.488C94.3483 219.288 94.6323 219.012 94.8403 218.66C95.0483 218.308 95.1523 217.92 95.1523 217.496H98.4643C98.4643 218.528 98.2083 219.468 97.6963 220.316C97.1923 221.164 96.5123 221.84 95.6563 222.344C94.8083 222.856 93.8643 223.112 92.8243 223.112ZM92.5003 209.036C92.0443 209.036 91.6523 208.876 91.3243 208.556C91.0043 208.228 90.8443 207.836 90.8443 207.38C90.8443 206.9 91.0043 206.5 91.3243 206.18C91.6523 205.852 92.0443 205.688 92.5003 205.688C92.9643 205.688 93.3563 205.852 93.6763 206.18C94.0043 206.5 94.1683 206.9 94.1683 207.38C94.1683 207.836 94.0043 208.228 93.6763 208.556C93.3563 208.876 92.9643 209.036 92.5003 209.036ZM101.305 218V201.2H107.557C108.461 201.2 109.281 201.388 110.017 201.764C110.753 202.132 111.333 202.66 111.757 203.348C112.189 204.036 112.405 204.844 112.405 205.772C112.405 206.148 112.353 206.536 112.249 206.936C112.153 207.336 111.985 207.704 111.745 208.04C111.513 208.376 111.193 208.632 110.785 208.808C111.313 208.936 111.737 209.176 112.057 209.528C112.377 209.872 112.621 210.272 112.789 210.728C112.957 211.176 113.069 211.636 113.125 212.108C113.181 212.58 113.209 213.008 113.209 213.392C113.209 214.256 112.985 215.036 112.537 215.732C112.089 216.428 111.485 216.98 110.725 217.388C109.973 217.796 109.141 218 108.229 218H101.305ZM104.617 215.18H107.881C108.321 215.18 108.721 215.076 109.081 214.868C109.441 214.652 109.729 214.36 109.945 213.992C110.161 213.616 110.269 213.192 110.269 212.72C110.269 212.32 110.161 211.94 109.945 211.58C109.729 211.22 109.441 210.928 109.081 210.704C108.721 210.472 108.321 210.356 107.881 210.356H104.617V215.18ZM104.617 207.596H107.173C107.701 207.596 108.153 207.424 108.529 207.08C108.905 206.736 109.093 206.292 109.093 205.748C109.093 205.188 108.905 204.764 108.529 204.476C108.153 204.18 107.701 204.032 107.173 204.032H104.617V207.596ZM123.73 206H127.042V218H123.718L123.562 216.752C123.25 217.216 122.85 217.592 122.362 217.88C121.874 218.168 121.302 218.312 120.646 218.312C119.75 218.312 118.914 218.144 118.138 217.808C117.362 217.472 116.678 217.008 116.086 216.416C115.494 215.824 115.03 215.14 114.694 214.364C114.366 213.58 114.202 212.74 114.202 211.844C114.202 210.988 114.358 210.188 114.67 209.444C114.982 208.7 115.422 208.044 115.99 207.476C116.558 206.908 117.21 206.464 117.946 206.144C118.69 205.824 119.49 205.664 120.346 205.664C121.082 205.664 121.742 205.82 122.326 206.132C122.918 206.444 123.434 206.84 123.874 207.32L123.73 206ZM120.562 215.132C121.106 215.132 121.598 214.992 122.038 214.712C122.478 214.432 122.826 214.056 123.082 213.584C123.338 213.104 123.466 212.576 123.466 212C123.466 211.416 123.338 210.888 123.082 210.416C122.826 209.944 122.478 209.568 122.038 209.288C121.598 209.008 121.106 208.868 120.562 208.868C120.01 208.868 119.51 209.008 119.062 209.288C118.614 209.568 118.258 209.948 117.994 210.428C117.73 210.9 117.598 211.424 117.598 212C117.598 212.576 117.73 213.104 117.994 213.584C118.266 214.056 118.626 214.432 119.074 214.712C119.522 214.992 120.018 215.132 120.562 215.132ZM127.499 224V220.688C127.907 220.688 128.279 220.588 128.615 220.388C128.951 220.196 129.219 219.932 129.419 219.596C129.619 219.26 129.719 218.888 129.719 218.48V206H133.031V218.48C133.031 219.496 132.783 220.42 132.287 221.252C131.799 222.084 131.135 222.748 130.295 223.244C129.463 223.748 128.531 224 127.499 224ZM131.399 204.62C130.919 204.62 130.515 204.46 130.187 204.14C129.859 203.82 129.695 203.424 129.695 202.952C129.695 202.48 129.859 202.084 130.187 201.764C130.515 201.444 130.915 201.284 131.387 201.284C131.859 201.284 132.255 201.444 132.575 201.764C132.903 202.084 133.067 202.48 133.067 202.952C133.067 203.424 132.907 203.82 132.587 204.14C132.275 204.46 131.879 204.62 131.399 204.62ZM140.874 218.312C139.77 218.312 138.762 218.028 137.85 217.46C136.946 216.892 136.222 216.132 135.678 215.18C135.142 214.22 134.874 213.16 134.874 212C134.874 211.12 135.03 210.3 135.342 209.54C135.654 208.772 136.082 208.1 136.626 207.524C137.178 206.94 137.818 206.484 138.546 206.156C139.274 205.828 140.05 205.664 140.874 205.664C141.978 205.664 142.982 205.948 143.886 206.516C144.798 207.084 145.522 207.848 146.058 208.808C146.602 209.768 146.874 210.832 146.874 212C146.874 212.872 146.718 213.688 146.406 214.448C146.094 215.208 145.662 215.88 145.11 216.464C144.566 217.04 143.93 217.492 143.202 217.82C142.482 218.148 141.706 218.312 140.874 218.312ZM140.874 215C141.386 215 141.846 214.864 142.254 214.592C142.662 214.312 142.982 213.944 143.214 213.488C143.446 213.032 143.562 212.536 143.562 212C143.562 211.448 143.438 210.944 143.19 210.488C142.95 210.024 142.626 209.656 142.218 209.384C141.81 209.112 141.362 208.976 140.874 208.976C140.37 208.976 139.914 209.116 139.506 209.396C139.098 209.676 138.774 210.044 138.534 210.5C138.302 210.956 138.186 211.456 138.186 212C138.186 212.568 138.306 213.08 138.546 213.536C138.794 213.984 139.122 214.34 139.53 214.604C139.938 214.868 140.386 215 140.874 215ZM158.101 224H154.789V206H158.101V207.296C158.485 206.824 158.941 206.44 159.469 206.144C159.997 205.84 160.613 205.688 161.317 205.688C162.189 205.688 163.005 205.852 163.765 206.18C164.533 206.508 165.205 206.964 165.781 207.548C166.357 208.124 166.809 208.792 167.137 209.552C167.465 210.312 167.629 211.128 167.629 212C167.629 212.872 167.465 213.692 167.137 214.46C166.809 215.228 166.357 215.904 165.781 216.488C165.205 217.064 164.533 217.516 163.765 217.844C163.005 218.172 162.189 218.336 161.317 218.336C160.613 218.336 159.997 218.184 159.469 217.88C158.941 217.576 158.485 217.192 158.101 216.728V224ZM161.269 208.868C160.725 208.868 160.233 209.012 159.793 209.3C159.361 209.58 159.017 209.956 158.761 210.428C158.513 210.9 158.389 211.424 158.389 212C158.389 212.576 158.513 213.104 158.761 213.584C159.017 214.056 159.361 214.432 159.793 214.712C160.233 214.992 160.725 215.132 161.269 215.132C161.813 215.132 162.309 214.992 162.757 214.712C163.213 214.432 163.573 214.056 163.837 213.584C164.109 213.112 164.245 212.584 164.245 212C164.245 211.432 164.113 210.912 163.849 210.44C163.585 209.96 163.225 209.58 162.769 209.3C162.321 209.012 161.821 208.868 161.269 208.868ZM169.473 218L169.461 206H172.773L172.785 206.888C173.185 206.504 173.653 206.204 174.189 205.988C174.733 205.772 175.305 205.664 175.905 205.664C176.345 205.664 176.785 205.728 177.225 205.856L175.917 209.204C175.629 209.084 175.337 209.024 175.041 209.024C174.625 209.024 174.245 209.124 173.901 209.324C173.557 209.524 173.285 209.796 173.085 210.14C172.885 210.476 172.785 210.856 172.785 211.28V218H169.473ZM183.249 218.312C182.145 218.312 181.137 218.028 180.225 217.46C179.321 216.892 178.597 216.128 178.053 215.168C177.517 214.208 177.249 213.148 177.249 211.988C177.249 211.116 177.405 210.3 177.717 209.54C178.029 208.772 178.457 208.1 179.001 207.524C179.553 206.94 180.193 206.484 180.921 206.156C181.649 205.828 182.425 205.664 183.249 205.664C184.201 205.664 185.069 205.868 185.853 206.276C186.645 206.684 187.313 207.24 187.857 207.944C188.409 208.648 188.801 209.444 189.033 210.332C189.273 211.22 189.313 212.144 189.153 213.104H180.825C180.929 213.456 181.089 213.776 181.305 214.064C181.529 214.344 181.801 214.568 182.121 214.736C182.449 214.904 182.825 214.992 183.249 215C183.665 215.008 184.049 214.912 184.401 214.712C184.753 214.512 185.053 214.244 185.301 213.908L188.685 214.688C188.197 215.752 187.469 216.624 186.501 217.304C185.533 217.976 184.449 218.312 183.249 218.312ZM180.705 210.656H185.805C185.701 210.256 185.525 209.896 185.277 209.576C185.029 209.256 184.729 209.004 184.377 208.82C184.033 208.636 183.657 208.544 183.249 208.544C182.849 208.544 182.473 208.636 182.121 208.82C181.777 209.004 181.481 209.256 181.233 209.576C180.993 209.888 180.817 210.248 180.705 210.656ZM194.656 218.216C194.04 218.168 193.448 218.04 192.88 217.832C192.312 217.616 191.804 217.328 191.356 216.968C190.916 216.6 190.572 216.16 190.324 215.648L193.108 214.448C193.196 214.576 193.328 214.716 193.504 214.868C193.68 215.012 193.892 215.14 194.14 215.252C194.396 215.364 194.692 215.42 195.028 215.42C195.276 215.42 195.516 215.392 195.748 215.336C195.98 215.272 196.168 215.172 196.312 215.036C196.456 214.892 196.528 214.704 196.528 214.472C196.528 214.216 196.436 214.02 196.252 213.884C196.068 213.748 195.844 213.648 195.58 213.584C195.324 213.512 195.076 213.452 194.836 213.404C194.1 213.276 193.404 213.048 192.748 212.72C192.1 212.384 191.572 211.952 191.164 211.424C190.756 210.896 190.552 210.264 190.552 209.528C190.552 208.72 190.764 208.024 191.188 207.44C191.612 206.848 192.164 206.392 192.844 206.072C193.524 205.752 194.26 205.592 195.052 205.592C195.988 205.592 196.856 205.788 197.656 206.18C198.456 206.572 199.1 207.124 199.588 207.836L196.972 209.384C196.868 209.232 196.732 209.088 196.564 208.952C196.404 208.808 196.216 208.688 196 208.592C195.792 208.488 195.568 208.428 195.328 208.412C195.016 208.388 194.732 208.408 194.476 208.472C194.22 208.528 194.016 208.636 193.864 208.796C193.72 208.956 193.648 209.172 193.648 209.444C193.648 209.708 193.764 209.904 193.996 210.032C194.228 210.152 194.496 210.244 194.8 210.308C195.104 210.364 195.372 210.432 195.604 210.512C196.3 210.736 196.952 211.024 197.56 211.376C198.176 211.72 198.672 212.144 199.048 212.648C199.424 213.152 199.6 213.744 199.576 214.424C199.576 215.216 199.34 215.912 198.868 216.512C198.396 217.104 197.784 217.556 197.032 217.868C196.288 218.172 195.496 218.288 194.656 218.216ZM201.137 213.608V206H204.449V212.696C204.449 213.12 204.549 213.504 204.749 213.848C204.957 214.184 205.233 214.452 205.577 214.652C205.921 214.852 206.297 214.952 206.705 214.952C207.121 214.952 207.501 214.852 207.845 214.652C208.189 214.452 208.461 214.184 208.661 213.848C208.861 213.504 208.961 213.12 208.961 212.696V206H212.273L212.285 218H208.973L208.961 217.088C208.561 217.472 208.089 217.772 207.545 217.988C207.009 218.204 206.441 218.312 205.841 218.312C204.977 218.312 204.189 218.1 203.477 217.676C202.765 217.252 202.197 216.688 201.773 215.984C201.349 215.272 201.137 214.48 201.137 213.608ZM217.375 224H214.063V206H217.375V207.296C217.759 206.824 218.215 206.44 218.743 206.144C219.271 205.84 219.887 205.688 220.591 205.688C221.463 205.688 222.279 205.852 223.039 206.18C223.807 206.508 224.479 206.964 225.055 207.548C225.631 208.124 226.083 208.792 226.411 209.552C226.739 210.312 226.903 211.128 226.903 212C226.903 212.872 226.739 213.692 226.411 214.46C226.083 215.228 225.631 215.904 225.055 216.488C224.479 217.064 223.807 217.516 223.039 217.844C222.279 218.172 221.463 218.336 220.591 218.336C219.887 218.336 219.271 218.184 218.743 217.88C218.215 217.576 217.759 217.192 217.375 216.728V224ZM220.543 208.868C219.999 208.868 219.507 209.012 219.067 209.3C218.635 209.58 218.291 209.956 218.035 210.428C217.787 210.9 217.663 211.424 217.663 212C217.663 212.576 217.787 213.104 218.035 213.584C218.291 214.056 218.635 214.432 219.067 214.712C219.507 214.992 219.999 215.132 220.543 215.132C221.087 215.132 221.583 214.992 222.031 214.712C222.487 214.432 222.847 214.056 223.111 213.584C223.383 213.112 223.519 212.584 223.519 212C223.519 211.432 223.387 210.912 223.123 210.44C222.859 209.96 222.499 209.58 222.043 209.3C221.595 209.012 221.095 208.868 220.543 208.868ZM227.95 213.608V206H231.262V212.696C231.262 213.12 231.362 213.504 231.562 213.848C231.77 214.184 232.046 214.452 232.39 214.652C232.734 214.852 233.11 214.952 233.518 214.952C233.934 214.952 234.314 214.852 234.658 214.652C235.002 214.452 235.274 214.184 235.474 213.848C235.674 213.504 235.774 213.12 235.774 212.696V206H239.086L239.098 218H235.786L235.774 217.088C235.374 217.472 234.902 217.772 234.358 217.988C233.822 218.204 233.254 218.312 232.654 218.312C231.79 218.312 231.002 218.1 230.29 217.676C229.578 217.252 229.01 216.688 228.586 215.984C228.162 215.272 227.95 214.48 227.95 213.608ZM246.554 218.312C245.45 218.312 244.442 218.028 243.53 217.46C242.626 216.892 241.902 216.128 241.358 215.168C240.822 214.208 240.554 213.148 240.554 211.988C240.554 211.116 240.71 210.3 241.022 209.54C241.334 208.772 241.762 208.1 242.306 207.524C242.858 206.94 243.498 206.484 244.226 206.156C244.954 205.828 245.73 205.664 246.554 205.664C247.506 205.664 248.374 205.868 249.158 206.276C249.95 206.684 250.618 207.24 251.162 207.944C251.714 208.648 252.106 209.444 252.338 210.332C252.578 211.22 252.618 212.144 252.458 213.104H244.13C244.234 213.456 244.394 213.776 244.61 214.064C244.834 214.344 245.106 214.568 245.426 214.736C245.754 214.904 246.13 214.992 246.554 215C246.97 215.008 247.354 214.912 247.706 214.712C248.058 214.512 248.358 214.244 248.606 213.908L251.99 214.688C251.502 215.752 250.774 216.624 249.806 217.304C248.838 217.976 247.754 218.312 246.554 218.312ZM244.01 210.656H249.11C249.006 210.256 248.83 209.896 248.582 209.576C248.334 209.256 248.034 209.004 247.682 208.82C247.338 208.636 246.962 208.544 246.554 208.544C246.154 208.544 245.778 208.636 245.426 208.82C245.082 209.004 244.786 209.256 244.538 209.576C244.298 209.888 244.122 210.248 244.01 210.656ZM257.961 218.216C257.345 218.168 256.753 218.04 256.185 217.832C255.617 217.616 255.109 217.328 254.661 216.968C254.221 216.6 253.877 216.16 253.629 215.648L256.413 214.448C256.501 214.576 256.633 214.716 256.809 214.868C256.985 215.012 257.197 215.14 257.445 215.252C257.701 215.364 257.997 215.42 258.333 215.42C258.581 215.42 258.821 215.392 259.053 215.336C259.285 215.272 259.473 215.172 259.617 215.036C259.761 214.892 259.833 214.704 259.833 214.472C259.833 214.216 259.741 214.02 259.557 213.884C259.373 213.748 259.149 213.648 258.885 213.584C258.629 213.512 258.381 213.452 258.141 213.404C257.405 213.276 256.709 213.048 256.053 212.72C255.405 212.384 254.877 211.952 254.469 211.424C254.061 210.896 253.857 210.264 253.857 209.528C253.857 208.72 254.069 208.024 254.493 207.44C254.917 206.848 255.469 206.392 256.149 206.072C256.829 205.752 257.565 205.592 258.357 205.592C259.293 205.592 260.161 205.788 260.961 206.18C261.761 206.572 262.405 207.124 262.893 207.836L260.277 209.384C260.173 209.232 260.037 209.088 259.869 208.952C259.709 208.808 259.521 208.688 259.305 208.592C259.097 208.488 258.873 208.428 258.633 208.412C258.321 208.388 258.037 208.408 257.781 208.472C257.525 208.528 257.321 208.636 257.169 208.796C257.025 208.956 256.953 209.172 256.953 209.444C256.953 209.708 257.069 209.904 257.301 210.032C257.533 210.152 257.801 210.244 258.105 210.308C258.409 210.364 258.677 210.432 258.909 210.512C259.605 210.736 260.257 211.024 260.865 211.376C261.481 211.72 261.977 212.144 262.353 212.648C262.729 213.152 262.905 213.744 262.881 214.424C262.881 215.216 262.645 215.912 262.173 216.512C261.701 217.104 261.089 217.556 260.337 217.868C259.593 218.172 258.801 218.288 257.961 218.216ZM271.45 209.312H269.29V218H265.978V209.312H264.322V206H265.978V202.232H269.29V206H271.45V209.312ZM278.64 218.312C277.536 218.312 276.528 218.028 275.616 217.46C274.712 216.892 273.988 216.132 273.444 215.18C272.908 214.22 272.64 213.16 272.64 212C272.64 211.12 272.796 210.3 273.108 209.54C273.42 208.772 273.848 208.1 274.392 207.524C274.944 206.94 275.584 206.484 276.312 206.156C277.04 205.828 277.816 205.664 278.64 205.664C279.744 205.664 280.748 205.948 281.652 206.516C282.564 207.084 283.288 207.848 283.824 208.808C284.368 209.768 284.64 210.832 284.64 212C284.64 212.872 284.484 213.688 284.172 214.448C283.86 215.208 283.428 215.88 282.876 216.464C282.332 217.04 281.696 217.492 280.968 217.82C280.248 218.148 279.472 218.312 278.64 218.312ZM278.64 215C279.152 215 279.612 214.864 280.02 214.592C280.428 214.312 280.748 213.944 280.98 213.488C281.212 213.032 281.328 212.536 281.328 212C281.328 211.448 281.204 210.944 280.956 210.488C280.716 210.024 280.392 209.656 279.984 209.384C279.576 209.112 279.128 208.976 278.64 208.976C278.136 208.976 277.68 209.116 277.272 209.396C276.864 209.676 276.54 210.044 276.3 210.5C276.068 210.956 275.952 211.456 275.952 212C275.952 212.568 276.072 213.08 276.312 213.536C276.56 213.984 276.888 214.34 277.296 214.604C277.704 214.868 278.152 215 278.64 215ZM290.461 213.056C290.461 212.112 290.697 211.248 291.169 210.464C291.641 209.672 292.293 209.048 293.125 208.592C293.485 208.4 293.765 208.12 293.965 207.752C294.173 207.376 294.277 206.96 294.277 206.504C294.277 206.08 294.173 205.692 293.965 205.34C293.757 204.988 293.473 204.712 293.113 204.512C292.761 204.304 292.373 204.2 291.949 204.2C291.525 204.2 291.133 204.304 290.773 204.512C290.421 204.712 290.141 204.988 289.933 205.34C289.725 205.692 289.621 206.08 289.621 206.504H286.309C286.309 205.472 286.561 204.532 287.065 203.684C287.577 202.836 288.257 202.16 289.105 201.656C289.961 201.144 290.909 200.888 291.949 200.888C292.989 200.888 293.933 201.144 294.781 201.656C295.637 202.16 296.317 202.836 296.821 203.684C297.333 204.532 297.589 205.472 297.589 206.504C297.589 207.568 297.329 208.548 296.809 209.444C296.297 210.34 295.589 211.028 294.685 211.508C294.397 211.66 294.173 211.872 294.013 212.144C293.853 212.416 293.773 212.72 293.773 213.056H290.461ZM292.273 218.312C291.801 218.312 291.401 218.148 291.073 217.82C290.753 217.492 290.593 217.092 290.593 216.62C290.593 216.156 290.753 215.764 291.073 215.444C291.401 215.124 291.801 214.964 292.273 214.964C292.729 214.964 293.117 215.124 293.437 215.444C293.765 215.764 293.929 216.156 293.929 216.62C293.929 217.092 293.765 217.492 293.437 217.82C293.117 218.148 292.729 218.312 292.273 218.312Z" fill="white"/>
<path d="M57.8471 240.688C58.0711 240.688 58.2591 240.764 58.4111 240.916C58.5631 241.068 58.6391 241.26 58.6391 241.492C58.6391 241.708 58.5631 241.892 58.4111 242.044C58.2591 242.196 58.0711 242.272 57.8471 242.272C57.6311 242.272 57.4471 242.196 57.2951 242.044C57.1431 241.892 57.0671 241.708 57.0671 241.492C57.0671 241.26 57.1431 241.068 57.2951 240.916C57.4471 240.764 57.6311 240.688 57.8471 240.688ZM58.4351 246.04V257.8H57.2591V246.04H58.4351ZM61.1565 253V236.2H62.5725L71.9805 250.66V236.2H73.2765V253H71.8845L62.4525 238.54V253H61.1565ZM81.3661 253.312C80.2621 253.312 79.2541 253.028 78.3421 252.46C77.4381 251.892 76.7141 251.132 76.1701 250.18C75.6341 249.22 75.3661 248.16 75.3661 247C75.3661 246.12 75.5221 245.3 75.8341 244.54C76.1461 243.772 76.5741 243.1 77.1181 242.524C77.6701 241.94 78.3101 241.484 79.0381 241.156C79.7661 240.828 80.5421 240.664 81.3661 240.664C82.4701 240.664 83.4741 240.948 84.3781 241.516C85.2901 242.084 86.0141 242.848 86.5501 243.808C87.0941 244.768 87.3661 245.832 87.3661 247C87.3661 247.872 87.2101 248.688 86.8981 249.448C86.5861 250.208 86.1541 250.88 85.6021 251.464C85.0581 252.04 84.4221 252.492 83.6941 252.82C82.9741 253.148 82.1981 253.312 81.3661 253.312ZM81.3661 252.016C82.2541 252.016 83.0501 251.784 83.7541 251.32C84.4661 250.856 85.0301 250.244 85.4461 249.484C85.8621 248.724 86.0701 247.896 86.0701 247C86.0701 246.096 85.8621 245.26 85.4461 244.492C85.0301 243.724 84.4661 243.112 83.7541 242.656C83.0421 242.192 82.2461 241.96 81.3661 241.96C80.4781 241.96 79.6781 242.192 78.9661 242.656C78.2541 243.12 77.6901 243.736 77.2741 244.504C76.8661 245.264 76.6621 246.096 76.6621 247C76.6621 247.936 76.8741 248.784 77.2981 249.544C77.7301 250.296 78.3021 250.896 79.0141 251.344C79.7261 251.792 80.5101 252.016 81.3661 252.016ZM101.317 242.296H98.2815L98.2695 253H96.9735L96.9855 242.296H94.6935V241H96.9855L96.9735 237.232H98.2695L98.2815 241H101.317V242.296ZM108.39 253.312C107.286 253.312 106.278 253.028 105.366 252.46C104.462 251.892 103.738 251.132 103.194 250.18C102.658 249.22 102.39 248.16 102.39 247C102.39 246.12 102.546 245.3 102.858 244.54C103.17 243.772 103.598 243.1 104.142 242.524C104.694 241.94 105.334 241.484 106.062 241.156C106.79 240.828 107.566 240.664 108.39 240.664C109.262 240.664 110.066 240.836 110.802 241.18C111.546 241.516 112.186 241.992 112.722 242.608C113.258 243.224 113.67 243.952 113.958 244.792C114.246 245.624 114.378 246.536 114.354 247.528H103.746C103.834 248.384 104.09 249.152 104.514 249.832C104.946 250.504 105.498 251.036 106.17 251.428C106.842 251.812 107.582 252.008 108.39 252.016C109.278 252.016 110.078 251.784 110.79 251.32C111.502 250.848 112.074 250.204 112.506 249.388L113.814 249.688C113.334 250.752 112.61 251.624 111.642 252.304C110.674 252.976 109.59 253.312 108.39 253.312ZM103.71 246.424H113.046C112.998 245.6 112.758 244.844 112.326 244.156C111.902 243.46 111.346 242.904 110.658 242.488C109.97 242.072 109.214 241.864 108.39 241.864C107.566 241.864 106.814 242.068 106.134 242.476C105.454 242.884 104.898 243.436 104.466 244.132C104.042 244.82 103.79 245.584 103.71 246.424ZM123.577 259H122.281V241H123.577V243.472C124.001 242.64 124.593 241.968 125.353 241.456C126.121 240.944 127.037 240.688 128.101 240.688C128.973 240.688 129.789 240.852 130.549 241.18C131.309 241.508 131.977 241.964 132.553 242.548C133.137 243.124 133.593 243.792 133.921 244.552C134.249 245.312 134.413 246.128 134.413 247C134.413 247.872 134.249 248.692 133.921 249.46C133.593 250.228 133.137 250.904 132.553 251.488C131.977 252.064 131.309 252.516 130.549 252.844C129.789 253.172 128.973 253.336 128.101 253.336C127.037 253.336 126.121 253.08 125.353 252.568C124.593 252.056 124.001 251.384 123.577 250.552V259ZM128.089 241.96C127.177 241.96 126.389 242.188 125.725 242.644C125.069 243.092 124.561 243.696 124.201 244.456C123.849 245.216 123.673 246.064 123.673 247C123.673 247.92 123.849 248.764 124.201 249.532C124.553 250.3 125.057 250.916 125.713 251.38C126.377 251.836 127.169 252.064 128.089 252.064C128.993 252.064 129.821 251.84 130.573 251.392C131.333 250.944 131.945 250.34 132.409 249.58C132.873 248.812 133.105 247.952 133.105 247C133.105 246.08 132.877 245.24 132.421 244.48C131.973 243.712 131.369 243.1 130.609 242.644C129.857 242.188 129.017 241.96 128.089 241.96ZM136.508 253V241H137.804V242.836C138.236 242.172 138.808 241.644 139.52 241.252C140.232 240.86 141.008 240.664 141.848 240.664C142.32 240.664 142.772 240.724 143.204 240.844L142.664 242.116C142.32 242.02 141.984 241.972 141.656 241.972C140.952 241.972 140.308 242.144 139.724 242.488C139.14 242.832 138.672 243.296 138.32 243.88C137.976 244.464 137.804 245.112 137.804 245.824V253H136.508ZM149.382 253.312C148.278 253.312 147.27 253.028 146.358 252.46C145.454 251.892 144.73 251.132 144.186 250.18C143.65 249.22 143.382 248.16 143.382 247C143.382 246.12 143.538 245.3 143.85 244.54C144.162 243.772 144.59 243.1 145.134 242.524C145.686 241.94 146.326 241.484 147.054 241.156C147.782 240.828 148.558 240.664 149.382 240.664C150.254 240.664 151.058 240.836 151.794 241.18C152.538 241.516 153.178 241.992 153.714 242.608C154.25 243.224 154.662 243.952 154.95 244.792C155.238 245.624 155.37 246.536 155.346 247.528H144.738C144.826 248.384 145.082 249.152 145.506 249.832C145.938 250.504 146.49 251.036 147.162 251.428C147.834 251.812 148.574 252.008 149.382 252.016C150.27 252.016 151.07 251.784 151.782 251.32C152.494 250.848 153.066 250.204 153.498 249.388L154.806 249.688C154.326 250.752 153.602 251.624 152.634 252.304C151.666 252.976 150.582 253.312 149.382 253.312ZM144.702 246.424H154.038C153.99 245.6 153.75 244.844 153.318 244.156C152.894 243.46 152.338 242.904 151.65 242.488C150.962 242.072 150.206 241.864 149.382 241.864C148.558 241.864 147.806 242.068 147.126 242.476C146.446 242.884 145.89 243.436 145.458 244.132C145.034 244.82 144.782 245.584 144.702 246.424ZM162.554 253.312C161.45 253.312 160.442 253.028 159.53 252.46C158.626 251.892 157.902 251.132 157.358 250.18C156.822 249.22 156.554 248.16 156.554 247C156.554 246.12 156.71 245.3 157.022 244.54C157.334 243.772 157.762 243.1 158.306 242.524C158.858 241.94 159.498 241.484 160.226 241.156C160.954 240.828 161.73 240.664 162.554 240.664C163.658 240.664 164.662 240.948 165.566 241.516C166.478 242.084 167.202 242.848 167.738 243.808C168.282 244.768 168.554 245.832 168.554 247C168.554 247.872 168.398 248.688 168.086 249.448C167.774 250.208 167.342 250.88 166.79 251.464C166.246 252.04 165.61 252.492 164.882 252.82C164.162 253.148 163.386 253.312 162.554 253.312ZM162.554 252.016C163.442 252.016 164.238 251.784 164.942 251.32C165.654 250.856 166.218 250.244 166.634 249.484C167.05 248.724 167.258 247.896 167.258 247C167.258 246.096 167.05 245.26 166.634 244.492C166.218 243.724 165.654 243.112 164.942 242.656C164.23 242.192 163.434 241.96 162.554 241.96C161.666 241.96 160.866 242.192 160.154 242.656C159.442 243.12 158.878 243.736 158.462 244.504C158.054 245.264 157.85 246.096 157.85 247C157.85 247.936 158.062 248.784 158.486 249.544C158.918 250.296 159.49 250.896 160.202 251.344C160.914 251.792 161.698 252.016 162.554 252.016ZM179.385 250.18L180.537 250.804C179.993 251.564 179.301 252.172 178.461 252.628C177.629 253.084 176.725 253.312 175.749 253.312C174.645 253.312 173.637 253.028 172.725 252.46C171.821 251.892 171.097 251.132 170.553 250.18C170.017 249.22 169.749 248.16 169.749 247C169.749 246.12 169.905 245.3 170.217 244.54C170.529 243.772 170.957 243.1 171.501 242.524C172.053 241.94 172.693 241.484 173.421 241.156C174.149 240.828 174.925 240.664 175.749 240.664C176.725 240.664 177.629 240.892 178.461 241.348C179.301 241.804 179.993 242.416 180.537 243.184L179.385 243.796C178.929 243.204 178.377 242.752 177.729 242.44C177.081 242.12 176.421 241.96 175.749 241.96C174.869 241.96 174.073 242.192 173.361 242.656C172.649 243.112 172.085 243.724 171.669 244.492C171.253 245.252 171.045 246.088 171.045 247C171.045 247.92 171.257 248.76 171.681 249.52C172.105 250.28 172.673 250.888 173.385 251.344C174.097 251.792 174.885 252.016 175.749 252.016C176.477 252.016 177.161 251.844 177.801 251.5C178.441 251.156 178.969 250.716 179.385 250.18ZM182.153 248.356V241H183.449V248.152C183.449 248.864 183.621 249.512 183.965 250.096C184.317 250.68 184.785 251.144 185.369 251.488C185.953 251.832 186.597 252.004 187.301 252.004C188.013 252.004 188.657 251.832 189.233 251.488C189.817 251.144 190.281 250.68 190.625 250.096C190.977 249.512 191.153 248.864 191.153 248.152V241H192.449V253H191.153V251.14C190.721 251.796 190.149 252.324 189.437 252.724C188.733 253.116 187.957 253.312 187.109 253.312C186.197 253.312 185.365 253.092 184.613 252.652C183.861 252.204 183.261 251.604 182.813 250.852C182.373 250.1 182.153 249.268 182.153 248.356ZM195.999 259H194.703V241H195.999V243.472C196.423 242.64 197.015 241.968 197.775 241.456C198.543 240.944 199.459 240.688 200.523 240.688C201.395 240.688 202.211 240.852 202.971 241.18C203.731 241.508 204.399 241.964 204.975 242.548C205.559 243.124 206.015 243.792 206.343 244.552C206.671 245.312 206.835 246.128 206.835 247C206.835 247.872 206.671 248.692 206.343 249.46C206.015 250.228 205.559 250.904 204.975 251.488C204.399 252.064 203.731 252.516 202.971 252.844C202.211 253.172 201.395 253.336 200.523 253.336C199.459 253.336 198.543 253.08 197.775 252.568C197.015 252.056 196.423 251.384 195.999 250.552V259ZM200.511 241.96C199.599 241.96 198.811 242.188 198.147 242.644C197.491 243.092 196.983 243.696 196.623 244.456C196.271 245.216 196.095 246.064 196.095 247C196.095 247.92 196.271 248.764 196.623 249.532C196.975 250.3 197.479 250.916 198.135 251.38C198.799 251.836 199.591 252.064 200.511 252.064C201.415 252.064 202.243 251.84 202.995 251.392C203.755 250.944 204.367 250.34 204.831 249.58C205.295 248.812 205.527 247.952 205.527 247C205.527 246.08 205.299 245.24 204.843 244.48C204.395 243.712 203.791 243.1 203.031 242.644C202.279 242.188 201.439 241.96 200.511 241.96ZM214.046 253.312C212.942 253.312 211.934 253.028 211.022 252.46C210.118 251.892 209.394 251.132 208.85 250.18C208.314 249.22 208.046 248.16 208.046 247C208.046 246.12 208.202 245.3 208.514 244.54C208.826 243.772 209.254 243.1 209.798 242.524C210.35 241.94 210.99 241.484 211.718 241.156C212.446 240.828 213.222 240.664 214.046 240.664C214.918 240.664 215.722 240.836 216.458 241.18C217.202 241.516 217.842 241.992 218.378 242.608C218.914 243.224 219.326 243.952 219.614 244.792C219.902 245.624 220.034 246.536 220.01 247.528H209.402C209.49 248.384 209.746 249.152 210.17 249.832C210.602 250.504 211.154 251.036 211.826 251.428C212.498 251.812 213.238 252.008 214.046 252.016C214.934 252.016 215.734 251.784 216.446 251.32C217.158 250.848 217.73 250.204 218.162 249.388L219.47 249.688C218.99 250.752 218.266 251.624 217.298 252.304C216.33 252.976 215.246 253.312 214.046 253.312ZM209.366 246.424H218.702C218.654 245.6 218.414 244.844 217.982 244.156C217.558 243.46 217.002 242.904 216.314 242.488C215.626 242.072 214.87 241.864 214.046 241.864C213.222 241.864 212.47 242.068 211.79 242.476C211.11 242.884 210.554 243.436 210.122 244.132C209.698 244.82 209.446 245.584 209.366 246.424ZM225.858 253.228C225.194 253.22 224.542 253.104 223.902 252.88C223.27 252.648 222.718 252.34 222.246 251.956C221.774 251.572 221.446 251.136 221.262 250.648L222.402 250.156C222.538 250.516 222.798 250.84 223.182 251.128C223.574 251.416 224.014 251.644 224.502 251.812C224.998 251.972 225.482 252.052 225.954 252.052C226.49 252.052 226.994 251.96 227.466 251.776C227.938 251.592 228.322 251.332 228.618 250.996C228.914 250.66 229.062 250.264 229.062 249.808C229.062 249.328 228.906 248.952 228.594 248.68C228.282 248.4 227.882 248.176 227.394 248.008C226.914 247.832 226.418 247.668 225.906 247.516C225.026 247.26 224.262 247 223.614 246.736C222.974 246.464 222.478 246.12 222.126 245.704C221.774 245.288 221.598 244.74 221.598 244.06C221.598 243.356 221.802 242.744 222.21 242.224C222.618 241.704 223.154 241.304 223.818 241.024C224.482 240.736 225.194 240.592 225.954 240.592C226.938 240.592 227.83 240.808 228.63 241.24C229.438 241.672 230.006 242.24 230.334 242.944L229.278 243.568C229.118 243.2 228.866 242.884 228.522 242.62C228.178 242.356 227.786 242.152 227.346 242.008C226.906 241.864 226.462 241.788 226.014 241.78C225.454 241.772 224.93 241.86 224.442 242.044C223.962 242.22 223.574 242.48 223.278 242.824C222.982 243.16 222.834 243.568 222.834 244.048C222.834 244.528 222.97 244.896 223.242 245.152C223.514 245.408 223.894 245.616 224.382 245.776C224.87 245.928 225.434 246.108 226.074 246.316C226.818 246.548 227.51 246.808 228.15 247.096C228.798 247.376 229.318 247.728 229.71 248.152C230.11 248.576 230.306 249.124 230.298 249.796C230.298 250.5 230.086 251.112 229.662 251.632C229.246 252.152 228.698 252.552 228.018 252.832C227.346 253.112 226.626 253.244 225.858 253.228ZM232.103 247.96V236.2H233.279V247.96H232.103ZM232.691 253.312C232.467 253.312 232.275 253.232 232.115 253.072C231.963 252.92 231.887 252.732 231.887 252.508C231.887 252.292 231.963 252.108 232.115 251.956C232.275 251.804 232.467 251.728 232.691 251.728C232.899 251.728 233.079 251.804 233.231 251.956C233.383 252.108 233.459 252.292 233.459 252.508C233.459 252.732 233.383 252.92 233.231 253.072C233.079 253.232 232.899 253.312 232.691 253.312ZM252.39 245.62V253H251.094V245.824C251.094 245.112 250.922 244.464 250.578 243.88C250.234 243.296 249.77 242.832 249.186 242.488C248.602 242.144 247.954 241.972 247.242 241.972C246.538 241.972 245.894 242.144 245.31 242.488C244.726 242.832 244.258 243.296 243.906 243.88C243.562 244.464 243.39 245.112 243.39 245.824V253H242.094V241H243.39V242.836C243.822 242.172 244.394 241.644 245.106 241.252C245.818 240.86 246.594 240.664 247.434 240.664C248.354 240.664 249.186 240.888 249.93 241.336C250.682 241.776 251.278 242.372 251.718 243.124C252.166 243.876 252.39 244.708 252.39 245.62ZM259.843 253.312C258.739 253.312 257.731 253.028 256.819 252.46C255.915 251.892 255.191 251.132 254.647 250.18C254.111 249.22 253.843 248.16 253.843 247C253.843 246.12 253.999 245.3 254.311 244.54C254.623 243.772 255.051 243.1 255.595 242.524C256.147 241.94 256.787 241.484 257.515 241.156C258.243 240.828 259.019 240.664 259.843 240.664C260.947 240.664 261.951 240.948 262.855 241.516C263.767 242.084 264.491 242.848 265.027 243.808C265.571 244.768 265.843 245.832 265.843 247C265.843 247.872 265.687 248.688 265.375 249.448C265.063 250.208 264.631 250.88 264.079 251.464C263.535 252.04 262.899 252.492 262.171 252.82C261.451 253.148 260.675 253.312 259.843 253.312ZM259.843 252.016C260.731 252.016 261.527 251.784 262.231 251.32C262.943 250.856 263.507 250.244 263.923 249.484C264.339 248.724 264.547 247.896 264.547 247C264.547 246.096 264.339 245.26 263.923 244.492C263.507 243.724 262.943 243.112 262.231 242.656C261.519 242.192 260.723 241.96 259.843 241.96C258.955 241.96 258.155 242.192 257.443 242.656C256.731 243.12 256.167 243.736 255.751 244.504C255.343 245.264 255.139 246.096 255.139 247C255.139 247.936 255.351 248.784 255.775 249.544C256.207 250.296 256.779 250.896 257.491 251.344C258.203 251.792 258.987 252.016 259.843 252.016ZM271.678 253.228C271.014 253.22 270.362 253.104 269.722 252.88C269.09 252.648 268.538 252.34 268.066 251.956C267.594 251.572 267.266 251.136 267.082 250.648L268.222 250.156C268.358 250.516 268.618 250.84 269.002 251.128C269.394 251.416 269.834 251.644 270.322 251.812C270.818 251.972 271.302 252.052 271.774 252.052C272.31 252.052 272.814 251.96 273.286 251.776C273.758 251.592 274.142 251.332 274.438 250.996C274.734 250.66 274.882 250.264 274.882 249.808C274.882 249.328 274.726 248.952 274.414 248.68C274.102 248.4 273.702 248.176 273.214 248.008C272.734 247.832 272.238 247.668 271.726 247.516C270.846 247.26 270.082 247 269.434 246.736C268.794 246.464 268.298 246.12 267.946 245.704C267.594 245.288 267.418 244.74 267.418 244.06C267.418 243.356 267.622 242.744 268.03 242.224C268.438 241.704 268.974 241.304 269.638 241.024C270.302 240.736 271.014 240.592 271.774 240.592C272.758 240.592 273.65 240.808 274.45 241.24C275.258 241.672 275.826 242.24 276.154 242.944L275.098 243.568C274.938 243.2 274.686 242.884 274.342 242.62C273.998 242.356 273.606 242.152 273.166 242.008C272.726 241.864 272.282 241.788 271.834 241.78C271.274 241.772 270.75 241.86 270.262 242.044C269.782 242.22 269.394 242.48 269.098 242.824C268.802 243.16 268.654 243.568 268.654 244.048C268.654 244.528 268.79 244.896 269.062 245.152C269.334 245.408 269.714 245.616 270.202 245.776C270.69 245.928 271.254 246.108 271.894 246.316C272.638 246.548 273.33 246.808 273.97 247.096C274.618 247.376 275.138 247.728 275.53 248.152C275.93 248.576 276.126 249.124 276.118 249.796C276.118 250.5 275.906 251.112 275.482 251.632C275.066 252.152 274.518 252.552 273.838 252.832C273.166 253.112 272.446 253.244 271.678 253.228ZM283.397 253.312C282.293 253.312 281.285 253.028 280.373 252.46C279.469 251.892 278.745 251.132 278.201 250.18C277.665 249.22 277.397 248.16 277.397 247C277.397 246.12 277.553 245.3 277.865 244.54C278.177 243.772 278.605 243.1 279.149 242.524C279.701 241.94 280.341 241.484 281.069 241.156C281.797 240.828 282.573 240.664 283.397 240.664C284.501 240.664 285.505 240.948 286.409 241.516C287.321 242.084 288.045 242.848 288.581 243.808C289.125 244.768 289.397 245.832 289.397 247C289.397 247.872 289.241 248.688 288.929 249.448C288.617 250.208 288.185 250.88 287.633 251.464C287.089 252.04 286.453 252.492 285.725 252.82C285.005 253.148 284.229 253.312 283.397 253.312ZM283.397 252.016C284.285 252.016 285.081 251.784 285.785 251.32C286.497 250.856 287.061 250.244 287.477 249.484C287.893 248.724 288.101 247.896 288.101 247C288.101 246.096 287.893 245.26 287.477 244.492C287.061 243.724 286.497 243.112 285.785 242.656C285.073 242.192 284.277 241.96 283.397 241.96C282.509 241.96 281.709 242.192 280.997 242.656C280.285 243.12 279.721 243.736 279.305 244.504C278.897 245.264 278.693 246.096 278.693 247C278.693 247.936 278.905 248.784 279.329 249.544C279.761 250.296 280.333 250.896 281.045 251.344C281.757 251.792 282.541 252.016 283.397 252.016ZM297.232 242.296H294.196L294.184 253H292.888L292.9 242.296H290.608V241H292.9L292.888 237.232H294.184L294.196 241H297.232V242.296ZM299.375 253V241H300.671V242.836C301.103 242.172 301.675 241.644 302.387 241.252C303.099 240.86 303.875 240.664 304.715 240.664C305.187 240.664 305.639 240.724 306.071 240.844L305.531 242.116C305.187 242.02 304.851 241.972 304.523 241.972C303.819 241.972 303.175 242.144 302.591 242.488C302.007 242.832 301.539 243.296 301.187 243.88C300.843 244.464 300.671 245.112 300.671 245.824V253H299.375ZM312.249 253.312C311.145 253.312 310.137 253.028 309.225 252.46C308.321 251.892 307.597 251.132 307.053 250.18C306.517 249.22 306.249 248.16 306.249 247C306.249 246.12 306.405 245.3 306.717 244.54C307.029 243.772 307.457 243.1 308.001 242.524C308.553 241.94 309.193 241.484 309.921 241.156C310.649 240.828 311.425 240.664 312.249 240.664C313.353 240.664 314.357 240.948 315.261 241.516C316.173 242.084 316.897 242.848 317.433 243.808C317.977 244.768 318.249 245.832 318.249 247C318.249 247.872 318.093 248.688 317.781 249.448C317.469 250.208 317.037 250.88 316.485 251.464C315.941 252.04 315.305 252.492 314.577 252.82C313.857 253.148 313.081 253.312 312.249 253.312ZM312.249 252.016C313.137 252.016 313.933 251.784 314.637 251.32C315.349 250.856 315.913 250.244 316.329 249.484C316.745 248.724 316.953 247.896 316.953 247C316.953 246.096 316.745 245.26 316.329 244.492C315.913 243.724 315.349 243.112 314.637 242.656C313.925 242.192 313.129 241.96 312.249 241.96C311.361 241.96 310.561 242.192 309.849 242.656C309.137 243.12 308.573 243.736 308.157 244.504C307.749 245.264 307.545 246.096 307.545 247C307.545 247.936 307.757 248.784 308.181 249.544C308.613 250.296 309.185 250.896 309.897 251.344C310.609 251.792 311.393 252.016 312.249 252.016ZM324.084 253.228C323.42 253.22 322.768 253.104 322.128 252.88C321.496 252.648 320.944 252.34 320.472 251.956C320 251.572 319.672 251.136 319.488 250.648L320.628 250.156C320.764 250.516 321.024 250.84 321.408 251.128C321.8 251.416 322.24 251.644 322.728 251.812C323.224 251.972 323.708 252.052 324.18 252.052C324.716 252.052 325.22 251.96 325.692 251.776C326.164 251.592 326.548 251.332 326.844 250.996C327.14 250.66 327.288 250.264 327.288 249.808C327.288 249.328 327.132 248.952 326.82 248.68C326.508 248.4 326.108 248.176 325.62 248.008C325.14 247.832 324.644 247.668 324.132 247.516C323.252 247.26 322.488 247 321.84 246.736C321.2 246.464 320.704 246.12 320.352 245.704C320 245.288 319.824 244.74 319.824 244.06C319.824 243.356 320.028 242.744 320.436 242.224C320.844 241.704 321.38 241.304 322.044 241.024C322.708 240.736 323.42 240.592 324.18 240.592C325.164 240.592 326.056 240.808 326.856 241.24C327.664 241.672 328.232 242.24 328.56 242.944L327.504 243.568C327.344 243.2 327.092 242.884 326.748 242.62C326.404 242.356 326.012 242.152 325.572 242.008C325.132 241.864 324.688 241.788 324.24 241.78C323.68 241.772 323.156 241.86 322.668 242.044C322.188 242.22 321.8 242.48 321.504 242.824C321.208 243.16 321.06 243.568 321.06 244.048C321.06 244.528 321.196 244.896 321.468 245.152C321.74 245.408 322.12 245.616 322.608 245.776C323.096 245.928 323.66 246.108 324.3 246.316C325.044 246.548 325.736 246.808 326.376 247.096C327.024 247.376 327.544 247.728 327.936 248.152C328.336 248.576 328.532 249.124 328.524 249.796C328.524 250.5 328.312 251.112 327.888 251.632C327.472 252.152 326.924 252.552 326.244 252.832C325.572 253.112 324.852 253.244 324.084 253.228ZM84.4912 270H85.7872V282H84.4912L84.4552 279.54C84.0472 280.372 83.4632 281.044 82.7032 281.556C81.9512 282.06 81.0472 282.312 79.9912 282.312C79.1192 282.312 78.2992 282.148 77.5312 281.82C76.7712 281.484 76.0992 281.028 75.5152 280.452C74.9312 279.868 74.4752 279.196 74.1472 278.436C73.8192 277.668 73.6552 276.844 73.6552 275.964C73.6552 275.092 73.8152 274.276 74.1352 273.516C74.4632 272.756 74.9152 272.088 75.4912 271.512C76.0672 270.928 76.7352 270.476 77.4952 270.156C78.2552 269.828 79.0672 269.664 79.9312 269.664C80.9952 269.664 81.9152 269.924 82.6912 270.444C83.4752 270.956 84.0872 271.628 84.5272 272.46L84.4912 270ZM79.9792 281.04C80.8992 281.04 81.6872 280.816 82.3432 280.368C83.0072 279.912 83.5152 279.3 83.8672 278.532C84.2192 277.764 84.3952 276.92 84.3952 276C84.3952 275.056 84.2152 274.204 83.8552 273.444C83.5032 272.676 82.9952 272.068 82.3312 271.62C81.6752 271.164 80.8912 270.936 79.9792 270.936C79.0512 270.936 78.2072 271.164 77.4472 271.62C76.6952 272.076 76.0952 272.688 75.6472 273.456C75.1992 274.224 74.9752 275.072 74.9752 276C74.9752 276.944 75.2032 277.796 75.6592 278.556C76.1232 279.316 76.7352 279.92 77.4952 280.368C78.2552 280.816 79.0832 281.04 79.9792 281.04ZM98.4759 274.62V282H97.1799V274.824C97.1799 274.112 97.0079 273.464 96.6639 272.88C96.3199 272.296 95.8559 271.832 95.2719 271.488C94.6879 271.144 94.0399 270.972 93.3279 270.972C92.6239 270.972 91.9799 271.144 91.3959 271.488C90.8119 271.832 90.3439 272.296 89.9919 272.88C89.6479 273.464 89.4759 274.112 89.4759 274.824V282H88.1799V270H89.4759V271.836C89.9079 271.172 90.4799 270.644 91.1919 270.252C91.9039 269.86 92.6799 269.664 93.5199 269.664C94.4399 269.664 95.2719 269.888 96.0159 270.336C96.7679 270.776 97.3639 271.372 97.8039 272.124C98.2519 272.876 98.4759 273.708 98.4759 274.62ZM110.765 270H112.061V282H110.765L110.729 279.54C110.321 280.372 109.737 281.044 108.977 281.556C108.225 282.06 107.321 282.312 106.265 282.312C105.393 282.312 104.573 282.148 103.805 281.82C103.045 281.484 102.373 281.028 101.789 280.452C101.205 279.868 100.749 279.196 100.421 278.436C100.093 277.668 99.9286 276.844 99.9286 275.964C99.9286 275.092 100.089 274.276 100.409 273.516C100.737 272.756 101.189 272.088 101.765 271.512C102.341 270.928 103.009 270.476 103.769 270.156C104.529 269.828 105.341 269.664 106.205 269.664C107.269 269.664 108.189 269.924 108.965 270.444C109.749 270.956 110.361 271.628 110.801 272.46L110.765 270ZM106.253 281.04C107.173 281.04 107.961 280.816 108.617 280.368C109.281 279.912 109.789 279.3 110.141 278.532C110.493 277.764 110.669 276.92 110.669 276C110.669 275.056 110.489 274.204 110.129 273.444C109.777 272.676 109.269 272.068 108.605 271.62C107.949 271.164 107.165 270.936 106.253 270.936C105.325 270.936 104.481 271.164 103.721 271.62C102.969 272.076 102.369 272.688 101.921 273.456C101.473 274.224 101.249 275.072 101.249 276C101.249 276.944 101.477 277.796 101.933 278.556C102.397 279.316 103.009 279.92 103.769 280.368C104.529 280.816 105.357 281.04 106.253 281.04ZM114.641 282V264H115.937V282H114.641ZM118.813 270H120.109V282H118.813V270ZM119.473 267.732C119.249 267.732 119.057 267.66 118.897 267.516C118.745 267.364 118.669 267.176 118.669 266.952C118.669 266.728 118.745 266.544 118.897 266.4C119.057 266.248 119.249 266.172 119.473 266.172C119.689 266.172 119.873 266.248 120.025 266.4C120.185 266.544 120.265 266.728 120.265 266.952C120.265 267.176 120.189 267.364 120.037 267.516C119.885 267.66 119.697 267.732 119.473 267.732ZM132.753 271.296L124.317 280.704H132.753V282H122.505V280.704L130.941 271.296H122.505V270H132.753V271.296ZM145.194 270H146.49V282H145.194L145.158 279.54C144.75 280.372 144.166 281.044 143.406 281.556C142.654 282.06 141.75 282.312 140.694 282.312C139.822 282.312 139.002 282.148 138.234 281.82C137.474 281.484 136.802 281.028 136.218 280.452C135.634 279.868 135.178 279.196 134.85 278.436C134.522 277.668 134.358 276.844 134.358 275.964C134.358 275.092 134.518 274.276 134.838 273.516C135.166 272.756 135.618 272.088 136.194 271.512C136.77 270.928 137.438 270.476 138.198 270.156C138.958 269.828 139.77 269.664 140.634 269.664C141.698 269.664 142.618 269.924 143.394 270.444C144.178 270.956 144.79 271.628 145.23 272.46L145.194 270ZM140.682 281.04C141.602 281.04 142.39 280.816 143.046 280.368C143.71 279.912 144.218 279.3 144.57 278.532C144.922 277.764 145.098 276.92 145.098 276C145.098 275.056 144.918 274.204 144.558 273.444C144.206 272.676 143.698 272.068 143.034 271.62C142.378 271.164 141.594 270.936 140.682 270.936C139.754 270.936 138.91 271.164 138.15 271.62C137.398 272.076 136.798 272.688 136.35 273.456C135.902 274.224 135.678 275.072 135.678 276C135.678 276.944 135.906 277.796 136.362 278.556C136.826 279.316 137.438 279.92 138.198 280.368C138.958 280.816 139.786 281.04 140.682 281.04ZM148.883 282V270H150.179V271.836C150.611 271.172 151.183 270.644 151.895 270.252C152.607 269.86 153.383 269.664 154.223 269.664C154.695 269.664 155.147 269.724 155.579 269.844L155.039 271.116C154.695 271.02 154.359 270.972 154.031 270.972C153.327 270.972 152.683 271.144 152.099 271.488C151.515 271.832 151.047 272.296 150.695 272.88C150.351 273.464 150.179 274.112 150.179 274.824V282H148.883ZM161.757 282.312C160.653 282.312 159.645 282.028 158.733 281.46C157.829 280.892 157.105 280.132 156.561 279.18C156.025 278.22 155.757 277.16 155.757 276C155.757 275.12 155.913 274.3 156.225 273.54C156.537 272.772 156.965 272.1 157.509 271.524C158.061 270.94 158.701 270.484 159.429 270.156C160.157 269.828 160.933 269.664 161.757 269.664C162.629 269.664 163.433 269.836 164.169 270.18C164.913 270.516 165.553 270.992 166.089 271.608C166.625 272.224 167.037 272.952 167.325 273.792C167.613 274.624 167.745 275.536 167.721 276.528H157.113C157.201 277.384 157.457 278.152 157.881 278.832C158.313 279.504 158.865 280.036 159.537 280.428C160.209 280.812 160.949 281.008 161.757 281.016C162.645 281.016 163.445 280.784 164.157 280.32C164.869 279.848 165.441 279.204 165.873 278.388L167.181 278.688C166.701 279.752 165.977 280.624 165.009 281.304C164.041 281.976 162.957 282.312 161.757 282.312ZM157.077 275.424H166.413C166.365 274.6 166.125 273.844 165.693 273.156C165.269 272.46 164.713 271.904 164.025 271.488C163.337 271.072 162.581 270.864 161.757 270.864C160.933 270.864 160.181 271.068 159.501 271.476C158.821 271.884 158.265 272.436 157.833 273.132C157.409 273.82 157.157 274.584 157.077 275.424ZM169.813 282V270H171.109V271.836C171.549 271.172 172.121 270.644 172.825 270.252C173.529 269.86 174.305 269.664 175.153 269.664C176.081 269.664 176.925 269.896 177.685 270.36C178.453 270.816 179.049 271.424 179.473 272.184C179.897 271.424 180.489 270.816 181.249 270.36C182.009 269.896 182.853 269.664 183.781 269.664C184.693 269.664 185.525 269.888 186.277 270.336C187.029 270.776 187.625 271.372 188.065 272.124C188.513 272.876 188.737 273.708 188.737 274.62V282H187.441V274.86C187.441 274.164 187.273 273.524 186.937 272.94C186.601 272.348 186.149 271.872 185.581 271.512C185.013 271.152 184.381 270.972 183.685 270.972C182.997 270.972 182.365 271.14 181.789 271.476C181.221 271.804 180.769 272.26 180.433 272.844C180.097 273.428 179.929 274.1 179.929 274.86V282H178.633V274.86C178.633 274.1 178.461 273.428 178.117 272.844C177.781 272.26 177.329 271.804 176.761 271.476C176.193 271.14 175.561 270.972 174.865 270.972C174.177 270.972 173.549 271.152 172.981 271.512C172.413 271.872 171.957 272.348 171.613 272.94C171.277 273.524 171.109 274.164 171.109 274.86V282H169.813ZM196.186 282.312C195.082 282.312 194.074 282.028 193.162 281.46C192.258 280.892 191.534 280.132 190.99 279.18C190.454 278.22 190.186 277.16 190.186 276C190.186 275.12 190.342 274.3 190.654 273.54C190.966 272.772 191.394 272.1 191.938 271.524C192.49 270.94 193.13 270.484 193.858 270.156C194.586 269.828 195.362 269.664 196.186 269.664C197.29 269.664 198.294 269.948 199.198 270.516C200.11 271.084 200.834 271.848 201.37 272.808C201.914 273.768 202.186 274.832 202.186 276C202.186 276.872 202.03 277.688 201.718 278.448C201.406 279.208 200.974 279.88 200.422 280.464C199.878 281.04 199.242 281.492 198.514 281.82C197.794 282.148 197.018 282.312 196.186 282.312ZM196.186 281.016C197.074 281.016 197.87 280.784 198.574 280.32C199.286 279.856 199.85 279.244 200.266 278.484C200.682 277.724 200.89 276.896 200.89 276C200.89 275.096 200.682 274.26 200.266 273.492C199.85 272.724 199.286 272.112 198.574 271.656C197.862 271.192 197.066 270.96 196.186 270.96C195.298 270.96 194.498 271.192 193.786 271.656C193.074 272.12 192.51 272.736 192.094 273.504C191.686 274.264 191.482 275.096 191.482 276C191.482 276.936 191.694 277.784 192.118 278.544C192.55 279.296 193.122 279.896 193.834 280.344C194.546 280.792 195.33 281.016 196.186 281.016ZM208.022 282.228C207.358 282.22 206.706 282.104 206.066 281.88C205.434 281.648 204.882 281.34 204.41 280.956C203.938 280.572 203.61 280.136 203.426 279.648L204.566 279.156C204.702 279.516 204.962 279.84 205.346 280.128C205.738 280.416 206.178 280.644 206.666 280.812C207.162 280.972 207.646 281.052 208.118 281.052C208.654 281.052 209.158 280.96 209.63 280.776C210.102 280.592 210.486 280.332 210.782 279.996C211.078 279.66 211.226 279.264 211.226 278.808C211.226 278.328 211.07 277.952 210.758 277.68C210.446 277.4 210.046 277.176 209.558 277.008C209.078 276.832 208.582 276.668 208.07 276.516C207.19 276.26 206.426 276 205.778 275.736C205.138 275.464 204.642 275.12 204.29 274.704C203.938 274.288 203.762 273.74 203.762 273.06C203.762 272.356 203.966 271.744 204.374 271.224C204.782 270.704 205.318 270.304 205.982 270.024C206.646 269.736 207.358 269.592 208.118 269.592C209.102 269.592 209.994 269.808 210.794 270.24C211.602 270.672 212.17 271.24 212.498 271.944L211.442 272.568C211.282 272.2 211.03 271.884 210.686 271.62C210.342 271.356 209.95 271.152 209.51 271.008C209.07 270.864 208.626 270.788 208.178 270.78C207.618 270.772 207.094 270.86 206.606 271.044C206.126 271.22 205.738 271.48 205.442 271.824C205.146 272.16 204.998 272.568 204.998 273.048C204.998 273.528 205.134 273.896 205.406 274.152C205.678 274.408 206.058 274.616 206.546 274.776C207.034 274.928 207.598 275.108 208.238 275.316C208.982 275.548 209.674 275.808 210.314 276.096C210.962 276.376 211.482 276.728 211.874 277.152C212.274 277.576 212.47 278.124 212.462 278.796C212.462 279.5 212.25 280.112 211.826 280.632C211.41 281.152 210.862 281.552 210.182 281.832C209.51 282.112 208.79 282.244 208.022 282.228ZM226.333 271.296H223.297L223.285 282H221.989L222.001 271.296H219.709V270H222.001L221.989 266.232H223.285L223.297 270H226.333V271.296ZM227.997 277.356V270H229.293V277.152C229.293 277.864 229.465 278.512 229.809 279.096C230.161 279.68 230.629 280.144 231.213 280.488C231.797 280.832 232.441 281.004 233.145 281.004C233.857 281.004 234.501 280.832 235.077 280.488C235.661 280.144 236.125 279.68 236.469 279.096C236.821 278.512 236.997 277.864 236.997 277.152V270H238.293V282H236.997V280.14C236.565 280.796 235.993 281.324 235.281 281.724C234.577 282.116 233.801 282.312 232.953 282.312C232.041 282.312 231.209 282.092 230.457 281.652C229.705 281.204 229.105 280.604 228.657 279.852C228.217 279.1 227.997 278.268 227.997 277.356ZM255.369 279.18L256.521 279.804C255.977 280.564 255.285 281.172 254.445 281.628C253.613 282.084 252.709 282.312 251.733 282.312C250.629 282.312 249.621 282.028 248.709 281.46C247.805 280.892 247.081 280.132 246.537 279.18C246.001 278.22 245.733 277.16 245.733 276C245.733 275.12 245.889 274.3 246.201 273.54C246.513 272.772 246.941 272.1 247.485 271.524C248.037 270.94 248.677 270.484 249.405 270.156C250.133 269.828 250.909 269.664 251.733 269.664C252.709 269.664 253.613 269.892 254.445 270.348C255.285 270.804 255.977 271.416 256.521 272.184L255.369 272.796C254.913 272.204 254.361 271.752 253.713 271.44C253.065 271.12 252.405 270.96 251.733 270.96C250.853 270.96 250.057 271.192 249.345 271.656C248.633 272.112 248.069 272.724 247.653 273.492C247.237 274.252 247.029 275.088 247.029 276C247.029 276.92 247.241 277.76 247.665 278.52C248.089 279.28 248.657 279.888 249.369 280.344C250.081 280.792 250.869 281.016 251.733 281.016C252.461 281.016 253.145 280.844 253.785 280.5C254.425 280.156 254.953 279.716 255.369 279.18ZM268.71 270H270.006V282H268.71L268.674 279.54C268.266 280.372 267.682 281.044 266.922 281.556C266.17 282.06 265.266 282.312 264.21 282.312C263.338 282.312 262.518 282.148 261.75 281.82C260.99 281.484 260.318 281.028 259.734 280.452C259.15 279.868 258.694 279.196 258.366 278.436C258.038 277.668 257.874 276.844 257.874 275.964C257.874 275.092 258.034 274.276 258.354 273.516C258.682 272.756 259.134 272.088 259.71 271.512C260.286 270.928 260.954 270.476 261.714 270.156C262.474 269.828 263.286 269.664 264.15 269.664C265.214 269.664 266.134 269.924 266.91 270.444C267.694 270.956 268.306 271.628 268.746 272.46L268.71 270ZM264.198 281.04C265.118 281.04 265.906 280.816 266.562 280.368C267.226 279.912 267.734 279.3 268.086 278.532C268.438 277.764 268.614 276.92 268.614 276C268.614 275.056 268.434 274.204 268.074 273.444C267.722 272.676 267.214 272.068 266.55 271.62C265.894 271.164 265.11 270.936 264.198 270.936C263.27 270.936 262.426 271.164 261.666 271.62C260.914 272.076 260.314 272.688 259.866 273.456C259.418 274.224 259.194 275.072 259.194 276C259.194 276.944 259.422 277.796 259.878 278.556C260.342 279.316 260.954 279.92 261.714 280.368C262.474 280.816 263.302 281.04 264.198 281.04ZM276.155 282.228C275.491 282.22 274.839 282.104 274.199 281.88C273.567 281.648 273.015 281.34 272.543 280.956C272.071 280.572 271.743 280.136 271.559 279.648L272.699 279.156C272.835 279.516 273.095 279.84 273.479 280.128C273.871 280.416 274.311 280.644 274.799 280.812C275.295 280.972 275.779 281.052 276.251 281.052C276.787 281.052 277.291 280.96 277.763 280.776C278.235 280.592 278.619 280.332 278.915 279.996C279.211 279.66 279.359 279.264 279.359 278.808C279.359 278.328 279.203 277.952 278.891 277.68C278.579 277.4 278.179 277.176 277.691 277.008C277.211 276.832 276.715 276.668 276.203 276.516C275.323 276.26 274.559 276 273.911 275.736C273.271 275.464 272.775 275.12 272.423 274.704C272.071 274.288 271.895 273.74 271.895 273.06C271.895 272.356 272.099 271.744 272.507 271.224C272.915 270.704 273.451 270.304 274.115 270.024C274.779 269.736 275.491 269.592 276.251 269.592C277.235 269.592 278.127 269.808 278.927 270.24C279.735 270.672 280.303 271.24 280.631 271.944L279.575 272.568C279.415 272.2 279.163 271.884 278.819 271.62C278.475 271.356 278.083 271.152 277.643 271.008C277.203 270.864 276.759 270.788 276.311 270.78C275.751 270.772 275.227 270.86 274.739 271.044C274.259 271.22 273.871 271.48 273.575 271.824C273.279 272.16 273.131 272.568 273.131 273.048C273.131 273.528 273.267 273.896 273.539 274.152C273.811 274.408 274.191 274.616 274.679 274.776C275.167 274.928 275.731 275.108 276.371 275.316C277.115 275.548 277.807 275.808 278.447 276.096C279.095 276.376 279.615 276.728 280.007 277.152C280.407 277.576 280.603 278.124 280.595 278.796C280.595 279.5 280.383 280.112 279.959 280.632C279.543 281.152 278.995 281.552 278.315 281.832C277.643 282.112 276.923 282.244 276.155 282.228ZM287.874 282.312C286.77 282.312 285.762 282.028 284.85 281.46C283.946 280.892 283.222 280.132 282.678 279.18C282.142 278.22 281.874 277.16 281.874 276C281.874 275.12 282.03 274.3 282.342 273.54C282.654 272.772 283.082 272.1 283.626 271.524C284.178 270.94 284.818 270.484 285.546 270.156C286.274 269.828 287.05 269.664 287.874 269.664C288.978 269.664 289.982 269.948 290.886 270.516C291.798 271.084 292.522 271.848 293.058 272.808C293.602 273.768 293.874 274.832 293.874 276C293.874 276.872 293.718 277.688 293.406 278.448C293.094 279.208 292.662 279.88 292.11 280.464C291.566 281.04 290.93 281.492 290.202 281.82C289.482 282.148 288.706 282.312 287.874 282.312ZM287.874 281.016C288.762 281.016 289.558 280.784 290.262 280.32C290.974 279.856 291.538 279.244 291.954 278.484C292.37 277.724 292.578 276.896 292.578 276C292.578 275.096 292.37 274.26 291.954 273.492C291.538 272.724 290.974 272.112 290.262 271.656C289.55 271.192 288.754 270.96 287.874 270.96C286.986 270.96 286.186 271.192 285.474 271.656C284.762 272.12 284.198 272.736 283.782 273.504C283.374 274.264 283.17 275.096 283.17 276C283.17 276.936 283.382 277.784 283.806 278.544C284.238 279.296 284.81 279.896 285.522 280.344C286.234 280.792 287.018 281.016 287.874 281.016ZM310.009 270H311.365L304.813 288H303.433L305.617 282L301.309 270H302.725L306.265 280.212L310.009 270ZM97.635 308.18L98.787 308.804C98.243 309.564 97.551 310.172 96.711 310.628C95.879 311.084 94.975 311.312 93.999 311.312C92.895 311.312 91.887 311.028 90.975 310.46C90.071 309.892 89.347 309.132 88.803 308.18C88.267 307.22 87.999 306.16 87.999 305C87.999 304.12 88.155 303.3 88.467 302.54C88.779 301.772 89.207 301.1 89.751 300.524C90.303 299.94 90.943 299.484 91.671 299.156C92.399 298.828 93.175 298.664 93.999 298.664C94.975 298.664 95.879 298.892 96.711 299.348C97.551 299.804 98.243 300.416 98.787 301.184L97.635 301.796C97.179 301.204 96.627 300.752 95.979 300.44C95.331 300.12 94.671 299.96 93.999 299.96C93.119 299.96 92.323 300.192 91.611 300.656C90.899 301.112 90.335 301.724 89.919 302.492C89.503 303.252 89.295 304.088 89.295 305C89.295 305.92 89.507 306.76 89.931 307.52C90.355 308.28 90.923 308.888 91.635 309.344C92.347 309.792 93.135 310.016 93.999 310.016C94.727 310.016 95.411 309.844 96.051 309.5C96.691 309.156 97.219 308.716 97.635 308.18ZM100.953 311V299H102.249V300.836C102.681 300.172 103.253 299.644 103.965 299.252C104.677 298.86 105.453 298.664 106.293 298.664C106.765 298.664 107.217 298.724 107.649 298.844L107.109 300.116C106.765 300.02 106.429 299.972 106.101 299.972C105.397 299.972 104.753 300.144 104.169 300.488C103.585 300.832 103.117 301.296 102.765 301.88C102.421 302.464 102.249 303.112 102.249 303.824V311H100.953ZM113.827 311.312C112.723 311.312 111.715 311.028 110.803 310.46C109.899 309.892 109.175 309.132 108.631 308.18C108.095 307.22 107.827 306.16 107.827 305C107.827 304.12 107.983 303.3 108.295 302.54C108.607 301.772 109.035 301.1 109.579 300.524C110.131 299.94 110.771 299.484 111.499 299.156C112.227 298.828 113.003 298.664 113.827 298.664C114.699 298.664 115.503 298.836 116.239 299.18C116.983 299.516 117.623 299.992 118.159 300.608C118.695 301.224 119.107 301.952 119.395 302.792C119.683 303.624 119.815 304.536 119.791 305.528H109.183C109.271 306.384 109.527 307.152 109.951 307.832C110.383 308.504 110.935 309.036 111.607 309.428C112.279 309.812 113.019 310.008 113.827 310.016C114.715 310.016 115.515 309.784 116.227 309.32C116.939 308.848 117.511 308.204 117.943 307.388L119.251 307.688C118.771 308.752 118.047 309.624 117.079 310.304C116.111 310.976 115.027 311.312 113.827 311.312ZM109.147 304.424H118.483C118.435 303.6 118.195 302.844 117.763 302.156C117.339 301.46 116.783 300.904 116.095 300.488C115.407 300.072 114.651 299.864 113.827 299.864C113.003 299.864 112.251 300.068 111.571 300.476C110.891 300.884 110.335 301.436 109.903 302.132C109.479 302.82 109.227 303.584 109.147 304.424ZM131.835 299H133.131V311H131.835L131.799 308.54C131.391 309.372 130.807 310.044 130.047 310.556C129.295 311.06 128.391 311.312 127.335 311.312C126.463 311.312 125.643 311.148 124.875 310.82C124.115 310.484 123.443 310.028 122.859 309.452C122.275 308.868 121.819 308.196 121.491 307.436C121.163 306.668 120.999 305.844 120.999 304.964C120.999 304.092 121.159 303.276 121.479 302.516C121.807 301.756 122.259 301.088 122.835 300.512C123.411 299.928 124.079 299.476 124.839 299.156C125.599 298.828 126.411 298.664 127.275 298.664C128.339 298.664 129.259 298.924 130.035 299.444C130.819 299.956 131.431 300.628 131.871 301.46L131.835 299ZM127.323 310.04C128.243 310.04 129.031 309.816 129.687 309.368C130.351 308.912 130.859 308.3 131.211 307.532C131.563 306.764 131.739 305.92 131.739 305C131.739 304.056 131.559 303.204 131.199 302.444C130.847 301.676 130.339 301.068 129.675 300.62C129.019 300.164 128.235 299.936 127.323 299.936C126.395 299.936 125.551 300.164 124.791 300.62C124.039 301.076 123.439 301.688 122.991 302.456C122.543 303.224 122.319 304.072 122.319 305C122.319 305.944 122.547 306.796 123.003 307.556C123.467 308.316 124.079 308.92 124.839 309.368C125.599 309.816 126.427 310.04 127.323 310.04ZM135.524 311V299H136.82V300.836C137.252 300.172 137.824 299.644 138.536 299.252C139.248 298.86 140.024 298.664 140.864 298.664C141.336 298.664 141.788 298.724 142.22 298.844L141.68 300.116C141.336 300.02 141 299.972 140.672 299.972C139.968 299.972 139.324 300.144 138.74 300.488C138.156 300.832 137.688 301.296 137.336 301.88C136.992 302.464 136.82 303.112 136.82 303.824V311H135.524ZM148.397 311.312C147.293 311.312 146.285 311.028 145.373 310.46C144.469 309.892 143.745 309.132 143.201 308.18C142.665 307.22 142.397 306.16 142.397 305C142.397 304.12 142.553 303.3 142.865 302.54C143.177 301.772 143.605 301.1 144.149 300.524C144.701 299.94 145.341 299.484 146.069 299.156C146.797 298.828 147.573 298.664 148.397 298.664C149.269 298.664 150.073 298.836 150.809 299.18C151.553 299.516 152.193 299.992 152.729 300.608C153.265 301.224 153.677 301.952 153.965 302.792C154.253 303.624 154.385 304.536 154.361 305.528H143.753C143.841 306.384 144.097 307.152 144.521 307.832C144.953 308.504 145.505 309.036 146.177 309.428C146.849 309.812 147.589 310.008 148.397 310.016C149.285 310.016 150.085 309.784 150.797 309.32C151.509 308.848 152.081 308.204 152.513 307.388L153.821 307.688C153.341 308.752 152.617 309.624 151.649 310.304C150.681 310.976 149.597 311.312 148.397 311.312ZM143.717 304.424H153.053C153.005 303.6 152.765 302.844 152.333 302.156C151.909 301.46 151.353 300.904 150.665 300.488C149.977 300.072 149.221 299.864 148.397 299.864C147.573 299.864 146.821 300.068 146.141 300.476C145.461 300.884 144.905 301.436 144.473 302.132C144.049 302.82 143.797 303.584 143.717 304.424ZM156.453 311V299H157.749V300.836C158.189 300.172 158.761 299.644 159.465 299.252C160.169 298.86 160.945 298.664 161.793 298.664C162.721 298.664 163.565 298.896 164.325 299.36C165.093 299.816 165.689 300.424 166.113 301.184C166.537 300.424 167.129 299.816 167.889 299.36C168.649 298.896 169.493 298.664 170.421 298.664C171.333 298.664 172.165 298.888 172.917 299.336C173.669 299.776 174.265 300.372 174.705 301.124C175.153 301.876 175.377 302.708 175.377 303.62V311H174.081V303.86C174.081 303.164 173.913 302.524 173.577 301.94C173.241 301.348 172.789 300.872 172.221 300.512C171.653 300.152 171.021 299.972 170.325 299.972C169.637 299.972 169.005 300.14 168.429 300.476C167.861 300.804 167.409 301.26 167.073 301.844C166.737 302.428 166.569 303.1 166.569 303.86V311H165.273V303.86C165.273 303.1 165.101 302.428 164.757 301.844C164.421 301.26 163.969 300.804 163.401 300.476C162.833 300.14 162.201 299.972 161.505 299.972C160.817 299.972 160.189 300.152 159.621 300.512C159.053 300.872 158.597 301.348 158.253 301.94C157.917 302.524 157.749 303.164 157.749 303.86V311H156.453ZM182.827 311.312C181.723 311.312 180.715 311.028 179.803 310.46C178.899 309.892 178.175 309.132 177.631 308.18C177.095 307.22 176.827 306.16 176.827 305C176.827 304.12 176.983 303.3 177.295 302.54C177.607 301.772 178.035 301.1 178.579 300.524C179.131 299.94 179.771 299.484 180.499 299.156C181.227 298.828 182.003 298.664 182.827 298.664C183.931 298.664 184.935 298.948 185.839 299.516C186.751 300.084 187.475 300.848 188.011 301.808C188.555 302.768 188.827 303.832 188.827 305C188.827 305.872 188.671 306.688 188.359 307.448C188.047 308.208 187.615 308.88 187.063 309.464C186.519 310.04 185.883 310.492 185.155 310.82C184.435 311.148 183.659 311.312 182.827 311.312ZM182.827 310.016C183.715 310.016 184.511 309.784 185.215 309.32C185.927 308.856 186.491 308.244 186.907 307.484C187.323 306.724 187.531 305.896 187.531 305C187.531 304.096 187.323 303.26 186.907 302.492C186.491 301.724 185.927 301.112 185.215 300.656C184.503 300.192 183.707 299.96 182.827 299.96C181.939 299.96 181.139 300.192 180.427 300.656C179.715 301.12 179.151 301.736 178.735 302.504C178.327 303.264 178.123 304.096 178.123 305C178.123 305.936 178.335 306.784 178.759 307.544C179.191 308.296 179.763 308.896 180.475 309.344C181.187 309.792 181.971 310.016 182.827 310.016ZM194.662 311.228C193.998 311.22 193.346 311.104 192.706 310.88C192.074 310.648 191.522 310.34 191.05 309.956C190.578 309.572 190.25 309.136 190.066 308.648L191.206 308.156C191.342 308.516 191.602 308.84 191.986 309.128C192.378 309.416 192.818 309.644 193.306 309.812C193.802 309.972 194.286 310.052 194.758 310.052C195.294 310.052 195.798 309.96 196.27 309.776C196.742 309.592 197.126 309.332 197.422 308.996C197.718 308.66 197.866 308.264 197.866 307.808C197.866 307.328 197.71 306.952 197.398 306.68C197.086 306.4 196.686 306.176 196.198 306.008C195.718 305.832 195.222 305.668 194.71 305.516C193.83 305.26 193.066 305 192.418 304.736C191.778 304.464 191.282 304.12 190.93 303.704C190.578 303.288 190.402 302.74 190.402 302.06C190.402 301.356 190.606 300.744 191.014 300.224C191.422 299.704 191.958 299.304 192.622 299.024C193.286 298.736 193.998 298.592 194.758 298.592C195.742 298.592 196.634 298.808 197.434 299.24C198.242 299.672 198.81 300.24 199.138 300.944L198.082 301.568C197.922 301.2 197.67 300.884 197.326 300.62C196.982 300.356 196.59 300.152 196.15 300.008C195.71 299.864 195.266 299.788 194.818 299.78C194.258 299.772 193.734 299.86 193.246 300.044C192.766 300.22 192.378 300.48 192.082 300.824C191.786 301.16 191.638 301.568 191.638 302.048C191.638 302.528 191.774 302.896 192.046 303.152C192.318 303.408 192.698 303.616 193.186 303.776C193.674 303.928 194.238 304.108 194.878 304.316C195.622 304.548 196.314 304.808 196.954 305.096C197.602 305.376 198.122 305.728 198.514 306.152C198.914 306.576 199.11 307.124 199.102 307.796C199.102 308.5 198.89 309.112 198.466 309.632C198.05 310.152 197.502 310.552 196.822 310.832C196.15 311.112 195.43 311.244 194.662 311.228ZM217.234 303.62V311H215.938V303.824C215.938 303.112 215.766 302.464 215.422 301.88C215.078 301.296 214.614 300.832 214.03 300.488C213.446 300.144 212.798 299.972 212.086 299.972C211.382 299.972 210.738 300.144 210.154 300.488C209.57 300.832 209.102 301.296 208.75 301.88C208.406 302.464 208.234 303.112 208.234 303.824V311H206.938V299H208.234V300.836C208.666 300.172 209.238 299.644 209.95 299.252C210.662 298.86 211.438 298.664 212.278 298.664C213.198 298.664 214.03 298.888 214.774 299.336C215.526 299.776 216.122 300.372 216.562 301.124C217.01 301.876 217.234 302.708 217.234 303.62ZM224.686 311.312C223.582 311.312 222.574 311.028 221.662 310.46C220.758 309.892 220.034 309.132 219.49 308.18C218.954 307.22 218.686 306.16 218.686 305C218.686 304.12 218.842 303.3 219.154 302.54C219.466 301.772 219.894 301.1 220.438 300.524C220.99 299.94 221.63 299.484 222.358 299.156C223.086 298.828 223.862 298.664 224.686 298.664C225.558 298.664 226.362 298.836 227.098 299.18C227.842 299.516 228.482 299.992 229.018 300.608C229.554 301.224 229.966 301.952 230.254 302.792C230.542 303.624 230.674 304.536 230.65 305.528H220.042C220.13 306.384 220.386 307.152 220.81 307.832C221.242 308.504 221.794 309.036 222.466 309.428C223.138 309.812 223.878 310.008 224.686 310.016C225.574 310.016 226.374 309.784 227.086 309.32C227.798 308.848 228.37 308.204 228.802 307.388L230.11 307.688C229.63 308.752 228.906 309.624 227.938 310.304C226.97 310.976 225.886 311.312 224.686 311.312ZM220.006 304.424H229.342C229.294 303.6 229.054 302.844 228.622 302.156C228.198 301.46 227.642 300.904 226.954 300.488C226.266 300.072 225.51 299.864 224.686 299.864C223.862 299.864 223.11 300.068 222.43 300.476C221.75 300.884 221.194 301.436 220.762 302.132C220.338 302.82 220.086 303.584 220.006 304.424ZM242.31 299H243.606V311.504C243.606 312.248 243.442 312.948 243.114 313.604C242.794 314.268 242.358 314.852 241.806 315.356C241.254 315.868 240.626 316.268 239.922 316.556C239.226 316.852 238.506 317 237.762 317C236.93 317 236.126 316.804 235.35 316.412C234.574 316.028 233.902 315.512 233.334 314.864C232.774 314.216 232.386 313.508 232.17 312.74L233.37 312.188C233.514 312.836 233.81 313.424 234.258 313.952C234.706 314.488 235.238 314.912 235.854 315.224C236.478 315.536 237.114 315.692 237.762 315.692C238.338 315.692 238.898 315.58 239.442 315.356C239.986 315.132 240.474 314.824 240.906 314.432C241.338 314.048 241.678 313.604 241.926 313.1C242.182 312.596 242.31 312.064 242.31 311.504V308.564C241.886 309.38 241.298 310.044 240.546 310.556C239.794 311.06 238.918 311.312 237.918 311.312C237.086 311.312 236.302 311.148 235.566 310.82C234.83 310.492 234.186 310.04 233.634 309.464C233.082 308.88 232.646 308.208 232.326 307.448C232.014 306.688 231.858 305.872 231.858 305C231.858 304.128 232.014 303.312 232.326 302.552C232.646 301.784 233.082 301.112 233.634 300.536C234.186 299.952 234.83 299.496 235.566 299.168C236.302 298.84 237.086 298.676 237.918 298.676C238.918 298.676 239.794 298.928 240.546 299.432C241.298 299.928 241.886 300.592 242.31 301.424V299ZM237.93 310.04C238.826 310.04 239.594 309.808 240.234 309.344C240.882 308.88 241.378 308.264 241.722 307.496C242.074 306.728 242.25 305.896 242.25 305C242.25 304.08 242.074 303.24 241.722 302.48C241.37 301.712 240.87 301.096 240.222 300.632C239.574 300.168 238.81 299.936 237.93 299.936C237.05 299.936 236.25 300.164 235.53 300.62C234.81 301.076 234.238 301.688 233.814 302.456C233.39 303.224 233.178 304.072 233.178 305C233.178 305.936 233.394 306.784 233.826 307.544C234.258 308.304 234.834 308.912 235.554 309.368C236.274 309.816 237.066 310.04 237.93 310.04ZM251.686 311.312C250.582 311.312 249.574 311.028 248.662 310.46C247.758 309.892 247.034 309.132 246.49 308.18C245.954 307.22 245.686 306.16 245.686 305C245.686 304.12 245.842 303.3 246.154 302.54C246.466 301.772 246.894 301.1 247.438 300.524C247.99 299.94 248.63 299.484 249.358 299.156C250.086 298.828 250.862 298.664 251.686 298.664C252.79 298.664 253.794 298.948 254.698 299.516C255.61 300.084 256.334 300.848 256.87 301.808C257.414 302.768 257.686 303.832 257.686 305C257.686 305.872 257.53 306.688 257.218 307.448C256.906 308.208 256.474 308.88 255.922 309.464C255.378 310.04 254.742 310.492 254.014 310.82C253.294 311.148 252.518 311.312 251.686 311.312ZM251.686 310.016C252.574 310.016 253.37 309.784 254.074 309.32C254.786 308.856 255.35 308.244 255.766 307.484C256.182 306.724 256.39 305.896 256.39 305C256.39 304.096 256.182 303.26 255.766 302.492C255.35 301.724 254.786 301.112 254.074 300.656C253.362 300.192 252.566 299.96 251.686 299.96C250.798 299.96 249.998 300.192 249.286 300.656C248.574 301.12 248.01 301.736 247.594 302.504C247.186 303.264 246.982 304.096 246.982 305C246.982 305.936 247.194 306.784 247.618 307.544C248.05 308.296 248.622 308.896 249.334 309.344C250.046 309.792 250.83 310.016 251.686 310.016ZM268.518 308.18L269.67 308.804C269.126 309.564 268.434 310.172 267.594 310.628C266.762 311.084 265.858 311.312 264.882 311.312C263.778 311.312 262.77 311.028 261.858 310.46C260.954 309.892 260.23 309.132 259.686 308.18C259.15 307.22 258.882 306.16 258.882 305C258.882 304.12 259.038 303.3 259.35 302.54C259.662 301.772 260.09 301.1 260.634 300.524C261.186 299.94 261.826 299.484 262.554 299.156C263.282 298.828 264.058 298.664 264.882 298.664C265.858 298.664 266.762 298.892 267.594 299.348C268.434 299.804 269.126 300.416 269.67 301.184L268.518 301.796C268.062 301.204 267.51 300.752 266.862 300.44C266.214 300.12 265.554 299.96 264.882 299.96C264.002 299.96 263.206 300.192 262.494 300.656C261.782 301.112 261.218 301.724 260.802 302.492C260.386 303.252 260.178 304.088 260.178 305C260.178 305.92 260.39 306.76 260.814 307.52C261.238 308.28 261.806 308.888 262.518 309.344C263.23 309.792 264.018 310.016 264.882 310.016C265.61 310.016 266.294 309.844 266.934 309.5C267.574 309.156 268.102 308.716 268.518 308.18ZM271.696 299H272.992V311H271.696V299ZM272.356 296.732C272.132 296.732 271.94 296.66 271.78 296.516C271.628 296.364 271.552 296.176 271.552 295.952C271.552 295.728 271.628 295.544 271.78 295.4C271.94 295.248 272.132 295.172 272.356 295.172C272.572 295.172 272.756 295.248 272.908 295.4C273.068 295.544 273.148 295.728 273.148 295.952C273.148 296.176 273.072 296.364 272.92 296.516C272.768 296.66 272.58 296.732 272.356 296.732ZM281.077 311.312C279.973 311.312 278.965 311.028 278.053 310.46C277.149 309.892 276.425 309.132 275.881 308.18C275.345 307.22 275.077 306.16 275.077 305C275.077 304.12 275.233 303.3 275.545 302.54C275.857 301.772 276.285 301.1 276.829 300.524C277.381 299.94 278.021 299.484 278.749 299.156C279.477 298.828 280.253 298.664 281.077 298.664C282.181 298.664 283.185 298.948 284.089 299.516C285.001 300.084 285.725 300.848 286.261 301.808C286.805 302.768 287.077 303.832 287.077 305C287.077 305.872 286.921 306.688 286.609 307.448C286.297 308.208 285.865 308.88 285.313 309.464C284.769 310.04 284.133 310.492 283.405 310.82C282.685 311.148 281.909 311.312 281.077 311.312ZM281.077 310.016C281.965 310.016 282.761 309.784 283.465 309.32C284.177 308.856 284.741 308.244 285.157 307.484C285.573 306.724 285.781 305.896 285.781 305C285.781 304.096 285.573 303.26 285.157 302.492C284.741 301.724 284.177 301.112 283.465 300.656C282.753 300.192 281.957 299.96 281.077 299.96C280.189 299.96 279.389 300.192 278.677 300.656C277.965 301.12 277.401 301.736 276.985 302.504C276.577 303.264 276.373 304.096 276.373 305C276.373 305.936 276.585 306.784 277.009 307.544C277.441 308.296 278.013 308.896 278.725 309.344C279.437 309.792 280.221 310.016 281.077 310.016ZM292.912 311.228C292.248 311.22 291.596 311.104 290.956 310.88C290.324 310.648 289.772 310.34 289.3 309.956C288.828 309.572 288.5 309.136 288.316 308.648L289.456 308.156C289.592 308.516 289.852 308.84 290.236 309.128C290.628 309.416 291.068 309.644 291.556 309.812C292.052 309.972 292.536 310.052 293.008 310.052C293.544 310.052 294.048 309.96 294.52 309.776C294.992 309.592 295.376 309.332 295.672 308.996C295.968 308.66 296.116 308.264 296.116 307.808C296.116 307.328 295.96 306.952 295.648 306.68C295.336 306.4 294.936 306.176 294.448 306.008C293.968 305.832 293.472 305.668 292.96 305.516C292.08 305.26 291.316 305 290.668 304.736C290.028 304.464 289.532 304.12 289.18 303.704C288.828 303.288 288.652 302.74 288.652 302.06C288.652 301.356 288.856 300.744 289.264 300.224C289.672 299.704 290.208 299.304 290.872 299.024C291.536 298.736 292.248 298.592 293.008 298.592C293.992 298.592 294.884 298.808 295.684 299.24C296.492 299.672 297.06 300.24 297.388 300.944L296.332 301.568C296.172 301.2 295.92 300.884 295.576 300.62C295.232 300.356 294.84 300.152 294.4 300.008C293.96 299.864 293.516 299.788 293.068 299.78C292.508 299.772 291.984 299.86 291.496 300.044C291.016 300.22 290.628 300.48 290.332 300.824C290.036 301.16 289.888 301.568 289.888 302.048C289.888 302.528 290.024 302.896 290.296 303.152C290.568 303.408 290.948 303.616 291.436 303.776C291.924 303.928 292.488 304.108 293.128 304.316C293.872 304.548 294.564 304.808 295.204 305.096C295.852 305.376 296.372 305.728 296.764 306.152C297.164 306.576 297.36 307.124 297.352 307.796C297.352 308.5 297.14 309.112 296.716 309.632C296.3 310.152 295.752 310.552 295.072 310.832C294.4 311.112 293.68 311.244 292.912 311.228ZM79.1565 328H80.4525V340H79.1565V328ZM79.8165 325.732C79.5925 325.732 79.4005 325.66 79.2405 325.516C79.0885 325.364 79.0125 325.176 79.0125 324.952C79.0125 324.728 79.0885 324.544 79.2405 324.4C79.4005 324.248 79.5925 324.172 79.8165 324.172C80.0325 324.172 80.2165 324.248 80.3685 324.4C80.5285 324.544 80.6085 324.728 80.6085 324.952C80.6085 325.176 80.5325 325.364 80.3805 325.516C80.2285 325.66 80.0405 325.732 79.8165 325.732ZM83.3049 340V328H84.6009V329.836C85.0409 329.172 85.6129 328.644 86.3169 328.252C87.0209 327.86 87.7969 327.664 88.6449 327.664C89.5729 327.664 90.4169 327.896 91.1769 328.36C91.9449 328.816 92.5409 329.424 92.9649 330.184C93.3889 329.424 93.9809 328.816 94.7409 328.36C95.5009 327.896 96.3449 327.664 97.2729 327.664C98.1849 327.664 99.0169 327.888 99.7689 328.336C100.521 328.776 101.117 329.372 101.557 330.124C102.005 330.876 102.229 331.708 102.229 332.62V340H100.933V332.86C100.933 332.164 100.765 331.524 100.429 330.94C100.093 330.348 99.6409 329.872 99.0729 329.512C98.5049 329.152 97.8729 328.972 97.1769 328.972C96.4889 328.972 95.8569 329.14 95.2809 329.476C94.7129 329.804 94.2609 330.26 93.9249 330.844C93.5889 331.428 93.4209 332.1 93.4209 332.86V340H92.1249V332.86C92.1249 332.1 91.9529 331.428 91.6089 330.844C91.2729 330.26 90.8209 329.804 90.2529 329.476C89.6849 329.14 89.0529 328.972 88.3569 328.972C87.6689 328.972 87.0409 329.152 86.4729 329.512C85.9049 329.872 85.4489 330.348 85.1049 330.94C84.7689 331.524 84.6009 332.164 84.6009 332.86V340H83.3049ZM105.929 346H104.633V328H105.929V330.472C106.353 329.64 106.945 328.968 107.705 328.456C108.473 327.944 109.389 327.688 110.453 327.688C111.325 327.688 112.141 327.852 112.901 328.18C113.661 328.508 114.329 328.964 114.905 329.548C115.489 330.124 115.945 330.792 116.273 331.552C116.601 332.312 116.765 333.128 116.765 334C116.765 334.872 116.601 335.692 116.273 336.46C115.945 337.228 115.489 337.904 114.905 338.488C114.329 339.064 113.661 339.516 112.901 339.844C112.141 340.172 111.325 340.336 110.453 340.336C109.389 340.336 108.473 340.08 107.705 339.568C106.945 339.056 106.353 338.384 105.929 337.552V346ZM110.441 328.96C109.529 328.96 108.741 329.188 108.077 329.644C107.421 330.092 106.913 330.696 106.553 331.456C106.201 332.216 106.025 333.064 106.025 334C106.025 334.92 106.201 335.764 106.553 336.532C106.905 337.3 107.409 337.916 108.065 338.38C108.729 338.836 109.521 339.064 110.441 339.064C111.345 339.064 112.173 338.84 112.925 338.392C113.685 337.944 114.297 337.34 114.761 336.58C115.225 335.812 115.457 334.952 115.457 334C115.457 333.08 115.229 332.24 114.773 331.48C114.325 330.712 113.721 330.1 112.961 329.644C112.209 329.188 111.369 328.96 110.441 328.96ZM118.86 340V328H120.156V329.836C120.588 329.172 121.16 328.644 121.872 328.252C122.584 327.86 123.36 327.664 124.2 327.664C124.672 327.664 125.124 327.724 125.556 327.844L125.016 329.116C124.672 329.02 124.336 328.972 124.008 328.972C123.304 328.972 122.66 329.144 122.076 329.488C121.492 329.832 121.024 330.296 120.672 330.88C120.328 331.464 120.156 332.112 120.156 332.824V340H118.86ZM131.733 340.312C130.629 340.312 129.621 340.028 128.709 339.46C127.805 338.892 127.081 338.132 126.537 337.18C126.001 336.22 125.733 335.16 125.733 334C125.733 333.12 125.889 332.3 126.201 331.54C126.513 330.772 126.941 330.1 127.485 329.524C128.037 328.94 128.677 328.484 129.405 328.156C130.133 327.828 130.909 327.664 131.733 327.664C132.605 327.664 133.409 327.836 134.145 328.18C134.889 328.516 135.529 328.992 136.065 329.608C136.601 330.224 137.013 330.952 137.301 331.792C137.589 332.624 137.721 333.536 137.697 334.528H127.089C127.177 335.384 127.433 336.152 127.857 336.832C128.289 337.504 128.841 338.036 129.513 338.428C130.185 338.812 130.925 339.008 131.733 339.016C132.621 339.016 133.421 338.784 134.133 338.32C134.845 337.848 135.417 337.204 135.849 336.388L137.157 336.688C136.677 337.752 135.953 338.624 134.985 339.304C134.017 339.976 132.933 340.312 131.733 340.312ZM127.053 333.424H136.389C136.341 332.6 136.101 331.844 135.669 331.156C135.245 330.46 134.689 329.904 134.001 329.488C133.313 329.072 132.557 328.864 131.733 328.864C130.909 328.864 130.157 329.068 129.477 329.476C128.797 329.884 128.241 330.436 127.809 331.132C127.385 331.82 127.133 332.584 127.053 333.424ZM143.545 340.228C142.881 340.22 142.229 340.104 141.589 339.88C140.957 339.648 140.405 339.34 139.933 338.956C139.461 338.572 139.133 338.136 138.949 337.648L140.089 337.156C140.225 337.516 140.485 337.84 140.869 338.128C141.261 338.416 141.701 338.644 142.189 338.812C142.685 338.972 143.169 339.052 143.641 339.052C144.177 339.052 144.681 338.96 145.153 338.776C145.625 338.592 146.009 338.332 146.305 337.996C146.601 337.66 146.749 337.264 146.749 336.808C146.749 336.328 146.593 335.952 146.281 335.68C145.969 335.4 145.569 335.176 145.081 335.008C144.601 334.832 144.105 334.668 143.593 334.516C142.713 334.26 141.949 334 141.301 333.736C140.661 333.464 140.165 333.12 139.813 332.704C139.461 332.288 139.285 331.74 139.285 331.06C139.285 330.356 139.489 329.744 139.897 329.224C140.305 328.704 140.841 328.304 141.505 328.024C142.169 327.736 142.881 327.592 143.641 327.592C144.625 327.592 145.517 327.808 146.317 328.24C147.125 328.672 147.693 329.24 148.021 329.944L146.965 330.568C146.805 330.2 146.553 329.884 146.209 329.62C145.865 329.356 145.473 329.152 145.033 329.008C144.593 328.864 144.149 328.788 143.701 328.78C143.141 328.772 142.617 328.86 142.129 329.044C141.649 329.22 141.261 329.48 140.965 329.824C140.669 330.16 140.521 330.568 140.521 331.048C140.521 331.528 140.657 331.896 140.929 332.152C141.201 332.408 141.581 332.616 142.069 332.776C142.557 332.928 143.121 333.108 143.761 333.316C144.505 333.548 145.197 333.808 145.837 334.096C146.485 334.376 147.005 334.728 147.397 335.152C147.797 335.576 147.993 336.124 147.985 336.796C147.985 337.5 147.773 338.112 147.349 338.632C146.933 339.152 146.385 339.552 145.705 339.832C145.033 340.112 144.313 340.244 143.545 340.228ZM149.985 328H151.281V340H149.985V328ZM150.645 325.732C150.421 325.732 150.229 325.66 150.069 325.516C149.917 325.364 149.841 325.176 149.841 324.952C149.841 324.728 149.917 324.544 150.069 324.4C150.229 324.248 150.421 324.172 150.645 324.172C150.861 324.172 151.045 324.248 151.197 324.4C151.357 324.544 151.437 324.728 151.437 324.952C151.437 325.176 151.361 325.364 151.209 325.516C151.057 325.66 150.869 325.732 150.645 325.732ZM159.366 340.312C158.262 340.312 157.254 340.028 156.342 339.46C155.438 338.892 154.714 338.132 154.17 337.18C153.634 336.22 153.366 335.16 153.366 334C153.366 333.12 153.522 332.3 153.834 331.54C154.146 330.772 154.574 330.1 155.118 329.524C155.67 328.94 156.31 328.484 157.038 328.156C157.766 327.828 158.542 327.664 159.366 327.664C160.47 327.664 161.474 327.948 162.378 328.516C163.29 329.084 164.014 329.848 164.55 330.808C165.094 331.768 165.366 332.832 165.366 334C165.366 334.872 165.21 335.688 164.898 336.448C164.586 337.208 164.154 337.88 163.602 338.464C163.058 339.04 162.422 339.492 161.694 339.82C160.974 340.148 160.198 340.312 159.366 340.312ZM159.366 339.016C160.254 339.016 161.05 338.784 161.754 338.32C162.466 337.856 163.03 337.244 163.446 336.484C163.862 335.724 164.07 334.896 164.07 334C164.07 333.096 163.862 332.26 163.446 331.492C163.03 330.724 162.466 330.112 161.754 329.656C161.042 329.192 160.246 328.96 159.366 328.96C158.478 328.96 157.678 329.192 156.966 329.656C156.254 330.12 155.69 330.736 155.274 331.504C154.866 332.264 154.662 333.096 154.662 334C154.662 334.936 154.874 335.784 155.298 336.544C155.73 337.296 156.302 337.896 157.014 338.344C157.726 338.792 158.51 339.016 159.366 339.016ZM177.742 332.62V340H176.446V332.824C176.446 332.112 176.274 331.464 175.93 330.88C175.586 330.296 175.122 329.832 174.538 329.488C173.954 329.144 173.306 328.972 172.594 328.972C171.89 328.972 171.246 329.144 170.662 329.488C170.078 329.832 169.61 330.296 169.258 330.88C168.914 331.464 168.742 332.112 168.742 332.824V340H167.446V328H168.742V329.836C169.174 329.172 169.746 328.644 170.458 328.252C171.17 327.86 171.946 327.664 172.786 327.664C173.706 327.664 174.538 327.888 175.282 328.336C176.034 328.776 176.63 329.372 177.07 330.124C177.518 330.876 177.742 331.708 177.742 332.62ZM190.03 328H191.326V340H190.03L189.994 337.54C189.586 338.372 189.002 339.044 188.242 339.556C187.49 340.06 186.586 340.312 185.53 340.312C184.658 340.312 183.838 340.148 183.07 339.82C182.31 339.484 181.638 339.028 181.054 338.452C180.47 337.868 180.014 337.196 179.686 336.436C179.358 335.668 179.194 334.844 179.194 333.964C179.194 333.092 179.354 332.276 179.674 331.516C180.002 330.756 180.454 330.088 181.03 329.512C181.606 328.928 182.274 328.476 183.034 328.156C183.794 327.828 184.606 327.664 185.47 327.664C186.534 327.664 187.454 327.924 188.23 328.444C189.014 328.956 189.626 329.628 190.066 330.46L190.03 328ZM185.518 339.04C186.438 339.04 187.226 338.816 187.882 338.368C188.546 337.912 189.054 337.3 189.406 336.532C189.758 335.764 189.934 334.92 189.934 334C189.934 333.056 189.754 332.204 189.394 331.444C189.042 330.676 188.534 330.068 187.87 329.62C187.214 329.164 186.43 328.936 185.518 328.936C184.59 328.936 183.746 329.164 182.986 329.62C182.234 330.076 181.634 330.688 181.186 331.456C180.738 332.224 180.514 333.072 180.514 334C180.514 334.944 180.742 335.796 181.198 336.556C181.662 337.316 182.274 337.92 183.034 338.368C183.794 338.816 184.622 339.04 185.518 339.04ZM204.015 332.62V340H202.719V332.824C202.719 332.112 202.547 331.464 202.203 330.88C201.859 330.296 201.395 329.832 200.811 329.488C200.227 329.144 199.579 328.972 198.867 328.972C198.163 328.972 197.519 329.144 196.935 329.488C196.351 329.832 195.883 330.296 195.531 330.88C195.187 331.464 195.015 332.112 195.015 332.824V340H193.719V328H195.015V329.836C195.447 329.172 196.019 328.644 196.731 328.252C197.443 327.86 198.219 327.664 199.059 327.664C199.979 327.664 200.811 327.888 201.555 328.336C202.307 328.776 202.903 329.372 203.343 330.124C203.791 330.876 204.015 331.708 204.015 332.62ZM212.458 329.296H209.422L209.41 340H208.114L208.126 329.296H205.834V328H208.126L208.114 324.232H209.41L209.422 328H212.458V329.296ZM219.53 340.312C218.426 340.312 217.418 340.028 216.506 339.46C215.602 338.892 214.878 338.132 214.334 337.18C213.798 336.22 213.53 335.16 213.53 334C213.53 333.12 213.686 332.3 213.998 331.54C214.31 330.772 214.738 330.1 215.282 329.524C215.834 328.94 216.474 328.484 217.202 328.156C217.93 327.828 218.706 327.664 219.53 327.664C220.402 327.664 221.206 327.836 221.942 328.18C222.686 328.516 223.326 328.992 223.862 329.608C224.398 330.224 224.81 330.952 225.098 331.792C225.386 332.624 225.518 333.536 225.494 334.528H214.886C214.974 335.384 215.23 336.152 215.654 336.832C216.086 337.504 216.638 338.036 217.31 338.428C217.982 338.812 218.722 339.008 219.53 339.016C220.418 339.016 221.218 338.784 221.93 338.32C222.642 337.848 223.214 337.204 223.646 336.388L224.954 336.688C224.474 337.752 223.75 338.624 222.782 339.304C221.814 339.976 220.73 340.312 219.53 340.312ZM214.85 333.424H224.186C224.138 332.6 223.898 331.844 223.466 331.156C223.042 330.46 222.486 329.904 221.798 329.488C221.11 329.072 220.354 328.864 219.53 328.864C218.706 328.864 217.954 329.068 217.274 329.476C216.594 329.884 216.038 330.436 215.606 331.132C215.182 331.82 214.93 332.584 214.85 333.424ZM231.342 340.228C230.678 340.22 230.026 340.104 229.386 339.88C228.754 339.648 228.202 339.34 227.73 338.956C227.258 338.572 226.93 338.136 226.746 337.648L227.886 337.156C228.022 337.516 228.282 337.84 228.666 338.128C229.058 338.416 229.498 338.644 229.986 338.812C230.482 338.972 230.966 339.052 231.438 339.052C231.974 339.052 232.478 338.96 232.95 338.776C233.422 338.592 233.806 338.332 234.102 337.996C234.398 337.66 234.546 337.264 234.546 336.808C234.546 336.328 234.39 335.952 234.078 335.68C233.766 335.4 233.366 335.176 232.878 335.008C232.398 334.832 231.902 334.668 231.39 334.516C230.51 334.26 229.746 334 229.098 333.736C228.458 333.464 227.962 333.12 227.61 332.704C227.258 332.288 227.082 331.74 227.082 331.06C227.082 330.356 227.286 329.744 227.694 329.224C228.102 328.704 228.638 328.304 229.302 328.024C229.966 327.736 230.678 327.592 231.438 327.592C232.422 327.592 233.314 327.808 234.114 328.24C234.922 328.672 235.49 329.24 235.818 329.944L234.762 330.568C234.602 330.2 234.35 329.884 234.006 329.62C233.662 329.356 233.27 329.152 232.83 329.008C232.39 328.864 231.946 328.788 231.498 328.78C230.938 328.772 230.414 328.86 229.926 329.044C229.446 329.22 229.058 329.48 228.762 329.824C228.466 330.16 228.318 330.568 228.318 331.048C228.318 331.528 228.454 331.896 228.726 332.152C228.998 332.408 229.378 332.616 229.866 332.776C230.354 332.928 230.918 333.108 231.558 333.316C232.302 333.548 232.994 333.808 233.634 334.096C234.282 334.376 234.802 334.728 235.194 335.152C235.594 335.576 235.79 336.124 235.782 336.796C235.782 337.5 235.57 338.112 235.146 338.632C234.73 339.152 234.182 339.552 233.502 339.832C232.83 340.112 232.11 340.244 231.342 340.228ZM241.217 346V344.704C241.857 344.704 242.429 344.564 242.933 344.284C243.437 344.004 243.833 343.62 244.121 343.132C244.417 342.644 244.565 342.096 244.565 341.488V328H245.861V341.488C245.861 342.32 245.657 343.076 245.249 343.756C244.849 344.444 244.297 344.988 243.593 345.388C242.897 345.796 242.105 346 241.217 346ZM245.225 325.732C245.001 325.732 244.809 325.66 244.649 325.516C244.497 325.364 244.421 325.176 244.421 324.952C244.421 324.728 244.497 324.544 244.649 324.4C244.809 324.248 245.001 324.172 245.225 324.172C245.441 324.172 245.625 324.248 245.777 324.4C245.937 324.544 246.017 324.728 246.017 324.952C246.017 325.176 245.941 325.364 245.789 325.516C245.637 325.66 245.449 325.732 245.225 325.732ZM248.176 335.356V328H249.472V335.152C249.472 335.864 249.644 336.512 249.988 337.096C250.34 337.68 250.808 338.144 251.392 338.488C251.976 338.832 252.62 339.004 253.324 339.004C254.036 339.004 254.68 338.832 255.256 338.488C255.84 338.144 256.304 337.68 256.648 337.096C257 336.512 257.176 335.864 257.176 335.152V328H258.472V340H257.176V338.14C256.744 338.796 256.172 339.324 255.46 339.724C254.756 340.116 253.98 340.312 253.132 340.312C252.22 340.312 251.388 340.092 250.636 339.652C249.884 339.204 249.284 338.604 248.836 337.852C248.396 337.1 248.176 336.268 248.176 335.356ZM271.163 332.62V340H269.867V332.824C269.867 332.112 269.695 331.464 269.351 330.88C269.007 330.296 268.543 329.832 267.959 329.488C267.375 329.144 266.727 328.972 266.015 328.972C265.311 328.972 264.667 329.144 264.083 329.488C263.499 329.832 263.031 330.296 262.679 330.88C262.335 331.464 262.163 332.112 262.163 332.824V340H260.867V328H262.163V329.836C262.595 329.172 263.167 328.644 263.879 328.252C264.591 327.86 265.367 327.664 266.207 327.664C267.127 327.664 267.959 327.888 268.703 328.336C269.455 328.776 270.051 329.372 270.491 330.124C270.939 330.876 271.163 331.708 271.163 332.62ZM279.607 329.296H276.571L276.559 340H275.263L275.275 329.296H272.983V328H275.275L275.263 324.232H276.559L276.571 328H279.607V329.296ZM286.679 340.312C285.575 340.312 284.567 340.028 283.655 339.46C282.751 338.892 282.027 338.132 281.483 337.18C280.947 336.22 280.679 335.16 280.679 334C280.679 333.12 280.835 332.3 281.147 331.54C281.459 330.772 281.887 330.1 282.431 329.524C282.983 328.94 283.623 328.484 284.351 328.156C285.079 327.828 285.855 327.664 286.679 327.664C287.783 327.664 288.787 327.948 289.691 328.516C290.603 329.084 291.327 329.848 291.863 330.808C292.407 331.768 292.679 332.832 292.679 334C292.679 334.872 292.523 335.688 292.211 336.448C291.899 337.208 291.467 337.88 290.915 338.464C290.371 339.04 289.735 339.492 289.007 339.82C288.287 340.148 287.511 340.312 286.679 340.312ZM286.679 339.016C287.567 339.016 288.363 338.784 289.067 338.32C289.779 337.856 290.343 337.244 290.759 336.484C291.175 335.724 291.383 334.896 291.383 334C291.383 333.096 291.175 332.26 290.759 331.492C290.343 330.724 289.779 330.112 289.067 329.656C288.355 329.192 287.559 328.96 286.679 328.96C285.791 328.96 284.991 329.192 284.279 329.656C283.567 330.12 283.003 330.736 282.587 331.504C282.179 332.264 281.975 333.096 281.975 334C281.975 334.936 282.187 335.784 282.611 336.544C283.043 337.296 283.615 337.896 284.327 338.344C285.039 338.792 285.823 339.016 286.679 339.016ZM298.514 340.228C297.85 340.22 297.198 340.104 296.558 339.88C295.926 339.648 295.374 339.34 294.902 338.956C294.43 338.572 294.102 338.136 293.918 337.648L295.058 337.156C295.194 337.516 295.454 337.84 295.838 338.128C296.23 338.416 296.67 338.644 297.158 338.812C297.654 338.972 298.138 339.052 298.61 339.052C299.146 339.052 299.65 338.96 300.122 338.776C300.594 338.592 300.978 338.332 301.274 337.996C301.57 337.66 301.718 337.264 301.718 336.808C301.718 336.328 301.562 335.952 301.25 335.68C300.938 335.4 300.538 335.176 300.05 335.008C299.57 334.832 299.074 334.668 298.562 334.516C297.682 334.26 296.918 334 296.27 333.736C295.63 333.464 295.134 333.12 294.782 332.704C294.43 332.288 294.254 331.74 294.254 331.06C294.254 330.356 294.458 329.744 294.866 329.224C295.274 328.704 295.81 328.304 296.474 328.024C297.138 327.736 297.85 327.592 298.61 327.592C299.594 327.592 300.486 327.808 301.286 328.24C302.094 328.672 302.662 329.24 302.99 329.944L301.934 330.568C301.774 330.2 301.522 329.884 301.178 329.62C300.834 329.356 300.442 329.152 300.002 329.008C299.562 328.864 299.118 328.788 298.67 328.78C298.11 328.772 297.586 328.86 297.098 329.044C296.618 329.22 296.23 329.48 295.934 329.824C295.638 330.16 295.49 330.568 295.49 331.048C295.49 331.528 295.626 331.896 295.898 332.152C296.17 332.408 296.55 332.616 297.038 332.776C297.526 332.928 298.09 333.108 298.73 333.316C299.474 333.548 300.166 333.808 300.806 334.096C301.454 334.376 301.974 334.728 302.366 335.152C302.766 335.576 302.962 336.124 302.954 336.796C302.954 337.5 302.742 338.112 302.318 338.632C301.902 339.152 301.354 339.552 300.674 339.832C300.002 340.112 299.282 340.244 298.514 340.228ZM305.3 340.312C305.084 340.312 304.9 340.232 304.748 340.072C304.596 339.92 304.52 339.732 304.52 339.508C304.52 339.3 304.596 339.12 304.748 338.968C304.9 338.808 305.084 338.728 305.3 338.728C305.524 338.728 305.712 338.808 305.864 338.968C306.024 339.12 306.104 339.3 306.104 339.508C306.104 339.732 306.024 339.92 305.864 340.072C305.712 340.232 305.524 340.312 305.3 340.312Z" fill="white"/>
<defs>
<linearGradient id="paint0_linear_240_28" x1="181.207" y1="113.619" x2="208.921" y2="122.526" gradientUnits="userSpaceOnUse">
<stop offset="0.29" stop-color="#F56D50"/>
<stop offset="0.99" stop-color="#F57438"/>
</linearGradient>
<linearGradient id="paint1_linear_240_28" x1="146.923" y1="99.0968" x2="238.465" y2="151.953" gradientUnits="userSpaceOnUse">
<stop offset="0.29" stop-color="#F56D50"/>
<stop offset="0.99" stop-color="#F57438"/>
</linearGradient>
<linearGradient id="paint2_linear_240_28" x1="220.891" y1="79.2117" x2="243.777" y2="92.4258" gradientUnits="userSpaceOnUse">
<stop offset="0.29" stop-color="#F56D50"/>
<stop offset="0.99" stop-color="#F57438"/>
</linearGradient>
</defs>
</svg>
