<svg width="386" height="401" viewBox="0 0 386 401" fill="none" xmlns="http://www.w3.org/2000/svg">
<rect width="385.261" height="401" rx="59" fill="black" fill-opacity="0.53"/>
<path d="M179.401 134.76C179.401 139.893 183.37 144.021 188.238 144.021H198.187C202.42 144.021 205.86 140.423 205.86 135.925C205.86 131.109 203.743 129.363 200.621 128.252L184.693 122.695C181.571 121.584 179.454 119.891 179.454 115.023C179.454 110.578 182.894 106.926 187.127 106.926H197.076C201.944 106.926 205.913 111.054 205.913 116.187M192.631 101.688V149.312" stroke="url(#paint0_linear_359_157)" stroke-width="7.9375" stroke-linecap="round" stroke-linejoin="round"/>
<path d="M245.547 125.5C245.547 154.71 221.841 178.417 192.631 178.417C163.421 178.417 139.714 154.71 139.714 125.5C139.714 96.29 163.421 72.5834 192.631 72.5834" stroke="url(#paint1_linear_359_157)" stroke-width="7.9375" stroke-linecap="round" stroke-linejoin="round"/>
<path d="M219.089 77.875V99.0417M219.089 99.0417H240.256M219.089 99.0417L245.547 72.5834" stroke="url(#paint2_linear_359_157)" stroke-width="7.9375" stroke-linecap="round" stroke-linejoin="round"/>
<path d="M122.563 218V201.2H125.875V214.688H132.643V218H122.563ZM139.655 218.312C138.551 218.312 137.543 218.028 136.631 217.46C135.727 216.892 135.003 216.132 134.459 215.18C133.923 214.22 133.655 213.16 133.655 212C133.655 211.12 133.811 210.3 134.123 209.54C134.435 208.772 134.863 208.1 135.407 207.524C135.959 206.94 136.599 206.484 137.327 206.156C138.055 205.828 138.831 205.664 139.655 205.664C140.759 205.664 141.763 205.948 142.667 206.516C143.579 207.084 144.303 207.848 144.839 208.808C145.383 209.768 145.655 210.832 145.655 212C145.655 212.872 145.499 213.688 145.187 214.448C144.875 215.208 144.443 215.88 143.891 216.464C143.347 217.04 142.711 217.492 141.983 217.82C141.263 218.148 140.487 218.312 139.655 218.312ZM139.655 215C140.167 215 140.627 214.864 141.035 214.592C141.443 214.312 141.763 213.944 141.995 213.488C142.227 213.032 142.343 212.536 142.343 212C142.343 211.448 142.219 210.944 141.971 210.488C141.731 210.024 141.407 209.656 140.999 209.384C140.591 209.112 140.143 208.976 139.655 208.976C139.151 208.976 138.695 209.116 138.287 209.396C137.879 209.676 137.555 210.044 137.315 210.5C137.083 210.956 136.967 211.456 136.967 212C136.967 212.568 137.087 213.08 137.327 213.536C137.575 213.984 137.903 214.34 138.311 214.604C138.719 214.868 139.167 215 139.655 215ZM153.443 218H150.179L146.171 206H149.411L151.823 213.188L154.211 206H157.451L159.839 213.188L162.239 206H165.491L161.471 218H158.219L155.831 210.8L153.443 218ZM179.95 205.664C181.118 205.664 182.178 205.948 183.13 206.516C184.09 207.084 184.854 207.848 185.422 208.808C185.99 209.76 186.274 210.816 186.274 211.976C186.274 212.848 186.11 213.668 185.782 214.436C185.454 215.204 184.998 215.88 184.414 216.464C183.838 217.04 183.166 217.492 182.398 217.82C181.638 218.148 180.822 218.312 179.95 218.312C179.262 218.312 178.65 218.16 178.114 217.856C177.578 217.552 177.118 217.168 176.734 216.704V218H173.422V200H176.734V207.272C177.118 206.8 177.578 206.416 178.114 206.12C178.65 205.816 179.262 205.664 179.95 205.664ZM179.902 215.108C180.454 215.108 180.954 214.968 181.402 214.688C181.858 214.408 182.218 214.032 182.482 213.56C182.746 213.08 182.878 212.552 182.878 211.976C182.878 211.4 182.742 210.876 182.47 210.404C182.206 209.932 181.846 209.556 181.39 209.276C180.942 208.988 180.446 208.844 179.902 208.844C179.358 208.844 178.866 208.988 178.426 209.276C177.994 209.556 177.65 209.936 177.394 210.416C177.146 210.888 177.022 211.408 177.022 211.976C177.022 212.56 177.146 213.088 177.394 213.56C177.65 214.032 177.994 214.408 178.426 214.688C178.866 214.968 179.358 215.108 179.902 215.108ZM187.333 213.608V206H190.645V212.696C190.645 213.12 190.745 213.504 190.945 213.848C191.153 214.184 191.429 214.452 191.773 214.652C192.117 214.852 192.493 214.952 192.901 214.952C193.317 214.952 193.697 214.852 194.041 214.652C194.385 214.452 194.657 214.184 194.857 213.848C195.057 213.504 195.157 213.12 195.157 212.696V206H198.469L198.481 218H195.169L195.157 217.088C194.757 217.472 194.285 217.772 193.741 217.988C193.205 218.204 192.637 218.312 192.037 218.312C191.173 218.312 190.385 218.1 189.673 217.676C188.961 217.252 188.393 216.688 187.969 215.984C187.545 215.272 187.333 214.48 187.333 213.608ZM209.476 200H212.788V218H209.476V216.728C209.108 217.192 208.652 217.572 208.108 217.868C207.564 218.164 206.944 218.312 206.248 218.312C205.376 218.312 204.56 218.148 203.8 217.82C203.04 217.492 202.368 217.04 201.784 216.464C201.208 215.88 200.756 215.208 200.428 214.448C200.1 213.688 199.936 212.872 199.936 212C199.936 211.128 200.1 210.312 200.428 209.552C200.756 208.792 201.208 208.124 201.784 207.548C202.368 206.964 203.04 206.508 203.8 206.18C204.56 205.852 205.376 205.688 206.248 205.688C206.944 205.688 207.564 205.836 208.108 206.132C208.652 206.42 209.108 206.8 209.476 207.272V200ZM206.296 215.132C206.84 215.132 207.332 214.992 207.772 214.712C208.212 214.432 208.56 214.056 208.816 213.584C209.072 213.104 209.2 212.576 209.2 212C209.2 211.416 209.072 210.888 208.816 210.416C208.56 209.944 208.212 209.568 207.772 209.288C207.332 209.008 206.84 208.868 206.296 208.868C205.744 208.868 205.244 209.008 204.796 209.288C204.348 209.568 203.992 209.948 203.728 210.428C203.464 210.9 203.332 211.424 203.332 212C203.332 212.576 203.464 213.104 203.728 213.584C204 214.056 204.36 214.432 204.808 214.712C205.256 214.992 205.752 215.132 206.296 215.132ZM224.158 206H227.47V218.168C227.47 219.056 227.29 219.856 226.93 220.568C226.57 221.288 226.078 221.904 225.454 222.416C224.838 222.928 224.126 223.32 223.318 223.592C222.518 223.864 221.67 224 220.774 224C219.926 224 219.114 223.832 218.338 223.496C217.562 223.168 216.874 222.712 216.274 222.128C215.674 221.544 215.206 220.872 214.87 220.112L217.894 218.732C218.062 219.132 218.29 219.476 218.578 219.764C218.874 220.052 219.21 220.272 219.586 220.424C219.97 220.584 220.366 220.664 220.774 220.664C221.214 220.664 221.634 220.612 222.034 220.508C222.442 220.404 222.806 220.248 223.126 220.04C223.446 219.832 223.698 219.572 223.882 219.26C224.066 218.948 224.158 218.584 224.158 218.168V216.776C223.79 217.232 223.342 217.604 222.814 217.892C222.294 218.172 221.69 218.312 221.002 218.312C220.138 218.312 219.326 218.148 218.566 217.82C217.814 217.492 217.15 217.04 216.574 216.464C215.998 215.88 215.546 215.208 215.218 214.448C214.89 213.688 214.726 212.872 214.726 212C214.726 211.128 214.89 210.312 215.218 209.552C215.546 208.792 215.998 208.124 216.574 207.548C217.15 206.964 217.814 206.508 218.566 206.18C219.326 205.852 220.138 205.688 221.002 205.688C221.69 205.688 222.294 205.832 222.814 206.12C223.342 206.4 223.79 206.768 224.158 207.224V206ZM221.05 215.132C221.594 215.132 222.086 214.992 222.526 214.712C222.966 214.424 223.31 214.044 223.558 213.572C223.814 213.1 223.942 212.576 223.942 212C223.942 211.424 223.814 210.9 223.558 210.428C223.31 209.948 222.966 209.568 222.526 209.288C222.086 209.008 221.594 208.868 221.05 208.868C220.514 208.868 220.022 209.008 219.574 209.288C219.134 209.568 218.782 209.948 218.518 210.428C218.254 210.9 218.122 211.424 218.122 212C218.122 212.576 218.254 213.104 218.518 213.584C218.782 214.056 219.134 214.432 219.574 214.712C220.022 214.992 220.514 215.132 221.05 215.132ZM235.304 218.312C234.2 218.312 233.192 218.028 232.28 217.46C231.376 216.892 230.652 216.128 230.108 215.168C229.572 214.208 229.304 213.148 229.304 211.988C229.304 211.116 229.46 210.3 229.772 209.54C230.084 208.772 230.512 208.1 231.056 207.524C231.608 206.94 232.248 206.484 232.976 206.156C233.704 205.828 234.48 205.664 235.304 205.664C236.256 205.664 237.124 205.868 237.908 206.276C238.7 206.684 239.368 207.24 239.912 207.944C240.464 208.648 240.856 209.444 241.088 210.332C241.328 211.22 241.368 212.144 241.208 213.104H232.88C232.984 213.456 233.144 213.776 233.36 214.064C233.584 214.344 233.856 214.568 234.176 214.736C234.504 214.904 234.88 214.992 235.304 215C235.72 215.008 236.104 214.912 236.456 214.712C236.808 214.512 237.108 214.244 237.356 213.908L240.74 214.688C240.252 215.752 239.524 216.624 238.556 217.304C237.588 217.976 236.504 218.312 235.304 218.312ZM232.76 210.656H237.86C237.756 210.256 237.58 209.896 237.332 209.576C237.084 209.256 236.784 209.004 236.432 208.82C236.088 208.636 235.712 208.544 235.304 208.544C234.904 208.544 234.528 208.636 234.176 208.82C233.832 209.004 233.536 209.256 233.288 209.576C233.048 209.888 232.872 210.248 232.76 210.656ZM249.724 209.312H247.564V218H244.252V209.312H242.596V206H244.252V202.232H247.564V206H249.724V209.312ZM255.563 213.056C255.563 212.112 255.799 211.248 256.271 210.464C256.743 209.672 257.395 209.048 258.227 208.592C258.587 208.4 258.867 208.12 259.067 207.752C259.275 207.376 259.379 206.96 259.379 206.504C259.379 206.08 259.275 205.692 259.067 205.34C258.859 204.988 258.575 204.712 258.215 204.512C257.863 204.304 257.475 204.2 257.051 204.2C256.627 204.2 256.235 204.304 255.875 204.512C255.523 204.712 255.243 204.988 255.035 205.34C254.827 205.692 254.723 206.08 254.723 206.504H251.411C251.411 205.472 251.663 204.532 252.167 203.684C252.679 202.836 253.359 202.16 254.207 201.656C255.063 201.144 256.011 200.888 257.051 200.888C258.091 200.888 259.035 201.144 259.883 201.656C260.739 202.16 261.419 202.836 261.923 203.684C262.435 204.532 262.691 205.472 262.691 206.504C262.691 207.568 262.431 208.548 261.911 209.444C261.399 210.34 260.691 211.028 259.787 211.508C259.499 211.66 259.275 211.872 259.115 212.144C258.955 212.416 258.875 212.72 258.875 213.056H255.563ZM257.375 218.312C256.903 218.312 256.503 218.148 256.175 217.82C255.855 217.492 255.695 217.092 255.695 216.62C255.695 216.156 255.855 215.764 256.175 215.444C256.503 215.124 256.903 214.964 257.375 214.964C257.831 214.964 258.219 215.124 258.539 215.444C258.867 215.764 259.031 216.156 259.031 216.62C259.031 217.092 258.867 217.492 258.539 217.82C258.219 218.148 257.831 218.312 257.375 218.312Z" fill="white"/>
<path d="M94.672 253V236.2H100.228C101.388 236.2 102.476 236.42 103.492 236.86C104.508 237.292 105.4 237.896 106.168 238.672C106.936 239.44 107.536 240.332 107.968 241.348C108.408 242.356 108.628 243.44 108.628 244.6C108.628 245.76 108.408 246.848 107.968 247.864C107.536 248.872 106.936 249.764 106.168 250.54C105.4 251.308 104.508 251.912 103.492 252.352C102.476 252.784 101.388 253 100.228 253H94.672ZM95.968 251.704H100.228C101.212 251.704 102.132 251.52 102.988 251.152C103.844 250.784 104.596 250.276 105.244 249.628C105.9 248.972 106.412 248.216 106.78 247.36C107.148 246.504 107.332 245.584 107.332 244.6C107.332 243.616 107.148 242.696 106.78 241.84C106.412 240.984 105.9 240.232 105.244 239.584C104.588 238.928 103.832 238.416 102.976 238.048C102.12 237.68 101.204 237.496 100.228 237.496H95.968V251.704ZM115.983 253.312C114.879 253.312 113.871 253.028 112.959 252.46C112.055 251.892 111.331 251.132 110.787 250.18C110.251 249.22 109.983 248.16 109.983 247C109.983 246.12 110.139 245.3 110.451 244.54C110.763 243.772 111.191 243.1 111.735 242.524C112.287 241.94 112.927 241.484 113.655 241.156C114.383 240.828 115.159 240.664 115.983 240.664C117.087 240.664 118.091 240.948 118.995 241.516C119.907 242.084 120.631 242.848 121.167 243.808C121.711 244.768 121.983 245.832 121.983 247C121.983 247.872 121.827 248.688 121.515 249.448C121.203 250.208 120.771 250.88 120.219 251.464C119.675 252.04 119.039 252.492 118.311 252.82C117.591 253.148 116.815 253.312 115.983 253.312ZM115.983 252.016C116.871 252.016 117.667 251.784 118.371 251.32C119.083 250.856 119.647 250.244 120.063 249.484C120.479 248.724 120.687 247.896 120.687 247C120.687 246.096 120.479 245.26 120.063 244.492C119.647 243.724 119.083 243.112 118.371 242.656C117.659 242.192 116.863 241.96 115.983 241.96C115.095 241.96 114.295 242.192 113.583 242.656C112.871 243.12 112.307 243.736 111.891 244.504C111.483 245.264 111.279 246.096 111.279 247C111.279 247.936 111.491 248.784 111.915 249.544C112.347 250.296 112.919 250.896 113.631 251.344C114.343 251.792 115.127 252.016 115.983 252.016ZM134.359 245.62V253H133.063V245.824C133.063 245.112 132.891 244.464 132.547 243.88C132.203 243.296 131.739 242.832 131.155 242.488C130.571 242.144 129.923 241.972 129.211 241.972C128.507 241.972 127.863 242.144 127.279 242.488C126.695 242.832 126.227 243.296 125.875 243.88C125.531 244.464 125.359 245.112 125.359 245.824V253H124.063V241H125.359V242.836C125.791 242.172 126.363 241.644 127.075 241.252C127.787 240.86 128.563 240.664 129.403 240.664C130.323 240.664 131.155 240.888 131.899 241.336C132.651 241.776 133.247 242.372 133.687 243.124C134.135 243.876 134.359 244.708 134.359 245.62ZM136.238 242.464V236.2H137.294V242.464H136.238ZM145.685 242.296H142.649L142.637 253H141.341L141.353 242.296H139.061V241H141.353L141.341 237.232H142.637L142.649 241H145.685V242.296ZM158.262 253H156.894L152.874 241H154.134L157.602 251.26L161.046 241H162.474L165.918 251.26L169.362 241H170.646L166.614 253H165.234L161.742 242.632L158.262 253ZM177.53 253.312C176.426 253.312 175.418 253.028 174.506 252.46C173.602 251.892 172.878 251.132 172.334 250.18C171.798 249.22 171.53 248.16 171.53 247C171.53 246.12 171.686 245.3 171.998 244.54C172.31 243.772 172.738 243.1 173.282 242.524C173.834 241.94 174.474 241.484 175.202 241.156C175.93 240.828 176.706 240.664 177.53 240.664C178.634 240.664 179.638 240.948 180.542 241.516C181.454 242.084 182.178 242.848 182.714 243.808C183.258 244.768 183.53 245.832 183.53 247C183.53 247.872 183.374 248.688 183.062 249.448C182.75 250.208 182.318 250.88 181.766 251.464C181.222 252.04 180.586 252.492 179.858 252.82C179.138 253.148 178.362 253.312 177.53 253.312ZM177.53 252.016C178.418 252.016 179.214 251.784 179.918 251.32C180.63 250.856 181.194 250.244 181.61 249.484C182.026 248.724 182.234 247.896 182.234 247C182.234 246.096 182.026 245.26 181.61 244.492C181.194 243.724 180.63 243.112 179.918 242.656C179.206 242.192 178.41 241.96 177.53 241.96C176.642 241.96 175.842 242.192 175.13 242.656C174.418 243.12 173.854 243.736 173.438 244.504C173.03 245.264 172.826 246.096 172.826 247C172.826 247.936 173.038 248.784 173.462 249.544C173.894 250.296 174.466 250.896 175.178 251.344C175.89 251.792 176.674 252.016 177.53 252.016ZM185.61 253V241H186.906V242.836C187.338 242.172 187.91 241.644 188.622 241.252C189.334 240.86 190.11 240.664 190.95 240.664C191.422 240.664 191.874 240.724 192.306 240.844L191.766 242.116C191.422 242.02 191.086 241.972 190.758 241.972C190.054 241.972 189.41 242.144 188.826 242.488C188.242 242.832 187.774 243.296 187.422 243.88C187.078 244.464 186.906 245.112 186.906 245.824V253H185.61ZM193.906 253V241H195.202V242.836C195.634 242.172 196.206 241.644 196.918 241.252C197.63 240.86 198.406 240.664 199.246 240.664C199.718 240.664 200.17 240.724 200.602 240.844L200.062 242.116C199.718 242.02 199.382 241.972 199.054 241.972C198.35 241.972 197.706 242.144 197.122 242.488C196.538 242.832 196.07 243.296 195.718 243.88C195.374 244.464 195.202 245.112 195.202 245.824V253H193.906ZM210.4 241H211.756L205.204 259H203.824L206.008 253L201.7 241H203.116L206.656 251.212L210.4 241ZM213.892 247.96V236.2H215.068V247.96H213.892ZM214.48 253.312C214.256 253.312 214.064 253.232 213.904 253.072C213.752 252.92 213.676 252.732 213.676 252.508C213.676 252.292 213.752 252.108 213.904 251.956C214.064 251.804 214.256 251.728 214.48 251.728C214.688 251.728 214.868 251.804 215.02 251.956C215.172 252.108 215.248 252.292 215.248 252.508C215.248 252.732 215.172 252.92 215.02 253.072C214.868 253.232 214.688 253.312 214.48 253.312ZM228.551 253H227.183L223.163 241H224.423L227.891 251.26L231.335 241H232.763L236.207 251.26L239.651 241H240.935L236.903 253H235.523L232.031 242.632L228.551 253ZM247.819 253.312C246.715 253.312 245.707 253.028 244.795 252.46C243.891 251.892 243.167 251.132 242.623 250.18C242.087 249.22 241.819 248.16 241.819 247C241.819 246.12 241.975 245.3 242.287 244.54C242.599 243.772 243.027 243.1 243.571 242.524C244.123 241.94 244.763 241.484 245.491 241.156C246.219 240.828 246.995 240.664 247.819 240.664C248.691 240.664 249.495 240.836 250.231 241.18C250.975 241.516 251.615 241.992 252.151 242.608C252.687 243.224 253.099 243.952 253.387 244.792C253.675 245.624 253.807 246.536 253.783 247.528H243.175C243.263 248.384 243.519 249.152 243.943 249.832C244.375 250.504 244.927 251.036 245.599 251.428C246.271 251.812 247.011 252.008 247.819 252.016C248.707 252.016 249.507 251.784 250.219 251.32C250.931 250.848 251.503 250.204 251.935 249.388L253.243 249.688C252.763 250.752 252.039 251.624 251.071 252.304C250.103 252.976 249.019 253.312 247.819 253.312ZM243.139 246.424H252.475C252.427 245.6 252.187 244.844 251.755 244.156C251.331 243.46 250.775 242.904 250.087 242.488C249.399 242.072 248.643 241.864 247.819 241.864C246.995 241.864 246.243 242.068 245.563 242.476C244.883 242.884 244.327 243.436 243.895 244.132C243.471 244.82 243.219 245.584 243.139 246.424ZM266.379 253H265.011L260.991 241H262.251L265.719 251.26L269.163 241H270.591L274.035 251.26L277.479 241H278.763L274.731 253H273.351L269.859 242.632L266.379 253ZM280.836 241H282.132V253H280.836V241ZM281.496 238.732C281.272 238.732 281.08 238.66 280.92 238.516C280.768 238.364 280.692 238.176 280.692 237.952C280.692 237.728 280.768 237.544 280.92 237.4C281.08 237.248 281.272 237.172 281.496 237.172C281.712 237.172 281.896 237.248 282.048 237.4C282.208 237.544 282.288 237.728 282.288 237.952C282.288 238.176 282.212 238.364 282.06 238.516C281.908 238.66 281.72 238.732 281.496 238.732ZM285.125 253V235H286.421V253H285.125ZM289.297 253V235H290.593V253H289.297ZM87.0458 270H88.3418V282H87.0458L87.0098 279.54C86.6018 280.372 86.0178 281.044 85.2578 281.556C84.5058 282.06 83.6018 282.312 82.5458 282.312C81.6738 282.312 80.8538 282.148 80.0858 281.82C79.3258 281.484 78.6538 281.028 78.0698 280.452C77.4858 279.868 77.0298 279.196 76.7018 278.436C76.3738 277.668 76.2098 276.844 76.2098 275.964C76.2098 275.092 76.3698 274.276 76.6898 273.516C77.0178 272.756 77.4698 272.088 78.0458 271.512C78.6218 270.928 79.2898 270.476 80.0498 270.156C80.8098 269.828 81.6218 269.664 82.4858 269.664C83.5498 269.664 84.4698 269.924 85.2458 270.444C86.0298 270.956 86.6418 271.628 87.0818 272.46L87.0458 270ZM82.5338 281.04C83.4538 281.04 84.2418 280.816 84.8978 280.368C85.5618 279.912 86.0698 279.3 86.4218 278.532C86.7738 277.764 86.9498 276.92 86.9498 276C86.9498 275.056 86.7698 274.204 86.4098 273.444C86.0578 272.676 85.5498 272.068 84.8858 271.62C84.2298 271.164 83.4458 270.936 82.5338 270.936C81.6058 270.936 80.7618 271.164 80.0018 271.62C79.2498 272.076 78.6498 272.688 78.2018 273.456C77.7538 274.224 77.5298 275.072 77.5298 276C77.5298 276.944 77.7578 277.796 78.2138 278.556C78.6778 279.316 79.2898 279.92 80.0498 280.368C80.8098 280.816 81.6378 281.04 82.5338 281.04ZM101.031 274.62V282H99.7345V274.824C99.7345 274.112 99.5625 273.464 99.2185 272.88C98.8745 272.296 98.4105 271.832 97.8265 271.488C97.2425 271.144 96.5945 270.972 95.8825 270.972C95.1785 270.972 94.5345 271.144 93.9505 271.488C93.3665 271.832 92.8985 272.296 92.5465 272.88C92.2025 273.464 92.0305 274.112 92.0305 274.824V282H90.7345V270H92.0305V271.836C92.4625 271.172 93.0345 270.644 93.7465 270.252C94.4585 269.86 95.2345 269.664 96.0745 269.664C96.9945 269.664 97.8265 269.888 98.5705 270.336C99.3225 270.776 99.9185 271.372 100.359 272.124C100.807 272.876 101.031 273.708 101.031 274.62ZM113.319 270H114.615V282H113.319L113.283 279.54C112.875 280.372 112.291 281.044 111.531 281.556C110.779 282.06 109.875 282.312 108.819 282.312C107.947 282.312 107.127 282.148 106.359 281.82C105.599 281.484 104.927 281.028 104.343 280.452C103.759 279.868 103.303 279.196 102.975 278.436C102.647 277.668 102.483 276.844 102.483 275.964C102.483 275.092 102.643 274.276 102.963 273.516C103.291 272.756 103.743 272.088 104.319 271.512C104.895 270.928 105.563 270.476 106.323 270.156C107.083 269.828 107.895 269.664 108.759 269.664C109.823 269.664 110.743 269.924 111.519 270.444C112.303 270.956 112.915 271.628 113.355 272.46L113.319 270ZM108.807 281.04C109.727 281.04 110.515 280.816 111.171 280.368C111.835 279.912 112.343 279.3 112.695 278.532C113.047 277.764 113.223 276.92 113.223 276C113.223 275.056 113.043 274.204 112.683 273.444C112.331 272.676 111.823 272.068 111.159 271.62C110.503 271.164 109.719 270.936 108.807 270.936C107.879 270.936 107.035 271.164 106.275 271.62C105.523 272.076 104.923 272.688 104.475 273.456C104.027 274.224 103.803 275.072 103.803 276C103.803 276.944 104.031 277.796 104.487 278.556C104.951 279.316 105.563 279.92 106.323 280.368C107.083 280.816 107.911 281.04 108.807 281.04ZM117.195 282V264H118.491V282H117.195ZM129.376 270H130.732L124.18 288H122.8L124.984 282L120.676 270H122.092L125.632 280.212L129.376 270ZM142.807 271.296L134.371 280.704H142.807V282H132.559V280.704L140.995 271.296H132.559V270H142.807V271.296ZM150.413 282.312C149.309 282.312 148.301 282.028 147.389 281.46C146.485 280.892 145.761 280.132 145.217 279.18C144.681 278.22 144.413 277.16 144.413 276C144.413 275.12 144.569 274.3 144.881 273.54C145.193 272.772 145.621 272.1 146.165 271.524C146.717 270.94 147.357 270.484 148.085 270.156C148.813 269.828 149.589 269.664 150.413 269.664C151.285 269.664 152.089 269.836 152.825 270.18C153.569 270.516 154.209 270.992 154.745 271.608C155.281 272.224 155.693 272.952 155.981 273.792C156.269 274.624 156.401 275.536 156.377 276.528H145.769C145.857 277.384 146.113 278.152 146.537 278.832C146.969 279.504 147.521 280.036 148.193 280.428C148.865 280.812 149.605 281.008 150.413 281.016C151.301 281.016 152.101 280.784 152.813 280.32C153.525 279.848 154.097 279.204 154.529 278.388L155.837 278.688C155.357 279.752 154.633 280.624 153.665 281.304C152.697 281.976 151.613 282.312 150.413 282.312ZM145.733 275.424H155.069C155.021 274.6 154.781 273.844 154.349 273.156C153.925 272.46 153.369 271.904 152.681 271.488C151.993 271.072 151.237 270.864 150.413 270.864C149.589 270.864 148.837 271.068 148.157 271.476C147.477 271.884 146.921 272.436 146.489 273.132C146.065 273.82 145.813 274.584 145.733 275.424ZM172.525 270H173.881L167.329 288H165.949L168.133 282L163.825 270H165.241L168.781 280.212L172.525 270ZM180.975 282.312C179.871 282.312 178.863 282.028 177.951 281.46C177.047 280.892 176.323 280.132 175.779 279.18C175.243 278.22 174.975 277.16 174.975 276C174.975 275.12 175.131 274.3 175.443 273.54C175.755 272.772 176.183 272.1 176.727 271.524C177.279 270.94 177.919 270.484 178.647 270.156C179.375 269.828 180.151 269.664 180.975 269.664C182.079 269.664 183.083 269.948 183.987 270.516C184.899 271.084 185.623 271.848 186.159 272.808C186.703 273.768 186.975 274.832 186.975 276C186.975 276.872 186.819 277.688 186.507 278.448C186.195 279.208 185.763 279.88 185.211 280.464C184.667 281.04 184.031 281.492 183.303 281.82C182.583 282.148 181.807 282.312 180.975 282.312ZM180.975 281.016C181.863 281.016 182.659 280.784 183.363 280.32C184.075 279.856 184.639 279.244 185.055 278.484C185.471 277.724 185.679 276.896 185.679 276C185.679 275.096 185.471 274.26 185.055 273.492C184.639 272.724 184.075 272.112 183.363 271.656C182.651 271.192 181.855 270.96 180.975 270.96C180.087 270.96 179.287 271.192 178.575 271.656C177.863 272.12 177.299 272.736 176.883 273.504C176.475 274.264 176.271 275.096 176.271 276C176.271 276.936 176.483 277.784 176.907 278.544C177.339 279.296 177.911 279.896 178.623 280.344C179.335 280.792 180.119 281.016 180.975 281.016ZM188.505 277.356V270H189.801V277.152C189.801 277.864 189.973 278.512 190.317 279.096C190.669 279.68 191.137 280.144 191.721 280.488C192.305 280.832 192.949 281.004 193.653 281.004C194.365 281.004 195.009 280.832 195.585 280.488C196.169 280.144 196.633 279.68 196.977 279.096C197.329 278.512 197.505 277.864 197.505 277.152V270H198.801V282H197.505V280.14C197.073 280.796 196.501 281.324 195.789 281.724C195.085 282.116 194.309 282.312 193.461 282.312C192.549 282.312 191.717 282.092 190.965 281.652C190.213 281.204 189.613 280.604 189.165 279.852C188.725 279.1 188.505 278.268 188.505 277.356ZM201.195 282V270H202.491V271.836C202.923 271.172 203.495 270.644 204.207 270.252C204.919 269.86 205.695 269.664 206.535 269.664C207.007 269.664 207.459 269.724 207.891 269.844L207.351 271.116C207.007 271.02 206.671 270.972 206.343 270.972C205.639 270.972 204.995 271.144 204.411 271.488C203.827 271.832 203.359 272.296 203.007 272.88C202.663 273.464 202.491 274.112 202.491 274.824V282H201.195ZM224.244 279.18L225.396 279.804C224.852 280.564 224.16 281.172 223.32 281.628C222.488 282.084 221.584 282.312 220.608 282.312C219.504 282.312 218.496 282.028 217.584 281.46C216.68 280.892 215.956 280.132 215.412 279.18C214.876 278.22 214.608 277.16 214.608 276C214.608 275.12 214.764 274.3 215.076 273.54C215.388 272.772 215.816 272.1 216.36 271.524C216.912 270.94 217.552 270.484 218.28 270.156C219.008 269.828 219.784 269.664 220.608 269.664C221.584 269.664 222.488 269.892 223.32 270.348C224.16 270.804 224.852 271.416 225.396 272.184L224.244 272.796C223.788 272.204 223.236 271.752 222.588 271.44C221.94 271.12 221.28 270.96 220.608 270.96C219.728 270.96 218.932 271.192 218.22 271.656C217.508 272.112 216.944 272.724 216.528 273.492C216.112 274.252 215.904 275.088 215.904 276C215.904 276.92 216.116 277.76 216.54 278.52C216.964 279.28 217.532 279.888 218.244 280.344C218.956 280.792 219.744 281.016 220.608 281.016C221.336 281.016 222.02 280.844 222.66 280.5C223.3 280.156 223.828 279.716 224.244 279.18ZM237.585 270H238.881V282H237.585L237.549 279.54C237.141 280.372 236.557 281.044 235.797 281.556C235.045 282.06 234.141 282.312 233.085 282.312C232.213 282.312 231.393 282.148 230.625 281.82C229.865 281.484 229.193 281.028 228.609 280.452C228.025 279.868 227.569 279.196 227.241 278.436C226.913 277.668 226.749 276.844 226.749 275.964C226.749 275.092 226.909 274.276 227.229 273.516C227.557 272.756 228.009 272.088 228.585 271.512C229.161 270.928 229.829 270.476 230.589 270.156C231.349 269.828 232.161 269.664 233.025 269.664C234.089 269.664 235.009 269.924 235.785 270.444C236.569 270.956 237.181 271.628 237.621 272.46L237.585 270ZM233.073 281.04C233.993 281.04 234.781 280.816 235.437 280.368C236.101 279.912 236.609 279.3 236.961 278.532C237.313 277.764 237.489 276.92 237.489 276C237.489 275.056 237.309 274.204 236.949 273.444C236.597 272.676 236.089 272.068 235.425 271.62C234.769 271.164 233.985 270.936 233.073 270.936C232.145 270.936 231.301 271.164 230.541 271.62C229.789 272.076 229.189 272.688 228.741 273.456C228.293 274.224 228.069 275.072 228.069 276C228.069 276.944 228.297 277.796 228.753 278.556C229.217 279.316 229.829 279.92 230.589 280.368C231.349 280.816 232.177 281.04 233.073 281.04ZM245.03 282.228C244.366 282.22 243.714 282.104 243.074 281.88C242.442 281.648 241.89 281.34 241.418 280.956C240.946 280.572 240.618 280.136 240.434 279.648L241.574 279.156C241.71 279.516 241.97 279.84 242.354 280.128C242.746 280.416 243.186 280.644 243.674 280.812C244.17 280.972 244.654 281.052 245.126 281.052C245.662 281.052 246.166 280.96 246.638 280.776C247.11 280.592 247.494 280.332 247.79 279.996C248.086 279.66 248.234 279.264 248.234 278.808C248.234 278.328 248.078 277.952 247.766 277.68C247.454 277.4 247.054 277.176 246.566 277.008C246.086 276.832 245.59 276.668 245.078 276.516C244.198 276.26 243.434 276 242.786 275.736C242.146 275.464 241.65 275.12 241.298 274.704C240.946 274.288 240.77 273.74 240.77 273.06C240.77 272.356 240.974 271.744 241.382 271.224C241.79 270.704 242.326 270.304 242.99 270.024C243.654 269.736 244.366 269.592 245.126 269.592C246.11 269.592 247.002 269.808 247.802 270.24C248.61 270.672 249.178 271.24 249.506 271.944L248.45 272.568C248.29 272.2 248.038 271.884 247.694 271.62C247.35 271.356 246.958 271.152 246.518 271.008C246.078 270.864 245.634 270.788 245.186 270.78C244.626 270.772 244.102 270.86 243.614 271.044C243.134 271.22 242.746 271.48 242.45 271.824C242.154 272.16 242.006 272.568 242.006 273.048C242.006 273.528 242.142 273.896 242.414 274.152C242.686 274.408 243.066 274.616 243.554 274.776C244.042 274.928 244.606 275.108 245.246 275.316C245.99 275.548 246.682 275.808 247.322 276.096C247.97 276.376 248.49 276.728 248.882 277.152C249.282 277.576 249.478 278.124 249.47 278.796C249.47 279.5 249.258 280.112 248.834 280.632C248.418 281.152 247.87 281.552 247.19 281.832C246.518 282.112 245.798 282.244 245.03 282.228ZM256.749 282.312C255.645 282.312 254.637 282.028 253.725 281.46C252.821 280.892 252.097 280.132 251.553 279.18C251.017 278.22 250.749 277.16 250.749 276C250.749 275.12 250.905 274.3 251.217 273.54C251.529 272.772 251.957 272.1 252.501 271.524C253.053 270.94 253.693 270.484 254.421 270.156C255.149 269.828 255.925 269.664 256.749 269.664C257.621 269.664 258.425 269.836 259.161 270.18C259.905 270.516 260.545 270.992 261.081 271.608C261.617 272.224 262.029 272.952 262.317 273.792C262.605 274.624 262.737 275.536 262.713 276.528H252.105C252.193 277.384 252.449 278.152 252.873 278.832C253.305 279.504 253.857 280.036 254.529 280.428C255.201 280.812 255.941 281.008 256.749 281.016C257.637 281.016 258.437 280.784 259.149 280.32C259.861 279.848 260.433 279.204 260.865 278.388L262.173 278.688C261.693 279.752 260.969 280.624 260.001 281.304C259.033 281.976 257.949 282.312 256.749 282.312ZM252.069 275.424H261.405C261.357 274.6 261.117 273.844 260.685 273.156C260.261 272.46 259.705 271.904 259.017 271.488C258.329 271.072 257.573 270.864 256.749 270.864C255.925 270.864 255.173 271.068 254.493 271.476C253.813 271.884 253.257 272.436 252.825 273.132C252.401 273.82 252.149 274.584 252.069 275.424ZM280.757 270H282.053V282H280.757L280.721 279.54C280.313 280.372 279.729 281.044 278.969 281.556C278.217 282.06 277.313 282.312 276.257 282.312C275.385 282.312 274.565 282.148 273.797 281.82C273.037 281.484 272.365 281.028 271.781 280.452C271.197 279.868 270.741 279.196 270.413 278.436C270.085 277.668 269.921 276.844 269.921 275.964C269.921 275.092 270.081 274.276 270.401 273.516C270.729 272.756 271.181 272.088 271.757 271.512C272.333 270.928 273.001 270.476 273.761 270.156C274.521 269.828 275.333 269.664 276.197 269.664C277.261 269.664 278.181 269.924 278.957 270.444C279.741 270.956 280.353 271.628 280.793 272.46L280.757 270ZM276.245 281.04C277.165 281.04 277.953 280.816 278.609 280.368C279.273 279.912 279.781 279.3 280.133 278.532C280.485 277.764 280.661 276.92 280.661 276C280.661 275.056 280.481 274.204 280.121 273.444C279.769 272.676 279.261 272.068 278.597 271.62C277.941 271.164 277.157 270.936 276.245 270.936C275.317 270.936 274.473 271.164 273.713 271.62C272.961 272.076 272.361 272.688 271.913 273.456C271.465 274.224 271.241 275.072 271.241 276C271.241 276.944 271.469 277.796 271.925 278.556C272.389 279.316 273.001 279.92 273.761 280.368C274.521 280.816 275.349 281.04 276.245 281.04ZM294.741 274.62V282H293.445V274.824C293.445 274.112 293.273 273.464 292.929 272.88C292.585 272.296 292.121 271.832 291.537 271.488C290.953 271.144 290.305 270.972 289.593 270.972C288.889 270.972 288.245 271.144 287.661 271.488C287.077 271.832 286.609 272.296 286.257 272.88C285.913 273.464 285.741 274.112 285.741 274.824V282H284.445V270H285.741V271.836C286.173 271.172 286.745 270.644 287.457 270.252C288.169 269.86 288.945 269.664 289.785 269.664C290.705 269.664 291.537 269.888 292.281 270.336C293.033 270.776 293.629 271.372 294.069 272.124C294.517 272.876 294.741 273.708 294.741 274.62ZM307.03 264H308.326V282H307.03V279.528C306.614 280.368 306.022 281.044 305.254 281.556C304.486 282.06 303.57 282.312 302.506 282.312C301.634 282.312 300.818 282.148 300.058 281.82C299.298 281.492 298.626 281.04 298.042 280.464C297.466 279.88 297.014 279.208 296.686 278.448C296.358 277.688 296.194 276.872 296.194 276C296.194 275.128 296.358 274.312 296.686 273.552C297.014 272.784 297.466 272.112 298.042 271.536C298.626 270.952 299.298 270.496 300.058 270.168C300.818 269.84 301.634 269.676 302.506 269.676C303.57 269.676 304.486 269.932 305.254 270.444C306.022 270.948 306.614 271.616 307.03 272.448V264ZM302.518 281.04C303.438 281.04 304.226 280.816 304.882 280.368C305.546 279.912 306.054 279.3 306.406 278.532C306.758 277.764 306.934 276.92 306.934 276C306.934 275.056 306.754 274.204 306.394 273.444C306.042 272.676 305.534 272.068 304.87 271.62C304.214 271.164 303.43 270.936 302.518 270.936C301.598 270.936 300.758 271.164 299.998 271.62C299.246 272.076 298.642 272.688 298.186 273.456C297.738 274.224 297.514 275.072 297.514 276C297.514 276.944 297.742 277.796 298.198 278.556C298.662 279.316 299.274 279.92 300.034 280.368C300.794 280.816 301.622 281.04 302.518 281.04ZM111.158 308.18L112.31 308.804C111.766 309.564 111.074 310.172 110.234 310.628C109.402 311.084 108.498 311.312 107.522 311.312C106.418 311.312 105.41 311.028 104.498 310.46C103.594 309.892 102.87 309.132 102.326 308.18C101.79 307.22 101.522 306.16 101.522 305C101.522 304.12 101.678 303.3 101.99 302.54C102.302 301.772 102.73 301.1 103.274 300.524C103.826 299.94 104.466 299.484 105.194 299.156C105.922 298.828 106.698 298.664 107.522 298.664C108.498 298.664 109.402 298.892 110.234 299.348C111.074 299.804 111.766 300.416 112.31 301.184L111.158 301.796C110.702 301.204 110.15 300.752 109.502 300.44C108.854 300.12 108.194 299.96 107.522 299.96C106.642 299.96 105.846 300.192 105.134 300.656C104.422 301.112 103.858 301.724 103.442 302.492C103.026 303.252 102.818 304.088 102.818 305C102.818 305.92 103.03 306.76 103.454 307.52C103.878 308.28 104.446 308.888 105.158 309.344C105.87 309.792 106.658 310.016 107.522 310.016C108.25 310.016 108.934 309.844 109.574 309.5C110.214 309.156 110.742 308.716 111.158 308.18ZM114.477 311V299H115.773V300.836C116.205 300.172 116.777 299.644 117.489 299.252C118.201 298.86 118.977 298.664 119.817 298.664C120.289 298.664 120.741 298.724 121.173 298.844L120.633 300.116C120.289 300.02 119.953 299.972 119.625 299.972C118.921 299.972 118.277 300.144 117.693 300.488C117.109 300.832 116.641 301.296 116.289 301.88C115.945 302.464 115.773 303.112 115.773 303.824V311H114.477ZM127.35 311.312C126.246 311.312 125.238 311.028 124.326 310.46C123.422 309.892 122.698 309.132 122.154 308.18C121.618 307.22 121.35 306.16 121.35 305C121.35 304.12 121.506 303.3 121.818 302.54C122.13 301.772 122.558 301.1 123.102 300.524C123.654 299.94 124.294 299.484 125.022 299.156C125.75 298.828 126.526 298.664 127.35 298.664C128.222 298.664 129.026 298.836 129.762 299.18C130.506 299.516 131.146 299.992 131.682 300.608C132.218 301.224 132.63 301.952 132.918 302.792C133.206 303.624 133.338 304.536 133.314 305.528H122.706C122.794 306.384 123.05 307.152 123.474 307.832C123.906 308.504 124.458 309.036 125.13 309.428C125.802 309.812 126.542 310.008 127.35 310.016C128.238 310.016 129.038 309.784 129.75 309.32C130.462 308.848 131.034 308.204 131.466 307.388L132.774 307.688C132.294 308.752 131.57 309.624 130.602 310.304C129.634 310.976 128.55 311.312 127.35 311.312ZM122.67 304.424H132.006C131.958 303.6 131.718 302.844 131.286 302.156C130.862 301.46 130.306 300.904 129.618 300.488C128.93 300.072 128.174 299.864 127.35 299.864C126.526 299.864 125.774 300.068 125.094 300.476C124.414 300.884 123.858 301.436 123.426 302.132C123.002 302.82 122.75 303.584 122.67 304.424ZM145.358 299H146.654V311H145.358L145.322 308.54C144.914 309.372 144.33 310.044 143.57 310.556C142.818 311.06 141.914 311.312 140.858 311.312C139.986 311.312 139.166 311.148 138.398 310.82C137.638 310.484 136.966 310.028 136.382 309.452C135.798 308.868 135.342 308.196 135.014 307.436C134.686 306.668 134.522 305.844 134.522 304.964C134.522 304.092 134.682 303.276 135.002 302.516C135.33 301.756 135.782 301.088 136.358 300.512C136.934 299.928 137.602 299.476 138.362 299.156C139.122 298.828 139.934 298.664 140.798 298.664C141.862 298.664 142.782 298.924 143.558 299.444C144.342 299.956 144.954 300.628 145.394 301.46L145.358 299ZM140.846 310.04C141.766 310.04 142.554 309.816 143.21 309.368C143.874 308.912 144.382 308.3 144.734 307.532C145.086 306.764 145.262 305.92 145.262 305C145.262 304.056 145.082 303.204 144.722 302.444C144.37 301.676 143.862 301.068 143.198 300.62C142.542 300.164 141.758 299.936 140.846 299.936C139.918 299.936 139.074 300.164 138.314 300.62C137.562 301.076 136.962 301.688 136.514 302.456C136.066 303.224 135.842 304.072 135.842 305C135.842 305.944 136.07 306.796 136.526 307.556C136.99 308.316 137.602 308.92 138.362 309.368C139.122 309.816 139.95 310.04 140.846 310.04ZM155.083 300.296H152.047L152.035 311H150.739L150.751 300.296H148.459V299H150.751L150.739 295.232H152.035L152.047 299H155.083V300.296ZM162.155 311.312C161.051 311.312 160.043 311.028 159.131 310.46C158.227 309.892 157.503 309.132 156.959 308.18C156.423 307.22 156.155 306.16 156.155 305C156.155 304.12 156.311 303.3 156.623 302.54C156.935 301.772 157.363 301.1 157.907 300.524C158.459 299.94 159.099 299.484 159.827 299.156C160.555 298.828 161.331 298.664 162.155 298.664C163.027 298.664 163.831 298.836 164.567 299.18C165.311 299.516 165.951 299.992 166.487 300.608C167.023 301.224 167.435 301.952 167.723 302.792C168.011 303.624 168.143 304.536 168.119 305.528H157.511C157.599 306.384 157.855 307.152 158.279 307.832C158.711 308.504 159.263 309.036 159.935 309.428C160.607 309.812 161.347 310.008 162.155 310.016C163.043 310.016 163.843 309.784 164.555 309.32C165.267 308.848 165.839 308.204 166.271 307.388L167.579 307.688C167.099 308.752 166.375 309.624 165.407 310.304C164.439 310.976 163.355 311.312 162.155 311.312ZM157.475 304.424H166.811C166.763 303.6 166.523 302.844 166.091 302.156C165.667 301.46 165.111 300.904 164.423 300.488C163.735 300.072 162.979 299.864 162.155 299.864C161.331 299.864 160.579 300.068 159.899 300.476C159.219 300.884 158.663 301.436 158.231 302.132C157.807 302.82 157.555 303.584 157.475 304.424ZM176.047 299H177.343V311H176.047V299ZM176.707 296.732C176.483 296.732 176.291 296.66 176.131 296.516C175.979 296.364 175.903 296.176 175.903 295.952C175.903 295.728 175.979 295.544 176.131 295.4C176.291 295.248 176.483 295.172 176.707 295.172C176.923 295.172 177.107 295.248 177.259 295.4C177.419 295.544 177.499 295.728 177.499 295.952C177.499 296.176 177.423 296.364 177.271 296.516C177.119 296.66 176.931 296.732 176.707 296.732ZM180.195 311V299H181.491V300.836C181.931 300.172 182.503 299.644 183.207 299.252C183.911 298.86 184.687 298.664 185.535 298.664C186.463 298.664 187.307 298.896 188.067 299.36C188.835 299.816 189.431 300.424 189.855 301.184C190.279 300.424 190.871 299.816 191.631 299.36C192.391 298.896 193.235 298.664 194.163 298.664C195.075 298.664 195.907 298.888 196.659 299.336C197.411 299.776 198.007 300.372 198.447 301.124C198.895 301.876 199.119 302.708 199.119 303.62V311H197.823V303.86C197.823 303.164 197.655 302.524 197.319 301.94C196.983 301.348 196.531 300.872 195.963 300.512C195.395 300.152 194.763 299.972 194.067 299.972C193.379 299.972 192.747 300.14 192.171 300.476C191.603 300.804 191.151 301.26 190.815 301.844C190.479 302.428 190.311 303.1 190.311 303.86V311H189.015V303.86C189.015 303.1 188.843 302.428 188.499 301.844C188.163 301.26 187.711 300.804 187.143 300.476C186.575 300.14 185.943 299.972 185.247 299.972C184.559 299.972 183.931 300.152 183.363 300.512C182.795 300.872 182.339 301.348 181.995 301.94C181.659 302.524 181.491 303.164 181.491 303.86V311H180.195ZM202.82 317H201.524V299H202.82V301.472C203.244 300.64 203.836 299.968 204.596 299.456C205.364 298.944 206.28 298.688 207.344 298.688C208.216 298.688 209.032 298.852 209.792 299.18C210.552 299.508 211.22 299.964 211.796 300.548C212.38 301.124 212.836 301.792 213.164 302.552C213.492 303.312 213.656 304.128 213.656 305C213.656 305.872 213.492 306.692 213.164 307.46C212.836 308.228 212.38 308.904 211.796 309.488C211.22 310.064 210.552 310.516 209.792 310.844C209.032 311.172 208.216 311.336 207.344 311.336C206.28 311.336 205.364 311.08 204.596 310.568C203.836 310.056 203.244 309.384 202.82 308.552V317ZM207.332 299.96C206.42 299.96 205.632 300.188 204.968 300.644C204.312 301.092 203.804 301.696 203.444 302.456C203.092 303.216 202.916 304.064 202.916 305C202.916 305.92 203.092 306.764 203.444 307.532C203.796 308.3 204.3 308.916 204.956 309.38C205.62 309.836 206.412 310.064 207.332 310.064C208.236 310.064 209.064 309.84 209.816 309.392C210.576 308.944 211.188 308.34 211.652 307.58C212.116 306.812 212.348 305.952 212.348 305C212.348 304.08 212.12 303.24 211.664 302.48C211.216 301.712 210.612 301.1 209.852 300.644C209.1 300.188 208.26 299.96 207.332 299.96ZM215.75 311V299H217.046V300.836C217.478 300.172 218.05 299.644 218.762 299.252C219.474 298.86 220.25 298.664 221.09 298.664C221.562 298.664 222.014 298.724 222.446 298.844L221.906 300.116C221.562 300.02 221.226 299.972 220.898 299.972C220.194 299.972 219.55 300.144 218.966 300.488C218.382 300.832 217.914 301.296 217.562 301.88C217.218 302.464 217.046 303.112 217.046 303.824V311H215.75ZM228.624 311.312C227.52 311.312 226.512 311.028 225.6 310.46C224.696 309.892 223.972 309.132 223.428 308.18C222.892 307.22 222.624 306.16 222.624 305C222.624 304.12 222.78 303.3 223.092 302.54C223.404 301.772 223.832 301.1 224.376 300.524C224.928 299.94 225.568 299.484 226.296 299.156C227.024 298.828 227.8 298.664 228.624 298.664C229.496 298.664 230.3 298.836 231.036 299.18C231.78 299.516 232.42 299.992 232.956 300.608C233.492 301.224 233.904 301.952 234.192 302.792C234.48 303.624 234.612 304.536 234.588 305.528H223.98C224.068 306.384 224.324 307.152 224.748 307.832C225.18 308.504 225.732 309.036 226.404 309.428C227.076 309.812 227.816 310.008 228.624 310.016C229.512 310.016 230.312 309.784 231.024 309.32C231.736 308.848 232.308 308.204 232.74 307.388L234.048 307.688C233.568 308.752 232.844 309.624 231.876 310.304C230.908 310.976 229.824 311.312 228.624 311.312ZM223.944 304.424H233.28C233.232 303.6 232.992 302.844 232.56 302.156C232.136 301.46 231.58 300.904 230.892 300.488C230.204 300.072 229.448 299.864 228.624 299.864C227.8 299.864 227.048 300.068 226.368 300.476C225.688 300.884 225.132 301.436 224.7 302.132C224.276 302.82 224.024 303.584 223.944 304.424ZM240.436 311.228C239.772 311.22 239.12 311.104 238.48 310.88C237.848 310.648 237.296 310.34 236.824 309.956C236.352 309.572 236.024 309.136 235.84 308.648L236.98 308.156C237.116 308.516 237.376 308.84 237.76 309.128C238.152 309.416 238.592 309.644 239.08 309.812C239.576 309.972 240.06 310.052 240.532 310.052C241.068 310.052 241.572 309.96 242.044 309.776C242.516 309.592 242.9 309.332 243.196 308.996C243.492 308.66 243.64 308.264 243.64 307.808C243.64 307.328 243.484 306.952 243.172 306.68C242.86 306.4 242.46 306.176 241.972 306.008C241.492 305.832 240.996 305.668 240.484 305.516C239.604 305.26 238.84 305 238.192 304.736C237.552 304.464 237.056 304.12 236.704 303.704C236.352 303.288 236.176 302.74 236.176 302.06C236.176 301.356 236.38 300.744 236.788 300.224C237.196 299.704 237.732 299.304 238.396 299.024C239.06 298.736 239.772 298.592 240.532 298.592C241.516 298.592 242.408 298.808 243.208 299.24C244.016 299.672 244.584 300.24 244.912 300.944L243.856 301.568C243.696 301.2 243.444 300.884 243.1 300.62C242.756 300.356 242.364 300.152 241.924 300.008C241.484 299.864 241.04 299.788 240.592 299.78C240.032 299.772 239.508 299.86 239.02 300.044C238.54 300.22 238.152 300.48 237.856 300.824C237.56 301.16 237.412 301.568 237.412 302.048C237.412 302.528 237.548 302.896 237.82 303.152C238.092 303.408 238.472 303.616 238.96 303.776C239.448 303.928 240.012 304.108 240.652 304.316C241.396 304.548 242.088 304.808 242.728 305.096C243.376 305.376 243.896 305.728 244.288 306.152C244.688 306.576 244.884 307.124 244.876 307.796C244.876 308.5 244.664 309.112 244.24 309.632C243.824 310.152 243.276 310.552 242.596 310.832C241.924 311.112 241.204 311.244 240.436 311.228ZM250.701 311.228C250.037 311.22 249.385 311.104 248.745 310.88C248.113 310.648 247.561 310.34 247.089 309.956C246.617 309.572 246.289 309.136 246.105 308.648L247.245 308.156C247.381 308.516 247.641 308.84 248.025 309.128C248.417 309.416 248.857 309.644 249.345 309.812C249.841 309.972 250.325 310.052 250.797 310.052C251.333 310.052 251.837 309.96 252.309 309.776C252.781 309.592 253.165 309.332 253.461 308.996C253.757 308.66 253.905 308.264 253.905 307.808C253.905 307.328 253.749 306.952 253.437 306.68C253.125 306.4 252.725 306.176 252.237 306.008C251.757 305.832 251.261 305.668 250.749 305.516C249.869 305.26 249.105 305 248.457 304.736C247.817 304.464 247.321 304.12 246.969 303.704C246.617 303.288 246.441 302.74 246.441 302.06C246.441 301.356 246.645 300.744 247.053 300.224C247.461 299.704 247.997 299.304 248.661 299.024C249.325 298.736 250.037 298.592 250.797 298.592C251.781 298.592 252.673 298.808 253.473 299.24C254.281 299.672 254.849 300.24 255.177 300.944L254.121 301.568C253.961 301.2 253.709 300.884 253.365 300.62C253.021 300.356 252.629 300.152 252.189 300.008C251.749 299.864 251.305 299.788 250.857 299.78C250.297 299.772 249.773 299.86 249.285 300.044C248.805 300.22 248.417 300.48 248.121 300.824C247.825 301.16 247.677 301.568 247.677 302.048C247.677 302.528 247.813 302.896 248.085 303.152C248.357 303.408 248.737 303.616 249.225 303.776C249.713 303.928 250.277 304.108 250.917 304.316C251.661 304.548 252.353 304.808 252.993 305.096C253.641 305.376 254.161 305.728 254.553 306.152C254.953 306.576 255.149 307.124 255.141 307.796C255.141 308.5 254.929 309.112 254.505 309.632C254.089 310.152 253.541 310.552 252.861 310.832C252.189 311.112 251.469 311.244 250.701 311.228ZM257.141 299H258.437V311H257.141V299ZM257.801 296.732C257.577 296.732 257.385 296.66 257.225 296.516C257.073 296.364 256.997 296.176 256.997 295.952C256.997 295.728 257.073 295.544 257.225 295.4C257.385 295.248 257.577 295.172 257.801 295.172C258.017 295.172 258.201 295.248 258.353 295.4C258.513 295.544 258.593 295.728 258.593 295.952C258.593 296.176 258.517 296.364 258.365 296.516C258.213 296.66 258.025 296.732 257.801 296.732ZM266.511 311H264.879L260.499 298.964H261.879L265.695 309.464L269.511 298.964H270.891L266.511 311ZM277.772 311.312C276.668 311.312 275.66 311.028 274.748 310.46C273.844 309.892 273.12 309.132 272.576 308.18C272.04 307.22 271.772 306.16 271.772 305C271.772 304.12 271.928 303.3 272.24 302.54C272.552 301.772 272.98 301.1 273.524 300.524C274.076 299.94 274.716 299.484 275.444 299.156C276.172 298.828 276.948 298.664 277.772 298.664C278.644 298.664 279.448 298.836 280.184 299.18C280.928 299.516 281.568 299.992 282.104 300.608C282.64 301.224 283.052 301.952 283.34 302.792C283.628 303.624 283.76 304.536 283.736 305.528H273.128C273.216 306.384 273.472 307.152 273.896 307.832C274.328 308.504 274.88 309.036 275.552 309.428C276.224 309.812 276.964 310.008 277.772 310.016C278.66 310.016 279.46 309.784 280.172 309.32C280.884 308.848 281.456 308.204 281.888 307.388L283.196 307.688C282.716 308.752 281.992 309.624 281.024 310.304C280.056 310.976 278.972 311.312 277.772 311.312ZM273.092 304.424H282.428C282.38 303.6 282.14 302.844 281.708 302.156C281.284 301.46 280.728 300.904 280.04 300.488C279.352 300.072 278.596 299.864 277.772 299.864C276.948 299.864 276.196 300.068 275.516 300.476C274.836 300.884 274.28 301.436 273.848 302.132C273.424 302.82 273.172 303.584 273.092 304.424ZM94.9608 327.664C96.1208 327.664 97.1768 327.948 98.1288 328.516C99.0888 329.084 99.8528 329.848 100.421 330.808C100.989 331.76 101.273 332.82 101.273 333.988C101.273 334.86 101.109 335.68 100.781 336.448C100.453 337.208 99.9968 337.88 99.4128 338.464C98.8368 339.04 98.1688 339.492 97.4088 339.82C96.6488 340.148 95.8328 340.312 94.9608 340.312C93.8968 340.312 92.9808 340.056 92.2128 339.544C91.4528 339.032 90.8608 338.36 90.4368 337.528V340H89.1408V322H90.4368V330.448C90.8608 329.616 91.4528 328.944 92.2128 328.432C92.9808 327.92 93.8968 327.664 94.9608 327.664ZM94.9488 339.04C95.8768 339.04 96.7168 338.812 97.4688 338.356C98.2288 337.9 98.8328 337.292 99.2808 336.532C99.7368 335.764 99.9648 334.916 99.9648 333.988C99.9648 333.044 99.7328 332.192 99.2688 331.432C98.8048 330.664 98.1928 330.056 97.4328 329.608C96.6808 329.16 95.8528 328.936 94.9488 328.936C94.0288 328.936 93.2368 329.164 92.5728 329.62C91.9168 330.076 91.4128 330.688 91.0608 331.456C90.7088 332.224 90.5328 333.068 90.5328 333.988C90.5328 334.932 90.7088 335.784 91.0608 336.544C91.4208 337.304 91.9288 337.912 92.5848 338.368C93.2488 338.816 94.0368 339.04 94.9488 339.04ZM102.817 335.356V328H104.113V335.152C104.113 335.864 104.285 336.512 104.629 337.096C104.981 337.68 105.449 338.144 106.033 338.488C106.617 338.832 107.261 339.004 107.965 339.004C108.677 339.004 109.321 338.832 109.897 338.488C110.481 338.144 110.945 337.68 111.289 337.096C111.641 336.512 111.817 335.864 111.817 335.152V328H113.113V340H111.817V338.14C111.385 338.796 110.813 339.324 110.101 339.724C109.397 340.116 108.621 340.312 107.773 340.312C106.861 340.312 106.029 340.092 105.277 339.652C104.525 339.204 103.925 338.604 103.477 337.852C103.037 337.1 102.817 336.268 102.817 335.356ZM119.264 340.228C118.6 340.22 117.948 340.104 117.308 339.88C116.676 339.648 116.124 339.34 115.652 338.956C115.18 338.572 114.852 338.136 114.668 337.648L115.808 337.156C115.944 337.516 116.204 337.84 116.588 338.128C116.98 338.416 117.42 338.644 117.908 338.812C118.404 338.972 118.888 339.052 119.36 339.052C119.896 339.052 120.4 338.96 120.872 338.776C121.344 338.592 121.728 338.332 122.024 337.996C122.32 337.66 122.468 337.264 122.468 336.808C122.468 336.328 122.312 335.952 122 335.68C121.688 335.4 121.288 335.176 120.8 335.008C120.32 334.832 119.824 334.668 119.312 334.516C118.432 334.26 117.668 334 117.02 333.736C116.38 333.464 115.884 333.12 115.532 332.704C115.18 332.288 115.004 331.74 115.004 331.06C115.004 330.356 115.208 329.744 115.616 329.224C116.024 328.704 116.56 328.304 117.224 328.024C117.888 327.736 118.6 327.592 119.36 327.592C120.344 327.592 121.236 327.808 122.036 328.24C122.844 328.672 123.412 329.24 123.74 329.944L122.684 330.568C122.524 330.2 122.272 329.884 121.928 329.62C121.584 329.356 121.192 329.152 120.752 329.008C120.312 328.864 119.868 328.788 119.42 328.78C118.86 328.772 118.336 328.86 117.848 329.044C117.368 329.22 116.98 329.48 116.684 329.824C116.388 330.16 116.24 330.568 116.24 331.048C116.24 331.528 116.376 331.896 116.648 332.152C116.92 332.408 117.3 332.616 117.788 332.776C118.276 332.928 118.84 333.108 119.48 333.316C120.224 333.548 120.916 333.808 121.556 334.096C122.204 334.376 122.724 334.728 123.116 335.152C123.516 335.576 123.712 336.124 123.704 336.796C123.704 337.5 123.492 338.112 123.068 338.632C122.652 339.152 122.104 339.552 121.424 339.832C120.752 340.112 120.032 340.244 119.264 340.228ZM125.703 328H126.999V340H125.703V328ZM126.363 325.732C126.139 325.732 125.947 325.66 125.787 325.516C125.635 325.364 125.559 325.176 125.559 324.952C125.559 324.728 125.635 324.544 125.787 324.4C125.947 324.248 126.139 324.172 126.363 324.172C126.579 324.172 126.763 324.248 126.915 324.4C127.075 324.544 127.155 324.728 127.155 324.952C127.155 325.176 127.079 325.364 126.927 325.516C126.775 325.66 126.587 325.732 126.363 325.732ZM140.148 332.62V340H138.852V332.824C138.852 332.112 138.68 331.464 138.336 330.88C137.992 330.296 137.528 329.832 136.944 329.488C136.36 329.144 135.712 328.972 135 328.972C134.296 328.972 133.652 329.144 133.068 329.488C132.484 329.832 132.016 330.296 131.664 330.88C131.32 331.464 131.148 332.112 131.148 332.824V340H129.852V328H131.148V329.836C131.58 329.172 132.152 328.644 132.864 328.252C133.576 327.86 134.352 327.664 135.192 327.664C136.112 327.664 136.944 327.888 137.688 328.336C138.44 328.776 139.036 329.372 139.476 330.124C139.924 330.876 140.148 331.708 140.148 332.62ZM147.6 340.312C146.496 340.312 145.488 340.028 144.576 339.46C143.672 338.892 142.948 338.132 142.404 337.18C141.868 336.22 141.6 335.16 141.6 334C141.6 333.12 141.756 332.3 142.068 331.54C142.38 330.772 142.808 330.1 143.352 329.524C143.904 328.94 144.544 328.484 145.272 328.156C146 327.828 146.776 327.664 147.6 327.664C148.472 327.664 149.276 327.836 150.012 328.18C150.756 328.516 151.396 328.992 151.932 329.608C152.468 330.224 152.88 330.952 153.168 331.792C153.456 332.624 153.588 333.536 153.564 334.528H142.956C143.044 335.384 143.3 336.152 143.724 336.832C144.156 337.504 144.708 338.036 145.38 338.428C146.052 338.812 146.792 339.008 147.6 339.016C148.488 339.016 149.288 338.784 150 338.32C150.712 337.848 151.284 337.204 151.716 336.388L153.024 336.688C152.544 337.752 151.82 338.624 150.852 339.304C149.884 339.976 148.8 340.312 147.6 340.312ZM142.92 333.424H152.256C152.208 332.6 151.968 331.844 151.536 331.156C151.112 330.46 150.556 329.904 149.868 329.488C149.18 329.072 148.424 328.864 147.6 328.864C146.776 328.864 146.024 329.068 145.344 329.476C144.664 329.884 144.108 330.436 143.676 331.132C143.252 331.82 143 332.584 142.92 333.424ZM159.412 340.228C158.748 340.22 158.096 340.104 157.456 339.88C156.824 339.648 156.272 339.34 155.8 338.956C155.328 338.572 155 338.136 154.816 337.648L155.956 337.156C156.092 337.516 156.352 337.84 156.736 338.128C157.128 338.416 157.568 338.644 158.056 338.812C158.552 338.972 159.036 339.052 159.508 339.052C160.044 339.052 160.548 338.96 161.02 338.776C161.492 338.592 161.876 338.332 162.172 337.996C162.468 337.66 162.616 337.264 162.616 336.808C162.616 336.328 162.46 335.952 162.148 335.68C161.836 335.4 161.436 335.176 160.948 335.008C160.468 334.832 159.972 334.668 159.46 334.516C158.58 334.26 157.816 334 157.168 333.736C156.528 333.464 156.032 333.12 155.68 332.704C155.328 332.288 155.152 331.74 155.152 331.06C155.152 330.356 155.356 329.744 155.764 329.224C156.172 328.704 156.708 328.304 157.372 328.024C158.036 327.736 158.748 327.592 159.508 327.592C160.492 327.592 161.384 327.808 162.184 328.24C162.992 328.672 163.56 329.24 163.888 329.944L162.832 330.568C162.672 330.2 162.42 329.884 162.076 329.62C161.732 329.356 161.34 329.152 160.9 329.008C160.46 328.864 160.016 328.788 159.568 328.78C159.008 328.772 158.484 328.86 157.996 329.044C157.516 329.22 157.128 329.48 156.832 329.824C156.536 330.16 156.388 330.568 156.388 331.048C156.388 331.528 156.524 331.896 156.796 332.152C157.068 332.408 157.448 332.616 157.936 332.776C158.424 332.928 158.988 333.108 159.628 333.316C160.372 333.548 161.064 333.808 161.704 334.096C162.352 334.376 162.872 334.728 163.264 335.152C163.664 335.576 163.86 336.124 163.852 336.796C163.852 337.5 163.64 338.112 163.216 338.632C162.8 339.152 162.252 339.552 161.572 339.832C160.9 340.112 160.18 340.244 159.412 340.228ZM169.678 340.228C169.014 340.22 168.362 340.104 167.722 339.88C167.09 339.648 166.538 339.34 166.066 338.956C165.594 338.572 165.266 338.136 165.082 337.648L166.222 337.156C166.358 337.516 166.618 337.84 167.002 338.128C167.394 338.416 167.834 338.644 168.322 338.812C168.818 338.972 169.302 339.052 169.774 339.052C170.31 339.052 170.814 338.96 171.286 338.776C171.758 338.592 172.142 338.332 172.438 337.996C172.734 337.66 172.882 337.264 172.882 336.808C172.882 336.328 172.726 335.952 172.414 335.68C172.102 335.4 171.702 335.176 171.214 335.008C170.734 334.832 170.238 334.668 169.726 334.516C168.846 334.26 168.082 334 167.434 333.736C166.794 333.464 166.298 333.12 165.946 332.704C165.594 332.288 165.418 331.74 165.418 331.06C165.418 330.356 165.622 329.744 166.03 329.224C166.438 328.704 166.974 328.304 167.638 328.024C168.302 327.736 169.014 327.592 169.774 327.592C170.758 327.592 171.65 327.808 172.45 328.24C173.258 328.672 173.826 329.24 174.154 329.944L173.098 330.568C172.938 330.2 172.686 329.884 172.342 329.62C171.998 329.356 171.606 329.152 171.166 329.008C170.726 328.864 170.282 328.788 169.834 328.78C169.274 328.772 168.75 328.86 168.262 329.044C167.782 329.22 167.394 329.48 167.098 329.824C166.802 330.16 166.654 330.568 166.654 331.048C166.654 331.528 166.79 331.896 167.062 332.152C167.334 332.408 167.714 332.616 168.202 332.776C168.69 332.928 169.254 333.108 169.894 333.316C170.638 333.548 171.33 333.808 171.97 334.096C172.618 334.376 173.138 334.728 173.53 335.152C173.93 335.576 174.126 336.124 174.118 336.796C174.118 337.5 173.906 338.112 173.482 338.632C173.066 339.152 172.518 339.552 171.838 339.832C171.166 340.112 170.446 340.244 169.678 340.228ZM181.397 340.312C180.293 340.312 179.285 340.028 178.373 339.46C177.469 338.892 176.745 338.132 176.201 337.18C175.665 336.22 175.397 335.16 175.397 334C175.397 333.12 175.553 332.3 175.865 331.54C176.177 330.772 176.605 330.1 177.149 329.524C177.701 328.94 178.341 328.484 179.069 328.156C179.797 327.828 180.573 327.664 181.397 327.664C182.269 327.664 183.073 327.836 183.809 328.18C184.553 328.516 185.193 328.992 185.729 329.608C186.265 330.224 186.677 330.952 186.965 331.792C187.253 332.624 187.385 333.536 187.361 334.528H176.753C176.841 335.384 177.097 336.152 177.521 336.832C177.953 337.504 178.505 338.036 179.177 338.428C179.849 338.812 180.589 339.008 181.397 339.016C182.285 339.016 183.085 338.784 183.797 338.32C184.509 337.848 185.081 337.204 185.513 336.388L186.821 336.688C186.341 337.752 185.617 338.624 184.649 339.304C183.681 339.976 182.597 340.312 181.397 340.312ZM176.717 333.424H186.053C186.005 332.6 185.765 331.844 185.333 331.156C184.909 330.46 184.353 329.904 183.665 329.488C182.977 329.072 182.221 328.864 181.397 328.864C180.573 328.864 179.821 329.068 179.141 329.476C178.461 329.884 177.905 330.436 177.473 331.132C177.049 331.82 176.797 332.584 176.717 333.424ZM193.209 340.228C192.545 340.22 191.893 340.104 191.253 339.88C190.621 339.648 190.069 339.34 189.597 338.956C189.125 338.572 188.797 338.136 188.613 337.648L189.753 337.156C189.889 337.516 190.149 337.84 190.533 338.128C190.925 338.416 191.365 338.644 191.853 338.812C192.349 338.972 192.833 339.052 193.305 339.052C193.841 339.052 194.345 338.96 194.817 338.776C195.289 338.592 195.673 338.332 195.969 337.996C196.265 337.66 196.413 337.264 196.413 336.808C196.413 336.328 196.257 335.952 195.945 335.68C195.633 335.4 195.233 335.176 194.745 335.008C194.265 334.832 193.769 334.668 193.257 334.516C192.377 334.26 191.613 334 190.965 333.736C190.325 333.464 189.829 333.12 189.477 332.704C189.125 332.288 188.949 331.74 188.949 331.06C188.949 330.356 189.153 329.744 189.561 329.224C189.969 328.704 190.505 328.304 191.169 328.024C191.833 327.736 192.545 327.592 193.305 327.592C194.289 327.592 195.181 327.808 195.981 328.24C196.789 328.672 197.357 329.24 197.685 329.944L196.629 330.568C196.469 330.2 196.217 329.884 195.873 329.62C195.529 329.356 195.137 329.152 194.697 329.008C194.257 328.864 193.813 328.788 193.365 328.78C192.805 328.772 192.281 328.86 191.793 329.044C191.313 329.22 190.925 329.48 190.629 329.824C190.333 330.16 190.185 330.568 190.185 331.048C190.185 331.528 190.321 331.896 190.593 332.152C190.865 332.408 191.245 332.616 191.733 332.776C192.221 332.928 192.785 333.108 193.425 333.316C194.169 333.548 194.861 333.808 195.501 334.096C196.149 334.376 196.669 334.728 197.061 335.152C197.461 335.576 197.657 336.124 197.649 336.796C197.649 337.5 197.437 338.112 197.013 338.632C196.597 339.152 196.049 339.552 195.369 339.832C194.697 340.112 193.977 340.244 193.209 340.228ZM211.521 329.296H208.485L208.473 340H207.177L207.189 329.296H204.897V328H207.189L207.177 324.232H208.473L208.485 328H211.521V329.296ZM218.593 340.312C217.489 340.312 216.481 340.028 215.569 339.46C214.665 338.892 213.941 338.132 213.397 337.18C212.861 336.22 212.593 335.16 212.593 334C212.593 333.12 212.749 332.3 213.061 331.54C213.373 330.772 213.801 330.1 214.345 329.524C214.897 328.94 215.537 328.484 216.265 328.156C216.993 327.828 217.769 327.664 218.593 327.664C219.697 327.664 220.701 327.948 221.605 328.516C222.517 329.084 223.241 329.848 223.777 330.808C224.321 331.768 224.593 332.832 224.593 334C224.593 334.872 224.437 335.688 224.125 336.448C223.813 337.208 223.381 337.88 222.829 338.464C222.285 339.04 221.649 339.492 220.921 339.82C220.201 340.148 219.425 340.312 218.593 340.312ZM218.593 339.016C219.481 339.016 220.277 338.784 220.981 338.32C221.693 337.856 222.257 337.244 222.673 336.484C223.089 335.724 223.297 334.896 223.297 334C223.297 333.096 223.089 332.26 222.673 331.492C222.257 330.724 221.693 330.112 220.981 329.656C220.269 329.192 219.473 328.96 218.593 328.96C217.705 328.96 216.905 329.192 216.193 329.656C215.481 330.12 214.917 330.736 214.501 331.504C214.093 332.264 213.889 333.096 213.889 334C213.889 334.936 214.101 335.784 214.525 336.544C214.957 337.296 215.529 337.896 216.241 338.344C216.953 338.792 217.737 339.016 218.593 339.016ZM236.24 328H237.536V340.504C237.536 341.248 237.372 341.948 237.044 342.604C236.724 343.268 236.288 343.852 235.736 344.356C235.184 344.868 234.556 345.268 233.852 345.556C233.156 345.852 232.436 346 231.692 346C230.86 346 230.056 345.804 229.28 345.412C228.504 345.028 227.832 344.512 227.264 343.864C226.704 343.216 226.316 342.508 226.1 341.74L227.3 341.188C227.444 341.836 227.74 342.424 228.188 342.952C228.636 343.488 229.168 343.912 229.784 344.224C230.408 344.536 231.044 344.692 231.692 344.692C232.268 344.692 232.828 344.58 233.372 344.356C233.916 344.132 234.404 343.824 234.836 343.432C235.268 343.048 235.608 342.604 235.856 342.1C236.112 341.596 236.24 341.064 236.24 340.504V337.564C235.816 338.38 235.228 339.044 234.476 339.556C233.724 340.06 232.848 340.312 231.848 340.312C231.016 340.312 230.232 340.148 229.496 339.82C228.76 339.492 228.116 339.04 227.564 338.464C227.012 337.88 226.576 337.208 226.256 336.448C225.944 335.688 225.788 334.872 225.788 334C225.788 333.128 225.944 332.312 226.256 331.552C226.576 330.784 227.012 330.112 227.564 329.536C228.116 328.952 228.76 328.496 229.496 328.168C230.232 327.84 231.016 327.676 231.848 327.676C232.848 327.676 233.724 327.928 234.476 328.432C235.228 328.928 235.816 329.592 236.24 330.424V328ZM231.86 339.04C232.756 339.04 233.524 338.808 234.164 338.344C234.812 337.88 235.308 337.264 235.652 336.496C236.004 335.728 236.18 334.896 236.18 334C236.18 333.08 236.004 332.24 235.652 331.48C235.3 330.712 234.8 330.096 234.152 329.632C233.504 329.168 232.74 328.936 231.86 328.936C230.98 328.936 230.18 329.164 229.46 329.62C228.74 330.076 228.168 330.688 227.744 331.456C227.32 332.224 227.108 333.072 227.108 334C227.108 334.936 227.324 335.784 227.756 336.544C228.188 337.304 228.764 337.912 229.484 338.368C230.204 338.816 230.996 339.04 231.86 339.04ZM245.616 340.312C244.512 340.312 243.504 340.028 242.592 339.46C241.688 338.892 240.964 338.132 240.42 337.18C239.884 336.22 239.616 335.16 239.616 334C239.616 333.12 239.772 332.3 240.084 331.54C240.396 330.772 240.824 330.1 241.368 329.524C241.92 328.94 242.56 328.484 243.288 328.156C244.016 327.828 244.792 327.664 245.616 327.664C246.488 327.664 247.292 327.836 248.028 328.18C248.772 328.516 249.412 328.992 249.948 329.608C250.484 330.224 250.896 330.952 251.184 331.792C251.472 332.624 251.604 333.536 251.58 334.528H240.972C241.06 335.384 241.316 336.152 241.74 336.832C242.172 337.504 242.724 338.036 243.396 338.428C244.068 338.812 244.808 339.008 245.616 339.016C246.504 339.016 247.304 338.784 248.016 338.32C248.728 337.848 249.3 337.204 249.732 336.388L251.04 336.688C250.56 337.752 249.836 338.624 248.868 339.304C247.9 339.976 246.816 340.312 245.616 340.312ZM240.936 333.424H250.272C250.224 332.6 249.984 331.844 249.552 331.156C249.128 330.46 248.572 329.904 247.884 329.488C247.196 329.072 246.44 328.864 245.616 328.864C244.792 328.864 244.04 329.068 243.36 329.476C242.68 329.884 242.124 330.436 241.692 331.132C241.268 331.82 241.016 332.584 240.936 333.424ZM259.427 329.296H256.391L256.379 340H255.083L255.095 329.296H252.803V328H255.095L255.083 324.232H256.379L256.391 328H259.427V329.296ZM271.866 332.62V340H270.57V332.824C270.57 332.112 270.398 331.464 270.054 330.88C269.71 330.296 269.246 329.832 268.662 329.488C268.078 329.144 267.43 328.972 266.718 328.972C266.014 328.972 265.37 329.144 264.786 329.488C264.202 329.832 263.734 330.296 263.382 330.88C263.038 331.464 262.866 332.112 262.866 332.824V340H261.57V322H262.866V329.836C263.298 329.172 263.87 328.644 264.582 328.252C265.294 327.86 266.07 327.664 266.91 327.664C267.83 327.664 268.662 327.888 269.406 328.336C270.158 328.776 270.754 329.372 271.194 330.124C271.642 330.876 271.866 331.708 271.866 332.62ZM279.319 340.312C278.215 340.312 277.207 340.028 276.295 339.46C275.391 338.892 274.667 338.132 274.123 337.18C273.587 336.22 273.319 335.16 273.319 334C273.319 333.12 273.475 332.3 273.787 331.54C274.099 330.772 274.527 330.1 275.071 329.524C275.623 328.94 276.263 328.484 276.991 328.156C277.719 327.828 278.495 327.664 279.319 327.664C280.191 327.664 280.995 327.836 281.731 328.18C282.475 328.516 283.115 328.992 283.651 329.608C284.187 330.224 284.599 330.952 284.887 331.792C285.175 332.624 285.307 333.536 285.283 334.528H274.675C274.763 335.384 275.019 336.152 275.443 336.832C275.875 337.504 276.427 338.036 277.099 338.428C277.771 338.812 278.511 339.008 279.319 339.016C280.207 339.016 281.007 338.784 281.719 338.32C282.431 337.848 283.003 337.204 283.435 336.388L284.743 336.688C284.263 337.752 283.539 338.624 282.571 339.304C281.603 339.976 280.519 340.312 279.319 340.312ZM274.639 333.424H283.975C283.927 332.6 283.687 331.844 283.255 331.156C282.831 330.46 282.275 329.904 281.587 329.488C280.899 329.072 280.143 328.864 279.319 328.864C278.495 328.864 277.743 329.068 277.063 329.476C276.383 329.884 275.827 330.436 275.395 331.132C274.971 331.82 274.719 332.584 274.639 333.424ZM287.375 340V328H288.671V329.836C289.103 329.172 289.675 328.644 290.387 328.252C291.099 327.86 291.875 327.664 292.715 327.664C293.187 327.664 293.639 327.724 294.071 327.844L293.531 329.116C293.187 329.02 292.851 328.972 292.523 328.972C291.819 328.972 291.175 329.144 290.591 329.488C290.007 329.832 289.539 330.296 289.187 330.88C288.843 331.464 288.671 332.112 288.671 332.824V340H287.375ZM295.316 340.312C295.1 340.312 294.916 340.232 294.764 340.072C294.612 339.92 294.536 339.732 294.536 339.508C294.536 339.3 294.612 339.12 294.764 338.968C294.916 338.808 295.1 338.728 295.316 338.728C295.54 338.728 295.728 338.808 295.88 338.968C296.04 339.12 296.12 339.3 296.12 339.508C296.12 339.732 296.04 339.92 295.88 340.072C295.728 340.232 295.54 340.312 295.316 340.312Z" fill="white"/>
<defs>
<linearGradient id="paint0_linear_359_157" x1="181.207" y1="113.619" x2="208.921" y2="122.526" gradientUnits="userSpaceOnUse">
<stop offset="0.29" stop-color="#F56D50"/>
<stop offset="0.99" stop-color="#F57438"/>
</linearGradient>
<linearGradient id="paint1_linear_359_157" x1="146.923" y1="99.0968" x2="238.465" y2="151.953" gradientUnits="userSpaceOnUse">
<stop offset="0.29" stop-color="#F56D50"/>
<stop offset="0.99" stop-color="#F57438"/>
</linearGradient>
<linearGradient id="paint2_linear_359_157" x1="220.891" y1="79.2117" x2="243.777" y2="92.4258" gradientUnits="userSpaceOnUse">
<stop offset="0.29" stop-color="#F56D50"/>
<stop offset="0.99" stop-color="#F57438"/>
</linearGradient>
</defs>
</svg>
