<svg width="584" height="119" viewBox="0 0 584 119" fill="none" xmlns="http://www.w3.org/2000/svg">
<g clip-path="url(#clip0_13_442)">
<path d="M59.6927 3.75463e-06C50.4758 -0.0189284 41.3807 2.09884 33.126 6.186L41.5782 23.0305C50.1838 18.6989 60.0526 17.5532 69.4265 19.7974C78.8004 22.0417 87.0707 27.5302 92.7641 35.2853C98.4575 43.0403 101.204 52.5582 100.515 62.1435C99.8258 71.7288 95.7455 80.759 89.0008 87.6254C82.2561 94.4918 73.2851 98.7485 63.686 99.6373C54.0868 100.526 44.4828 97.9891 36.5849 92.4784C28.6869 86.9677 23.0079 78.8411 20.5595 69.5463C18.1111 60.2516 19.0524 50.3922 23.2155 41.7245L6.01953 33.4353C0.340062 45.0502 -1.39267 58.1923 1.08316 70.8756C3.55898 83.5589 10.1088 95.0944 19.743 103.739C29.3772 112.384 41.5722 117.668 54.4854 118.793C67.3986 119.918 80.3282 116.822 91.3207 109.975C102.313 103.127 110.771 92.899 115.416 80.836C120.062 68.773 120.642 55.5306 117.07 43.1098C113.498 30.6889 105.967 19.7644 95.6159 11.987C85.2646 4.20971 72.655 0.00210239 59.6927 3.75463e-06V3.75463e-06Z" fill="url(#paint0_linear_13_442)"/>
<path d="M60.1953 34.023C56.1421 34.0184 52.1464 34.9791 48.541 36.8252L59.8974 59.3855L37.1163 48.4302C34.6864 53.4229 33.9521 59.0683 35.0242 64.5137C36.0964 69.9591 38.9168 74.909 43.0597 78.6158C47.2025 82.3227 52.4427 84.5853 57.9892 85.0619C63.5356 85.5386 69.087 84.2034 73.8052 81.2581C78.5233 78.3128 82.152 73.9172 84.1434 68.735C86.1347 63.5529 86.3806 57.8656 84.8438 52.5319C83.307 47.1982 80.071 42.5077 75.6245 39.1688C71.1779 35.8298 65.7623 34.0236 60.1953 34.023V34.023Z" fill="#233D4F"/>
<path d="M220.65 33.6518V90.0929H206.861V56.2431L194.195 90.0929H183.068L170.322 56.1627V90.0929H156.533V33.6518H172.823L188.709 72.7226L204.441 33.6518H220.65Z" fill="#233D4F"/>
<path d="M262.917 80.121H247.608C246.761 80.1214 245.936 80.3859 245.249 80.8774C244.561 81.3689 244.045 82.0627 243.772 82.8614L241.29 90.0929H226.862L247.341 33.6518H263.314L283.793 90.0929H269.203L266.752 82.8924C266.485 82.0878 265.971 81.3873 265.283 80.89C264.595 80.3926 263.767 80.1236 262.917 80.121V80.121ZM262.296 69.512L255.253 48.8694L248.315 69.5368L262.296 69.512Z" fill="#233D4F"/>
<path d="M326.873 37.1902C331.217 39.4328 334.816 42.8812 337.236 47.1187C339.747 51.6223 341.015 56.7089 340.91 61.86C341.007 67.0004 339.74 72.0751 337.236 76.5703C334.82 80.8344 331.204 84.3007 326.836 86.5421C322.343 88.901 317.14 90.0805 311.228 90.0805H290.017V33.6518H311.228C317.219 33.6518 322.434 34.8313 326.873 37.1902ZM322.529 73.9288C325.425 71.0874 326.873 67.0686 326.873 61.8723C326.873 56.6761 325.425 52.6284 322.529 49.7292C319.633 46.8424 315.574 45.399 310.353 45.399H303.806V78.1848H310.341C315.554 78.1889 319.612 76.7703 322.517 73.9288H322.529Z" fill="#233D4F"/>
<path d="M385.511 37.1902C389.854 39.4328 393.454 42.8812 395.874 47.1187C398.38 51.6238 399.645 56.7097 399.542 61.86C399.638 66.9995 398.373 72.0734 395.874 76.5703C393.457 80.836 389.839 84.3026 385.467 86.5421C380.978 88.901 375.776 90.0805 369.86 90.0805H348.649V33.6518H369.86C375.83 33.6518 381.047 34.8313 385.511 37.1902ZM381.167 73.9288C384.063 71.0874 385.511 67.0686 385.511 61.8723C385.511 56.6761 384.063 52.6284 381.167 49.7292C378.271 46.8424 374.212 45.399 368.991 45.399H362.444V78.1848H368.979C374.191 78.1889 378.25 76.7703 381.154 73.9288H381.167Z" fill="#233D4F"/>
<path d="M421.075 33.6518V90.0929H407.286V33.6518H421.075Z" fill="#233D4F"/>
<path d="M463.423 80.121H448.095C447.249 80.1214 446.424 80.3859 445.736 80.8774C445.048 81.3689 444.532 82.0627 444.26 82.8614L441.809 90.0929H427.368L447.847 33.6518H463.82L484.299 90.0929H469.716L467.289 82.8924C467.021 82.0828 466.502 81.3787 465.808 80.8809C465.113 80.3831 464.279 80.1171 463.423 80.121V80.121ZM462.803 69.512L455.759 48.8694L448.821 69.5368L462.803 69.512Z" fill="#233D4F"/>
<path d="M531.413 60.7836C529.797 63.6012 527.383 65.8818 524.475 67.3408C521.36 68.9904 517.489 69.8152 512.864 69.8152H504.313V90.0743H490.523V33.6518H512.864C517.382 33.6518 521.198 34.4292 524.314 35.9839C527.253 37.3698 529.701 39.6134 531.332 42.4174C532.934 45.2905 533.747 48.5337 533.69 51.8201C533.721 54.9539 532.936 58.0422 531.413 60.7836V60.7836ZM517.704 57.072C518.995 55.8348 519.641 54.0924 519.641 51.8448C519.641 49.5973 518.995 47.8569 517.704 46.6239C516.414 45.3867 514.451 44.7681 511.815 44.7681H504.313V58.8969H511.815C514.446 58.8969 516.41 58.2803 517.704 57.0473V57.072Z" fill="#233D4F"/>
<path d="M581.741 60.7836C580.125 63.6012 577.712 65.8818 574.803 67.3408C571.688 68.9904 567.818 69.8152 563.192 69.8152H554.641V90.0743H540.852V33.6518H563.192C567.71 33.6518 571.526 34.4292 574.642 35.9839C577.581 37.3698 580.029 39.6134 581.66 42.4174C583.258 45.2912 584.065 48.5351 584 51.8201C584.036 54.9523 583.258 58.0404 581.741 60.7836V60.7836ZM568.033 57.072C569.323 55.8348 569.969 54.0924 569.969 51.8448C569.969 49.5973 569.323 47.8569 568.033 46.6239C566.742 45.3867 564.779 44.7681 562.143 44.7681H554.641V58.8969H562.143C564.775 58.8969 566.738 58.2803 568.033 57.0473V57.072Z" fill="#233D4F"/>
</g>
<defs>
<linearGradient id="paint0_linear_13_442" x1="8.11706" y1="29.8165" x2="111.228" y2="89.5418" gradientUnits="userSpaceOnUse">
<stop offset="0.29" stop-color="#F56D50"/>
<stop offset="0.99" stop-color="#F57438"/>
</linearGradient>
<clipPath id="clip0_13_442">
<rect width="584" height="119" fill="white"/>
</clipPath>
</defs>
</svg>
