<svg width="67" height="37" viewBox="0 0 67 37" fill="none" xmlns="http://www.w3.org/2000/svg">
<rect x="1.2289" y="0.360615" width="64.5554" height="35.7034" rx="7.2123" fill="white"/>
<g clip-path="url(#clip0_248_2)">
<path d="M11.7515 17.2594C11.7671 15.8521 11.7527 14.4437 11.8073 13.038C11.8545 11.8227 12.8776 10.8126 14.0908 10.7311C14.801 10.6834 15.5147 10.6739 16.2269 10.6714C17.9187 10.6656 19.6106 10.6742 21.3276 10.703C21.3643 11.2557 21.376 11.7823 21.3735 12.3315C21.3681 12.8943 21.3768 13.4345 21.3776 13.9985C21.3733 14.5482 21.3769 15.0741 21.3684 15.6244C21.3529 16.1803 21.3494 16.7116 21.321 17.2471C21.1591 17.2541 21.0224 17.2595 20.8856 17.2595C17.9653 17.2599 15.045 17.2595 12.1247 17.2604C12.016 17.2604 11.9072 17.2721 11.7879 17.2709C11.7773 17.2633 11.7515 17.2594 11.7515 17.2594ZM14.2094 14.4308C14.1882 14.4061 14.1671 14.3815 14.1553 14.3508C14.1553 14.3508 14.1476 14.359 14.151 14.3161C14.0465 14.2747 13.9302 14.1819 13.84 14.2027C13.6649 14.243 13.5814 14.3905 13.6146 14.6039C13.6146 14.6039 13.604 14.6229 13.568 14.6401C13.3846 14.6917 13.1928 14.7247 13.0212 14.8024C12.9295 14.8438 12.8557 14.9542 12.8098 15.0506C12.7955 15.0807 12.8987 15.1668 12.9611 15.2376C12.9611 15.2376 12.9639 15.2541 12.9664 15.289C12.9849 15.3007 13.0034 15.3124 13.0208 15.3201C13.0208 15.3201 13.0249 15.3202 13.0155 15.3609C13.0718 15.4035 13.1282 15.4462 13.1762 15.5019C13.1762 15.5019 13.1839 15.4888 13.175 15.5387C13.157 15.6806 13.1073 15.8277 13.1296 15.963C13.1524 16.1014 13.2457 16.2283 13.3081 16.3602C13.3713 16.3284 13.4344 16.2965 13.4996 16.2696C13.4996 16.2696 13.4954 16.2663 13.5299 16.2684C13.5561 16.2495 13.5823 16.2307 13.6096 16.2156C13.6096 16.2156 13.6067 16.213 13.6503 16.2159C13.7849 16.1779 13.9195 16.1398 14.0497 16.1048C14.0497 16.1048 14.0521 16.1001 14.0652 16.1353C14.1187 16.1566 14.1722 16.1779 14.2112 16.2073C14.2112 16.2073 14.2251 16.1979 14.2381 16.2357C14.2755 16.2433 14.313 16.2509 14.3792 16.2563C14.3976 16.2614 14.4161 16.2665 14.4592 16.3007C14.7304 16.3363 14.7872 16.1193 14.7441 15.9621C14.6692 15.6894 14.7504 15.5214 14.9394 15.3418C15.0734 15.2144 15.1284 15.0404 14.9277 14.8982C14.9277 14.8982 14.9251 14.902 14.9214 14.8612C14.701 14.7658 14.4806 14.6704 14.2618 14.5686C14.2618 14.5686 14.2621 14.5753 14.2652 14.5399C14.2448 14.5144 14.2244 14.489 14.2107 14.4607C14.2107 14.4607 14.2061 14.4663 14.2094 14.4308ZM17.7248 12.2934C17.6476 12.2275 17.5739 12.1106 17.4925 12.105C17.1944 12.0844 17.0142 11.9578 16.9016 11.6736C16.8104 11.4434 16.5632 11.4359 16.4759 11.6602C16.3606 11.9564 16.1718 12.0766 15.8661 12.1043C15.6359 12.1251 15.5545 12.3456 15.7265 12.498C15.964 12.7085 16.0343 12.9273 15.9766 13.2375C15.9341 13.4661 16.101 13.5834 16.2924 13.4703C16.5643 13.3097 16.8 13.3049 17.0724 13.4678C17.2542 13.5765 17.4339 13.4669 17.3919 13.2679C17.3189 12.9221 17.4195 12.6731 17.6783 12.4597C17.708 12.4352 17.7104 12.3776 17.7248 12.2934ZM13.2449 12.7834C13.237 12.9356 13.2238 13.0878 13.2224 13.2401C13.2202 13.4849 13.3726 13.5961 13.571 13.4639C13.8266 13.2937 14.0434 13.3098 14.3005 13.4562C14.5272 13.5853 14.7008 13.4713 14.6485 13.2162C14.5856 12.9092 14.6728 12.7021 14.8883 12.4942C15.0658 12.3231 15.0023 12.1323 14.7622 12.1064C14.4591 12.0738 14.2631 11.9611 14.1475 11.6608C14.0626 11.4402 13.8259 11.4366 13.7367 11.6531C13.6124 11.9546 13.4178 12.0841 13.1002 12.1065C12.9005 12.1205 12.837 12.3066 12.9571 12.4726C13.0311 12.5748 13.132 12.6574 13.2449 12.7834ZM19.1038 13.4442C19.3331 13.2701 19.5482 13.3163 19.7811 13.4564C19.9942 13.5847 20.1837 13.4844 20.1387 13.2585C20.0722 12.925 20.157 12.6924 20.405 12.4676C20.5539 12.3326 20.4727 12.1241 20.2722 12.1065C19.9607 12.079 19.7548 11.9669 19.6342 11.6567C19.5492 11.4382 19.3089 11.4392 19.2237 11.6579C19.1076 11.9559 18.9167 12.0749 18.6111 12.1062C18.3682 12.131 18.3034 12.3196 18.4797 12.4919C18.6923 12.6996 18.786 12.9041 18.7215 13.2123C18.6671 13.472 18.7956 13.5445 19.1038 13.4442ZM20.1349 14.8329C19.9008 14.8147 19.7615 14.6914 19.6715 14.4725C19.6337 14.3804 19.5095 14.2642 19.4274 14.2663C19.3422 14.2684 19.2219 14.3852 19.1845 14.4789C19.0918 14.7112 18.9403 14.8142 18.6961 14.8396C18.5942 14.8501 18.4474 14.9228 18.4185 15.0026C18.3896 15.0824 18.4533 15.2398 18.5275 15.3044C18.7197 15.4716 18.7814 15.6398 18.7263 15.9C18.6566 16.2285 18.8177 16.3411 19.1118 16.1843C19.3309 16.0675 19.5176 16.0239 19.7405 16.1755C19.8198 16.2294 19.9915 16.2476 20.0548 16.1978C20.1238 16.1436 20.1632 15.9756 20.1326 15.8852C20.0424 15.6182 20.1778 15.461 20.3379 15.2884C20.4037 15.2174 20.4774 15.0763 20.4481 15.0136C20.4096 14.9313 20.2728 14.8951 20.1349 14.8329ZM17.683 15.1969C17.7808 14.9752 17.688 14.8611 17.4668 14.8411C17.2128 14.8181 17.0219 14.7349 16.9267 14.4684C16.8941 14.377 16.7636 14.2619 16.6801 14.2637C16.595 14.2656 16.4713 14.3828 16.4374 14.4761C16.3451 14.7294 16.1676 14.8097 15.9214 14.8413C15.6196 14.8799 15.5431 15.0818 15.7647 15.2851C15.9679 15.4715 16.0346 15.6516 15.9808 15.9267C15.9235 16.22 16.0933 16.3401 16.3432 16.1946C16.5826 16.0551 16.7809 16.0489 17.0223 16.1923C17.2696 16.3391 17.4526 16.2274 17.3886 15.9596C17.3095 15.6291 17.4314 15.4219 17.683 15.1969Z" fill="#21B0F3"/>
<path d="M11.7461 22.1905C11.7459 21.6642 11.7456 21.1378 11.7712 20.5846C11.8611 20.5566 11.9251 20.5545 11.9892 20.5545C18.0833 20.5544 24.1773 20.5544 30.2714 20.5549C30.5001 20.5549 30.7287 20.5604 30.9574 20.5634C30.9586 21.0897 30.9598 21.6161 30.9344 22.1701C30.853 22.1989 30.7981 22.2009 30.7432 22.2009C24.5022 22.201 18.2611 22.201 12.0201 22.2005C11.9288 22.2005 11.8374 22.194 11.7461 22.1905Z" fill="#FC4C4D"/>
<path d="M11.752 22.2111C11.8375 22.194 11.9288 22.2005 12.0202 22.2005C18.2612 22.201 24.5022 22.201 30.7432 22.2009C30.7981 22.2009 30.853 22.1989 30.9333 22.1953C30.9416 22.3961 30.934 22.6007 30.9052 22.8023C30.8563 23.1451 30.794 23.4861 30.7095 23.8445C30.5997 23.8565 30.5177 23.8479 30.4357 23.8479C24.3726 23.8474 18.3094 23.8475 12.2463 23.8488C12.1556 23.8488 12.0648 23.8634 11.9741 23.8712C11.7789 23.3409 11.7571 22.7878 11.752 22.2111Z" fill="white"/>
<path d="M11.9746 23.8741C12.0649 23.8632 12.1556 23.8486 12.2463 23.8486C18.3095 23.8473 24.3726 23.8472 30.4358 23.8477C30.5178 23.8477 30.5998 23.8563 30.7061 23.8669C30.7304 23.8729 30.7306 23.8771 30.7175 23.8925C30.5677 24.1374 30.4309 24.3668 30.294 24.5961C29.666 25.2613 28.8634 25.4809 27.984 25.4857C26.4383 25.4942 24.8927 25.4949 23.347 25.4955C20.594 25.4966 17.841 25.4978 15.0881 25.4918C14.7235 25.491 14.3547 25.4758 13.9953 25.4196C13.1521 25.2876 12.4992 24.8598 12.0728 24.0685C12.0526 24.0221 12.0398 24.0098 12.0213 24.0036C12.0213 24.0036 12.0201 23.9786 12.0138 23.953C11.9952 23.9121 11.9829 23.8967 11.9707 23.8814C11.9707 23.8814 11.9751 23.8771 11.9746 23.8741Z" fill="#FC4C4D"/>
<path d="M11.7986 17.2785C11.9073 17.2723 12.016 17.2606 12.1248 17.2605C15.0451 17.2596 17.9654 17.2601 20.8857 17.2597C21.0224 17.2597 21.1592 17.2542 21.337 17.2563C21.3898 17.2649 21.4016 17.2685 21.4307 17.2859C22.4996 17.3046 23.5511 17.3124 24.6025 17.3137C26.4414 17.316 28.2803 17.3138 30.1191 17.3147C30.5716 17.3149 30.5186 17.276 30.5237 17.7048C30.5246 17.7841 30.5385 17.8633 30.5464 17.9426C30.5755 17.9401 30.6045 17.9376 30.6335 17.9352C30.6335 17.7751 30.6234 17.6139 30.6395 17.4555C30.6445 17.4057 30.7181 17.3291 30.7635 17.3268C30.8085 17.3245 30.8966 17.3986 30.8984 17.442C30.9105 17.7377 30.9047 18.034 30.9047 18.2756C30.7624 18.3076 30.6736 18.3276 30.5847 18.3476C30.5897 18.3789 30.5946 18.4101 30.5996 18.4414C30.694 18.4587 30.7884 18.4759 30.8863 18.4939C30.8863 18.6137 30.8863 18.7177 30.8863 18.8513C30.7319 18.8513 30.5936 18.8681 30.4629 18.8439C30.4019 18.8325 30.3558 18.7417 30.3246 18.6869C30.4151 18.678 30.484 18.6691 30.5528 18.6601C30.5403 18.6265 30.5278 18.5928 30.5154 18.5591C30.4445 18.6017 30.3737 18.6443 30.2772 18.6869C24.9469 18.687 19.6423 18.687 14.3378 18.687C13.597 18.687 12.8561 18.6869 12.1153 18.6871C11.9942 18.6871 11.8731 18.6878 11.7519 18.6882C11.7496 18.6628 11.7472 18.6375 11.7632 18.576C11.7872 18.1194 11.7929 17.699 11.7986 17.2785Z" fill="#FD4C4D"/>
<path d="M11.7434 20.1143C11.7434 19.727 11.7434 19.3397 11.7698 18.9293C17.8726 18.9062 23.949 18.9065 30.0255 18.9061C30.3365 18.9061 30.6476 18.9011 30.9586 18.8984C30.9594 19.3783 30.9601 19.8581 30.9385 20.3663C30.665 20.4293 30.4139 20.4938 30.1627 20.4941C25.2333 20.5001 20.3039 20.4985 15.3745 20.4985C14.3045 20.4985 13.2344 20.5016 12.1645 20.4937C12.0603 20.493 11.9567 20.4252 11.8578 20.3668C11.9727 20.3231 12.0825 20.2819 12.1923 20.2818C18.0872 20.2787 23.982 20.2791 29.8769 20.2791C29.9591 20.2791 30.0495 20.2998 30.1213 20.2723C30.1917 20.2454 30.2431 20.169 30.2978 20.0925C30.1829 20.0487 30.073 20.0074 29.9631 20.0073C24.0613 20.0042 18.1595 20.0045 12.2578 20.0047C12.1755 20.0047 12.0907 19.9954 12.0119 20.0124C11.9718 20.0211 11.9422 20.0788 11.8873 20.1143C11.8257 20.1143 11.7845 20.1143 11.7434 20.1143Z" fill="white"/>
<path d="M21.3805 15.6002C21.3769 15.0743 21.3733 14.5485 21.4003 13.9969C23.6303 13.9689 25.8298 13.9655 28.0292 13.9651C29.0057 13.9649 29.9821 13.9707 30.9585 13.9737C30.9591 14.5 30.9596 15.0264 30.9339 15.5801C27.7775 15.6087 24.6472 15.61 21.5169 15.6107C21.4714 15.6107 21.4259 15.6038 21.3805 15.6002Z" fill="#FB4C4D"/>
<path d="M30.9594 13.9499C29.9822 13.9707 29.0057 13.9649 28.0293 13.9651C25.8298 13.9656 23.6304 13.9689 21.4083 13.973C21.3769 13.4347 21.3682 12.8946 21.3961 12.333C24.5202 12.3131 27.6076 12.3147 30.695 12.3163C30.7657 12.583 30.8564 12.8464 30.9013 13.1174C30.9452 13.3829 30.9425 13.6562 30.9594 13.9499Z" fill="white"/>
<path d="M30.6956 12.2955C27.6076 12.3145 24.5201 12.3129 21.4102 12.3102C21.376 11.7824 21.3643 11.2558 21.3534 10.7041C23.6268 10.6807 25.8995 10.6671 28.1719 10.691C29.1516 10.7012 29.9942 11.0488 30.5342 11.9307C30.6001 12.0382 30.6428 12.1599 30.6956 12.2955Z" fill="#FB4D4E"/>
<path d="M30.9613 16.2708C30.9614 16.5648 30.9615 16.8588 30.9357 17.1785C27.7606 17.2041 24.6114 17.2041 21.4623 17.1784C21.4622 16.8249 21.4622 16.4971 21.4622 16.1914C21.6711 16.2257 21.8087 16.2678 21.9464 16.268C24.7318 16.2718 27.5173 16.2708 30.3061 16.2899C30.402 16.4175 30.4762 16.4234 30.5466 16.2709C30.7011 16.2709 30.8312 16.2709 30.9613 16.2708Z" fill="white"/>
<path d="M30.3028 16.2708C27.5173 16.2708 24.7319 16.2718 21.9464 16.268C21.8087 16.2678 21.6711 16.2257 21.4623 16.1914C21.4623 16.4971 21.4623 16.8249 21.4507 17.1836C21.4243 17.2239 21.4135 17.2367 21.4082 17.2577C21.4097 17.2626 21.4133 17.2721 21.4133 17.2721C21.4016 17.2685 21.3898 17.265 21.362 17.2523C21.3495 16.7118 21.3529 16.1805 21.3684 15.6246C21.426 15.6038 21.4715 15.6107 21.5169 15.6107C24.6472 15.6099 27.7775 15.6087 30.9332 15.6052C30.9597 15.8087 30.9608 16.0144 30.9616 16.2454C30.8312 16.2708 30.7011 16.2709 30.5247 16.2709C30.4198 16.2709 30.3613 16.2709 30.3028 16.2708Z" fill="white"/>
<path d="M30.9599 18.8735C30.6476 18.9013 30.3366 18.9063 30.0256 18.9063C23.9491 18.9067 17.8726 18.9065 11.7707 18.9034C11.7446 18.8437 11.744 18.7868 11.7477 18.7091C11.873 18.6878 11.9942 18.6871 12.1153 18.6871C12.8561 18.687 13.5969 18.687 14.3377 18.687C19.6423 18.687 24.9468 18.687 30.2771 18.687C30.3029 18.6869 30.3029 18.6869 30.3029 18.6869C30.3557 18.7417 30.4019 18.8326 30.4629 18.8439C30.5936 18.8682 30.7319 18.8513 30.8863 18.8513C30.8863 18.7177 30.8863 18.6138 30.8863 18.4939C30.7884 18.476 30.694 18.4587 30.5996 18.4415C30.5946 18.4102 30.5896 18.3789 30.5847 18.3477C30.6735 18.3277 30.7624 18.3077 30.9047 18.2757C30.9047 18.034 30.9105 17.7377 30.8984 17.4421C30.8966 17.3987 30.8084 17.3245 30.7634 17.3268C30.7181 17.3292 30.6445 17.4058 30.6395 17.4555C30.6234 17.614 30.6335 17.7751 30.6335 17.9352C30.6045 17.9377 30.5755 17.9402 30.5464 17.9426C30.5385 17.8634 30.5246 17.7842 30.5236 17.7048C30.5186 17.2761 30.5715 17.3149 30.1191 17.3147C28.2802 17.3139 26.4414 17.316 24.6025 17.3137C23.551 17.3124 22.4996 17.3047 21.4307 17.286C21.4133 17.2721 21.4097 17.2626 21.4337 17.2608C22.9819 17.2592 24.506 17.2587 26.0301 17.2601C27.6728 17.2616 29.3155 17.2649 30.9581 17.2674C30.9591 17.7944 30.9601 18.3214 30.9599 18.8735Z" fill="#F5514A"/>
<path d="M30.3028 20.1145C30.2431 20.1692 30.1917 20.2456 30.1213 20.2725C30.0495 20.3001 29.9591 20.2793 29.8769 20.2793C23.982 20.2793 18.0872 20.2789 12.1924 20.282C12.0825 20.2821 11.9727 20.3233 11.8397 20.3671C11.7922 20.389 11.7679 20.3892 11.7437 20.3893C11.7434 20.313 11.7432 20.2366 11.7432 20.1374C11.7846 20.1145 11.8257 20.1145 11.9131 20.1145C18.0738 20.1145 24.1883 20.1145 30.3028 20.1145Z" fill="white"/>
<path d="M11.7434 20.4108C11.7679 20.3892 11.7922 20.3891 11.8346 20.3889C11.9567 20.4255 12.0604 20.4932 12.1645 20.494C13.2345 20.5018 14.3045 20.4988 15.3745 20.4988C20.3039 20.4988 25.2333 20.5003 30.1627 20.4944C30.4139 20.4941 30.665 20.4296 30.9379 20.3923C30.96 20.4331 30.9602 20.4766 30.9589 20.5418C30.7288 20.5606 30.5001 20.555 30.2715 20.555C24.1774 20.5545 18.0833 20.5545 11.9892 20.5546C11.9252 20.5546 11.8611 20.5567 11.7716 20.5594C11.7451 20.5181 11.7441 20.4752 11.7434 20.4108Z" fill="#F4EAE7"/>
<path d="M30.9593 17.2516C29.3154 17.2648 27.6728 17.2615 26.0301 17.26C24.506 17.2586 22.9819 17.2592 21.4322 17.2558C21.4134 17.2367 21.4242 17.2239 21.4506 17.2092C24.6114 17.2041 27.7606 17.2041 30.9354 17.2041C30.9609 17.2147 30.9608 17.2252 30.9593 17.2516Z" fill="#F5EAE8"/>
<path d="M30.303 24.6129C30.4308 24.367 30.5676 24.1376 30.7189 23.8943C30.6396 24.1212 30.549 24.3635 30.4471 24.6008C30.4367 24.6252 30.3587 24.6206 30.303 24.6129Z" fill="#EFEDED"/>
<path d="M11.7879 17.271C11.7929 17.699 11.7872 18.1194 11.7673 18.5573C11.7509 18.1535 11.7488 17.7322 11.7491 17.2852C11.7516 17.2596 11.7773 17.2635 11.7879 17.271Z" fill="#F5514A"/>
<path d="M11.9707 23.8965C11.9829 23.8968 11.9952 23.9122 12.0071 23.9427C11.9948 23.9424 11.9828 23.927 11.9707 23.8965Z" fill="#EFEDED"/>
<path d="M12.0231 24.017C12.0398 24.0101 12.0527 24.0223 12.0605 24.0542C12.0439 24.0603 12.0318 24.0478 12.0231 24.017Z" fill="#EFEDED"/>
<path d="M17.7251 12.3143C17.7104 12.3776 17.708 12.4352 17.6784 12.4597C17.4195 12.6731 17.319 12.9221 17.3919 13.2679C17.4339 13.4669 17.2542 13.5765 17.0725 13.4678C16.8 13.3049 16.5643 13.3097 16.2924 13.4703C16.101 13.5834 15.9341 13.4661 15.9766 13.2375C16.0343 12.9273 15.9641 12.7085 15.7265 12.498C15.5546 12.3456 15.6359 12.1251 15.8661 12.1042C16.1718 12.0766 16.3606 11.9564 16.4759 11.6601C16.5633 11.4359 16.8104 11.4434 16.9016 11.6736C17.0142 11.9578 17.1944 12.0844 17.4926 12.105C17.5739 12.1106 17.6476 12.2275 17.7251 12.3143Z" fill="#F3FDFC"/>
<path d="M13.2329 12.7663C13.132 12.6576 13.0311 12.5749 12.9571 12.4727C12.837 12.3068 12.9005 12.1207 13.1002 12.1066C13.4178 12.0842 13.6124 11.9547 13.7367 11.6533C13.826 11.4368 14.0626 11.4403 14.1475 11.661C14.2631 11.9613 14.4591 12.0739 14.7622 12.1065C15.0023 12.1324 15.0658 12.3232 14.8883 12.4944C14.6728 12.7023 14.5856 12.9093 14.6485 13.2164C14.7008 13.4714 14.5272 13.5855 14.3005 13.4563C14.0434 13.3099 13.8267 13.2939 13.571 13.4641C13.3726 13.5962 13.2203 13.4851 13.2225 13.2402C13.2238 13.0879 13.237 12.9358 13.2329 12.7663Z" fill="#F3FDFD"/>
<path d="M19.0854 13.4545C18.7956 13.5446 18.6671 13.472 18.7215 13.2124C18.7861 12.9041 18.6923 12.6997 18.4797 12.4919C18.3034 12.3197 18.3682 12.1311 18.6112 12.1062C18.9167 12.075 19.1077 11.9559 19.2237 11.658C19.3089 11.4393 19.5493 11.4383 19.6342 11.6567C19.7548 11.9669 19.9607 12.0791 20.2722 12.1065C20.4727 12.1242 20.5539 12.3327 20.405 12.4676C20.157 12.6925 20.0722 12.925 20.1387 13.2586C20.1837 13.4844 19.9942 13.5847 19.7811 13.4565C19.5482 13.3164 19.3331 13.2702 19.0854 13.4545Z" fill="#F3FDFC"/>
<path d="M20.1566 14.8361C20.2728 14.8952 20.4096 14.9315 20.4481 15.0137C20.4775 15.0764 20.4037 15.2175 20.3379 15.2885C20.1778 15.4612 20.0424 15.6183 20.1326 15.8853C20.1632 15.9757 20.1238 16.1437 20.0548 16.198C19.9915 16.2477 19.8198 16.2295 19.7405 16.1756C19.5176 16.024 19.331 16.0676 19.1118 16.1844C18.8177 16.3413 18.6566 16.2286 18.7263 15.9001C18.7815 15.64 18.7197 15.4718 18.5276 15.3045C18.4533 15.2399 18.3896 15.0825 18.4185 15.0027C18.4474 14.9229 18.5942 14.8503 18.6961 14.8397C18.9403 14.8143 19.0918 14.7113 19.1846 14.479C19.2219 14.3853 19.3422 14.2686 19.4274 14.2664C19.5096 14.2643 19.6337 14.3805 19.6715 14.4726C19.7615 14.6915 19.9008 14.8149 20.1566 14.8361Z" fill="#F2FDFC"/>
<path d="M17.6723 15.2146C17.4314 15.4221 17.3095 15.6293 17.3886 15.9598C17.4526 16.2276 17.2695 16.3393 17.0223 16.1925C16.7808 16.0491 16.5826 16.0553 16.3432 16.1948C16.0933 16.3403 15.9235 16.2202 15.9808 15.927C16.0346 15.6518 15.9679 15.4717 15.7647 15.2853C15.5431 15.082 15.6196 14.8801 15.9213 14.8415C16.1676 14.8099 16.3451 14.7296 16.4373 14.4763C16.4713 14.383 16.595 14.2658 16.6801 14.2639C16.7635 14.2621 16.894 14.3772 16.9267 14.4686C17.0219 14.7351 17.2128 14.8183 17.4668 14.8413C17.688 14.8613 17.7807 14.9754 17.6723 15.2146Z" fill="#F1FCFC"/>
<path d="M14.4344 16.2718C14.416 16.2667 14.3976 16.2616 14.3527 16.2439C14.2925 16.2203 14.2587 16.2092 14.225 16.1981C14.225 16.1981 14.2111 16.2075 14.2087 16.1894C14.1549 16.1476 14.1034 16.1239 14.052 16.1002C14.052 16.1002 14.0496 16.1049 14.0396 16.0871C13.8886 16.1172 13.7476 16.1652 13.6066 16.2132C13.6066 16.2132 13.6096 16.2158 13.5925 16.2145C13.5487 16.231 13.522 16.2488 13.4954 16.2665C13.4954 16.2665 13.4996 16.2697 13.4783 16.264C13.1694 16.2184 13.2298 16.0133 13.2376 15.8202C13.242 15.7107 13.2032 15.5994 13.1839 15.489C13.1839 15.489 13.1761 15.502 13.1767 15.4785C13.1264 15.41 13.0756 15.3652 13.0248 15.3204C13.0248 15.3204 13.0207 15.3203 13.0173 15.3067C12.9972 15.2802 12.9805 15.2672 12.9638 15.2542C12.9638 15.2542 12.9611 15.2378 12.9498 15.2135C12.8441 14.9608 12.9708 14.887 13.1668 14.8418C13.3273 14.8049 13.5431 14.8637 13.6039 14.623C13.6039 14.623 13.6145 14.6041 13.6309 14.5817C13.8325 14.2097 13.8705 14.1945 14.1476 14.3591C14.1476 14.3591 14.1553 14.3509 14.152 14.3706C14.1678 14.4156 14.1869 14.441 14.2061 14.4665C14.2061 14.4665 14.2106 14.4608 14.2083 14.479C14.2247 14.5232 14.2434 14.5493 14.262 14.5754C14.262 14.5754 14.2618 14.5688 14.2627 14.5923C14.3551 14.6843 14.4382 14.7733 14.5405 14.816C14.6599 14.8658 14.7961 14.8752 14.925 14.9022C14.925 14.9022 14.9276 14.8984 14.9295 14.9189C15.0284 15.1011 14.9448 15.2135 14.825 15.3107C14.6422 15.4591 14.5509 15.6246 14.6374 15.8725C14.7006 16.0536 14.647 16.2124 14.4344 16.2718Z" fill="#F3FDFC"/>
<path d="M14.4468 16.2864C14.6471 16.2124 14.7006 16.0536 14.6374 15.8725C14.5509 15.6247 14.6422 15.4592 14.8251 15.3107C14.9448 15.2135 15.0285 15.1011 14.9276 14.9202C15.1283 15.0406 15.0734 15.2146 14.9393 15.342C14.7504 15.5216 14.6692 15.6896 14.744 15.9623C14.7872 16.1195 14.7303 16.3365 14.4468 16.2864Z" fill="#40B0E5"/>
<path d="M13.1795 15.5139C13.2033 15.5994 13.2421 15.7106 13.2376 15.8201C13.2298 16.0133 13.1694 16.2183 13.4773 16.2615C13.4344 16.2967 13.3713 16.3285 13.3081 16.3603C13.2457 16.2284 13.1524 16.1015 13.1296 15.9631C13.1073 15.8278 13.157 15.6808 13.1795 15.5139Z" fill="#40B0E5"/>
<path d="M13.586 14.6316C13.5432 14.8636 13.3274 14.8049 13.1669 14.8418C12.9708 14.8869 12.8441 14.9608 12.9433 15.2082C12.8987 15.1669 12.7955 15.0808 12.8098 15.0507C12.8557 14.9543 12.9295 14.8439 13.0212 14.8025C13.1928 14.7248 13.3846 14.6918 13.586 14.6316Z" fill="#40B0E5"/>
<path d="M14.9232 14.8817C14.7962 14.8752 14.6599 14.8658 14.5406 14.8159C14.4382 14.7732 14.3552 14.6843 14.2619 14.5955C14.4806 14.6706 14.701 14.766 14.9232 14.8817Z" fill="#40B0E5"/>
<path d="M14.1493 14.3375C13.8705 14.1943 13.8326 14.2095 13.6319 14.5707C13.5813 14.3905 13.6649 14.2429 13.84 14.2027C13.9302 14.1819 14.0465 14.2747 14.1493 14.3375Z" fill="#40B0E5"/>
<path d="M13.6285 16.2145C13.7477 16.1651 13.8887 16.117 14.0419 16.0854C13.9195 16.1399 13.7849 16.1779 13.6285 16.2145Z" fill="#40B0E5"/>
<path d="M13.0202 15.3408C13.0758 15.3654 13.1267 15.4103 13.1813 15.4724C13.1285 15.4467 13.072 15.404 13.0202 15.3408Z" fill="#40B0E5"/>
<path d="M14.0586 16.1179C14.1036 16.124 14.1551 16.1478 14.2164 16.1856C14.1725 16.1783 14.1188 16.1569 14.0586 16.1179Z" fill="#40B0E5"/>
<path d="M14.2316 16.2168C14.2589 16.209 14.2927 16.2201 14.3387 16.2449C14.3132 16.251 14.2757 16.2434 14.2316 16.2168Z" fill="#40B0E5"/>
<path d="M13.5126 16.2677C13.5221 16.2488 13.5488 16.2311 13.5921 16.2126C13.5824 16.2309 13.5562 16.2498 13.5126 16.2677Z" fill="#40B0E5"/>
<path d="M14.2638 14.5579C14.2436 14.5495 14.2249 14.5233 14.2051 14.4805C14.2245 14.4892 14.245 14.5147 14.2638 14.5579Z" fill="#40B0E5"/>
<path d="M14.2079 14.4488C14.1871 14.4411 14.1679 14.4156 14.1473 14.3735C14.1671 14.3816 14.1883 14.4063 14.2079 14.4488Z" fill="#40B0E5"/>
<path d="M12.9651 15.2716C12.9805 15.2672 12.9971 15.2801 13.0178 15.3085C13.0033 15.3123 12.9848 15.3007 12.9651 15.2716Z" fill="#40B0E5"/>
<path d="M30.3028 18.6869C30.3736 18.6443 30.4444 18.6017 30.5153 18.5591C30.5277 18.5928 30.5402 18.6264 30.5527 18.6601C30.4839 18.669 30.415 18.6779 30.3245 18.6868C30.3028 18.6868 30.3028 18.6869 30.3028 18.6869Z" fill="#F5514A"/>
<path d="M30.2979 20.0928C24.1884 20.1146 18.0739 20.1146 11.9337 20.1146C11.9423 20.079 11.9718 20.0214 12.012 20.0127C12.0908 19.9957 12.1756 20.005 12.2579 20.005C18.1596 20.0048 24.0614 20.0045 29.9632 20.0076C30.0731 20.0076 30.183 20.049 30.2979 20.0928Z" fill="white"/>
<path d="M30.3061 16.2897C30.3613 16.2707 30.4198 16.2707 30.5003 16.2708C30.4762 16.4232 30.402 16.4173 30.3061 16.2897Z" fill="#F5EAE8"/>
</g>
<path d="M34.4063 24.2124V11.6148H42.0728V12.8746H35.666V16.8338H40.966V18.0936H35.666V22.9526H42.0728V24.2124H34.4063ZM44.1779 24.2124V11.6148H45.5456L52.1954 21.9358V11.6148H53.4551V24.2124H52.0964L45.4376 13.8914V24.2124H44.1779Z" fill="black"/>
<rect x="1.2289" y="0.360615" width="64.5554" height="35.7034" rx="7.2123" stroke="url(#paint0_linear_248_2)" stroke-width="0.72123"/>
<defs>
<linearGradient id="paint0_linear_248_2" x1="5.31474" y1="9.12511" x2="41.6722" y2="46.7461" gradientUnits="userSpaceOnUse">
<stop offset="0.29" stop-color="#F56D50"/>
<stop offset="0.99" stop-color="#F57438"/>
</linearGradient>
<clipPath id="clip0_248_2">
<rect width="19.4761" height="15.0871" fill="white" transform="translate(11.6867 10.6687)"/>
</clipPath>
</defs>
</svg>
