<svg width="65" height="37" viewBox="0 0 65 37" fill="none" xmlns="http://www.w3.org/2000/svg">
<rect x="1.23403" y="0.360615" width="62.4707" height="35.7034" rx="7.2123" fill="white"/>
<g clip-path="url(#clip0_243_111)">
<path d="M11.7292 21.3013C11.7061 20.1427 11.7004 19.0021 11.6988 17.8615C11.6975 16.984 11.7013 16.1065 11.705 15.2046C11.8402 15.0594 12.0054 15.0933 12.1598 15.0931C14.1095 15.0906 16.0592 15.0915 18.0089 15.0915C21.8732 15.0915 25.7375 15.0911 29.6017 15.0927C29.7666 15.0928 29.9368 15.0644 30.1126 15.1661C30.1353 16.6395 30.139 18.0952 30.1411 19.5508C30.1419 20.112 30.139 20.6732 30.1335 21.2582C30.008 21.4036 29.8514 21.3746 29.7055 21.3749C28.4235 21.3777 27.1414 21.3764 25.8594 21.3764C21.3195 21.3765 16.7796 21.3768 12.2398 21.3752C12.0749 21.3752 11.9047 21.4034 11.7292 21.3013Z" fill="#FEC704"/>
<path d="M30.1368 15.159C29.7812 15.1826 29.4302 15.1802 29.0792 15.1802C23.3046 15.18 17.53 15.1801 11.7313 15.1802C11.6932 14.5053 11.6616 13.8277 11.7911 13.1609C12.004 12.0652 12.9079 11.2637 14.0162 11.1686C14.2692 11.1469 14.5234 11.1242 14.777 11.1242C18.9445 11.1231 23.112 11.1239 27.2795 11.129C28.0248 11.13 28.7202 11.2881 29.2954 11.8127C29.9126 12.3756 30.1099 13.1014 30.1336 13.897C30.1458 14.3091 30.1394 14.7217 30.1368 15.159Z" fill="#FE4C4C"/>
<path d="M11.7048 21.3082C12.7804 21.2847 13.8507 21.2874 14.9211 21.2874C19.9746 21.2873 25.0282 21.2864 30.1055 21.2839C30.1379 22.0609 30.2186 22.8493 29.9646 23.6042C29.63 24.5984 28.9077 25.1426 27.8808 25.2942C27.533 25.3455 27.1813 25.3475 26.8302 25.3475C22.8988 25.3478 18.9673 25.3488 15.0359 25.3467C14.4132 25.3463 13.7872 25.3531 13.2031 25.0812C12.3333 24.6762 11.8654 23.984 11.7479 23.042C11.6771 22.474 11.7031 21.9031 11.7048 21.3082Z" fill="#FE4C4C"/>
<path d="M14.7579 17.4965C14.7581 17.2333 14.7562 16.9963 14.7588 16.7594C14.7624 16.4425 14.9212 16.2126 15.2312 16.2006C15.949 16.1728 16.6685 16.1621 17.3869 16.2071C17.6624 16.2244 17.7715 16.3922 17.8245 16.6437C17.8781 16.8979 17.8587 17.1509 17.8543 17.4036C17.845 17.9377 17.9009 18.4742 17.8171 19.0057C17.7048 19.7179 17.1435 20.2305 16.3523 20.2716C15.7151 20.3047 15.1484 19.9562 14.861 19.2716C14.7042 18.8983 14.7741 18.5107 14.7594 18.1283C14.7516 17.9268 14.758 17.7247 14.7579 17.4965Z" fill="#FE4E49"/>
<path d="M13.2319 17.5011C13.232 17.3792 13.2249 17.2821 13.2334 17.1865C13.2592 16.8978 13.4773 16.7016 13.7593 16.7064C14.0352 16.711 14.2495 16.8935 14.2552 17.1795C14.2692 17.8806 14.2693 18.5821 14.2594 19.2832C14.2555 19.5639 14.0353 19.7578 13.7654 19.7629C13.4722 19.7684 13.2433 19.5711 13.236 19.2623C13.2223 18.684 13.232 18.1052 13.2319 17.5011Z" fill="#FDFCEE"/>
<path d="M19.3902 17.9181C19.3893 18.3739 19.3943 18.8036 19.3856 19.233C19.3791 19.5549 19.1641 19.7596 18.8558 19.7587C18.5679 19.7578 18.3567 19.5516 18.3525 19.2315C18.3436 18.5566 18.345 17.8815 18.3524 17.2066C18.3555 16.9198 18.5802 16.71 18.8564 16.7075C19.1576 16.7049 19.3712 16.9004 19.3857 17.2081C19.3964 17.4356 19.3893 17.6639 19.3902 17.9181Z" fill="#FEFCEF"/>
</g>
<path d="M33.3267 24.2122V11.6145H40.9933V12.8743H34.5865V16.8336H39.8865V18.0933H34.5865V22.9524H40.9933V24.2122H33.3267ZM47.3754 24.4461C46.7036 24.4461 46.0527 24.3411 45.4228 24.1312C44.7989 23.9212 44.253 23.6213 43.7851 23.2313C43.3172 22.8414 42.9873 22.3765 42.7953 21.8366L43.9741 21.3957C44.1061 21.7676 44.346 22.0886 44.6939 22.3585C45.0479 22.6225 45.4588 22.8264 45.9267 22.9704C46.4006 23.1144 46.8835 23.1864 47.3754 23.1864C47.9513 23.1864 48.4882 23.0904 48.9861 22.8984C49.484 22.7064 49.886 22.4395 50.1919 22.0976C50.4978 21.7496 50.6508 21.3417 50.6508 20.8738C50.6508 20.3999 50.4918 20.01 50.1739 19.704C49.856 19.3981 49.445 19.1581 48.9411 18.9841C48.4432 18.8042 47.9213 18.6662 47.3754 18.5702C46.5176 18.4203 45.7467 18.2163 45.0629 17.9583C44.385 17.7004 43.8481 17.3375 43.4522 16.8696C43.0563 16.3956 42.8583 15.7718 42.8583 14.9979C42.8583 14.272 43.0683 13.6422 43.4882 13.1083C43.9081 12.5744 44.46 12.1604 45.1439 11.8665C45.8337 11.5726 46.5776 11.4256 47.3754 11.4256C48.0293 11.4256 48.6682 11.5276 49.2921 11.7315C49.916 11.9355 50.4649 12.2324 50.9388 12.6224C51.4187 13.0123 51.7636 13.4892 51.9736 14.0531L50.7768 14.485C50.6448 14.1071 50.4019 13.7861 50.0479 13.5222C49.7 13.2522 49.2921 13.0483 48.8242 12.9103C48.3563 12.7663 47.8733 12.6943 47.3754 12.6943C46.8055 12.6883 46.2716 12.7843 45.7737 12.9823C45.2818 13.1743 44.8829 13.4442 44.577 13.7921C44.271 14.1341 44.1181 14.536 44.1181 14.9979C44.1181 15.5378 44.259 15.9547 44.541 16.2487C44.8289 16.5366 45.2188 16.7526 45.7108 16.8965C46.2027 17.0405 46.7576 17.1695 47.3754 17.2835C48.1793 17.4214 48.9261 17.6374 49.616 17.9313C50.3059 18.2193 50.8608 18.6062 51.2807 19.0921C51.7006 19.572 51.9106 20.1659 51.9106 20.8738C51.9106 21.5937 51.7006 22.2235 51.2807 22.7634C50.8608 23.2973 50.3059 23.7113 49.616 24.0052C48.9321 24.2991 48.1853 24.4461 47.3754 24.4461Z" fill="black"/>
<rect x="1.23403" y="0.360615" width="62.4707" height="35.7034" rx="7.2123" stroke="url(#paint0_linear_243_111)" stroke-width="0.72123"/>
<defs>
<linearGradient id="paint0_linear_243_111" x1="5.17786" y1="9.12511" x2="41.5565" y2="45.5658" gradientUnits="userSpaceOnUse">
<stop offset="0.29" stop-color="#F56D50"/>
<stop offset="0.99" stop-color="#F57438"/>
</linearGradient>
<clipPath id="clip0_243_111">
<rect width="18.7111" height="14.6435" fill="white" transform="translate(11.6919 10.8906)"/>
</clipPath>
</defs>
</svg>
